<svg width="29" height="28" viewBox="0 0 29 28" fill="none" xmlns="http://www.w3.org/2000/svg">
<g clip-path="url(#clip0_572_2345)">
<path d="M16.7734 3.51417V1.76581C16.7734 1.61487 16.8959 1.49237 17.0469 1.49237H24.9016C25.0526 1.49237 25.1751 1.61487 25.1751 1.76581V3.51417" stroke="#278FD9" stroke-width="0.820312" stroke-miterlimit="10" stroke-linecap="round" stroke-linejoin="round"/>
<path d="M14.2539 17.9085V13.434" stroke="#278FD9" stroke-width="0.820312" stroke-miterlimit="10" stroke-linecap="round" stroke-linejoin="round"/>
<path d="M27.694 22.1396V24.582C27.694 24.7329 27.5715 24.8554 27.4205 24.8554H16.3359" stroke="#278FD9" stroke-width="0.820312" stroke-miterlimit="10" stroke-linecap="round" stroke-linejoin="round"/>
<path d="M14.2539 6.11783V3.7876C14.2539 3.63666 14.3759 3.51416 14.5273 3.51416H27.421C27.572 3.51416 27.6945 3.63666 27.6945 3.7876V20.2256" stroke="#278FD9" stroke-width="0.820312" stroke-miterlimit="10" stroke-linecap="round" stroke-linejoin="round"/>
<path d="M9.10949 21.0497L9.88934 26.5076H6.96191L7.74176 21.0497" stroke="#278FD9" stroke-width="0.820312" stroke-miterlimit="10" stroke-linecap="round" stroke-linejoin="round"/>
<path d="M10.3398 17.1702L14.9336 18.037C15.7473 18.1906 16.3363 18.9016 16.3363 19.7295V26.2702C16.3363 26.4009 16.2302 26.5075 16.0989 26.5075H0.751992C0.620742 26.5075 0.514648 26.4009 0.514648 26.2702V19.7295C0.514648 18.9016 1.10363 18.1906 1.91738 18.037L2.28707 17.967" stroke="#278FD9" stroke-width="0.820312" stroke-miterlimit="10" stroke-linecap="round" stroke-linejoin="round"/>
<path d="M6.51133 17.1702L4.16797 17.612" stroke="#278FD9" stroke-width="0.820312" stroke-miterlimit="10" stroke-linecap="round" stroke-linejoin="round"/>
<path d="M11.9411 17.472L11.3904 20.1867C11.3363 20.4536 11.0169 20.5657 10.808 20.3918L9.80176 19.554" stroke="#278FD9" stroke-width="0.820312" stroke-miterlimit="10" stroke-linecap="round" stroke-linejoin="round"/>
<path d="M7.61543 19.1138L6.17223 20.3705C5.96441 20.5521 5.63793 20.441 5.58379 20.1709L5.03418 17.4485" stroke="#278FD9" stroke-width="0.820312" stroke-miterlimit="10" stroke-linecap="round" stroke-linejoin="round"/>
<path d="M2.24414 11.6429V6.82931C2.24414 5.90127 2.78391 5.05798 3.62609 4.66916L6.8275 3.1915C7.95516 2.67088 9.28953 2.94377 10.1224 3.8647L10.899 4.7233C10.9662 4.79767 11.0614 4.83978 11.162 4.83978H12.2733C12.527 4.83978 12.7731 4.92619 12.9716 5.08533L14.1884 6.06041C14.4531 6.27205 14.6073 6.59252 14.6073 6.93158V11.6429" stroke="#278FD9" stroke-width="0.820312" stroke-miterlimit="10" stroke-linecap="round" stroke-linejoin="round"/>
<path d="M6.51074 16.1754V17.3873C6.51074 18.1513 6.95754 18.8103 7.60449 19.1176" stroke="#278FD9" stroke-width="0.820312" stroke-miterlimit="10" stroke-linecap="round" stroke-linejoin="round"/>
<path d="M10.3395 16.1754V17.3873C10.3395 18.148 9.89648 18.8048 9.25391 19.1138" stroke="#278FD9" stroke-width="0.820312" stroke-miterlimit="10" stroke-linecap="round" stroke-linejoin="round"/>
<path d="M3.82695 11.1617H3.11273C2.54672 11.1617 2.08789 11.6205 2.08789 12.1865V12.548C2.08789 13.114 2.54672 13.5729 3.11273 13.5729H4.10531" stroke="#278FD9" stroke-width="0.820312" stroke-miterlimit="10" stroke-linecap="round" stroke-linejoin="round"/>
<path d="M13.0235 11.1617H13.7377C14.3037 11.1617 14.7625 11.6205 14.7625 12.1865V12.548C14.7625 13.114 14.3037 13.5729 13.7377 13.5729H12.7451" stroke="#278FD9" stroke-width="0.820312" stroke-miterlimit="10" stroke-linecap="round" stroke-linejoin="round"/>
<path d="M12.876 7.52039L11.5062 6.57834C11.3153 6.44692 11.0549 6.48203 10.9057 6.65977L10.4575 7.19128C10.0288 7.7002 9.3974 7.99392 8.73213 7.99392H4.66655C4.20296 7.99392 3.82715 8.36974 3.82715 8.83332V11.9939C3.82715 14.5335 5.88581 16.5921 8.42533 16.5921C10.9649 16.5921 13.0235 14.5335 13.0235 11.9939V7.8006C13.0235 7.68871 12.9683 7.58388 12.876 7.52039Z" stroke="#278FD9" stroke-width="0.820312" stroke-miterlimit="10" stroke-linecap="round" stroke-linejoin="round"/>
<path d="M13.6543 26.5073V22.0957" stroke="#278FD9" stroke-width="0.820312" stroke-miterlimit="10" stroke-linecap="round" stroke-linejoin="round"/>
<path d="M3.19727 26.5073V22.0957" stroke="#278FD9" stroke-width="0.820312" stroke-miterlimit="10" stroke-linecap="round" stroke-linejoin="round"/>
<path d="M10.3252 11.3627V11.9317" stroke="#278FD9" stroke-width="0.820312" stroke-miterlimit="10" stroke-linecap="round" stroke-linejoin="round"/>
<path d="M9.64551 9.92065C10.0276 9.67089 10.7887 9.59193 11.1699 10.0183" stroke="#278FD9" stroke-width="0.820312" stroke-miterlimit="10" stroke-linecap="round" stroke-linejoin="round"/>
<path d="M6.52637 11.3627V11.9317" stroke="#278FD9" stroke-width="0.820312" stroke-miterlimit="10" stroke-linecap="round" stroke-linejoin="round"/>
<path d="M7.206 9.92065C6.82395 9.67089 6.06281 9.59193 5.68164 10.0183" stroke="#278FD9" stroke-width="0.820312" stroke-miterlimit="10" stroke-linecap="round" stroke-linejoin="round"/>
<path d="M7.38477 13.623C7.62905 13.8866 8.00432 14.0552 8.42519 14.0552C8.84612 14.0552 9.22134 13.8866 9.46562 13.623" stroke="#278FD9" stroke-width="0.820312" stroke-miterlimit="10" stroke-linecap="round" stroke-linejoin="round"/>
<path d="M9.81373 19.5638L9.23163 20.8964C9.1712 21.0345 9.03514 21.1234 8.88486 21.1234H7.96633C7.81605 21.1234 7.67998 21.0345 7.61955 20.8964L7.05469 19.6026L7.60922 19.1139H9.26603L9.81373 19.5638Z" stroke="#278FD9" stroke-width="0.820312" stroke-miterlimit="10" stroke-linecap="round" stroke-linejoin="round"/>
<path d="M19.2822 20.1333V24.8555H22.6649V20.1333C22.6649 19.9823 22.5425 19.8599 22.3915 19.8599H19.5557C19.4046 19.8599 19.2822 19.9823 19.2822 20.1333Z" stroke="#278FD9" stroke-width="0.820312" stroke-miterlimit="10" stroke-linecap="round" stroke-linejoin="round"/>
<path d="M16.3545 6.85645V8.22527C16.3545 8.37627 16.4769 8.49871 16.6279 8.49871H17.9968C18.1477 8.49871 18.2702 8.37627 18.2702 8.22527V6.85645C18.2702 6.70545 18.1477 6.58301 17.9968 6.58301H16.6279C16.4769 6.58301 16.3545 6.7054 16.3545 6.85645Z" stroke="#278FD9" stroke-width="0.820312" stroke-miterlimit="10" stroke-linecap="round" stroke-linejoin="round"/>
<path d="M20.0166 6.85645V8.22527C20.0166 8.37627 20.139 8.49871 20.29 8.49871H21.6589C21.8099 8.49871 21.9323 8.37627 21.9323 8.22527V6.85645C21.9323 6.70545 21.8099 6.58301 21.6589 6.58301H20.29C20.139 6.58301 20.0166 6.7054 20.0166 6.85645Z" stroke="#278FD9" stroke-width="0.820312" stroke-miterlimit="10" stroke-linecap="round" stroke-linejoin="round"/>
<path d="M23.6787 6.85645V8.22527C23.6787 8.37627 23.8012 8.49871 23.9521 8.49871H25.321C25.472 8.49871 25.5944 8.37627 25.5944 8.22527V6.85645C25.5944 6.70545 25.472 6.58301 25.321 6.58301H23.9521C23.8011 6.58301 23.6787 6.7054 23.6787 6.85645Z" stroke="#278FD9" stroke-width="0.820312" stroke-miterlimit="10" stroke-linecap="round" stroke-linejoin="round"/>
<path d="M16.3545 11.0027V12.3715C16.3545 12.5225 16.4769 12.645 16.6279 12.645H17.9968C18.1477 12.645 18.2702 12.5225 18.2702 12.3715V11.0027C18.2702 10.8517 18.1477 10.7292 17.9968 10.7292H16.6279C16.4769 10.7292 16.3545 10.8517 16.3545 11.0027Z" stroke="#278FD9" stroke-width="0.820312" stroke-miterlimit="10" stroke-linecap="round" stroke-linejoin="round"/>
<path d="M20.0166 11.0027V12.3715C20.0166 12.5225 20.139 12.645 20.29 12.645H21.6589C21.8099 12.645 21.9323 12.5225 21.9323 12.3715V11.0027C21.9323 10.8517 21.8099 10.7292 21.6589 10.7292H20.29C20.139 10.7292 20.0166 10.8517 20.0166 11.0027Z" stroke="#278FD9" stroke-width="0.820312" stroke-miterlimit="10" stroke-linecap="round" stroke-linejoin="round"/>
<path d="M23.6787 11.0027V12.3715C23.6787 12.5225 23.8012 12.645 23.9521 12.645H25.321C25.472 12.645 25.5944 12.5225 25.5944 12.3715V11.0027C25.5944 10.8517 25.472 10.7292 25.321 10.7292H23.9521C23.8011 10.7292 23.6787 10.8517 23.6787 11.0027Z" stroke="#278FD9" stroke-width="0.820312" stroke-miterlimit="10" stroke-linecap="round" stroke-linejoin="round"/>
<path d="M16.3545 15.149V16.5178C16.3545 16.6688 16.4769 16.7913 16.6279 16.7913H17.9968C18.1477 16.7913 18.2702 16.6688 18.2702 16.5178V15.149C18.2702 14.998 18.1477 14.8755 17.9968 14.8755H16.6279C16.4769 14.8755 16.3545 14.9979 16.3545 15.149Z" stroke="#278FD9" stroke-width="0.820312" stroke-miterlimit="10" stroke-linecap="round" stroke-linejoin="round"/>
<path d="M20.0166 15.149V16.5178C20.0166 16.6688 20.139 16.7913 20.29 16.7913H21.6589C21.8099 16.7913 21.9323 16.6688 21.9323 16.5178V15.149C21.9323 14.998 21.8099 14.8755 21.6589 14.8755H20.29C20.139 14.8755 20.0166 14.9979 20.0166 15.149Z" stroke="#278FD9" stroke-width="0.820312" stroke-miterlimit="10" stroke-linecap="round" stroke-linejoin="round"/>
<path d="M23.6787 15.149V16.5178C23.6787 16.6688 23.8012 16.7913 23.9521 16.7913H25.321C25.472 16.7913 25.5944 16.6688 25.5944 16.5178V15.149C25.5944 14.998 25.472 14.8755 25.321 14.8755H23.9521C23.8011 14.8755 23.6787 14.9979 23.6787 15.149Z" stroke="#278FD9" stroke-width="0.820312" stroke-miterlimit="10" stroke-linecap="round" stroke-linejoin="round"/>
</g>
<defs>
<clipPath id="clip0_572_2345">
<rect width="28" height="28" fill="white" transform="translate(0.104492 -6.10352e-05)"/>
</clipPath>
</defs>
</svg>
