<svg width="29" height="28" viewBox="0 0 29 28" fill="none" xmlns="http://www.w3.org/2000/svg">
<g clip-path="url(#clip0_572_2265)">
<path d="M23.8015 12.9998C23.4402 12.6966 22.9226 12.6765 22.5407 12.9517L22.1124 13.2606C22.034 13.0703 21.898 12.9053 21.716 12.789C21.3835 12.5768 20.9674 12.572 20.6292 12.7789C20.4525 12.8874 20.3142 13.044 20.2464 13.1989L19.2739 14.9415C19.1439 14.847 18.9724 14.8251 18.8237 14.899L16.4371 16.0895L12.7044 11.1125C12.651 11.0411 12.577 10.9878 12.493 10.9598L10.8047 10.3971C11.2186 10.2606 11.5822 9.99246 11.8307 9.61971C12.1675 9.11614 12.2537 8.47214 12.0617 7.89683L11.9418 7.53633C11.9042 7.42302 11.8849 7.30577 11.8849 7.18721V3.92083C12.9179 2.91633 13.1773 1.46952 13.1913 1.38421C13.2127 1.25733 13.1769 1.12783 13.0933 1.02939C13.0102 0.931393 12.8881 0.874956 12.7595 0.874956H7.9518C7.58517 0.872331 4.32186 0.867956 3.14848 2.02864C2.85317 2.32089 2.69698 2.67833 2.69698 3.06246C2.69698 5.73602 3.98236 9.19533 4.03705 9.34146C4.10136 9.51208 4.26498 9.62496 4.44698 9.62496C4.4518 9.62496 4.45661 9.62496 4.46142 9.62452C4.58436 9.62058 4.6933 9.56196 4.77117 9.47402L5.36048 10.2598L2.62217 10.951C2.4463 10.9956 2.31592 11.1444 2.29492 11.3251L0.982422 22.7001C0.967985 22.8239 1.00736 22.9477 1.09048 23.0409C1.17317 23.1341 1.29217 23.1875 1.41686 23.1875V24.5C1.41686 25.2236 2.00573 25.8125 2.72936 25.8125H4.04186V27.125H4.91686V24.0625H6.19698C6.43892 24.0625 6.63448 23.8669 6.63448 23.625V21.4375H9.29186V23.625C9.29186 23.8669 9.48742 24.0625 9.72936 24.0625H10.6044V27.125H11.4794V24.0625H11.8845C12.1264 24.0625 12.322 23.8669 12.322 23.625V16.8L15.5464 19.9981C15.6697 20.1215 15.8561 20.1582 16.0175 20.0935L21.1726 18.0236C21.3034 17.9711 21.4005 17.8587 21.4342 17.7222C21.45 17.6575 21.45 17.5914 21.4364 17.528C22.115 17.1889 23.0123 16.614 23.4279 16.1214L24.46 14.8995C24.6367 14.6899 24.722 14.4248 24.6989 14.1518C24.6757 13.8788 24.5479 13.6311 24.3388 13.4544L23.8015 12.9998ZM11.111 7.81283L11.2313 8.17377C11.338 8.49402 11.2899 8.85321 11.1022 9.13364C10.8979 9.44164 10.5549 9.62496 10.1852 9.62496H5.97823L5.1168 8.47652L6.0863 5.24471C6.78498 5.22764 8.49036 5.14977 10.2202 4.80371C10.5107 4.74552 10.7715 4.65321 11.0095 4.53858V7.18721C11.0095 7.39983 11.0436 7.61027 11.111 7.81283ZM8.35823 13.9492L7.94698 14.7717L7.53573 13.9492L7.94698 12.3038L8.35823 13.9492ZM3.57198 3.06246C3.57198 2.96708 3.59211 2.82096 3.76361 2.65121C4.51611 1.90702 6.89392 1.74952 7.86123 1.74952C7.89055 1.74952 7.91986 1.74952 7.94655 1.74996H12.1894C11.9519 2.45871 11.3586 3.68414 10.0479 3.94621C7.93167 4.36927 5.78092 4.37496 5.75948 4.37496C5.56655 4.37496 5.39592 4.50183 5.34036 4.68689L4.42642 7.73364C4.0528 6.49989 3.57198 4.61033 3.57198 3.06246ZM4.04186 24.9375H2.72936C2.48786 24.9375 2.29186 24.7415 2.29186 24.5V23.1875H3.60436V23.625C3.60436 23.8669 3.79992 24.0625 4.04186 24.0625V24.9375ZM5.75948 23.1875H4.47936V16.1875H3.60436V22.3125H1.90773L3.12923 11.7254L5.75948 11.0613V23.1875ZM6.63448 20.5625V10.5H7.49636L6.64805 13.8941C6.62223 13.9951 6.63448 14.1023 6.68086 14.1955L7.55586 15.9455C7.6298 16.0938 7.78117 16.1875 7.94698 16.1875C8.1128 16.1875 8.26417 16.0938 8.33855 15.9455L9.21355 14.1955C9.25992 14.1019 9.27217 13.9951 9.24636 13.8941L8.39761 10.5H9.29186V20.5625H6.63448ZM15.958 19.1743L12.1925 15.4393C12.0669 15.3151 11.8788 15.2788 11.716 15.3461C11.5533 15.414 11.447 15.5736 11.447 15.75V23.1875H10.1669V11.1072L12.0866 11.7468L15.6409 16.4863L15.5954 16.5095L15.986 17.2921L18.909 15.8344L20.2814 17.4387L15.958 19.1743ZM23.7924 14.3342L22.7603 15.5566C22.4304 15.9468 21.5296 16.527 20.9014 16.8179L19.889 15.6345L21.0274 13.5918C21.0396 13.5642 21.0602 13.5406 21.086 13.5248C21.156 13.4815 21.2155 13.5078 21.2452 13.5266C21.2745 13.5454 21.3227 13.5896 21.3135 13.671L21.271 14.0437C21.2514 14.2156 21.3349 14.3828 21.4845 14.4707C21.6342 14.5586 21.8214 14.549 21.9614 14.448L23.0525 13.6618C23.1081 13.6211 23.1851 13.6246 23.2372 13.6688L23.7749 14.1233C23.8164 14.1579 23.8256 14.2021 23.8274 14.2248C23.8295 14.2476 23.8274 14.2926 23.7924 14.3342Z" fill="#278FD9"/>
<path d="M7.54199 24.4999H8.41699V27.1249H7.54199V24.4999Z" fill="#278FD9"/>
<path d="M26.9302 6.5852L24.6045 5.80995V5.24995H25.042C25.2319 5.24995 25.3994 5.12789 25.4581 4.94807C25.5167 4.76782 25.4524 4.57051 25.2992 4.45895L24.167 3.63557V1.31245C24.167 1.07051 23.9714 0.874949 23.7295 0.874949H21.9795C21.7376 0.874949 21.542 1.07051 21.542 1.31245V1.72589L20.4867 0.958512C20.3336 0.846512 20.1254 0.846512 19.9722 0.958512L15.1597 4.45851C15.0062 4.57007 14.9423 4.76739 15.0009 4.94764C15.0596 5.12789 15.2271 5.24995 15.417 5.24995H15.8545V10.4999H14.542V11.3749H16.292H24.167H26.792C27.0339 11.3749 27.2295 11.1794 27.2295 10.9374V6.99995C27.2295 6.81139 27.1092 6.6447 26.9302 6.5852ZM20.2295 1.8532L21.7222 2.93864C21.8552 3.03576 22.0311 3.04845 22.1781 2.97495C22.3247 2.90057 22.417 2.74964 22.417 2.58514V1.74995H23.292V3.85782C23.292 3.99782 23.3589 4.12907 23.4722 4.21176L23.6967 4.37495H16.7623L20.2295 1.8532ZM21.1045 10.4999H19.3545V7.87495H21.1045V10.4999ZM21.9795 10.4999V7.43745C21.9795 7.19551 21.7839 6.99995 21.542 6.99995H18.917C18.6751 6.99995 18.4795 7.19551 18.4795 7.43745V10.4999H16.7295V5.24995H23.7295V10.4999H21.9795ZM26.3545 10.4999H24.6045V6.73176L26.3545 7.31539V10.4999Z" fill="#278FD9"/>
</g>
<defs>
<clipPath id="clip0_572_2265">
<rect width="28" height="28" fill="white" transform="translate(0.104492 -6.10352e-05)"/>
</clipPath>
</defs>
</svg>
