<svg width="29" height="28" viewBox="0 0 29 28" fill="none" xmlns="http://www.w3.org/2000/svg">
<g clip-path="url(#clip0_572_2316)">
<path d="M17.167 26.2499H10.167C10.051 26.2499 9.93968 26.2038 9.85763 26.1218C9.77559 26.0398 9.72949 25.9285 9.72949 25.8124V16.1874C9.72949 16.0714 9.77559 15.9601 9.85763 15.8781C9.93968 15.796 10.051 15.7499 10.167 15.7499H17.167C17.283 15.7499 17.3943 15.796 17.4764 15.8781C17.5584 15.9601 17.6045 16.0714 17.6045 16.1874V25.8124C17.6045 25.9285 17.5584 26.0398 17.4764 26.1218C17.3943 26.2038 17.283 26.2499 17.167 26.2499ZM10.6045 25.3749H16.7295V16.6249H10.6045V25.3749Z" fill="#278FD9"/>
<path d="M17.167 16.6249H10.167C10.051 16.6249 9.93968 16.5788 9.85763 16.4968C9.77559 16.4148 9.72949 16.3035 9.72949 16.1874V14.4374C9.72949 14.3214 9.77559 14.2101 9.85763 14.1281C9.93968 14.046 10.051 13.9999 10.167 13.9999H17.167C17.283 13.9999 17.3943 14.046 17.4764 14.1281C17.5584 14.2101 17.6045 14.3214 17.6045 14.4374V16.1874C17.6045 16.3035 17.5584 16.4148 17.4764 16.4968C17.3943 16.5788 17.283 16.6249 17.167 16.6249ZM10.6045 15.7499H16.7295V14.8749H10.6045V15.7499Z" fill="#278FD9"/>
<path d="M10.167 17.4999H17.167V18.3749H10.167V17.4999Z" fill="#278FD9"/>
<path d="M10.167 19.2499H17.167V20.1249H10.167V19.2499Z" fill="#278FD9"/>
<path d="M10.167 20.9999H17.167V21.8749H10.167V20.9999Z" fill="#278FD9"/>
<path d="M10.167 22.7499H17.167V23.6249H10.167V22.7499Z" fill="#278FD9"/>
<path d="M11.917 16.1874H12.792V23.1874H11.917V16.1874Z" fill="#278FD9"/>
<path d="M14.542 16.1874H15.417V23.1874H14.542V16.1874Z" fill="#278FD9"/>
<path d="M21.542 26.25H17.167C17.051 26.25 16.9397 26.2039 16.8576 26.1218C16.7756 26.0398 16.7295 25.9285 16.7295 25.8125V22.3125C16.7295 22.225 16.7557 22.1395 16.8047 22.067C16.8538 21.9946 16.9234 21.9385 17.0047 21.906L19.1922 21.031C19.2964 20.9894 19.4126 20.9894 19.5168 21.031L21.7043 21.906C21.7856 21.9385 21.8552 21.9946 21.9043 22.067C21.9533 22.1395 21.9795 22.225 21.9795 22.3125V25.8125C21.9795 25.9285 21.9334 26.0398 21.8514 26.1218C21.7693 26.2039 21.658 26.25 21.542 26.25ZM17.6045 25.375H21.1045V22.6087L19.3545 21.9087L17.6045 22.6087V25.375Z" fill="#278FD9"/>
<path d="M21.3799 24.0314L19.3547 23.2212L17.3295 24.0314L17.0049 23.2185L19.1924 22.3435C19.2966 22.3019 19.4128 22.3019 19.517 22.3435L21.7045 23.2185L21.3799 24.0314Z" fill="#278FD9"/>
<path d="M10.167 26.25H5.79199C5.67596 26.25 5.56468 26.2039 5.48263 26.1218C5.40059 26.0398 5.35449 25.9285 5.35449 25.8125V22.3125C5.35446 22.225 5.38066 22.1395 5.42972 22.067C5.47877 21.9946 5.54843 21.9385 5.62968 21.906L7.81718 21.031C7.92138 20.9894 8.0376 20.9894 8.1418 21.031L10.3293 21.906C10.4106 21.9385 10.4802 21.9946 10.5293 22.067C10.5783 22.1395 10.6045 22.225 10.6045 22.3125V25.8125C10.6045 25.9285 10.5584 26.0398 10.4764 26.1218C10.3943 26.2039 10.283 26.25 10.167 26.25ZM6.22949 25.375H9.72949V22.6087L7.97949 21.9087L6.22949 22.6087V25.375Z" fill="#278FD9"/>
<path d="M10.0049 24.0314L7.9797 23.2212L5.95451 24.0314L5.62988 23.2185L7.81738 22.3435C7.92159 22.3019 8.0378 22.3019 8.14201 22.3435L10.3295 23.2185L10.0049 24.0314Z" fill="#278FD9"/>
<path d="M5.79199 26.25H1.41699C1.30096 26.25 1.18968 26.2039 1.10763 26.1218C1.02559 26.0398 0.979492 25.9285 0.979492 25.8125V22.3125C0.97946 22.225 1.00566 22.1395 1.05472 22.067C1.10377 21.9946 1.17343 21.9385 1.25468 21.906L3.44218 21.031C3.54638 20.9894 3.6626 20.9894 3.7668 21.031L5.9543 21.906C6.03556 21.9385 6.10521 21.9946 6.15427 22.067C6.20332 22.1395 6.22952 22.225 6.22949 22.3125V25.8125C6.22949 25.9285 6.1834 26.0398 6.10135 26.1218C6.0193 26.2039 5.90802 26.25 5.79199 26.25ZM1.85449 25.375H5.35449V22.6087L3.60449 21.9087L1.85449 22.6087V25.375Z" fill="#278FD9"/>
<path d="M5.62988 24.0314L3.6047 23.2212L1.57951 24.0314L1.25488 23.2185L3.44238 22.3435C3.54659 22.3019 3.6628 22.3019 3.76701 22.3435L5.95451 23.2185L5.62988 24.0314Z" fill="#278FD9"/>
<path d="M6.22949 22.3125H5.35449V19.1087L3.60449 18.4087L1.85449 19.1087V22.3125H0.979492V18.8125C0.97946 18.725 1.00566 18.6395 1.05472 18.567C1.10377 18.4946 1.17343 18.4385 1.25468 18.406L3.44218 17.531C3.54638 17.4894 3.6626 17.4894 3.7668 17.531L5.9543 18.406C6.03556 18.4385 6.10521 18.4946 6.15427 18.567C6.20332 18.6395 6.22952 18.725 6.22949 18.8125V22.3125Z" fill="#278FD9"/>
<path d="M5.62988 20.5314L3.6047 19.7212L1.57951 20.5314L1.25488 19.7185L3.44238 18.8435C3.54659 18.8019 3.6628 18.8019 3.76701 18.8435L5.95451 19.7185L5.62988 20.5314Z" fill="#278FD9"/>
<path d="M26.792 26.2499H21.542C21.426 26.2499 21.3147 26.2038 21.2326 26.1218C21.1506 26.0398 21.1045 25.9285 21.1045 25.8124V18.8124C21.1045 18.6964 21.1506 18.5851 21.2326 18.5031C21.3147 18.421 21.426 18.3749 21.542 18.3749H26.792C26.908 18.3749 27.0193 18.421 27.1014 18.5031C27.1834 18.5851 27.2295 18.6964 27.2295 18.8124V25.8124C27.2295 25.9285 27.1834 26.0398 27.1014 26.1218C27.0193 26.2038 26.908 26.2499 26.792 26.2499ZM21.9795 25.3749H26.3545V19.2499H21.9795V25.3749Z" fill="#278FD9"/>
<path d="M21.542 20.1249H26.792V20.9999H21.542V20.1249Z" fill="#278FD9"/>
<path d="M23.7295 16.1874H24.6045V18.8124H23.7295V16.1874Z" fill="#278FD9"/>
<path d="M25.4795 17.4999H26.3545V18.8124H25.4795V17.4999Z" fill="#278FD9"/>
<path d="M3.16699 16.1874H4.04199V17.9374H3.16699V16.1874Z" fill="#278FD9"/>
<path d="M5.35449 17.0624H6.22949V18.8124H5.35449V17.0624Z" fill="#278FD9"/>
<path d="M27.667 27.9999H0.541992C0.42596 27.9999 0.31468 27.9538 0.232633 27.8718C0.150586 27.7898 0.104492 27.6785 0.104492 27.5624V25.8124C0.104492 25.6964 0.150586 25.5851 0.232633 25.5031C0.31468 25.421 0.42596 25.3749 0.541992 25.3749H1.41699V26.2499H0.979492V27.1249H27.2295V26.2499H26.792V25.3749H27.667C27.783 25.3749 27.8943 25.421 27.9764 25.5031C28.0584 25.5851 28.1045 25.6964 28.1045 25.8124V27.5624C28.1045 27.6785 28.0584 27.7898 27.9764 27.8718C27.8943 27.9538 27.783 27.9999 27.667 27.9999Z" fill="#278FD9"/>
<path d="M8.41699 8.74994C7.89782 8.74994 7.3903 8.59599 6.95862 8.30755C6.52694 8.01911 6.19049 7.60914 5.99181 7.12948C5.79313 6.64983 5.74115 6.12203 5.84243 5.61283C5.94372 5.10363 6.19373 4.6359 6.56084 4.26878C6.92795 3.90167 7.39568 3.65166 7.90488 3.55038C8.41408 3.44909 8.94188 3.50108 9.42154 3.69976C9.90119 3.89844 10.3112 4.23489 10.5996 4.66657C10.888 5.09825 11.042 5.60576 11.042 6.12494C11.0413 6.82092 10.7645 7.4882 10.2724 7.98033C9.78025 8.47246 9.11297 8.74924 8.41699 8.74994ZM8.41699 4.37494C8.07088 4.37494 7.73253 4.47758 7.44475 4.66987C7.15696 4.86216 6.93266 5.13547 6.8002 5.45524C6.66775 5.77501 6.63309 6.12688 6.70062 6.46635C6.76814 6.80581 6.93481 7.11763 7.17956 7.36238C7.4243 7.60712 7.73612 7.77379 8.07559 7.84131C8.41505 7.90884 8.76692 7.87418 9.08669 7.74173C9.40646 7.60928 9.67977 7.38497 9.87206 7.09719C10.0644 6.8094 10.167 6.47106 10.167 6.12494C10.167 5.66081 9.98262 5.21569 9.65443 4.8875C9.32624 4.55931 8.88112 4.37494 8.41699 4.37494Z" fill="#278FD9"/>
<path d="M21.9795 14.4375C21.904 14.4375 21.8298 14.4179 21.7641 14.3807C21.6984 14.3435 21.6434 14.29 21.6046 14.2253L20.5086 12.3992C19.6605 12.0576 18.9577 11.4316 18.5208 10.6285C18.0838 9.82533 17.94 8.89518 18.1139 7.99758C18.2879 7.09999 18.7688 6.2909 19.4741 5.70914C20.1794 5.12738 21.0652 4.8092 21.9795 4.8092C22.8938 4.8092 23.7796 5.12738 24.4849 5.70914C25.1902 6.2909 25.6711 7.09999 25.8451 7.99758C26.019 8.89518 25.8752 9.82533 25.4382 10.6285C25.0013 11.4316 24.2985 12.0576 23.4504 12.3992L22.3544 14.2253C22.3156 14.29 22.2606 14.3435 22.1949 14.3807C22.1292 14.4179 22.055 14.4375 21.9795 14.4375ZM21.9795 5.68747C21.2593 5.68971 20.5629 5.94569 20.0128 6.41045C19.4626 6.8752 19.0938 7.51898 18.9712 8.22867C18.8486 8.93835 18.9801 9.66854 19.3424 10.2909C19.7048 10.9133 20.275 11.3881 20.9527 11.6318C21.0482 11.6658 21.1289 11.732 21.1811 11.819L21.9795 13.1499L22.7779 11.819C22.8301 11.732 22.9108 11.6658 23.0063 11.6318C23.684 11.3881 24.2542 10.9133 24.6165 10.2909C24.9789 9.66854 25.1104 8.93835 24.9878 8.22867C24.8652 7.51898 24.4964 6.8752 23.9462 6.41045C23.3961 5.94569 22.6997 5.68971 21.9795 5.68747Z" fill="#278FD9"/>
<path d="M21.9795 10.4999C21.6334 10.4999 21.295 10.3973 21.0072 10.205C20.7195 10.0127 20.4952 9.73941 20.3627 9.41964C20.2303 9.09986 20.1956 8.748 20.2631 8.40853C20.3306 8.06907 20.4973 7.75725 20.7421 7.5125C20.9868 7.26776 21.2986 7.10109 21.6381 7.03357C21.9776 6.96604 22.3294 7.0007 22.6492 7.13315C22.969 7.2656 23.2423 7.48991 23.4346 7.77769C23.6269 8.06548 23.7295 8.40382 23.7295 8.74994C23.7295 9.21407 23.5451 9.65919 23.2169 9.98738C22.8887 10.3156 22.4436 10.4999 21.9795 10.4999ZM21.9795 7.87494C21.8064 7.87494 21.6373 7.92626 21.4934 8.0224C21.3495 8.11855 21.2373 8.25521 21.1711 8.41509C21.1049 8.57498 21.0875 8.75091 21.1213 8.92064C21.1551 9.09038 21.2384 9.24629 21.3608 9.36866C21.4831 9.49103 21.6391 9.57437 21.8088 9.60813C21.9785 9.64189 22.1545 9.62456 22.3143 9.55833C22.4742 9.49211 22.6109 9.37996 22.707 9.23606C22.8032 9.09217 22.8545 8.923 22.8545 8.74994C22.8545 8.51788 22.7623 8.29532 22.5982 8.13122C22.4341 7.96713 22.2116 7.87494 21.9795 7.87494Z" fill="#278FD9"/>
<path d="M8.41723 14.4375C8.34302 14.4375 8.27004 14.4186 8.20514 14.3826C8.14024 14.3466 8.08555 14.2948 8.04623 14.2318L6.63966 11.9813C5.23408 11.5551 4.02845 10.638 3.24255 9.39716C2.45665 8.15632 2.14282 6.67438 2.35825 5.22148C2.57369 3.76859 3.30404 2.44148 4.41619 1.48208C5.52834 0.522679 6.94822 -0.00512695 8.41701 -0.00512695C9.88579 -0.00512695 11.3057 0.522679 12.4178 1.48208C13.53 2.44148 14.2603 3.76859 14.4758 5.22148C14.6912 6.67438 14.3774 8.15632 13.5915 9.39716C12.8056 10.638 11.5999 11.5551 10.1944 11.9813L8.78823 14.2318C8.7489 14.2948 8.69421 14.3466 8.62931 14.3826C8.56441 14.4186 8.49143 14.4375 8.41723 14.4375ZM8.41723 0.874955C7.14558 0.874006 5.91686 1.33491 4.95956 2.17196C4.00225 3.00901 3.38151 4.16524 3.21277 5.42565C3.04403 6.68605 3.33877 7.96484 4.04218 9.02423C4.74559 10.0836 5.8098 10.8515 7.03691 11.1851C7.14306 11.2139 7.23444 11.2817 7.29285 11.375L8.41723 13.1744L9.5416 11.375C9.59993 11.2816 9.69132 11.2136 9.79754 11.1846C11.0243 10.8507 12.088 10.0828 12.7911 9.02352C13.4942 7.96426 13.7888 6.68574 13.6201 5.42562C13.4514 4.1655 12.8308 3.00949 11.8739 2.17248C10.9169 1.33547 9.68859 0.874397 8.41723 0.874955Z" fill="#278FD9"/>
</g>
<defs>
<clipPath id="clip0_572_2316">
<rect width="28" height="28" fill="white" transform="translate(0.104492 -6.10352e-05)"/>
</clipPath>
</defs>
</svg>
