<svg width="32" height="31" viewBox="0 0 32 31" fill="none" xmlns="http://www.w3.org/2000/svg">
<g opacity="0.5" clip-path="url(#clip0_615_31706)">
<path d="M31.4294 28.0695H1.20222C0.979385 28.0695 0.798828 27.895 0.798828 27.6796V26.0157C0.798828 25.8003 0.979385 25.6258 1.20222 25.6258H1.69306V14.9153H1.20222C0.979385 14.9153 0.798828 14.7408 0.798828 14.5253C0.798828 14.3099 0.979385 14.1354 1.20222 14.1354H9.22594V3.94464C9.22594 3.72923 9.4065 3.55469 9.62933 3.55469H22.8977C23.1206 3.55469 23.3011 3.72923 23.3011 3.94464V14.1352H31.4294C31.6522 14.1352 31.8328 14.3098 31.8328 14.5252C31.8328 14.7406 31.6522 14.9151 31.4294 14.9151H30.9521V25.6258H31.4294C31.6522 25.6258 31.8328 25.8003 31.8328 26.0157V27.6796C31.8328 27.895 31.6522 28.0695 31.4294 28.0695ZM1.60561 27.2896H31.026V26.4057H1.60561V27.2896ZM28.7738 25.6258H30.1454V14.9153H28.7738V25.6258ZM26.0965 25.6258H27.9671V14.9153H26.0965V25.6258ZM23.4191 25.6258H25.2897V14.9153H23.4191V25.6258ZM20.7419 25.6258H22.4944V14.9153H20.7419V25.6258ZM18.0645 25.6258H19.9351V14.9153H18.0645V25.6258ZM15.3873 25.6258H17.2577V14.9153H15.3873V25.6258ZM12.7099 25.6258H14.5805V14.9153H12.7099V25.6258ZM10.0327 25.6258H11.9033V14.9153H10.0327V25.6258ZM7.35535 25.6258H9.22578V14.9153H7.35535V25.6258ZM4.67814 25.6258H6.54873V14.9153H4.67814V25.6258ZM2.49984 25.6258H3.87136V14.9153H2.49984V25.6258ZM21.5614 14.1354H22.4944V4.33458H10.0327V14.1352H10.9658V5.63436C10.9658 5.41895 11.1464 5.24441 11.3692 5.24441H15.5107C15.7336 5.24441 15.9141 5.41895 15.9141 5.63436V14.1352H16.6133V5.63436C16.6133 5.41895 16.7938 5.24441 17.0167 5.24441H21.1582C21.381 5.24441 21.5616 5.41895 21.5616 5.63436V14.1354H21.5614ZM17.4199 14.1309H20.7546V6.02447H17.4199V14.1309ZM11.7725 14.1309H15.1072V6.02447H11.7725V14.1309Z" fill="black"/>
</g>
<defs>
<clipPath id="clip0_615_31706">
<rect width="31.034" height="30" fill="white" transform="translate(0.798828 0.8125)"/>
</clipPath>
</defs>
</svg>
