<svg width="33" height="25" viewBox="0 0 33 25" fill="none" xmlns="http://www.w3.org/2000/svg">
<g opacity="0.5">
<path d="M0.748047 24.2364V16.0456C0.751786 14.8053 1.25601 13.617 2.15058 12.74C3.04514 11.863 4.25737 11.3687 5.52248 11.3651H27.0074C28.2725 11.3687 29.4847 11.863 30.3793 12.74C31.2739 13.617 31.7781 14.8053 31.7818 16.0456V24.2364M25.8138 11.3651H4.32887V3.75929C4.33123 2.98416 4.64637 2.24144 5.20548 1.69334C5.76458 1.14524 6.5222 0.836299 7.31289 0.833984H25.217C26.0077 0.836299 26.7653 1.14524 27.3244 1.69334C27.8835 2.24144 28.1986 2.98416 28.201 3.75929V11.3651H25.8138Z" stroke="black" stroke-width="1.26762" stroke-linecap="round" stroke-linejoin="round"/>
<path d="M0.748047 24.2352V23.6501C0.749425 23.1851 0.938499 22.7394 1.27397 22.4105C1.60944 22.0817 2.06403 21.8963 2.53846 21.895H29.9914C30.4658 21.8963 30.9204 22.0817 31.2559 22.4105C31.5914 22.7394 31.7805 23.1851 31.7818 23.6501V24.2352M5.52248 11.3639V10.1938C5.52425 9.57362 5.77633 8.97938 6.22363 8.54088C6.67094 8.10237 7.27711 7.85525 7.90969 7.85352H13.8777C14.5103 7.85525 15.1165 8.10237 15.5638 8.54088C16.0111 8.97938 16.2632 9.57362 16.2649 10.1938V11.3639M16.2649 11.3639V10.1938C16.2667 9.57362 16.5188 8.97938 16.9661 8.54088C17.4134 8.10237 18.0196 7.85525 18.6522 7.85352H24.6202C25.2528 7.85525 25.8589 8.10237 26.3062 8.54088C26.7536 8.97938 27.0056 9.57362 27.0074 10.1938V11.3639" stroke="black" stroke-width="1.26762" stroke-linecap="round" stroke-linejoin="round"/>
</g>
</svg>
