<svg width="34" height="21" viewBox="0 0 34 21" fill="none" xmlns="http://www.w3.org/2000/svg">
<g opacity="0.5">
<path d="M31.7349 9.04873C31.2271 8.38794 29.3407 7.93293 28.5427 6.74378C27.7446 5.55463 27.0913 2.97939 25.0601 1.9899C23.0289 1.00042 19.1467 0.722656 16.9299 0.722656C14.713 0.722656 10.8335 0.994307 8.79957 1.98787C6.76562 2.98143 6.11511 5.55463 5.31705 6.74174C4.51898 7.92885 2.63259 8.38794 2.12479 9.04873C1.61699 9.70952 1.25953 13.8868 1.47706 15.9351C1.69458 17.9833 2.10054 19.1949 2.10054 19.1949H8.05831C9.03373 19.1949 9.35101 18.8356 11.3462 18.6516C13.5353 18.4478 15.6829 18.3799 16.9299 18.3799C18.1768 18.3799 20.3937 18.4478 22.5814 18.6516C24.5766 18.837 24.9043 19.1949 25.8693 19.1949H31.7578C31.7578 19.1949 32.1637 17.9833 32.3813 15.9351C32.5988 13.8868 32.2399 9.70952 31.7349 9.04873ZM26.9057 19.1949H30.7851V20.2815H26.9057V19.1949ZM3.07457 19.1949H6.95405V20.2815H3.07457V19.1949Z" stroke="black" stroke-width="1.16776" stroke-linecap="round" stroke-linejoin="round"/>
<path d="M24.4455 14.1117C24.0361 13.6479 22.7018 13.2608 20.9353 13.0014C19.1687 12.7419 18.5245 12.6747 16.945 12.6747C15.3655 12.6747 14.6471 12.7861 12.9539 13.0014C11.2608 13.2166 9.98961 13.5997 9.4444 14.1117C8.62625 14.8886 9.82473 15.7606 10.7655 15.8666C11.6772 15.9684 13.4998 15.9311 16.9526 15.9311C20.4053 15.9311 22.228 15.9684 23.1397 15.8666C24.079 15.7545 25.1916 14.943 24.4455 14.1117ZM29.094 9.62202C29.0901 9.56809 29.066 9.51746 29.0264 9.47986C28.9867 9.44225 28.9343 9.42033 28.8792 9.41829C28.0611 9.38976 27.2304 9.44681 25.7569 9.87262C25.0052 10.0878 24.2992 10.4342 23.6731 10.8954C23.5151 11.0163 23.5713 11.3429 23.7694 11.3776C24.9839 11.5172 26.2057 11.5875 27.4286 11.5881C28.1622 11.5881 28.9194 11.3844 29.06 10.7433C29.1317 10.3736 29.1432 9.99518 29.094 9.62202ZM4.76825 9.62202C4.77214 9.56809 4.79621 9.51746 4.83584 9.47986C4.87548 9.44225 4.92789 9.42033 4.983 9.41829C5.80116 9.38976 6.63178 9.44681 8.10529 9.87262C8.85705 10.0878 9.56299 10.4342 10.1891 10.8954C10.3471 11.0163 10.291 11.3429 10.0928 11.3776C8.8783 11.5172 7.65651 11.5875 6.43365 11.5881C5.70002 11.5881 4.94282 11.3844 4.80219 10.7433C4.73049 10.3736 4.71904 9.99518 4.76825 9.62202Z" fill="black"/>
<path d="M29.1246 6.15625H30.233M3.63086 6.15625H4.73928M4.60073 7.44659C4.60073 7.44659 7.81169 6.63164 16.9319 6.63164C26.0522 6.63164 29.2631 7.44659 29.2631 7.44659" stroke="black" stroke-width="1.16776" stroke-linecap="round" stroke-linejoin="round"/>
</g>
</svg>
