<svg width="52" height="50" viewBox="0 0 52 50" fill="none" xmlns="http://www.w3.org/2000/svg">
<path d="M37.6185 42.7479C37.6185 44.0508 36.5143 45.1747 35.0675 45.1747C33.6206 45.1747 32.5164 44.0508 32.5164 42.7479C32.5164 41.445 33.6206 40.3211 35.0675 40.3211C36.5143 40.3211 37.6185 41.445 37.6185 42.7479Z" stroke="#7F7F7F" stroke-width="2.3571"/>
<path d="M20.5697 42.7479C20.5697 44.0508 19.4655 45.1747 18.0186 45.1747C16.5718 45.1747 15.4676 44.0508 15.4676 42.7479C15.4676 41.445 16.5718 40.3211 18.0186 40.3211C19.4655 40.3211 20.5697 41.445 20.5697 42.7479Z" stroke="#7F7F7F" stroke-width="2.3571"/>
<path d="M11.9249 8.21527L11.9258 8.20494L11.9265 8.19458C11.9904 7.23705 11.668 6.29488 10.9893 5.5763L10.9803 5.56679L10.9711 5.55747C10.3061 4.88402 9.38771 4.48594 8.40626 4.48594H4.698C4.43715 4.48594 4.27816 4.27581 4.27816 4.11935C4.27816 3.9629 4.43715 3.75277 4.698 3.75277H8.40626C9.61272 3.75277 10.7957 4.25504 11.6416 5.1146C12.1467 5.67084 12.481 6.34462 12.6509 7.06732L12.8646 7.97614H13.7982H39.9904C43.1241 7.97614 45.4091 10.4056 45.1875 13.3215L45.1873 13.3239C45.1721 13.5299 44.9805 13.7568 44.6577 13.7568H12.0293C11.6539 13.7568 11.4793 13.4826 11.4983 13.2669L11.4987 13.2627L11.9249 8.21527Z" stroke="#7F7F7F" stroke-width="2.3571"/>
<path d="M44.6568 19.6729L44.6559 19.6827L44.6552 19.6926L43.9521 29.3104C43.952 29.3113 43.952 29.3122 43.9519 29.3131C43.7649 31.7573 41.4934 33.8453 38.8829 33.8453H15.1841C12.1918 33.8453 9.92006 31.3905 10.1567 28.5931C10.1567 28.5929 10.1567 28.5927 10.1567 28.5925L10.9228 19.6435C10.9487 19.4191 11.151 19.2059 11.4545 19.2059H44.1469C44.5128 19.2059 44.675 19.4704 44.6568 19.6729Z" stroke="#7F7F7F" stroke-width="2.3571"/>
</svg>
