<svg width="45" height="43" viewBox="0 0 45 43" fill="none" xmlns="http://www.w3.org/2000/svg">
<path d="M3.79787 38.7543H40.5433C40.7682 38.7543 40.9052 38.9354 40.9052 39.0703C40.9052 39.2052 40.7682 39.3864 40.5433 39.3864H3.79787C3.573 39.3864 3.43593 39.2052 3.43593 39.0703C3.43593 38.9354 3.573 38.7543 3.79787 38.7543Z" stroke="#7F7F7F" stroke-width="2.03203"/>
<path d="M12.9819 4.56484H31.3546C33.9129 4.56484 35.437 5.29637 36.3413 6.30666C37.2648 7.33841 37.6971 8.83248 37.706 10.6554V38.054H28.7144V28.3071C28.7144 26.7833 27.4297 25.6216 25.9714 25.6216H18.3835C16.8997 25.6216 15.6404 26.7902 15.6404 28.3071V38.054H6.64883V10.6531C6.64883 8.83039 7.07714 7.33688 7.99813 6.30591C8.89984 5.29652 10.4233 4.56484 12.9819 4.56484ZM24.5622 19.5333V17.4413H26.7614C28.0431 17.4413 29.1554 16.4147 29.1554 15.0932C29.1554 13.7717 28.0431 12.7451 26.7614 12.7451H24.5622V10.6531C24.5622 9.33157 23.4499 8.305 22.1682 8.305C20.8866 8.305 19.7743 9.33157 19.7743 10.6531V12.7451H17.5751C16.2934 12.7451 15.1811 13.7717 15.1811 15.0932C15.1811 16.4147 16.2934 17.4413 17.5751 17.4413H19.7743V19.5333C19.7743 20.8548 20.8866 21.8814 22.1682 21.8814C23.4499 21.8814 24.5622 20.8548 24.5622 19.5333Z" stroke="#7F7F7F" stroke-width="2.03203"/>
</svg>
