<svg width="31" height="36" viewBox="0 0 31 36" fill="none" xmlns="http://www.w3.org/2000/svg">
<path d="M15.6268 10.3768C15.6271 10.3717 15.6271 10.3666 15.6272 10.3615C15.6273 10.3584 15.6274 10.3554 15.6275 10.3523C15.6275 10.3467 15.6277 10.3412 15.6279 10.3356C15.6282 10.3295 15.6284 10.3233 15.6284 10.317C15.6284 10.31 15.6279 10.303 15.6274 10.2961C15.627 10.2906 15.6266 10.2851 15.6265 10.2796C15.6257 10.2556 15.6248 10.2315 15.6227 10.2073L15.6268 10.3768ZM15.6268 10.3768C15.6102 12.077 14.9829 13.7189 13.8524 15.0215C12.7219 16.3241 11.1583 17.2066 9.42911 17.5179V34.2879C9.42911 34.6411 9.28397 34.9798 9.02562 35.2296C8.76727 35.4793 8.41686 35.6196 8.0515 35.6196C7.68613 35.6196 7.33573 35.4793 7.07738 35.2296C6.81902 34.9798 6.67388 34.6411 6.67388 34.2879V17.5179C4.94468 17.2066 3.3811 16.3241 2.25058 15.0215C1.12006 13.7189 0.492843 12.077 0.476208 10.3768C0.475945 10.3717 0.475846 10.3666 0.475748 10.3615C0.475688 10.3584 0.475629 10.3554 0.475534 10.3523L15.6268 10.3768ZM1.49466 10.2774C1.49655 10.2641 1.49797 10.2526 1.49899 10.2437L2.87197 2.28032L2.87208 2.27968C2.87836 2.24311 2.89229 2.20643 2.91457 2.17187C2.93691 2.13722 2.96758 2.1049 3.00633 2.07812C3.04516 2.0513 3.09083 2.03096 3.14104 2.01972C3.19129 2.00846 3.24373 2.00685 3.29491 2.01509C3.34607 2.02334 3.39352 2.04103 3.43467 2.06586C3.47576 2.09066 3.50909 2.12164 3.53413 2.15555C3.5591 2.18936 3.57559 2.22573 3.58431 2.2622C3.59301 2.29861 3.59415 2.33588 3.58783 2.3724L3.58771 2.3731L2.47748 8.81272L2.2726 10.0011H3.47848H6.67388H7.68965V8.9853V2.32671C7.68965 2.25423 7.71911 2.17747 7.78336 2.11536C7.84878 2.05212 7.94463 2.01076 8.0515 2.01076C8.15836 2.01076 8.25421 2.05212 8.31963 2.11536C8.38389 2.17747 8.41335 2.25423 8.41335 2.32671V8.9853V10.0011H9.42911H12.6245H13.8304L13.6255 8.81272L12.5153 2.3731L12.5152 2.3724C12.5088 2.33588 12.51 2.29862 12.5187 2.2622C12.5274 2.22573 12.5439 2.18936 12.5689 2.15555C12.5939 2.12164 12.6272 2.09066 12.6683 2.06586C12.7095 2.04103 12.7569 2.02334 12.8081 2.01509C12.8593 2.00685 12.9117 2.00846 12.9619 2.01972C13.0122 2.03096 13.0578 2.0513 13.0967 2.07812C13.1354 2.1049 13.1661 2.13722 13.1884 2.17187C13.2107 2.20643 13.2246 2.24312 13.2309 2.27968L13.231 2.28032L14.604 10.2437C14.605 10.2526 14.6064 10.2641 14.6083 10.2773L14.6105 10.2936C14.6105 10.2937 14.6105 10.2938 14.6105 10.2939L14.6112 10.3112C14.6114 10.3181 14.6116 10.3245 14.6119 10.3303C14.6119 10.3315 14.6119 10.3328 14.6118 10.334L14.6118 10.3351L14.6113 10.3456L14.6111 10.3668C14.5968 11.8221 14.0602 13.2324 13.0853 14.3557C12.1097 15.4798 10.7549 16.2471 9.24912 16.5182L8.41335 16.6687V17.5179V34.2879C8.41335 34.3604 8.38389 34.4372 8.31963 34.4993C8.25421 34.5625 8.15837 34.6039 8.0515 34.6039C7.94463 34.6039 7.84878 34.5625 7.78336 34.4993C7.71911 34.4372 7.68965 34.3604 7.68965 34.2879V17.5179V16.6687L6.85388 16.5182C5.34812 16.2471 3.99329 15.4798 3.01772 14.3557C2.04281 13.2324 1.50616 11.8221 1.49192 10.3668L1.49172 10.3456L1.49118 10.3351L1.49115 10.334C1.49113 10.3327 1.49111 10.3315 1.49108 10.3303C1.49135 10.3245 1.4916 10.3182 1.49181 10.3114L1.49245 10.2939C1.49246 10.2938 1.49247 10.2937 1.49248 10.2936L1.49466 10.2774ZM14.6116 10.3436C14.6116 10.3437 14.6116 10.3437 14.6116 10.3436L14.6116 10.3436ZM1.49136 10.3435C1.49136 10.3437 1.49136 10.3437 1.49136 10.3436L1.49136 10.3435Z" stroke="#7F7F7F" stroke-width="2.03153"/>
<mask id="path-2-inside-1_615_31611" fill="white">
<path d="M30.0945 2.30424C30.0941 2.27677 30.0925 2.24929 30.0902 2.22174C30.0887 2.20304 30.0869 2.18451 30.0846 2.16606C30.0816 2.14306 30.0779 2.12005 30.0737 2.09705C30.0695 2.07389 30.0649 2.05097 30.0595 2.02829C30.0551 2.01024 30.0503 1.99228 30.0451 1.97432C30.0375 1.94758 30.0292 1.92124 30.0199 1.89523C30.0173 1.88775 30.0156 1.88019 30.0128 1.87271C30.0097 1.86467 30.0058 1.85719 30.0026 1.84923C29.9922 1.82313 29.9809 1.7975 29.9689 1.77233C29.9612 1.75591 29.9531 1.73971 29.9447 1.72373C29.9334 1.70227 29.9214 1.68116 29.9089 1.66041C29.8978 1.6418 29.8865 1.62351 29.8745 1.60554C29.8632 1.58864 29.8513 1.57222 29.8392 1.5558C29.8247 1.53597 29.8099 1.51654 29.7942 1.49768C29.7828 1.48378 29.7708 1.47037 29.7589 1.45696C29.7417 1.43778 29.7242 1.41884 29.7059 1.40071C29.6932 1.38803 29.6799 1.37584 29.6666 1.36365C29.6483 1.34674 29.6298 1.33016 29.6105 1.31431C29.595 1.30155 29.579 1.28952 29.5629 1.27741C29.5449 1.26392 29.5268 1.25051 29.5082 1.23783C29.4891 1.2249 29.4694 1.21279 29.4497 1.20084C29.4329 1.19069 29.4162 1.18044 29.3989 1.17101C29.3765 1.15866 29.3535 1.14728 29.3303 1.13614C29.3144 1.1285 29.2986 1.12086 29.2824 1.11379C29.258 1.10322 29.2332 1.09363 29.2081 1.08436C29.1914 1.07827 29.1749 1.07217 29.1579 1.06665C29.1338 1.05876 29.1094 1.05185 29.0847 1.04527C29.0651 1.03999 29.0455 1.03503 29.0256 1.03056C29.0038 1.02576 28.9816 1.02162 28.9594 1.0178C28.9352 1.01357 28.9111 1.00999 28.8866 1.00707C28.8679 1.00487 28.849 1.00308 28.83 1.00154C28.8019 0.999345 28.7735 0.997963 28.745 0.997394C28.736 0.997232 28.7272 0.996094 28.7181 0.996094C28.7098 0.996094 28.7016 0.997151 28.6934 0.997312C28.6652 0.9978 28.6369 0.999263 28.6086 1.00146C28.5891 1.00292 28.5699 1.00462 28.5507 1.0069C28.5269 1.00975 28.5032 1.01333 28.4794 1.01739C28.4555 1.02145 28.4317 1.02593 28.4083 1.03121C28.3896 1.03535 28.371 1.04007 28.3524 1.04502C28.3248 1.05234 28.2975 1.06039 28.2706 1.06941C28.2629 1.07193 28.2551 1.07355 28.2473 1.07623C28.2304 1.08225 28.2136 1.0894 28.1967 1.0955C28.1903 1.09801 28.1838 1.10021 28.1774 1.10281C24.6283 2.39218 21.7862 6.60102 19.7297 13.6173C18.7968 16.855 18.12 20.1565 17.7051 23.4934C17.6845 23.6791 17.7046 23.867 17.7641 24.0448C17.8235 24.2226 17.921 24.3863 18.0502 24.5253C18.1794 24.6643 18.3373 24.7755 18.5139 24.8515C18.6904 24.9276 18.8815 24.967 19.0748 24.967H27.3405V34.289C27.3405 34.6422 27.4856 34.9809 27.744 35.2307C28.0024 35.4804 28.3528 35.6207 28.7181 35.6207C29.0835 35.6207 29.4339 35.4804 29.6922 35.2307C29.9506 34.9809 30.0957 34.6422 30.0957 34.289V2.32781C30.0957 2.31985 30.0946 2.3122 30.0945 2.30424Z"/>
</mask>
<path d="M30.0945 2.30424L28.0632 2.33544L28.0634 2.34683L30.0945 2.30424ZM30.0902 2.22174L28.0653 2.38569L28.0655 2.38863L30.0902 2.22174ZM30.0846 2.16606L28.0695 2.42388L28.0695 2.4239L30.0846 2.16606ZM30.0737 2.09705L28.0748 2.45976L28.0753 2.4624L30.0737 2.09705ZM30.0595 2.02829L32.0362 1.55923L32.0339 1.54985L30.0595 2.02829ZM30.0451 1.97432L31.9986 1.41651L31.9983 1.41549L30.0451 1.97432ZM30.0199 1.89523L28.1016 2.56406L28.1046 2.57273L28.1077 2.58138L30.0199 1.89523ZM30.0128 1.87271L31.9177 1.16661L31.9128 1.15345L31.9078 1.14036L30.0128 1.87271ZM30.0026 1.84923L28.1161 2.603L28.1173 2.60609L30.0026 1.84923ZM29.9689 1.77233L28.131 2.63792L28.1351 2.64643L29.9689 1.77233ZM29.9447 1.72373L31.7426 0.777792L31.7405 0.773734L29.9447 1.72373ZM29.9089 1.66041L28.164 2.70087L28.1696 2.71019L29.9089 1.66041ZM29.8745 1.60554L31.5664 0.480923L31.5611 0.473079L29.8745 1.60554ZM29.8392 1.5558L28.201 2.75728L28.2042 2.76156L29.8392 1.5558ZM29.7942 1.49768L28.2254 2.78839L28.2305 2.79457L29.7942 1.49768ZM29.7589 1.45696L31.2764 0.1062L31.27 0.099076L29.7589 1.45696ZM29.7059 1.40071L31.1377 -0.0405343L31.1367 -0.0414947L29.7059 1.40071ZM29.6666 1.36365L28.2892 2.85696L28.293 2.86044L29.6666 1.36365ZM29.6105 1.31431L28.3178 2.88148L28.3194 2.88278L29.6105 1.31431ZM29.5629 1.27741L30.7862 -0.344552L30.7816 -0.347948L29.5629 1.27741ZM29.5082 1.23783L30.6497 -0.442677L30.6472 -0.44434L29.5082 1.23783ZM29.4497 1.20084L28.3957 2.9376L28.3984 2.93921L29.4497 1.20084ZM29.3989 1.17101L28.4195 2.95082L28.424 2.95334L29.3989 1.17101ZM29.3303 1.13614L28.4501 2.96706L28.4515 2.96774L29.3303 1.13614ZM29.2824 1.11379L30.094 -0.748581L30.0902 -0.750248L29.2824 1.11379ZM29.2081 1.08436L29.9107 -0.821802L29.9066 -0.823281L29.2081 1.08436ZM29.1579 1.06665L28.5249 2.99705L28.5293 2.99847L29.1579 1.06665ZM29.0847 1.04527L28.5579 3.00729L28.5602 3.00792L29.0847 1.04527ZM29.0256 1.03056L29.4721 -0.951346L29.4609 -0.953783L29.0256 1.03056ZM28.9594 1.0178L28.6102 3.01908L28.6149 3.01989L28.9594 1.0178ZM28.8866 1.00707L29.1279 -1.01009L29.1229 -1.01068L28.8866 1.00707ZM28.83 1.00154L28.9947 -1.02332L28.9878 -1.02385L28.83 1.00154ZM28.745 0.997394L28.7856 -1.03373L28.7811 -1.03381L28.745 0.997394ZM28.6934 0.997312L28.7285 3.02854L28.7332 3.02845L28.6934 0.997312ZM28.6086 1.00146L28.7612 3.02725L28.7655 3.02692L28.6086 1.00146ZM28.5507 1.0069L28.3106 -1.01038L28.3095 -1.01026L28.5507 1.0069ZM28.4794 1.01739L28.819 3.02033L28.8215 3.01991L28.4794 1.01739ZM28.4083 1.03121L28.8487 3.01443L28.8545 3.01312L28.4083 1.03121ZM28.3524 1.04502L28.8718 3.00906L28.8761 3.00792L28.3524 1.04502ZM28.2706 1.06941L28.9 3.001L28.9083 2.9983L28.9165 2.99553L28.2706 1.06941ZM28.2473 1.07623L27.5824 -0.843435L27.5692 -0.838773L28.2473 1.07623ZM28.1967 1.0955L27.5074 -0.815512L27.4795 -0.805431L27.4518 -0.794537L28.1967 1.0955ZM28.1774 1.10281L28.8711 3.01224L28.9073 2.99907L28.943 2.98454L28.1774 1.10281ZM19.7297 13.6173L17.7801 13.0459L17.7775 13.0549L19.7297 13.6173ZM17.7051 23.4934L15.6891 23.2427L15.6874 23.2562L15.6859 23.2696L17.7051 23.4934ZM19.0748 24.967L19.0746 26.9985H19.0748V24.967ZM27.3405 24.967H29.372V22.9355H27.3405V24.967ZM32.1258 2.27304C32.1245 2.18858 32.1197 2.11414 32.1149 2.05485L28.0655 2.38863C28.0652 2.38444 28.0636 2.36497 28.0632 2.33544L32.1258 2.27304ZM32.1151 2.05778C32.1122 2.02182 32.1075 1.96932 32.0997 1.90822L28.0695 2.4239C28.0664 2.3997 28.0652 2.38427 28.0653 2.38569L32.1151 2.05778ZM32.0997 1.90824C32.0912 1.84212 32.0814 1.78253 32.0721 1.73171L28.0753 2.4624C28.0744 2.45757 28.072 2.444 28.0695 2.42388L32.0997 1.90824ZM32.0726 1.73434C32.0638 1.68588 32.052 1.62609 32.0361 1.55924L28.0829 2.49734C28.0778 2.47584 28.0752 2.46189 28.0748 2.45976L32.0726 1.73434ZM32.0339 1.54985C32.021 1.4966 32.0083 1.4506 31.9986 1.41651L28.0917 2.53213C28.0922 2.53396 28.0893 2.52389 28.0851 2.50672L32.0339 1.54985ZM31.9983 1.41549C31.9817 1.35754 31.96 1.28713 31.932 1.20908L28.1077 2.58138C28.0984 2.55536 28.0932 2.53761 28.092 2.53314L31.9983 1.41549ZM31.9382 1.2264C31.9499 1.26017 31.9583 1.28718 31.9627 1.30167C31.9649 1.30906 31.9666 1.31472 31.9672 1.31702C31.9675 1.3178 31.9685 1.32135 31.9672 1.31699C31.9663 1.3137 31.9607 1.29446 31.9533 1.27094C31.9456 1.24613 31.9337 1.20981 31.9177 1.16661L28.108 2.57882C28.0933 2.53936 28.0827 2.50679 28.0761 2.48574C28.0728 2.47509 28.0702 2.46641 28.0685 2.46076C28.0669 2.45533 28.0657 2.45128 28.0656 2.45096C28.0656 2.45081 28.0656 2.45074 28.0656 2.45092C28.0656 2.45097 28.0658 2.45146 28.0659 2.45184C28.0661 2.45268 28.0666 2.45444 28.0673 2.45657C28.0685 2.46074 28.0707 2.46828 28.0735 2.47755C28.0763 2.48694 28.0801 2.49925 28.0847 2.51358C28.0893 2.52797 28.095 2.545 28.1016 2.56406L31.9382 1.2264ZM31.9078 1.14036C31.8932 1.10267 31.8801 1.0719 31.8711 1.05135C31.8626 1.03194 31.8552 1.01606 31.8542 1.01375C31.8528 1.01072 31.8538 1.01292 31.8544 1.01416C31.8553 1.01622 31.8575 1.02104 31.8603 1.02738C31.8659 1.03978 31.876 1.06281 31.8879 1.09236L28.1173 2.60609C28.1308 2.63962 28.1426 2.66658 28.1498 2.68287C28.1535 2.69116 28.1566 2.69792 28.1584 2.70192C28.1594 2.70395 28.1602 2.70565 28.1606 2.70662C28.1608 2.70711 28.161 2.70756 28.1611 2.70778C28.1612 2.70791 28.1612 2.70799 28.1613 2.70806C28.1613 2.70812 28.1613 2.70814 28.1613 2.70813C28.1613 2.70813 28.1612 2.70796 28.1611 2.70769C28.161 2.70741 28.1608 2.70699 28.1605 2.70644C28.16 2.70538 28.1593 2.70369 28.1583 2.70156C28.1564 2.69738 28.1534 2.69063 28.1497 2.68219C28.1424 2.66555 28.1309 2.63874 28.1179 2.60507L31.9078 1.14036ZM31.8891 1.09545C31.8626 1.0291 31.8338 0.963331 31.8028 0.898241L28.1351 2.64643C28.128 2.63167 28.1217 2.61716 28.1161 2.603L31.8891 1.09545ZM31.8068 0.906753C31.7864 0.863346 31.765 0.820351 31.7426 0.777795L28.1469 2.66966C28.1413 2.65906 28.136 2.64847 28.131 2.63791L31.8068 0.906753ZM31.7405 0.773734C31.7112 0.718472 31.6805 0.66409 31.6482 0.610624L28.1696 2.71019C28.1624 2.69824 28.1555 2.68606 28.149 2.67372L31.7405 0.773734ZM31.6538 0.619957C31.6307 0.581273 31.6014 0.533615 31.5664 0.480935L28.1827 2.73015C28.1715 2.7134 28.1649 2.70232 28.164 2.70086L31.6538 0.619957ZM31.5611 0.473079C31.5253 0.41974 31.4931 0.375709 31.4742 0.350036L28.2042 2.76156C28.2065 2.76462 28.2055 2.76342 28.203 2.75979C28.2003 2.756 28.1949 2.74844 28.1879 2.73801L31.5611 0.473079ZM31.4774 0.354318C31.4492 0.315893 31.4084 0.261651 31.3579 0.200797L28.2305 2.79457C28.2113 2.77143 28.2001 2.75604 28.2011 2.75728L31.4774 0.354318ZM31.363 0.206985C31.3223 0.157479 31.2839 0.114711 31.2763 0.106215L28.2415 2.8077C28.2447 2.81137 28.2461 2.81288 28.2472 2.81409C28.248 2.81508 28.2475 2.81454 28.2463 2.81306C28.2438 2.81029 28.2361 2.80133 28.2254 2.78838L31.363 0.206985ZM31.27 0.099076C31.2422 0.068168 31.1955 0.0168798 31.1377 -0.0405339L28.2742 2.84196C28.2628 2.83063 28.2546 2.82206 28.2505 2.81767C28.2465 2.81341 28.2451 2.81178 28.2479 2.81484L31.27 0.099076ZM31.1367 -0.0414947C31.0912 -0.0866573 31.0486 -0.125393 31.0402 -0.133137L28.293 2.86044C28.2966 2.86375 28.2981 2.86513 28.2993 2.86623C28.3003 2.86715 28.2998 2.86667 28.2984 2.86534C28.2957 2.86288 28.2871 2.85476 28.2752 2.84292L31.1367 -0.0414947ZM31.044 -0.129657C31.0132 -0.158069 30.9631 -0.203571 30.9016 -0.25416L28.3194 2.88278C28.3072 2.87279 28.2983 2.86504 28.2935 2.86076C28.2888 2.8566 28.2868 2.85475 28.2892 2.85696L31.044 -0.129657ZM30.9032 -0.25286C30.8463 -0.299802 30.7907 -0.341111 30.7862 -0.344546L28.3396 2.89936C28.3409 2.90027 28.342 2.90116 28.343 2.90191C28.3441 2.9027 28.3449 2.90334 28.3458 2.90397C28.3474 2.90523 28.3485 2.90604 28.3493 2.90666C28.351 2.90794 28.3505 2.90755 28.3488 2.90625C28.3457 2.90386 28.334 2.89482 28.3178 2.88148L30.9032 -0.25286ZM30.7816 -0.347948C30.7619 -0.36273 30.7109 -0.401055 30.6497 -0.442675L28.3667 2.91833C28.3531 2.9091 28.3437 2.90232 28.3403 2.89987C28.3374 2.89776 28.3371 2.8975 28.3442 2.90277L30.7816 -0.347948ZM30.6472 -0.44434C30.5828 -0.487932 30.5262 -0.522258 30.5009 -0.53753L28.3984 2.93921C28.4044 2.94284 28.4032 2.94216 28.3989 2.93949C28.3943 2.93661 28.3837 2.92983 28.3691 2.91999L30.6472 -0.44434ZM30.5036 -0.535909C30.5005 -0.537775 30.44 -0.575152 30.3738 -0.611313L28.424 2.95334C28.4043 2.94256 28.3906 2.93441 28.3866 2.93206C28.3845 2.9308 28.3837 2.93031 28.3854 2.93134C28.3862 2.93184 28.3873 2.93251 28.3891 2.93359C28.3903 2.9343 28.3936 2.93631 28.3957 2.93759L30.5036 -0.535909ZM30.3784 -0.608795C30.3075 -0.64784 30.2456 -0.677993 30.2092 -0.695452L28.4515 2.96774C28.4557 2.96976 28.454 2.96897 28.449 2.96646C28.4438 2.96384 28.4334 2.9585 28.4195 2.95082L30.3784 -0.608795ZM30.2106 -0.694774C30.2041 -0.6979 30.1518 -0.723394 30.094 -0.748577L28.4708 2.97616C28.4552 2.96937 28.4444 2.9643 28.4415 2.96291C28.4399 2.96216 28.4394 2.96194 28.441 2.9627C28.4431 2.96371 28.4448 2.96452 28.4501 2.96706L30.2106 -0.694774ZM30.0902 -0.750248C30.0176 -0.78169 29.954 -0.805816 29.9107 -0.821797L28.5055 2.99053C28.5084 2.9916 28.5065 2.99094 28.5016 2.989C28.4965 2.98702 28.4872 2.98325 28.4747 2.97783L30.0902 -0.750248ZM29.9066 -0.823281C29.8985 -0.826254 29.8454 -0.846008 29.7865 -0.865181L28.5293 2.99847C28.514 2.99352 28.5035 2.98977 28.5006 2.98874C28.4991 2.9882 28.4987 2.98805 28.5003 2.98864C28.5024 2.98939 28.5043 2.9901 28.5095 2.99201L29.9066 -0.823281ZM29.7909 -0.863752C29.7153 -0.888536 29.6498 -0.906534 29.6092 -0.917382L28.5602 3.00792C28.5638 3.00887 28.5616 3.00833 28.5561 3.00673C28.5505 3.00509 28.5396 3.00185 28.5249 2.99705L29.7909 -0.863752ZM29.6116 -0.916751C29.5736 -0.926964 29.5261 -0.939137 29.472 -0.951315L28.5792 3.01243C28.5648 3.00919 28.5565 3.00693 28.5579 3.00729L29.6116 -0.916751ZM29.4609 -0.953783C29.3993 -0.967303 29.345 -0.977249 29.304 -0.984296L28.6149 3.01989C28.6162 3.02012 28.6145 3.01984 28.6106 3.01909C28.6066 3.01833 28.5997 3.01695 28.5903 3.0149L29.4609 -0.953783ZM29.3087 -0.983482C29.2502 -0.993692 29.1901 -1.00265 29.1279 -1.01009L28.6454 3.02422C28.6321 3.02264 28.6202 3.02083 28.6102 3.01907L29.3087 -0.983482ZM29.1229 -1.01068C29.0749 -1.0163 29.0314 -1.02032 28.9947 -1.02331L28.6654 3.02639C28.6666 3.02649 28.6609 3.02604 28.6504 3.02481L29.1229 -1.01068ZM28.9878 -1.02385C28.9203 -1.02912 28.8528 -1.03239 28.7856 -1.03373L28.7045 3.02852C28.6942 3.02831 28.6835 3.02781 28.6723 3.02693L28.9878 -1.02385ZM28.7811 -1.03381C28.8148 -1.03322 28.8413 -1.03184 28.8555 -1.03102C28.8628 -1.0306 28.8683 -1.03024 28.8705 -1.03009C28.8714 -1.03003 28.8744 -1.02982 28.8702 -1.03011C28.8669 -1.03034 28.8476 -1.03169 28.8239 -1.03284C28.799 -1.03406 28.7623 -1.03544 28.7181 -1.03544V3.02762C28.6785 3.02762 28.6463 3.02639 28.6258 3.02539C28.6155 3.02488 28.6071 3.02439 28.6018 3.02405C28.5967 3.02374 28.5929 3.02348 28.5929 3.02348C28.5929 3.02347 28.5929 3.02347 28.5931 3.02349C28.5933 3.0235 28.5938 3.02353 28.5942 3.02357C28.5952 3.02363 28.5971 3.02376 28.5994 3.02391C28.6038 3.02421 28.6115 3.02472 28.621 3.02526C28.6397 3.02635 28.6708 3.02792 28.7089 3.0286L28.7811 -1.03381ZM28.7181 -1.03544C28.6737 -1.03544 28.6369 -1.03403 28.612 -1.03281C28.5883 -1.03164 28.5691 -1.03029 28.5654 -1.03004C28.5607 -1.02971 28.5645 -1.02997 28.5648 -1.02999C28.5668 -1.03013 28.5722 -1.03049 28.5793 -1.03091C28.5931 -1.03173 28.6197 -1.03316 28.6536 -1.03383L28.7332 3.02845C28.7526 3.02807 28.7697 3.02747 28.7841 3.02685C28.7984 3.02624 28.8106 3.02557 28.8199 3.02502C28.829 3.02448 28.8364 3.02398 28.8405 3.0237C28.8426 3.02356 28.8443 3.02344 28.8452 3.02338C28.8455 3.02336 28.8461 3.02332 28.8461 3.02332C28.8462 3.02331 28.8462 3.02331 28.846 3.02332C28.8457 3.02334 28.8418 3.02362 28.8364 3.02395C28.8309 3.0243 28.8224 3.02481 28.8118 3.02533C28.7911 3.02635 28.7584 3.02762 28.7181 3.02762V-1.03544ZM28.6583 -1.03391C28.5835 -1.03262 28.5142 -1.02884 28.4516 -1.024L28.7655 3.02692C28.7596 3.02737 28.7468 3.02822 28.7285 3.02854L28.6583 -1.03391ZM28.456 -1.02433C28.4205 -1.02166 28.3696 -1.01741 28.3106 -1.01038L28.7909 3.02419C28.7801 3.02548 28.7718 3.02629 28.767 3.02674C28.7622 3.02718 28.7599 3.02735 28.7612 3.02725L28.456 -1.02433ZM28.3095 -1.01026C28.2447 -1.00251 28.1866 -0.993539 28.1373 -0.985126L28.8215 3.01991C28.8199 3.02019 28.8091 3.02201 28.7919 3.02407L28.3095 -1.01026ZM28.1398 -0.985547C28.0923 -0.977498 28.0312 -0.966267 27.962 -0.950706L28.8545 3.01312C28.8431 3.0157 28.8341 3.0175 28.8283 3.01863C28.8225 3.01975 28.8191 3.02031 28.819 3.02033L28.1398 -0.985547ZM27.9679 -0.952008C27.9108 -0.939332 27.8621 -0.926741 27.8288 -0.917869L28.8761 3.00792C28.8776 3.00751 28.8756 3.00805 28.8712 3.00913C28.8668 3.01023 28.8591 3.01212 28.8487 3.01442L27.9679 -0.952008ZM27.8331 -0.919005C27.7682 -0.901839 27.6983 -0.881391 27.6248 -0.856717L28.9165 2.99553C28.8967 3.00216 28.8814 3.00652 28.8718 3.00905L27.8331 -0.919005ZM27.6413 -0.862182C27.6733 -0.872617 27.6989 -0.879994 27.7124 -0.88383C27.7194 -0.885789 27.7247 -0.887237 27.7268 -0.887809C27.7274 -0.88799 27.7307 -0.888883 27.7265 -0.887737C27.7232 -0.886849 27.7048 -0.88187 27.6823 -0.875281C27.6586 -0.86834 27.6238 -0.857737 27.5824 -0.843389L28.9123 2.99586C28.8747 3.00886 28.8439 3.01826 28.824 3.02406C28.814 3.027 28.8058 3.0293 28.8005 3.03077C28.7955 3.03218 28.7917 3.0332 28.7915 3.03326C28.7914 3.03329 28.7913 3.0333 28.7915 3.03325C28.7916 3.03323 28.7921 3.0331 28.7924 3.033C28.7933 3.03277 28.795 3.03231 28.7971 3.03175C28.8011 3.03064 28.8083 3.02866 28.8172 3.02615C28.8262 3.02361 28.838 3.02022 28.8517 3.01611C28.8654 3.01198 28.8817 3.00695 28.9 3.001L27.6413 -0.862182ZM27.5692 -0.838773C27.5449 -0.830157 27.5244 -0.822481 27.5101 -0.816993C27.4963 -0.811739 27.4844 -0.807052 27.4802 -0.805432C27.4736 -0.802829 27.4762 -0.803868 27.4792 -0.805014C27.4832 -0.806562 27.4935 -0.810486 27.5074 -0.815512L28.886 3.0065C28.9084 2.99843 28.9271 2.99133 28.9395 2.98653C28.9509 2.98215 28.962 2.9778 28.9638 2.9771C28.9681 2.97542 28.9646 2.97681 28.9592 2.97884C28.9533 2.9811 28.9413 2.98563 28.9255 2.99124L27.5692 -0.838773ZM27.4518 -0.794537C27.4664 -0.800268 27.4777 -0.804518 27.4831 -0.806517C27.4859 -0.807553 27.4879 -0.808296 27.4883 -0.808472C27.4886 -0.808566 27.4887 -0.808608 27.4884 -0.808491C27.4883 -0.80844 27.4874 -0.808137 27.4867 -0.807876C27.4842 -0.806938 27.4745 -0.803402 27.4628 -0.798973C27.4507 -0.794359 27.4329 -0.787523 27.4117 -0.778914L28.943 2.98454C28.9251 2.99184 28.9105 2.99743 28.9016 3.00082C28.897 3.00256 28.8933 3.00392 28.8911 3.00477C28.8899 3.0052 28.889 3.00555 28.8884 3.00576C28.8878 3.00598 28.8874 3.00612 28.8874 3.00612C28.8874 3.00613 28.8874 3.00611 28.8876 3.00606C28.8879 3.00592 28.8876 3.00604 28.8881 3.00585C28.8886 3.00567 28.8896 3.00533 28.8906 3.00494C28.8927 3.00417 28.8964 3.00283 28.9007 3.00119C28.9093 2.99799 28.9239 2.99252 28.9416 2.98553L27.4518 -0.794537ZM27.4837 -0.806613C22.9445 0.842459 19.861 5.94649 17.7801 13.0459L21.6792 14.1887C23.7113 7.25555 26.3121 3.9419 28.8711 3.01224L27.4837 -0.806613ZM17.7775 13.0549C16.8153 16.3944 16.1171 19.8002 15.6891 23.2427L19.7211 23.744C20.1229 20.5128 20.7783 17.3155 21.6818 14.1798L17.7775 13.0549ZM15.6859 23.2696C15.6328 23.7489 15.6849 24.2329 15.8374 24.6891L19.6907 23.4006C19.7244 23.5012 19.7362 23.6094 19.7243 23.7171L15.6859 23.2696ZM15.8374 24.6891C15.9899 25.145 16.2382 25.5599 16.5621 25.9084L19.5382 23.1422C19.6037 23.2128 19.6572 23.3002 19.6907 23.4006L15.8374 24.6891ZM16.5621 25.9084C16.8859 26.2567 17.2777 26.5309 17.7097 26.7171L19.3181 22.986C19.397 23.02 19.4728 23.0719 19.5382 23.1422L16.5621 25.9084ZM17.7097 26.7171C18.1415 26.9033 18.6064 26.9985 19.0746 26.9985L19.075 22.9355C19.1567 22.9355 19.2393 22.952 19.3181 22.986L17.7097 26.7171ZM19.0748 26.9985H27.3405V22.9355H19.0748V26.9985ZM25.309 24.967V34.289H29.372V24.967H25.309ZM25.309 34.289C25.309 35.2036 25.6855 36.0663 26.332 36.6913L29.156 33.7701C29.2858 33.8956 29.372 34.0808 29.372 34.289H25.309ZM26.332 36.6913C26.9763 37.3141 27.8358 37.6523 28.7181 37.6523V33.5892C28.8698 33.5892 29.0285 33.6468 29.156 33.7701L26.332 36.6913ZM28.7181 37.6523C29.6005 37.6523 30.46 37.3141 31.1042 36.6913L28.2803 33.7701C28.4078 33.6468 28.5665 33.5892 28.7181 33.5892V37.6523ZM31.1042 36.6913C31.7508 36.0663 32.1273 35.2036 32.1273 34.289H28.0642C28.0642 34.0808 28.1504 33.8956 28.2803 33.7701L31.1042 36.6913ZM32.1273 34.289V2.32781H28.0642V34.289H32.1273ZM32.1273 2.32781C32.1273 2.27985 32.1256 2.24012 32.1242 2.21306C32.1228 2.18743 32.1212 2.16665 32.1209 2.16315C32.1206 2.15842 32.1209 2.16235 32.1209 2.16318C32.1211 2.16568 32.1216 2.17181 32.1221 2.17982C32.1231 2.19558 32.1248 2.22475 32.1256 2.26165L28.0634 2.34683C28.0638 2.36759 28.0645 2.38605 28.0652 2.40162C28.066 2.41713 28.0668 2.43039 28.0674 2.44051C28.068 2.45048 28.0686 2.45856 28.069 2.46302C28.0691 2.46529 28.0693 2.46717 28.0693 2.46805C28.0694 2.46843 28.0694 2.46896 28.0694 2.469C28.0694 2.46917 28.0694 2.46908 28.0694 2.4689C28.0694 2.4685 28.069 2.46406 28.0686 2.4581C28.0682 2.4519 28.0676 2.4424 28.067 2.43071C28.0657 2.40758 28.0642 2.37178 28.0642 2.32781H32.1273Z" fill="#7F7F7F" mask="url(#path-2-inside-1_615_31611)"/>
</svg>
