<svg width="32" height="32" viewBox="0 0 32 32" fill="none" xmlns="http://www.w3.org/2000/svg">
<g opacity="0.5" clip-path="url(#clip0_615_31486)">
<path d="M0.685873 6.96211L6.89295 0.877227C7.09521 0.678945 7.4221 0.678945 7.62436 0.877227L31.4167 24.2009C31.6189 24.3992 31.6189 24.7197 31.4167 24.9179L25.2096 31.0028C25.1128 31.0981 24.981 31.1513 24.8439 31.1513C24.7069 31.1513 24.5755 31.0981 24.4782 31.0028L0.685995 7.67912C0.588772 7.58429 0.534466 7.45499 0.534466 7.32065C0.534344 7.18624 0.58865 7.05742 0.685873 6.96211ZM24.8438 29.9273L30.3195 24.5595L7.25869 1.95277L1.78303 7.32059L24.8438 29.9273Z" fill="black"/>
<path d="M6.73926 5.29297C7.59481 5.29297 8.29102 5.97546 8.29102 6.81416C8.29102 7.65286 7.59481 8.33535 6.73926 8.33535C5.88371 8.33535 5.18751 7.65286 5.18751 6.81416C5.18751 5.97552 5.88371 5.29297 6.73926 5.29297ZM6.73926 7.32124C7.02481 7.32124 7.25653 7.09355 7.25653 6.81416C7.25653 6.53477 7.02481 6.30708 6.73926 6.30708C6.45371 6.30708 6.22199 6.53477 6.22199 6.81416C6.22199 7.09361 6.45371 7.32124 6.73926 7.32124Z" fill="black"/>
<path d="M11.5459 5.44308L12.2773 6.16016L10.7255 7.68145L9.99401 6.96437L11.5459 5.44308Z" fill="black"/>
<path d="M13.0986 6.96261L13.8301 7.67969L11.761 9.70798L11.0296 8.9909L13.0986 6.96261Z" fill="black"/>
<path d="M14.6494 8.48605L15.3809 9.20312L13.829 10.7244L13.0975 10.0073L14.6494 8.48605Z" fill="black"/>
<path d="M16.2002 10.0075L16.9316 10.7246L14.8626 12.7529L14.1311 12.0358L16.2002 10.0075Z" fill="black"/>
<path d="M17.7548 11.5271L18.4863 12.2441L16.9345 13.7654L16.203 13.0484L17.7548 11.5271Z" fill="black"/>
<path d="M19.3037 13.0485L20.0352 13.7656L17.9661 15.7939L17.2346 15.0768L19.3037 13.0485Z" fill="black"/>
<path d="M20.8585 14.568L21.5898 15.2852L20.0381 16.8059L19.3067 16.0887L20.8585 14.568Z" fill="black"/>
<path d="M22.4072 16.0915L23.1387 16.8086L21.0696 18.8369L20.3382 18.1198L22.4072 16.0915Z" fill="black"/>
<path d="M23.9619 17.611L24.6934 18.3281L23.1415 19.8494L22.41 19.1323L23.9619 17.611Z" fill="black"/>
<path d="M25.5127 19.1345L26.2441 19.8516L24.1751 21.8799L23.4436 21.1628L25.5127 19.1345Z" fill="black"/>
<path d="M27.0654 20.654L27.7969 21.3711L26.245 22.8924L25.5135 22.1753L27.0654 20.654Z" fill="black"/>
<path d="M28.6142 22.1755L29.3457 22.8926L27.2767 24.9209L26.5452 24.2038L28.6142 22.1755Z" fill="black"/>
</g>
<defs>
<clipPath id="clip0_615_31486">
<rect width="31.034" height="30.4228" fill="white" transform="matrix(-1 0 0 1 31.5684 0.732422)"/>
</clipPath>
</defs>
</svg>
