<svg width="32" height="32" viewBox="0 0 32 32" fill="none" xmlns="http://www.w3.org/2000/svg">
<g opacity="0.5">
<path d="M24.2544 30.2272H7.32672C3.43859 30.2272 0.273438 27.1243 0.273438 23.3128V17.0898H31.3074V23.3128C31.3074 27.1243 28.1423 30.2272 24.2544 30.2272ZM1.68399 18.4726V23.3128C1.68399 26.3637 4.21451 28.8442 7.32672 28.8442H24.2544C27.3666 28.8442 29.8969 26.3637 29.8969 23.3128V18.4726H1.68399Z" fill="black"/>
<path d="M8.73828 29.5352H10.1488V31.6095H8.73828V29.5352Z" fill="black"/>
<path d="M21.4336 29.5352H22.8441V31.6095H21.4336V29.5352Z" fill="black"/>
<path d="M5.91446 17.7821H4.50391V5.33622C4.50391 2.66535 6.71673 0.496094 9.44123 0.496094C12.1655 0.496094 14.3783 2.66535 14.3783 5.33622V6.02749H12.9677V5.33622C12.9677 3.426 11.3896 1.87888 9.44123 1.87888C7.49265 1.87888 5.91446 3.426 5.91446 5.33622V17.7821Z" fill="black"/>
<path d="M18.6127 11.5589H8.73828V10.1758C8.73828 7.5052 10.9511 5.33594 13.6756 5.33594C16.3998 5.33594 18.6127 7.5052 18.6127 10.1758V11.5589ZM10.1488 10.1758H17.2021C17.2021 8.26584 15.6239 6.71872 13.6756 6.71872C11.727 6.71872 10.1488 8.26584 10.1488 10.1758Z" fill="black"/>
</g>
</svg>
