<svg width="38" height="45" viewBox="0 0 38 45" fill="none" xmlns="http://www.w3.org/2000/svg">
<path d="M10.2709 38.9007L11.7618 36.9791H9.32966H6.90747C5.49677 36.9775 4.15208 36.4347 3.16643 35.4819C2.18231 34.5306 1.63642 33.2496 1.63467 31.9222V6.93376C1.63642 5.60638 2.18231 4.32534 3.16643 3.37401C4.15193 2.42135 5.49638 1.87858 6.90686 1.87686H31.141C32.5514 1.87858 33.8959 2.42135 34.8814 3.37402C35.8657 4.3255 36.4116 5.60681 36.4131 6.93443V31.9215C36.4116 33.2491 35.8657 34.5304 34.8814 35.4819C33.8957 36.4347 32.551 36.9775 31.1403 36.9791H28.7182H26.2861L27.7769 38.9007L30.6852 42.6491C30.6852 42.6491 30.6852 42.6492 30.6852 42.6492C30.7459 42.7274 30.7673 42.8182 30.7548 42.9027C30.7422 42.988 30.6935 43.0762 30.604 43.141L31.3032 44.1056L30.604 43.141C30.5131 43.2069 30.3919 43.2392 30.2683 43.2221C30.145 43.2051 30.0444 43.1427 29.9824 43.0629L29.9824 43.0628L25.62 37.4401L25.2623 36.9791H24.6788H13.369H12.7855L12.4278 37.4401L8.0654 43.0628L8.06536 43.0629C8.00341 43.1427 7.90279 43.2051 7.77956 43.2221C7.65595 43.2392 7.5347 43.2069 7.44385 43.141L6.74463 44.1056L7.44385 43.141C7.35436 43.0762 7.30563 42.988 7.29302 42.9027C7.28052 42.8182 7.30191 42.7274 7.36261 42.6492C7.36262 42.6492 7.36264 42.6491 7.36265 42.6491L10.2709 38.9007ZM31.1417 36.238H31.143C32.3024 36.2367 33.4218 35.7912 34.2535 34.9872C35.0866 34.1819 35.563 33.0812 35.5644 31.9243V31.9229V22.5517V21.3604H34.3731H3.67476H2.48345V22.5517L2.48345 31.9229L2.48345 31.9243C2.48482 33.0812 2.96121 34.1819 3.7943 34.9872C4.62603 35.7912 5.74539 36.2367 6.90484 36.238H6.90616H31.1417Z" stroke="#7F7F7F" stroke-width="2.38262"/>
<path d="M11.3687 29.5791C11.3687 30.1774 10.8554 30.7306 10.1364 30.7306C9.41752 30.7306 8.9042 30.1774 8.9042 29.5791C8.9042 28.9809 9.41752 28.4276 10.1364 28.4276C10.8554 28.4276 11.3687 28.9809 11.3687 29.5791Z" stroke="#7F7F7F" stroke-width="2.38262"/>
<path d="M29.1441 29.5791C29.1441 30.1774 28.6307 30.7306 27.9118 30.7306C27.1929 30.7306 26.6796 30.1774 26.6796 29.5791C26.6796 28.9809 27.1929 28.4276 27.9118 28.4276C28.6307 28.4276 29.1441 28.9809 29.1441 29.5791Z" stroke="#7F7F7F" stroke-width="2.38262"/>
</svg>
