<svg width="31" height="36" viewBox="0 0 31 36" fill="none" xmlns="http://www.w3.org/2000/svg">
<path d="M22.4777 22.5152C21.7996 22.5152 21.25 21.9656 21.25 21.2875V20.756C21.25 20.078 21.7996 19.5283 22.4777 19.5283C23.1558 19.5283 23.7055 20.078 23.7055 20.756V21.2875C23.7055 21.9656 23.1558 22.5152 22.4777 22.5152Z" fill="black"/>
<path d="M16.9437 24.5102H6.79023C6.11214 24.5102 5.5625 23.9606 5.5625 23.2825C5.5625 22.6044 6.11214 22.0547 6.79023 22.0547H16.9437C17.6218 22.0547 18.1714 22.6044 18.1714 23.2825C18.1714 23.9606 17.6218 24.5102 16.9437 24.5102Z" fill="black"/>
<path d="M16.9437 30.2536H6.79023C6.11214 30.2536 5.5625 29.704 5.5625 29.0259C5.5625 28.3478 6.11214 27.7982 6.79023 27.7982H16.9437C17.6218 27.7982 18.1714 28.3478 18.1714 29.0259C18.1714 29.704 17.6218 30.2536 16.9437 30.2536Z" fill="black"/>
<path d="M5.55285 17.6157C5.55285 18.2938 6.10249 18.8434 6.78058 18.8434H16.934C17.4192 18.8434 17.8374 18.5613 18.0368 18.1528C19.1293 18.5963 20.323 18.8412 21.5731 18.8412C26.7711 18.8412 31 14.6152 31 9.42057C31.0001 4.22606 26.7712 0 21.5731 0C17.9779 0 14.8468 2.02191 13.2574 4.98733H2.30199C1.03267 4.98733 0 6.02 0 7.28932V33.609C0 34.8783 1.03267 35.911 2.30199 35.911H21.4127C22.682 35.911 23.7147 34.8783 23.7147 33.609V24.9432C23.7147 24.2651 23.165 23.7154 22.4869 23.7154C21.8089 23.7154 21.2592 24.2651 21.2592 24.9432V33.4555H2.45545V7.44278H12.3558C12.1305 8.49256 12.0868 9.57987 12.2256 10.6445H6.78058C6.10249 10.6445 5.55285 11.1942 5.55285 11.8723C5.55285 12.5504 6.10249 13.1 6.78058 13.1H12.8951C13.4319 14.3596 14.2355 15.4794 15.2347 16.3881H6.78058C6.10249 16.388 5.55285 16.9376 5.55285 17.6157ZM14.6016 9.42057C14.6016 5.58001 17.729 2.45545 21.5731 2.45545C25.4173 2.45545 28.5446 5.58001 28.5446 9.42057C28.5446 13.2611 25.4172 16.3858 21.5731 16.3858C17.7291 16.3858 14.6016 13.2612 14.6016 9.42057Z" fill="black"/>
<path d="M24.2238 11.9836C24.0383 11.9836 23.8501 11.9414 23.673 11.8523L21.0197 10.5174C20.6053 10.3088 20.3438 9.88454 20.3438 9.42062V4.35187C20.3438 3.67378 20.8934 3.12415 21.5715 3.12415C22.2496 3.12415 22.7992 3.67378 22.7992 4.35187V8.66388L24.7766 9.65879C25.902 10.2251 25.488 11.9833 24.2238 11.9836C24.673 11.9835 24.0383 11.9836 24.2238 11.9836Z" fill="black"/>
</svg>
