<svg width="690" height="479" viewBox="0 0 690 479" fill="none" xmlns="http://www.w3.org/2000/svg">
<path d="M620.467 444.119H574.828V444.464H620.467V444.119Z" fill="#EBEBEB"/>
<path d="M456.92 447.867H444.945V448.212H456.92V447.867Z" fill="#EBEBEB"/>
<path d="M573.444 431.331H547V431.676H573.444V431.331Z" fill="#EBEBEB"/>
<path d="M132.305 433.647H72.7891V433.991H132.305V433.647Z" fill="#EBEBEB"/>
<path d="M153.301 433.647H144.578V433.991H153.301V433.647Z" fill="#EBEBEB"/>
<path d="M310.755 439.462H181.664V439.806H310.755V439.462Z" fill="#EBEBEB"/>
<path d="M329.127 360H62.8732C60.7851 360 58.7825 359.234 57.306 357.871C55.8295 356.508 55 354.659 55 352.731V7.20509C55.0182 5.28835 55.8557 3.45583 57.3302 2.10641C58.8048 0.756996 60.797 -7.34842e-05 62.8732 5.34978e-09H329.127C330.161 5.34979e-09 331.185 0.18801 332.14 0.553298C333.095 0.918587 333.963 1.454 334.694 2.12897C335.425 2.80393 336.005 3.60523 336.401 4.48712C336.796 5.369 337 6.3142 337 7.26874V352.731C337 353.686 336.796 354.631 336.401 355.513C336.005 356.395 335.425 357.196 334.694 357.871C333.963 358.546 333.095 359.081 332.14 359.447C331.185 359.812 330.161 360 329.127 360V360ZM62.8732 0.254598C60.8776 0.257963 58.9648 0.991324 57.5538 2.29407C56.1427 3.59681 55.3484 5.36274 55.3447 7.20509V352.731C55.3484 354.574 56.1427 356.34 57.5538 357.642C58.9648 358.945 60.8776 359.678 62.8732 359.682H329.127C331.122 359.678 333.035 358.945 334.446 357.642C335.857 356.34 336.652 354.574 336.655 352.731V7.20509C336.652 5.36274 335.857 3.59681 334.446 2.29407C333.035 0.991324 331.122 0.257963 329.127 0.254598H62.8732Z" fill="#EBEBEB"/>
<path d="M627.127 360H360.873C358.785 360 356.782 359.234 355.306 357.871C353.829 356.508 353 354.659 353 352.731V7.20509C353.018 5.28835 353.856 3.45583 355.33 2.10641C356.805 0.756996 358.797 -7.34842e-05 360.873 5.34978e-09H627.127C629.215 5.3498e-09 631.217 0.765812 632.694 2.12897C634.17 3.49212 635 5.34095 635 7.26874V352.731C635 354.659 634.17 356.508 632.694 357.871C631.217 359.234 629.215 360 627.127 360V360ZM360.873 0.254598C358.878 0.257963 356.965 0.991324 355.554 2.29407C354.143 3.59681 353.348 5.36274 353.345 7.20509V352.731C353.348 354.574 354.143 356.34 355.554 357.642C356.965 358.945 358.878 359.678 360.873 359.682H627.127C629.122 359.678 631.035 358.945 632.446 357.642C633.857 356.34 634.652 354.574 634.655 352.731V7.20509C634.652 5.36274 633.857 3.59681 632.446 2.29407C631.035 0.991324 629.122 0.257963 627.127 0.254598H360.873Z" fill="#EBEBEB"/>
<path d="M689.5 421.947H0.5V422.292H689.5V421.947Z" fill="#EBEBEB"/>
<path d="M561.044 122.108H506.558C505.326 122.108 504.107 122.351 502.969 122.823C501.831 123.295 500.797 123.986 499.927 124.858C499.057 125.729 498.367 126.764 497.897 127.902C497.427 129.041 497.186 130.261 497.188 131.492V166.576C497.186 167.808 497.427 169.028 497.897 170.166C498.367 171.305 499.057 172.339 499.927 173.211C500.797 174.083 501.831 174.774 502.969 175.246C504.107 175.718 505.326 175.96 506.558 175.96H522.226L529.226 185.11C529.764 185.813 530.456 186.383 531.25 186.775C532.043 187.167 532.916 187.371 533.801 187.371C534.686 187.371 535.559 187.167 536.352 186.775C537.146 186.383 537.838 185.813 538.376 185.11L545.376 175.96H561.044C562.276 175.96 563.495 175.718 564.633 175.246C565.771 174.774 566.804 174.083 567.675 173.211C568.545 172.339 569.235 171.305 569.705 170.166C570.175 169.028 570.416 167.808 570.414 166.576V131.492C570.416 130.261 570.175 129.041 569.705 127.902C569.235 126.764 568.545 125.729 567.675 124.858C566.804 123.986 565.771 123.295 564.633 122.823C563.495 122.351 562.276 122.108 561.044 122.108V122.108Z" fill="#E0E0E0"/>
<path d="M522.084 152.782C520.912 151.737 519.963 150.466 519.293 149.045C518.623 147.625 518.246 146.084 518.184 144.514C518.125 143.517 518.279 142.518 518.636 141.584C518.992 140.65 519.543 139.802 520.252 139.098C520.961 138.393 521.811 137.847 522.747 137.495C523.683 137.144 524.683 136.995 525.68 137.059C529.897 137.059 531.33 139.016 533.797 141.841C536.263 139.085 537.697 137.059 541.913 137.059C542.911 136.995 543.911 137.144 544.846 137.495C545.782 137.847 546.633 138.393 547.341 139.098C548.05 139.802 548.601 140.65 548.958 141.584C549.314 142.518 549.468 143.517 549.41 144.514C549.348 146.084 548.971 147.625 548.301 149.045C547.631 150.466 546.682 151.737 545.51 152.782L533.797 164.44L522.084 152.782Z" fill="white"/>
<path d="M139.487 397.97C138.116 396.75 137.003 395.268 136.212 393.611C135.422 391.955 134.97 390.157 134.884 388.324C134.809 387.147 134.986 385.967 135.404 384.864C135.821 383.761 136.471 382.76 137.307 381.929C138.144 381.098 139.149 380.455 140.254 380.044C141.36 379.633 142.541 379.463 143.717 379.546C148.678 379.546 150.373 381.847 153.281 385.182C156.188 381.847 157.883 379.546 162.844 379.546C164.02 379.463 165.201 379.633 166.307 380.044C167.412 380.455 168.417 381.098 169.254 381.929C170.091 382.76 170.74 383.761 171.158 384.864C171.575 385.967 171.752 387.147 171.677 388.324C171.591 390.157 171.139 391.955 170.349 393.611C169.558 395.268 168.445 396.75 167.074 397.97L153.294 411.75L139.487 397.97Z" fill="#E0E0E0"/>
<path d="M170.648 413.5C169.818 412.745 169.147 411.832 168.674 410.815C168.2 409.797 167.935 408.696 167.892 407.575C167.849 406.856 167.96 406.137 168.217 405.464C168.474 404.792 168.871 404.182 169.382 403.674C169.893 403.167 170.506 402.775 171.18 402.523C171.855 402.271 172.575 402.166 173.293 402.214C176.325 402.214 177.428 403.592 179.136 405.646C180.914 403.62 181.892 402.214 184.979 402.214C185.697 402.166 186.418 402.271 187.092 402.523C187.766 402.775 188.38 403.167 188.891 403.674C189.402 404.182 189.799 404.792 190.056 405.464C190.313 406.137 190.423 406.856 190.381 407.575C190.338 408.696 190.072 409.797 189.599 410.815C189.126 411.832 188.455 412.745 187.625 413.5L179.191 421.892L170.648 413.5Z" fill="#EBEBEB"/>
<path d="M524.44 22.1619H461.934C459.08 22.1619 456.342 23.2957 454.324 25.314C452.306 27.3323 451.172 30.0697 451.172 32.924V73.1754C451.172 76.031 452.305 78.7698 454.323 80.7903C456.341 82.8108 459.078 83.9477 461.934 83.9514H479.917L487.937 94.438C488.553 95.2463 489.347 95.9015 490.258 96.3525C491.168 96.8035 492.171 97.0381 493.187 97.0381C494.203 97.0381 495.206 96.8035 496.117 96.3525C497.027 95.9015 497.821 95.2463 498.437 94.438L506.471 83.9514H524.385C527.243 83.9514 529.984 82.8161 532.005 80.7952C534.026 78.7743 535.161 76.0334 535.161 73.1754V32.924C535.161 30.0769 534.033 27.3457 532.023 25.3286C530.014 23.3115 527.287 22.1728 524.44 22.1619V22.1619Z" fill="#F5F5F5"/>
<path d="M473.568 69.2344H480.651V44.0721H472.383L473.568 69.2344Z" fill="#E0E0E0"/>
<path d="M513.489 47.9581C513.131 46.8419 512.001 44.4993 510.926 44.0308C507.825 42.6528 501.032 43.0799 495.024 43.8654C495.272 43.3831 495.479 42.9559 495.603 42.6528C496.322 40.8398 496.746 38.9228 496.857 36.9754C496.76 35.5974 496.14 32.676 495.024 31.9595C494.582 31.7419 494.097 31.6287 493.605 31.6287C493.112 31.6287 492.627 31.7419 492.185 31.9595C490.986 33.2135 491.813 37.1545 491.345 38.8495C490.289 41.1477 488.896 43.275 487.211 45.1607C485.102 45.5466 483.766 45.8359 483.766 45.8359V68.0631C483.766 68.0631 501.914 72.9963 507.757 71.3978C510.003 70.7915 511.064 66.8918 511.891 64.7145C513.393 60.801 514.771 51.9818 513.489 47.9581Z" fill="#E0E0E0"/>
<path d="M366.356 57.1356C366.038 53.1912 364.246 49.5113 361.338 46.8278C358.43 44.1443 354.618 42.6538 350.661 42.6528H339.334C335.377 42.6538 331.565 44.1443 328.657 46.8278C325.748 49.5113 323.957 53.1912 323.638 57.1356L322.688 66.7816H367.307L366.356 57.1356Z" fill="#EBEBEB"/>
<path d="M344.999 42.6528C350.867 42.6528 355.624 37.8961 355.624 32.0284C355.624 26.1607 350.867 21.404 344.999 21.404C339.132 21.404 334.375 26.1607 334.375 32.0284C334.375 37.8961 339.132 42.6528 344.999 42.6528Z" fill="#EBEBEB"/>
<path d="M134.167 205.243C132.532 205.239 130.945 205.799 129.674 206.828L121.145 199.938C121.656 198.95 121.921 197.853 121.916 196.741C121.916 195.127 121.367 193.561 120.359 192.3C119.351 191.04 117.944 190.16 116.369 189.805C114.795 189.45 113.146 189.641 111.695 190.347C110.244 191.053 109.076 192.232 108.383 193.69C107.691 195.148 107.515 196.798 107.884 198.37C108.254 199.941 109.147 201.339 110.417 202.336C111.687 203.332 113.258 203.866 114.872 203.851C116.486 203.836 118.047 203.272 119.298 202.253L127.828 209.143C127.321 210.135 127.057 211.233 127.057 212.347C127.057 213.461 127.321 214.559 127.828 215.55L119.298 222.44C118.047 221.421 116.486 220.857 114.872 220.842C113.258 220.827 111.687 221.361 110.417 222.358C109.147 223.354 108.254 224.752 107.884 226.324C107.515 227.895 107.691 229.545 108.383 231.003C109.076 232.461 110.244 233.64 111.695 234.346C113.146 235.052 114.795 235.243 116.369 234.889C117.944 234.534 119.351 233.654 120.359 232.393C121.367 231.133 121.916 229.567 121.916 227.952C121.918 226.841 121.653 225.744 121.145 224.755L129.674 217.865C130.557 218.585 131.6 219.082 132.715 219.314C133.829 219.547 134.984 219.508 136.08 219.202C137.177 218.895 138.184 218.33 139.017 217.553C139.849 216.776 140.483 215.81 140.865 214.738C141.247 213.665 141.366 212.516 141.211 211.388C141.056 210.26 140.633 209.185 139.976 208.254C139.32 207.324 138.45 206.565 137.439 206.041C136.428 205.517 135.305 205.243 134.167 205.243V205.243Z" fill="#E0E0E0"/>
<path d="M345.001 478.872C492.56 478.872 612.181 471.889 612.181 463.274C612.181 454.658 492.56 447.675 345.001 447.675C197.441 447.675 77.8203 454.658 77.8203 463.274C77.8203 471.889 197.441 478.872 345.001 478.872Z" fill="#F5F5F5"/>
<path d="M478.474 269.94H582.775C586.62 269.94 590.307 271.467 593.026 274.186C595.745 276.905 597.272 280.592 597.272 284.436V363.713C597.272 367.558 595.745 371.245 593.026 373.963C590.307 376.682 586.62 378.209 582.775 378.209H504.023C503.264 384.407 500.269 390.114 495.601 394.26C490.932 398.406 484.911 400.705 478.667 400.726C478.089 400.726 477.524 400.726 476.945 400.643C481.079 395.269 484.345 387.497 486.522 378.223H478.543C474.699 378.223 471.011 376.696 468.293 373.977C465.574 371.259 464.047 367.571 464.047 363.727V284.436C464.047 280.604 465.565 276.927 468.268 274.21C470.972 271.494 474.642 269.958 478.474 269.94V269.94Z" fill="#278FD9"/>
<path opacity="0.4" d="M478.474 269.94H582.775C586.62 269.94 590.307 271.467 593.026 274.186C595.745 276.905 597.272 280.592 597.272 284.436V363.713C597.272 367.558 595.745 371.245 593.026 373.963C590.307 376.682 586.62 378.209 582.775 378.209H504.023C503.264 384.407 500.269 390.114 495.601 394.26C490.932 398.406 484.911 400.705 478.667 400.726C478.089 400.726 477.524 400.726 476.945 400.643C481.079 395.269 484.345 387.497 486.522 378.223H478.543C474.699 378.223 471.011 376.696 468.293 373.977C465.574 371.259 464.047 367.571 464.047 363.727V284.436C464.047 280.604 465.565 276.927 468.268 274.21C470.972 271.494 474.642 269.958 478.474 269.94V269.94Z" fill="white"/>
<path d="M473.538 300.766L468.384 292.043L471.609 286.531C471.818 286.174 471.944 285.774 471.978 285.361C472.011 284.948 471.951 284.533 471.802 284.147L471.554 283.527C471.361 283.01 471.018 282.564 470.568 282.244C470.118 281.925 469.583 281.748 469.032 281.736L463.975 281.598C463.461 281.58 462.953 281.706 462.508 281.962C462.062 282.217 461.697 282.593 461.453 283.045L460.433 284.919C460.187 285.371 460.05 285.874 460.033 286.389C460.016 286.903 460.12 287.415 460.337 287.882L462.514 292.581L466.552 303.384L473.538 300.766Z" fill="#7F3E3B"/>
<path d="M514.582 299.236L485.135 320.664L471.355 294.785L463.5 298.189C463.5 298.189 475.613 337.407 482.654 335.822C489.696 334.237 509.567 324.412 516.029 317.674C519.295 314.27 521.776 308.028 518.551 300.311C518.402 299.941 518.17 299.611 517.872 299.347C517.574 299.082 517.219 298.89 516.834 298.786C516.45 298.682 516.046 298.668 515.655 298.746C515.265 298.825 514.897 298.992 514.582 299.236V299.236Z" fill="#278FD9"/>
<path d="M525.586 248.209C525.586 248.209 515.196 250.965 520.005 263.491C520.005 263.491 525.186 262.113 526.027 258.778C526.868 255.443 527.667 250.731 527.667 250.731L525.586 248.209Z" fill="#263238"/>
<path opacity="0.3" d="M525.586 248.209C525.586 248.209 515.196 250.965 520.005 263.491C520.005 263.491 525.186 262.113 526.027 258.778C526.868 255.443 527.667 250.731 527.667 250.731L525.586 248.209Z" fill="black"/>
<path d="M550.153 297.996L531.164 297.376L523.309 298.506L522.234 312.823L537.544 317.908L553.873 314.656L554.728 300.862L553.556 298.106L550.153 297.996Z" fill="#7F3E3B"/>
<path d="M524.302 378.209H551.173C551.435 368.743 552.84 319.589 552.551 319.892C552.261 320.196 555.389 309.42 555.389 309.42V305.051L552.551 300.366C552.551 300.366 546.46 309.654 536.428 309.199C526.92 308.758 525.28 299.264 525.28 299.264L524.136 313.774L522.938 348.913L524.467 363.796L524.302 378.209Z" fill="#278FD9"/>
<path opacity="0.6" d="M524.302 378.209H551.173C551.435 368.743 552.84 319.589 552.551 319.892C552.261 320.196 555.389 309.42 555.389 309.42V305.051L552.551 300.366C552.551 300.366 546.46 309.654 536.428 309.199C526.92 308.758 525.28 299.264 525.28 299.264L524.136 313.774L522.938 348.913L524.467 363.796L524.302 378.209Z" fill="white"/>
<path d="M513.604 378.209H528.156C531.022 359.248 531.408 324.578 531.408 324.578C529.67 317.941 528.313 311.21 527.343 304.418C526.461 296.466 537.816 297.528 547.737 298.837C557.659 300.146 540.021 325.239 540.021 325.239C540.021 325.239 538.767 359.152 541.674 378.209H577.502C575.711 373.152 570.419 357.622 569.234 346.612C567.705 333.3 576.868 313.884 575.559 304.418C574.25 294.951 542.845 296.88 542.845 296.88C542.845 296.88 522.74 296.742 518.262 296.949C513.026 297.183 510.931 310.977 508.451 321.877C505.97 332.777 510.531 343.567 513.026 357.278C514.263 364.187 514.458 371.242 513.604 378.209Z" fill="#263238"/>
<path d="M529.652 296.838C536.183 296.838 542.922 296.838 542.922 296.838C542.922 296.838 546.932 296.59 552.141 296.701C554.221 298.079 556.964 301.413 554.786 308.386L550.239 310.136L551.066 314.615C551.066 314.615 545.829 322.883 540.042 326.052C540.042 325.501 540.042 325.198 540.042 325.198C540.042 325.198 557.694 300.104 547.759 298.795C537.823 297.486 526.482 296.425 527.364 304.376C528.334 311.168 529.691 317.899 531.429 324.536C531.429 324.536 531.429 324.674 531.429 324.908C528.673 322.414 526.262 318.018 524.539 312.754L526.4 307.601L522.266 305.341C522.619 303.391 523.491 301.571 524.791 300.075C526.091 298.579 527.77 297.461 529.652 296.838Z" fill="#278FD9"/>
<path d="M529.371 304.349C529.053 303.617 528.924 302.817 528.996 302.022C529.068 301.227 529.339 300.464 529.785 299.801C537.253 297.28 536.564 291.671 534.842 286.476L546.872 274.198C546.169 280.73 545.907 295.764 550.179 301V302.199C548.321 304.586 545.835 306.409 543 307.463C540.164 308.517 537.091 308.76 534.125 308.166C533.073 307.988 532.084 307.544 531.252 306.875C530.42 306.207 529.772 305.338 529.371 304.349V304.349Z" fill="#7F3E3B"/>
<path opacity="0.1" d="M534.844 286.476L544.407 276.72L546.612 277.519C546.543 278.69 546.502 279.972 546.488 281.322C545.275 283.803 542.354 287.289 535.574 289.039C535.377 288.172 535.133 287.316 534.844 286.476V286.476Z" fill="black"/>
<path d="M553.074 263.367C550.166 274.487 549.174 279.255 542.353 283.913C532.101 290.927 519.079 284.933 518.596 273.164C518.169 262.568 522.978 246.169 534.884 243.854C537.505 243.333 540.216 243.489 542.76 244.309C545.303 245.13 547.595 246.586 549.417 248.541C551.24 250.496 552.532 252.884 553.172 255.479C553.812 258.074 553.778 260.789 553.074 263.367Z" fill="#7F3E3B"/>
<path d="M526.574 266.233C525.346 268.165 523.862 269.921 522.164 271.456C522.563 271.88 523.049 272.212 523.589 272.429C524.13 272.645 524.711 272.741 525.292 272.71L526.574 266.233Z" fill="#630F0F"/>
<path d="M538.442 262.14C538.52 262.137 538.596 262.113 538.663 262.072C538.715 262.042 538.76 262.002 538.796 261.954C538.831 261.906 538.857 261.852 538.871 261.794C538.886 261.736 538.888 261.676 538.878 261.617C538.868 261.558 538.847 261.502 538.814 261.451C538.392 260.707 537.795 260.076 537.075 259.613C536.355 259.149 535.533 258.868 534.68 258.792C534.621 258.79 534.561 258.8 534.505 258.821C534.449 258.842 534.398 258.874 534.355 258.915C534.311 258.956 534.276 259.005 534.252 259.06C534.227 259.114 534.214 259.173 534.212 259.233C534.208 259.292 534.216 259.351 534.236 259.407C534.256 259.463 534.286 259.514 534.326 259.558C534.366 259.601 534.414 259.637 534.468 259.661C534.522 259.686 534.58 259.7 534.639 259.701C535.34 259.779 536.013 260.022 536.602 260.41C537.192 260.798 537.68 261.32 538.029 261.934C538.074 262.001 538.136 262.055 538.208 262.092C538.281 262.128 538.361 262.145 538.442 262.14Z" fill="#263238"/>
<path d="M520 258.792C520.072 258.813 520.149 258.813 520.221 258.792C520.825 258.432 521.506 258.221 522.208 258.176C522.91 258.13 523.612 258.252 524.258 258.53C524.366 258.584 524.492 258.595 524.607 258.559C524.723 258.523 524.82 258.443 524.878 258.337V258.337C524.906 258.283 524.923 258.224 524.928 258.163C524.933 258.102 524.926 258.041 524.906 257.983C524.887 257.926 524.856 257.872 524.816 257.826C524.776 257.781 524.727 257.744 524.672 257.717C523.891 257.37 523.039 257.214 522.185 257.262C521.332 257.309 520.503 257.56 519.766 257.993C519.66 258.051 519.581 258.148 519.545 258.264C519.509 258.38 519.519 258.505 519.573 258.613C519.615 258.688 519.677 258.751 519.753 258.792C519.828 258.834 519.914 258.853 520 258.847V258.792Z" fill="#263238"/>
<path d="M529.955 275.769C529.424 275.771 528.894 275.725 528.371 275.631C528.334 275.626 528.299 275.614 528.268 275.595C528.236 275.576 528.209 275.551 528.187 275.522C528.165 275.492 528.149 275.459 528.141 275.423C528.132 275.387 528.13 275.35 528.136 275.314C528.15 275.242 528.19 275.178 528.249 275.135C528.308 275.091 528.381 275.072 528.453 275.08C529.616 275.308 530.816 275.262 531.957 274.943C533.099 274.625 534.15 274.044 535.026 273.247C535.081 273.21 535.146 273.192 535.212 273.196C535.278 273.201 535.34 273.228 535.388 273.274C535.437 273.319 535.468 273.379 535.477 273.444C535.487 273.51 535.474 273.576 535.44 273.633C533.954 275.023 531.99 275.787 529.955 275.769Z" fill="#263238"/>
<path d="M549.263 272.062C547.917 270.534 546.919 268.733 546.336 266.782C545.753 264.832 545.6 262.778 545.887 260.762C545.887 260.762 541.408 256.174 541.629 251.268C541.629 251.268 540.251 255.182 541.629 257.965C541.629 257.965 530.012 257.125 530.288 251.268C530.288 251.268 529.516 254.217 531.266 255.747C531.266 255.747 520.945 256.174 522.35 250.827C523.756 245.48 531.831 242.876 531.831 242.876C531.831 242.876 539.534 236.331 550.186 247.892C550.186 247.892 562.726 255.719 553.838 268.782L549.263 272.062Z" fill="#263238"/>
<path d="M553.912 272.792C553.408 273.776 552.712 274.649 551.864 275.359C551.017 276.069 550.036 276.602 548.979 276.926C546.223 277.781 544.693 275.273 545.424 272.586C546.085 270.16 548.345 266.798 551.211 267.074C552.205 267.22 553.1 267.755 553.7 268.562C554.299 269.368 554.554 270.379 554.408 271.373C554.343 271.876 554.174 272.359 553.912 272.792V272.792Z" fill="#7F3E3B"/>
<path d="M534.944 264.648C534.833 265.599 534.241 266.33 533.566 266.261C532.89 266.192 532.518 265.379 532.629 264.4C532.739 263.422 533.318 262.733 533.938 262.788C534.558 262.843 535.04 263.684 534.944 264.648Z" fill="#2E353A"/>
<path d="M524.131 263.518C524.034 264.469 523.442 265.186 522.822 265.131C522.201 265.076 521.761 264.235 521.857 263.27C521.953 262.306 522.546 261.589 523.235 261.658C523.924 261.727 524.131 262.54 524.131 263.518Z" fill="#2E353A"/>
<path d="M523.381 261.741L521.148 260.831C521.148 260.831 522.141 262.747 523.381 261.741Z" fill="#2E353A"/>
<path d="M534.254 262.926L532.008 262.03C532.008 262.03 533.014 263.891 534.254 262.926Z" fill="#2E353A"/>
<path d="M548.293 282.094C549.015 282.095 549.722 281.887 550.327 281.493C550.933 281.1 551.411 280.539 551.703 279.879C551.995 279.219 552.089 278.487 551.973 277.775C551.856 277.062 551.535 276.399 551.049 275.865L550.566 276.306C551.085 276.869 551.371 277.608 551.366 278.373C551.368 278.982 551.19 279.578 550.854 280.086C550.517 280.593 550.037 280.989 549.475 281.223C548.913 281.458 548.294 281.52 547.697 281.402C547.099 281.284 546.55 280.991 546.12 280.56C545.689 280.129 545.396 279.581 545.278 278.983C545.16 278.386 545.222 277.767 545.456 277.205C545.691 276.643 546.087 276.163 546.594 275.826C547.102 275.49 547.698 275.311 548.307 275.314C548.739 275.31 549.166 275.4 549.561 275.576L549.822 274.983C549.347 274.763 548.83 274.651 548.307 274.653C547.818 274.653 547.334 274.749 546.883 274.936C546.431 275.123 546.021 275.397 545.676 275.742C545.33 276.088 545.056 276.498 544.869 276.95C544.682 277.401 544.586 277.885 544.586 278.373C544.586 278.862 544.682 279.346 544.869 279.797C545.056 280.249 545.33 280.659 545.676 281.004C546.021 281.35 546.431 281.624 546.883 281.811C547.334 281.998 547.818 282.094 548.307 282.094H548.293Z" fill="#278FD9"/>
<g opacity="0.6">
<path d="M548.293 282.094C549.015 282.095 549.722 281.887 550.327 281.493C550.933 281.1 551.411 280.539 551.703 279.879C551.995 279.219 552.089 278.487 551.973 277.775C551.856 277.062 551.535 276.399 551.049 275.865L550.566 276.306C551.085 276.869 551.371 277.608 551.366 278.373C551.368 278.982 551.19 279.578 550.854 280.086C550.517 280.593 550.037 280.989 549.475 281.223C548.913 281.458 548.294 281.52 547.697 281.402C547.099 281.284 546.55 280.991 546.12 280.56C545.689 280.129 545.396 279.581 545.278 278.983C545.16 278.386 545.222 277.767 545.456 277.205C545.691 276.643 546.087 276.163 546.594 275.826C547.102 275.49 547.698 275.311 548.307 275.314C548.739 275.31 549.166 275.4 549.561 275.576L549.822 274.983C549.347 274.763 548.83 274.651 548.307 274.653C547.818 274.653 547.334 274.749 546.883 274.936C546.431 275.123 546.021 275.397 545.676 275.742C545.33 276.088 545.056 276.498 544.869 276.95C544.682 277.401 544.586 277.885 544.586 278.373C544.586 278.862 544.682 279.346 544.869 279.797C545.056 280.249 545.33 280.659 545.676 281.004C546.021 281.35 546.431 281.624 546.883 281.811C547.334 281.998 547.818 282.094 548.307 282.094H548.293Z" fill="white"/>
</g>
<path d="M545.738 338.371L535.623 338.812L532.233 333.3C532.015 332.945 531.72 332.645 531.369 332.42C531.018 332.196 530.621 332.054 530.208 332.005L529.546 331.922C529.002 331.851 528.449 331.945 527.958 332.19C527.467 332.436 527.06 332.822 526.79 333.3L524.282 337.696C524.026 338.142 523.899 338.65 523.916 339.164C523.933 339.678 524.093 340.176 524.379 340.604L525.55 342.381C525.83 342.813 526.209 343.173 526.654 343.432C527.099 343.69 527.599 343.84 528.113 343.87L533.281 344.159L544.718 345.702L545.738 338.371Z" fill="#7F3E3B"/>
<path d="M563.722 301.51L568.751 337.572H539.414L538.711 346.102C538.711 346.102 579.017 353.915 580.933 346.956C582.848 339.998 583.551 317.853 580.657 308.965C579.183 304.486 574.856 299.319 566.533 298.561C566.143 298.526 565.75 298.58 565.384 298.718C565.017 298.856 564.687 299.075 564.417 299.358C564.147 299.642 563.944 299.982 563.823 300.355C563.703 300.727 563.668 301.122 563.722 301.51V301.51Z" fill="#278FD9"/>
<path d="M435.521 93.432H403.317L370.852 464.665H403.055C410.413 464.531 417.466 461.707 422.882 456.725C428.298 451.743 431.701 444.95 432.448 437.629L460.187 120.482C460.57 117.039 460.214 113.553 459.143 110.258C458.072 106.964 456.31 103.935 453.976 101.375C451.641 98.8151 448.788 96.7824 445.605 95.4126C442.423 94.0429 438.985 93.3677 435.521 93.432Z" fill="#263238"/>
<path d="M455.472 130.638C455.541 129.946 455.858 129.303 456.365 128.827C456.871 128.351 457.533 128.074 458.228 128.047C458.56 128.042 458.889 128.106 459.194 128.238C459.499 128.369 459.773 128.563 459.997 128.808C460.221 129.053 460.39 129.343 460.494 129.659C460.598 129.974 460.633 130.308 460.598 130.638L458.421 155.442C458.387 156.164 458.084 156.848 457.571 157.358C457.058 157.868 456.373 158.168 455.651 158.198C455.32 158.202 454.992 158.135 454.689 158.003C454.385 157.871 454.113 157.677 453.891 157.432C453.668 157.187 453.5 156.898 453.397 156.583C453.294 156.269 453.259 155.936 453.294 155.607L455.472 130.638Z" fill="#278FD9"/>
<path opacity="0.3" d="M455.472 130.638C455.541 129.946 455.858 129.303 456.365 128.827C456.871 128.351 457.533 128.074 458.228 128.047C458.56 128.042 458.889 128.106 459.194 128.238C459.499 128.369 459.773 128.563 459.997 128.808C460.221 129.053 460.39 129.343 460.494 129.659C460.598 129.974 460.633 130.308 460.598 130.638L458.421 155.442C458.387 156.164 458.084 156.848 457.571 157.358C457.058 157.868 456.373 158.168 455.651 158.198C455.32 158.202 454.992 158.135 454.689 158.003C454.385 157.871 454.113 157.677 453.891 157.432C453.668 157.187 453.5 156.898 453.397 156.583C453.294 156.269 453.259 155.936 453.294 155.607L455.472 130.638Z" fill="white"/>
<path d="M396.461 464.665H263.773C260.311 464.727 256.876 464.051 253.695 462.681C250.515 461.311 247.663 459.28 245.329 456.722C242.996 454.164 241.234 451.138 240.161 447.846C239.088 444.554 238.729 441.071 239.107 437.629L266.86 120.482C267.598 113.157 270.998 106.356 276.415 101.371C281.833 96.385 288.891 93.5602 296.253 93.432H428.94C432.401 93.3704 435.835 94.0465 439.014 95.4153C442.193 96.7842 445.045 98.8143 447.378 101.371C449.712 103.927 451.474 106.951 452.548 110.242C453.622 113.532 453.983 117.014 453.606 120.455L425.853 437.629C425.107 444.95 421.704 451.743 416.288 456.725C410.872 461.707 403.818 464.531 396.461 464.665V464.665Z" fill="#278FD9"/>
<path d="M428.395 99.6606H393.945C392.823 99.6825 391.741 100.08 390.872 100.789C390.003 101.499 389.396 102.479 389.15 103.574L388.916 104.663C388.317 107.339 386.837 109.736 384.713 111.47C382.589 113.204 379.944 114.175 377.203 114.226H344.379C341.782 114.282 339.269 113.307 337.389 111.515C335.509 109.723 334.415 107.259 334.347 104.663V103.574C334.332 103.046 334.214 102.525 333.999 102.042C333.783 101.56 333.475 101.124 333.091 100.761C332.707 100.397 332.255 100.113 331.761 99.9243C331.267 99.7355 330.741 99.6459 330.213 99.6606H295.763C290.097 99.7657 284.665 101.942 280.494 105.778C276.323 109.614 273.7 114.845 273.122 120.482L245.3 437.629C245.008 440.281 245.285 442.965 246.111 445.502C246.937 448.039 248.294 450.37 250.092 452.342C251.89 454.313 254.088 455.879 256.538 456.934C258.988 457.99 261.635 458.512 264.303 458.464H397.004C402.673 458.359 408.106 456.181 412.277 452.342C416.449 448.503 419.07 443.269 419.645 437.629L447.398 120.482C447.688 117.831 447.41 115.149 446.583 112.614C445.756 110.078 444.398 107.748 442.6 105.779C440.803 103.809 438.606 102.244 436.157 101.19C433.707 100.135 431.062 99.6135 428.395 99.6606Z" fill="#278FD9"/>
<path opacity="0.7" d="M428.395 99.6606H393.945C392.823 99.6825 391.741 100.08 390.872 100.789C390.003 101.499 389.396 102.479 389.15 103.574L388.916 104.663C388.317 107.339 386.837 109.736 384.713 111.47C382.589 113.204 379.944 114.175 377.203 114.226H344.379C341.782 114.282 339.269 113.307 337.389 111.515C335.509 109.723 334.415 107.259 334.347 104.663V103.574C334.332 103.046 334.214 102.525 333.999 102.042C333.783 101.56 333.475 101.124 333.091 100.761C332.707 100.397 332.255 100.113 331.761 99.9243C331.267 99.7355 330.741 99.6459 330.213 99.6606H295.763C290.097 99.7657 284.665 101.942 280.494 105.778C276.323 109.614 273.7 114.845 273.122 120.482L245.3 437.629C245.008 440.281 245.285 442.965 246.111 445.502C246.937 448.039 248.294 450.37 250.092 452.342C251.89 454.313 254.088 455.879 256.538 456.934C258.988 457.99 261.635 458.512 264.303 458.464H397.004C402.673 458.359 408.106 456.181 412.277 452.342C416.449 448.503 419.07 443.269 419.645 437.629L447.398 120.482C447.688 117.831 447.41 115.149 446.583 112.614C445.756 110.078 444.398 107.748 442.6 105.779C440.803 103.809 438.606 102.244 436.157 101.19C433.707 100.135 431.062 99.6135 428.395 99.6606Z" fill="white"/>
<g opacity="0.2">
<path d="M352.814 104.982C353.914 103.929 354.025 102.26 353.061 101.254C352.098 100.248 350.426 100.286 349.327 101.339C348.227 102.391 348.117 104.06 349.08 105.066C350.043 106.072 351.715 106.034 352.814 104.982Z" fill="black"/>
<path d="M372.63 100.542H363.59C362.873 100.555 362.186 100.83 361.658 101.315C361.13 101.8 360.798 102.461 360.724 103.174C360.689 103.51 360.725 103.849 360.831 104.17C360.937 104.49 361.109 104.784 361.337 105.033C361.565 105.282 361.843 105.48 362.153 105.613C362.463 105.746 362.798 105.812 363.135 105.806H372.175C372.891 105.79 373.577 105.515 374.104 105.03C374.631 104.546 374.965 103.886 375.041 103.174C375.079 102.838 375.044 102.498 374.939 102.177C374.834 101.855 374.662 101.56 374.433 101.311C374.205 101.062 373.926 100.864 373.615 100.731C373.304 100.599 372.968 100.534 372.63 100.542V100.542Z" fill="black"/>
</g>
<path d="M288.055 114.185H290.838L291.086 111.387H288.289L288.055 114.185Z" fill="#278FD9"/>
<path d="M293.881 111.387L293.633 114.185H296.416L296.664 111.387L296.912 108.604H294.115L293.881 111.387Z" fill="#278FD9"/>
<path d="M299.941 105.806L299.693 108.604L299.445 111.387L299.211 114.185H301.994L302.243 111.387L302.491 108.604L302.725 105.806H299.941Z" fill="#278FD9"/>
<path d="M419.923 105.999L419.744 108.039H418.366L418.008 112.173H419.386L419.207 114.226H431.485L432.201 106.041L419.923 105.999ZM424.843 112.131H420.709L421.067 107.997H425.201L424.843 112.131Z" fill="#278FD9"/>
<g opacity="0.4">
<path d="M344.478 114.226L252.883 454.826C256.208 457.221 260.209 458.496 264.306 458.464H271.472L364.046 114.226H344.478Z" fill="white"/>
<path d="M428.402 99.6606H393.952C392.831 99.6825 391.748 100.08 390.879 100.789C390.01 101.499 389.403 102.479 389.157 103.574L388.923 104.663C388.341 107.267 386.923 109.61 384.885 111.334C382.848 113.059 380.302 114.069 377.637 114.212L285.008 458.464H355.63L447.405 117.189C447.111 112.38 444.969 107.871 441.428 104.604C437.886 101.338 433.219 99.5662 428.402 99.6606V99.6606Z" fill="white"/>
</g>
<path d="M289.761 192.097L285.627 191.201C285.361 191.149 285.109 191.039 284.89 190.879C284.67 190.719 284.488 190.513 284.357 190.275C284.226 190.037 284.148 189.774 284.129 189.503C284.111 189.232 284.152 188.96 284.249 188.707L290.023 173.632L296.624 175.01L291.925 190.76C291.801 191.216 291.509 191.608 291.107 191.856C290.705 192.104 290.224 192.19 289.761 192.097Z" fill="#278FD9"/>
<path d="M305.773 172.805C305.501 172.746 305.243 172.634 305.015 172.475C304.786 172.316 304.591 172.114 304.441 171.88C304.292 171.645 304.19 171.383 304.141 171.109C304.093 170.835 304.1 170.555 304.16 170.283L304.712 167.692C304.77 167.419 304.883 167.16 305.042 166.93C305.202 166.701 305.406 166.505 305.642 166.355C305.878 166.205 306.141 166.104 306.417 166.056C306.692 166.009 306.975 166.017 307.247 166.08C307.797 166.199 308.277 166.531 308.582 167.004C308.887 167.477 308.992 168.052 308.873 168.602L308.308 171.179C308.186 171.73 307.851 172.21 307.376 172.515C306.901 172.819 306.324 172.924 305.773 172.805V172.805Z" fill="#278FD9"/>
<path d="M301.692 159.962C301.692 159.962 285.983 158.17 280.484 155.359C267.559 148.717 255.198 132.87 252.58 132.305C248.308 131.368 242.493 141.483 239.572 154.891C236.65 168.299 237.753 179.901 242.025 180.825C244.656 181.403 262.46 172.116 276.984 171.441C283.158 171.165 298.15 176.112 298.15 176.112L301.692 159.962Z" fill="#278FD9"/>
<path opacity="0.3" d="M301.692 159.962C301.692 159.962 285.983 158.17 280.484 155.359C267.559 148.717 255.198 132.87 252.58 132.305C248.308 131.368 242.493 141.483 239.572 154.891C236.65 168.299 237.753 179.901 242.025 180.825C244.656 181.403 262.46 172.116 276.984 171.441C283.158 171.165 298.15 176.112 298.15 176.112L301.692 159.962Z" fill="white"/>
<path d="M255.027 158.198C252.119 171.592 246.29 181.707 242.018 180.77C237.747 179.833 236.658 168.23 239.566 154.836C242.473 141.442 248.302 131.313 252.574 132.25C256.846 133.187 257.948 144.845 255.027 158.198Z" fill="#278FD9"/>
<path opacity="0.4" d="M255.027 158.198C252.119 171.592 246.29 181.707 242.018 180.77C237.747 179.833 236.658 168.23 239.566 154.836C242.473 141.442 248.302 131.313 252.574 132.25C256.846 133.187 257.948 144.845 255.027 158.198Z" fill="black"/>
<path d="M299.138 158.198L291.848 156.613C291.379 156.51 290.893 156.504 290.422 156.596C289.95 156.689 289.503 156.877 289.107 157.15C288.712 157.423 288.376 157.774 288.123 158.182C287.869 158.59 287.701 159.046 287.631 159.521C287.37 161.354 287.039 163.241 286.625 165.171C286.212 167.1 285.716 168.96 285.247 170.683C285.114 171.145 285.077 171.63 285.138 172.108C285.2 172.586 285.359 173.045 285.606 173.459C285.853 173.872 286.182 174.231 286.573 174.512C286.964 174.793 287.409 174.99 287.879 175.092L296.519 176.966C301.701 178.096 305.435 174.445 306.482 169.236C306.951 166.8 306.443 164.278 305.069 162.213C303.696 160.149 301.565 158.707 299.138 158.198V158.198Z" fill="#263238"/>
<path d="M247.532 155.511L247.078 157.619C246.945 158.208 247.026 158.826 247.306 159.361C247.587 159.896 248.048 160.314 248.607 160.541L253.899 162.745C254.312 161.298 254.698 159.796 255.029 158.253C255.359 156.71 255.649 155.166 255.883 153.678L250.137 153.485C249.534 153.465 248.944 153.656 248.468 154.027C247.992 154.397 247.661 154.922 247.532 155.511V155.511Z" fill="#263238"/>
<path opacity="0.8" d="M247.532 155.511L247.078 157.619C246.945 158.208 247.026 158.826 247.306 159.361C247.587 159.896 248.048 160.314 248.607 160.541L253.899 162.745C254.312 161.298 254.698 159.796 255.029 158.253C255.359 156.71 255.649 155.166 255.883 153.678L250.137 153.485C249.534 153.465 248.944 153.656 248.468 154.027C247.992 154.397 247.661 154.922 247.532 155.511V155.511Z" fill="white"/>
<path opacity="0.2" d="M251.529 157.481C251.24 158.859 250.923 160.1 250.578 161.367L253.899 162.745C254.313 161.298 254.698 159.796 255.029 158.253C255.36 156.71 255.649 155.166 255.883 153.678L252.273 153.554C252.071 154.813 251.823 156.122 251.529 157.481Z" fill="black"/>
<path d="M378.839 158.308C380.155 158.812 381.572 158.996 382.974 158.845C384.375 158.694 385.721 158.213 386.9 157.44C391.13 154.684 399.068 158.157 396.67 169.443C392.536 188.845 383.91 202.776 389.504 208.647C389.504 208.647 370.874 209.501 373.63 193.048C375.697 180.646 389.711 166.7 386.335 163.917C385.205 162.98 383.579 163.462 378.274 163.462L378.839 158.308Z" fill="#263238"/>
<path d="M378.281 163.462C380.835 163.378 383.386 163.684 385.846 164.371C386.715 161.873 387.053 159.222 386.839 156.586C384.125 156.897 381.448 157.474 378.846 158.308L378.281 163.462Z" fill="#278FD9"/>
<path d="M360.745 144.17C360.745 144.17 353 141.965 358.113 136.963C364.782 130.445 374.263 142.654 374.263 142.654C374.263 142.654 396.49 152.369 378.149 174.899C378.149 174.899 371.521 186.75 370.143 182.134C368.765 177.518 377.97 164.44 377.97 164.44L377.419 152.727L374.869 148.166L366.863 143.591L360.745 144.17Z" fill="#263238"/>
<path d="M330.021 210.162C329.495 209.303 328.806 208.556 327.992 207.964C327.178 207.371 326.254 206.945 325.275 206.709C324.296 206.474 323.28 206.434 322.286 206.591C321.291 206.749 320.337 207.101 319.479 207.627H319.369C316.957 209.101 314.394 210.741 311.859 212.257L304.211 216.846C300.628 218.949 297.027 220.993 293.407 222.978C293.2 220.227 293.154 217.466 293.269 214.71C293.366 211.485 293.6 208.192 293.848 204.898C294.096 201.605 294.427 198.229 294.703 194.963V194.88C294.772 193.962 294.509 193.05 293.961 192.31C293.413 191.57 292.617 191.052 291.718 190.851C290.82 190.651 289.879 190.78 289.068 191.216C288.257 191.653 287.63 192.366 287.303 193.227C286.076 196.548 285.112 199.827 284.147 203.19C283.182 206.552 282.452 209.942 281.804 213.442C281.097 217.076 280.71 220.765 280.647 224.466C280.592 226.795 280.894 229.119 281.543 231.356C282.134 233.357 283.281 235.149 284.85 236.524C286.04 237.529 287.46 238.225 288.984 238.549C290.313 238.807 291.679 238.807 293.008 238.549C293.327 238.478 293.641 238.381 293.945 238.26L294.399 238.081C297.334 236.868 300.256 235.655 303.095 234.277C305.933 232.899 308.772 231.521 311.542 230.075C314.311 228.628 317.054 227.07 319.81 225.458C322.566 223.846 325.129 222.234 327.843 220.36C329.421 219.244 330.521 217.576 330.924 215.686C331.328 213.797 331.005 211.825 330.021 210.162V210.162Z" fill="#CE7A63"/>
<path d="M336.731 200.103C341.375 209.46 334.692 217.576 322.441 230.584C316.043 225.396 311.574 218.209 309.75 210.176C309.75 210.176 323.916 198.491 336.731 200.103Z" fill="#278FD9"/>
<path opacity="0.2" d="M337.215 211.21C332.682 208.454 327.569 207.213 324.028 211.72C321.264 215.348 318.061 218.621 314.492 221.462C316.662 224.903 319.359 227.981 322.485 230.584C329.843 222.812 335.107 216.791 337.215 211.21Z" fill="black"/>
<path d="M291.259 177.49L294.401 179.571C294.987 179.952 295.472 180.47 295.815 181.079C296.158 181.689 296.349 182.372 296.371 183.071L296.619 189.699C296.66 191.003 296.392 192.299 295.836 193.48C295.281 194.66 294.453 195.693 293.422 196.493L292.113 197.499C286.601 194.398 283.032 187.04 283.032 187.04L281.764 185.055C281.493 184.655 281.303 184.206 281.206 183.732C281.11 183.258 281.108 182.77 281.202 182.296C281.295 181.821 281.482 181.37 281.752 180.969C282.021 180.567 282.367 180.223 282.77 179.957L286.656 177.394C287.351 176.964 288.155 176.744 288.972 176.761C289.789 176.778 290.583 177.031 291.259 177.49V177.49Z" fill="#CE7A63"/>
<path d="M325.974 458.464C333.112 436.416 337.991 411.929 333.14 394.057C362.629 307.435 349.332 282.218 349.332 282.218L314.234 269.416C314.234 269.416 309.218 347.425 307.702 385.168C306.862 406.266 303.265 433.702 299.117 458.478L325.974 458.464Z" fill="#263238"/>
<path opacity="0.5" d="M344.175 314.27L337.051 302.778L332.696 311.735C330.425 336.432 331.5 361.324 335.893 385.733C341.57 368.684 346.055 351.261 349.315 333.59L344.175 314.27Z" fill="black"/>
<path d="M347.531 458.464H374.141C376.897 435.548 376.897 410.896 368.766 394.415C381.168 303.756 363.254 281.557 363.254 281.557L326.352 275.714C326.352 275.714 336.37 353.24 342.116 390.543C345.079 409.862 346.76 434.928 347.531 458.464Z" fill="#263238"/>
<path d="M320.309 217.521C318.75 224.228 317.646 231.032 317.002 237.888C315.817 247.878 314.948 257.745 313.805 274.239L363.771 282.218C364.997 267.997 369.173 252.219 383.159 221.972C383.95 220.398 384.378 218.668 384.413 216.908C384.449 215.148 384.09 213.402 383.363 211.798C382.637 210.195 381.561 208.774 380.214 207.639C378.867 206.505 377.284 205.686 375.58 205.243C373.637 204.733 371.57 204.237 369.435 203.782C361.964 202.05 354.38 200.853 346.739 200.199C344.245 200.034 341.64 199.938 339.146 199.882C330.134 199.648 321.976 208.771 320.309 217.521Z" fill="#278FD9"/>
<path d="M371.871 177.917C368.743 184.904 364.21 197.898 368.178 203.52C368.178 203.52 361.426 201.384 345.317 208.137C342.024 201.371 345.496 199.869 345.496 199.869C354.081 199.249 355.28 193.24 355.142 187.467L371.871 177.917Z" fill="#CE7A63"/>
<path d="M348.695 206.8C349.562 207.118 350.349 207.619 351.005 208.268C351.662 208.917 352.171 209.699 352.499 210.562C352.773 211.189 353.177 211.751 353.683 212.211C354.19 212.671 354.789 213.019 355.44 213.231C356.09 213.443 356.779 213.515 357.459 213.442C358.14 213.369 358.797 213.153 359.389 212.808C363.523 210.479 368.731 207.158 371.336 204.209C369.987 203.182 368.694 202.083 367.464 200.916C367.464 200.916 351.961 204.457 348.695 206.8Z" fill="white"/>
<path d="M344.217 205.298C343.037 205.489 341.922 205.961 340.965 206.676C340.699 206.869 340.379 206.973 340.051 206.973C339.722 206.974 339.402 206.87 339.136 206.677C338.87 206.485 338.672 206.213 338.57 205.901C338.467 205.589 338.466 205.252 338.567 204.94C340.289 200.062 343.266 199.428 343.266 199.428C344.704 198.88 346.293 198.88 347.731 199.428C346.538 199.822 345.527 200.632 344.882 201.71C344.237 202.787 344.001 204.061 344.217 205.298Z" fill="white"/>
<path opacity="0.2" d="M365.068 181.817L355.201 187.467C355.247 188.849 355.164 190.233 354.953 191.601C358.178 191.601 363.221 188.955 364.324 185.799C364.815 184.529 365.068 183.179 365.068 181.817V181.817Z" fill="black"/>
<path d="M380.427 164.261C376.293 175.699 374.915 180.604 367.24 185.193C355.788 192.083 342.601 185.4 343.166 173.177C343.69 162.153 350.276 145.314 363.037 143.343C365.764 142.828 368.578 143.052 371.19 143.991C373.801 144.93 376.113 146.551 377.887 148.685C379.662 150.819 380.833 153.388 381.279 156.127C381.726 158.866 381.431 161.674 380.427 164.261V164.261Z" fill="#CE7A63"/>
<path d="M365.069 163.834C364.766 164.812 364.022 165.488 363.388 165.336C362.754 165.184 362.492 164.275 362.781 163.297C363.071 162.318 363.843 161.657 364.476 161.808C365.11 161.96 365.372 162.869 365.069 163.834Z" fill="#263238"/>
<path d="M352.874 160.582C352.571 161.547 351.813 162.222 351.179 162.07C350.546 161.919 350.284 161.009 350.587 160.045C350.89 159.08 351.648 158.391 352.282 158.543C352.916 158.694 353.178 159.576 352.874 160.582Z" fill="#263238"/>
<path d="M352.536 158.666L350.414 157.44C350.414 157.44 351.048 159.576 352.536 158.666Z" fill="#263238"/>
<path d="M356.413 162.594C354.861 164.617 353.054 166.433 351.039 167.996C351.438 168.466 351.937 168.842 352.5 169.094C353.062 169.347 353.674 169.471 354.291 169.456L356.413 162.594Z" fill="#BA4D3C"/>
<path d="M368.774 158.198C368.696 158.191 368.621 158.167 368.554 158.126C368.487 158.085 368.43 158.03 368.388 157.964C368.012 157.347 367.487 156.834 366.861 156.473C366.235 156.112 365.528 155.914 364.805 155.897C364.73 155.899 364.655 155.885 364.585 155.858C364.515 155.83 364.451 155.789 364.397 155.736C364.343 155.684 364.3 155.621 364.271 155.551C364.242 155.482 364.227 155.407 364.227 155.332C364.236 155.171 364.305 155.018 364.419 154.904C364.533 154.79 364.685 154.721 364.847 154.712C365.76 154.728 366.655 154.97 367.451 155.418C368.247 155.865 368.919 156.503 369.408 157.275C369.461 157.377 369.486 157.491 369.479 157.606C369.472 157.721 369.434 157.832 369.369 157.927C369.303 158.022 369.214 158.097 369.109 158.145C369.004 158.193 368.888 158.211 368.774 158.198V158.198Z" fill="#263238"/>
<path d="M350.254 152.397C350.186 152.369 350.124 152.328 350.072 152.276C350.02 152.224 349.979 152.162 349.951 152.093C349.903 151.945 349.915 151.784 349.984 151.645C350.054 151.506 350.176 151.4 350.323 151.349C351.206 150.978 352.162 150.815 353.118 150.872C354.073 150.929 355.003 151.206 355.835 151.68C355.897 151.724 355.949 151.779 355.989 151.844C356.028 151.909 356.054 151.981 356.064 152.056C356.074 152.131 356.069 152.207 356.049 152.28C356.028 152.353 355.993 152.421 355.945 152.479C355.849 152.605 355.71 152.69 355.554 152.718C355.399 152.746 355.238 152.715 355.105 152.631C354.44 152.26 353.699 152.046 352.939 152.008C352.179 151.97 351.421 152.108 350.723 152.41C350.648 152.439 350.567 152.453 350.487 152.451C350.407 152.448 350.327 152.43 350.254 152.397V152.397Z" fill="#263238"/>
<path d="M364.733 161.932L362.625 160.706C362.625 160.706 363.245 162.814 364.733 161.932Z" fill="#263238"/>
<path d="M319.29 255.085H307.384C306.805 255.06 306.25 254.847 305.803 254.479C305.356 254.112 305.04 253.608 304.903 253.046L299.391 227.25C299.321 227.007 299.309 226.751 299.357 226.504C299.406 226.256 299.512 226.023 299.669 225.825C299.825 225.627 300.027 225.469 300.256 225.364C300.486 225.26 300.738 225.212 300.99 225.224H312.896C313.472 225.249 314.026 225.459 314.473 225.824C314.92 226.189 315.237 226.689 315.376 227.25L320.888 253.046C320.958 253.289 320.969 253.545 320.921 253.793C320.873 254.042 320.766 254.275 320.61 254.474C320.454 254.673 320.253 254.832 320.023 254.939C319.794 255.045 319.542 255.095 319.29 255.085V255.085Z" fill="#263238"/>
<path d="M317.915 255.085H306.009C305.43 255.06 304.875 254.847 304.428 254.479C303.981 254.112 303.665 253.608 303.528 253.046L298.016 227.25C297.946 227.007 297.934 226.751 297.982 226.504C298.031 226.256 298.137 226.023 298.294 225.825C298.45 225.627 298.652 225.469 298.881 225.364C299.111 225.26 299.363 225.212 299.615 225.224H311.521C312.097 225.249 312.651 225.459 313.098 225.824C313.545 226.189 313.862 226.689 314.001 227.25L319.513 253.046C319.583 253.289 319.594 253.545 319.546 253.793C319.498 254.042 319.391 254.275 319.235 254.474C319.079 254.673 318.878 254.832 318.648 254.939C318.419 255.045 318.167 255.095 317.915 255.085V255.085Z" fill="#263238"/>
<path opacity="0.2" d="M317.915 255.085H306.009C305.43 255.06 304.875 254.847 304.428 254.479C303.981 254.112 303.665 253.608 303.528 253.046L298.016 227.25C297.946 227.007 297.934 226.751 297.982 226.504C298.031 226.256 298.137 226.023 298.294 225.825C298.45 225.627 298.652 225.469 298.881 225.364C299.111 225.26 299.363 225.212 299.615 225.224H311.521C312.097 225.249 312.651 225.459 313.098 225.824C313.545 226.189 313.862 226.689 314.001 227.25L319.513 253.046C319.583 253.289 319.594 253.545 319.546 253.793C319.498 254.042 319.391 254.275 319.235 254.474C319.079 254.673 318.878 254.832 318.648 254.939C318.419 255.045 318.167 255.095 317.915 255.085V255.085Z" fill="white"/>
<path d="M313.642 239.886L317.335 239.073C318.017 238.922 318.725 238.935 319.401 239.113C320.077 239.29 320.701 239.626 321.221 240.092L326.154 244.53C327.121 245.408 327.866 246.502 328.328 247.724C328.79 248.946 328.957 250.259 328.813 251.557L328.621 253.183C322.599 254.961 314.841 252.453 314.841 252.453L312.525 251.985C312.049 251.902 311.594 251.725 311.186 251.465C310.779 251.204 310.427 250.866 310.151 250.468C309.875 250.071 309.681 249.622 309.58 249.149C309.479 248.676 309.473 248.188 309.563 247.713L310.431 243.124C310.601 242.334 310.994 241.609 311.563 241.035C312.132 240.461 312.853 240.062 313.642 239.886V239.886Z" fill="#CE7A63"/>
<path d="M377.151 213.056C375.13 212.864 373.116 213.482 371.55 214.774C369.985 216.066 368.995 217.926 368.8 219.946V220.208C368.662 221.586 368.483 223.267 368.304 224.824C368.125 226.381 367.904 227.994 367.67 229.578C367.202 232.762 366.637 235.903 366.003 239.018C365.369 242.132 364.625 245.191 363.729 248.181C362.999 250.579 362.158 252.894 361.262 255.154C360.151 255.199 359.039 255.13 357.942 254.947C354.383 254.412 350.866 253.634 347.414 252.619C344.175 251.599 340.909 250.414 337.644 249.174C334.378 247.933 331.084 246.597 327.874 245.315H327.791C326.927 244.956 325.962 244.926 325.078 245.232C324.193 245.538 323.452 246.157 322.995 246.973C322.538 247.789 322.396 248.745 322.597 249.659C322.798 250.572 323.327 251.38 324.084 251.93C327.116 254.162 330.175 256.064 333.33 258.048C336.486 260.032 339.752 261.727 343.156 263.367C347.074 265.084 351.131 266.467 355.282 267.501C357.528 268.12 359.843 268.454 362.172 268.493C363.732 268.511 365.285 268.283 366.774 267.818C368.862 267.179 370.726 265.96 372.149 264.304C372.396 263.997 372.617 263.669 372.81 263.326L372.948 263.064C374.73 259.783 376.277 256.38 377.578 252.88C378.833 249.469 379.9 245.991 380.775 242.463C381.671 238.976 382.36 235.462 382.925 231.935C383.186 230.157 383.421 228.393 383.627 226.616C383.834 224.838 383.986 223.116 384.082 221.104C384.187 219.127 383.525 217.187 382.233 215.688C380.942 214.188 379.121 213.245 377.151 213.056V213.056Z" fill="#CE7A63"/>
<path d="M379.454 206.965C387.97 212.987 388.384 221.999 383.781 239.252C377.621 242.339 362.656 238.439 362.656 238.439C362.656 238.439 367.369 211.651 379.454 206.965Z" fill="#278FD9"/>
<path d="M348.803 172.763C348.803 172.763 352.937 171.95 364.168 172.295C362.79 175.657 360.199 178.331 354.398 178.151C353.005 178.242 351.634 177.776 350.585 176.857C349.536 175.937 348.895 174.638 348.803 173.246C348.803 173.08 348.789 172.929 348.803 172.763Z" fill="#263238"/>
<path d="M357.155 175.52C354.931 175.331 352.704 175.847 350.789 176.994C351.847 177.722 353.101 178.111 354.386 178.11C356.606 178.305 358.831 177.789 360.738 176.636C359.692 175.894 358.438 175.503 357.155 175.52V175.52Z" fill="#BA4D3C"/>
<path d="M349.312 172.695C349.415 173.111 349.63 173.492 349.934 173.796C350.237 174.099 350.618 174.314 351.035 174.417C354.389 174.512 357.745 174.323 361.067 173.852C361.596 173.817 362.109 173.653 362.561 173.375C363.012 173.096 363.389 172.711 363.657 172.254C358.872 172.022 354.075 172.169 349.312 172.695V172.695Z" fill="white"/>
<path d="M363.136 142.585C362.413 142.695 361.7 142.857 361 143.068V143.729C362.813 143.705 364.618 143.97 366.347 144.514C375.882 147.422 377.371 152.782 374.174 160.706C372.644 164.482 371.817 172.488 373.581 173.99C374.036 174.376 375.414 174.321 377.205 173.99C378.39 171.234 379.52 168.023 380.967 163.972C381.985 161.322 382.277 158.449 381.814 155.649C381.35 152.849 380.147 150.224 378.33 148.044C376.512 145.864 374.146 144.209 371.475 143.249C368.804 142.29 365.925 142.06 363.136 142.585V142.585Z" fill="#263238"/>
<path d="M381.522 174.734C380.639 175.657 379.581 176.396 378.41 176.907C377.239 177.418 375.978 177.691 374.701 177.71C371.394 177.71 370.87 174.293 372.73 171.454C374.398 168.905 378.118 165.832 380.998 167.224C383.878 168.616 383.809 172.378 381.522 174.734Z" fill="#CE7A63"/>
<g opacity="0.9">
<path d="M361.192 233.271C337.986 231.893 327.513 227.553 323.338 225.127C323.203 225.056 323.078 224.968 322.966 224.866C321.767 223.818 323.283 221.903 324.675 222.702C328.326 224.811 338.386 229.096 361.357 230.515C361.72 230.537 362.06 230.701 362.303 230.972C362.545 231.243 362.671 231.599 362.652 231.962V231.962C362.644 232.145 362.599 232.323 362.52 232.488C362.442 232.653 362.331 232.8 362.196 232.922C362.06 233.044 361.901 233.138 361.729 233.198C361.556 233.258 361.374 233.283 361.192 233.271Z" fill="white"/>
</g>
<g opacity="0.9">
<path d="M359.985 246.39C359.986 246.577 359.948 246.762 359.874 246.934C359.801 247.106 359.693 247.261 359.558 247.39C359.422 247.519 359.262 247.619 359.087 247.684C358.912 247.749 358.725 247.777 358.538 247.768C345.298 247.287 332.278 244.235 320.202 238.784C320.036 238.701 319.888 238.585 319.767 238.443C319.646 238.302 319.555 238.137 319.5 237.959C319.445 237.782 319.426 237.595 319.445 237.409C319.464 237.224 319.52 237.045 319.61 236.882V236.882C319.78 236.573 320.061 236.34 320.397 236.233C320.733 236.125 321.097 236.15 321.415 236.303C333.166 241.559 345.814 244.515 358.676 245.012C359.03 245.03 359.363 245.183 359.606 245.439C359.85 245.696 359.986 246.036 359.985 246.39V246.39Z" fill="white"/>
</g>
<g opacity="0.9">
<path d="M336.645 269.361C325.897 267.267 320.371 265.834 318.042 265.227C317.864 265.176 317.697 265.088 317.553 264.971C317.409 264.853 317.29 264.707 317.204 264.542C317.118 264.378 317.066 264.197 317.051 264.012C317.037 263.826 317.06 263.64 317.119 263.463C317.233 263.129 317.471 262.851 317.783 262.687C318.096 262.523 318.46 262.485 318.8 262.581C321.033 263.215 326.545 264.635 337.169 266.715C337.527 266.786 337.842 266.995 338.046 267.297C338.25 267.599 338.326 267.97 338.258 268.328V268.328C338.175 268.675 337.961 268.978 337.66 269.17C337.359 269.363 336.996 269.432 336.645 269.361Z" fill="white"/>
</g>
<path d="M361.17 147.174C360.707 147.37 360.186 147.377 359.718 147.195C359.249 147.012 358.871 146.653 358.663 146.196C358.475 145.73 358.412 145.223 358.479 144.725C358.547 144.227 358.743 143.756 359.048 143.357C359.666 142.559 360.471 141.925 361.391 141.51C360.611 142.437 360.067 143.538 359.806 144.721C359.834 145.796 360.165 147.519 361.17 147.174Z" fill="#263238"/>
<path d="M372.676 175.299C372.673 175.426 372.644 175.55 372.59 175.664C372.535 175.779 372.457 175.88 372.361 175.962C372.265 176.044 372.152 176.105 372.031 176.14C371.909 176.176 371.782 176.185 371.656 176.167C371.404 176.112 371.171 175.988 370.986 175.808C370.801 175.627 370.67 175.399 370.609 175.147C370.505 174.638 370.505 174.113 370.609 173.604C370.692 172.43 370.977 171.279 371.45 170.2C371.925 169.113 372.79 168.243 373.875 167.761C374.069 167.991 374.192 168.272 374.231 168.57C374.27 168.868 374.223 169.171 374.095 169.443C373.811 169.927 373.489 170.388 373.131 170.821C372.715 171.436 372.446 172.139 372.343 172.874C372.241 173.61 372.307 174.359 372.538 175.065C372.648 175.092 372.566 175.285 372.676 175.299Z" fill="#263238"/>
<path d="M217.412 262.706H119.298C115.68 262.706 112.21 264.143 109.652 266.701C107.094 269.26 105.656 272.73 105.656 276.348V350.925C105.656 354.543 107.094 358.013 109.652 360.572C112.21 363.13 115.68 364.567 119.298 364.567H193.421C194.14 370.406 196.969 375.78 201.375 379.679C205.781 383.577 211.46 385.73 217.343 385.733C217.881 385.733 218.418 385.733 218.955 385.651C215.125 380.607 211.997 373.249 209.943 364.567H217.453C221.072 364.567 224.541 363.13 227.1 360.572C229.658 358.013 231.096 354.543 231.096 350.925V276.348C231.096 274.553 230.741 272.775 230.053 271.117C229.365 269.46 228.356 267.954 227.085 266.687C225.814 265.419 224.305 264.415 222.645 263.732C220.985 263.049 219.207 262.7 217.412 262.706Z" fill="#278FD9"/>
<path opacity="0.4" d="M217.412 262.706H119.298C115.68 262.706 112.21 264.143 109.652 266.701C107.094 269.26 105.656 272.73 105.656 276.348V350.925C105.656 354.543 107.094 358.013 109.652 360.572C112.21 363.13 115.68 364.567 119.298 364.567H193.421C194.14 370.406 196.969 375.78 201.375 379.679C205.781 383.577 211.46 385.73 217.343 385.733C217.881 385.733 218.418 385.733 218.955 385.651C215.125 380.607 211.997 373.249 209.943 364.567H217.453C221.072 364.567 224.541 363.13 227.1 360.572C229.658 358.013 231.096 354.543 231.096 350.925V276.348C231.096 274.553 230.741 272.775 230.053 271.117C229.365 269.46 228.356 267.954 227.085 266.687C225.814 265.419 224.305 264.415 222.645 263.732C220.985 263.049 219.207 262.7 217.412 262.706Z" fill="white"/>
<path d="M237.062 294.399L244.697 287.33L251.228 299.415C251.228 299.415 243.663 305.189 239.185 301.634L237.062 294.399Z" fill="#FF8B7B"/>
<path d="M237.062 294.386L231.867 305.437L238.991 311.335L245.22 301.248L237.062 294.386Z" fill="#FF8B7B"/>
<path d="M251.958 288.97L253.212 293.531C253.522 294.597 253.499 295.733 253.144 296.785C252.789 297.837 252.12 298.755 251.227 299.415L248.471 301.248L240.672 287.551L247.355 285.87C247.861 285.766 248.383 285.764 248.89 285.864C249.397 285.964 249.879 286.165 250.308 286.453C250.736 286.742 251.103 287.113 251.386 287.546C251.669 287.978 251.864 288.462 251.958 288.97V288.97Z" fill="#FF8B7B"/>
<path d="M237.062 294.399C237.062 294.399 239.819 285.883 239.378 283.279C239.143 281.722 240.756 281.97 242.051 282.438C242.55 282.608 242.986 282.926 243.301 283.349C243.616 283.772 243.795 284.281 243.815 284.809C243.925 287.565 243.815 292.939 241.706 293.283C240.129 293.522 238.576 293.896 237.062 294.399V294.399Z" fill="#FF8B7B"/>
<path d="M245.982 303.246C243.84 300.852 240.985 299.209 237.838 298.561L235.523 298.079C234.145 297.803 233.883 298.079 233.718 298.478L233.056 299.512L231.678 301.565C230.769 302.943 229.859 304.321 228.922 305.699C227.09 308.455 225.174 311.032 223.245 313.54C221.438 315.937 219.453 318.195 217.306 320.292L216.741 320.816C216.024 320.044 215.363 319.231 214.646 318.39C212.63 315.84 210.749 313.186 209.01 310.439C207.233 307.683 201.473 299.333 199.902 296.329C199.116 294.84 198.344 293.325 197.614 291.809L196.553 289.535C196.236 288.805 195.85 287.95 195.63 287.399L195.478 287.041C194.348 284.555 192.28 282.617 189.726 281.651C187.171 280.684 184.338 280.769 181.846 281.885C179.353 283.001 177.404 285.058 176.423 287.607C175.443 290.156 175.511 292.989 176.613 295.488C177.109 296.604 177.495 297.404 177.991 298.327L179.369 300.973C180.288 302.727 181.207 304.45 182.125 306.14C184.082 309.544 190.311 318.225 192.598 321.491C194.916 324.816 197.453 327.983 200.191 330.972C203.072 334.151 206.262 337.036 209.713 339.584L210.14 339.901C211.2 340.67 212.421 341.187 213.71 341.414C214.999 341.64 216.323 341.571 217.581 341.21C220.389 340.39 223.007 339.023 225.284 337.186C227.024 335.807 228.642 334.281 230.121 332.625C232.707 329.718 235.061 326.612 237.163 323.337C239.188 320.209 240.966 317.012 242.675 313.816C243.488 312.189 244.287 310.577 245.031 308.924L246.133 306.443L246.671 305.189C246.836 304.748 246.919 304.266 245.982 303.246Z" fill="#263238"/>
<path opacity="0.4" d="M194.912 298.864L187.333 304.225L185.156 309.406C185.528 310.095 185.887 310.784 186.272 311.473C188.215 314.877 190.406 318.184 192.639 321.45C194.957 324.774 197.493 327.942 200.232 330.93C201.61 332.308 202.988 333.686 204.366 335.064C200.645 326.314 194.912 298.864 194.912 298.864Z" fill="black"/>
<path d="M127.168 340.755C127.76 354.535 125.583 353.902 125.528 364.567H192.678C196.33 332.033 194.621 327.031 194.69 305.437C194.69 293.283 192.829 280.881 180.731 279.614C166.52 278.227 152.204 278.32 138.013 279.889C135.887 280.148 133.834 280.829 131.975 281.892C130.115 282.955 128.487 284.379 127.186 286.079C125.884 287.78 124.935 289.724 124.395 291.796C123.855 293.868 123.734 296.028 124.04 298.148C126.754 316.516 125.28 326.92 127.168 340.755Z" fill="#263238"/>
<path opacity="0.9" d="M174.598 279.104C165.651 278.518 156.677 278.491 147.727 279.021C147.919 281.777 150.014 288.667 165.269 294.634C165.269 294.634 168.672 287.248 171.538 290.569C171.538 290.569 173.84 286.324 178.773 294.138C178.773 294.138 186.131 286.255 174.598 279.104Z" fill="white"/>
<path opacity="0.4" d="M138.3 298.644C139.775 311.418 131.617 332.777 127.276 343.098C127.276 342.381 127.276 341.596 127.276 340.755C126.091 332.129 126.229 324.826 125.898 316.117L138.3 298.644Z" fill="black"/>
<path d="M154.316 254.658C154.543 263.037 152.924 271.364 149.576 279.049C149.452 279.341 149.421 279.665 149.487 279.976C149.554 280.286 149.715 280.569 149.948 280.785C155.571 285.633 162.781 288.242 170.205 288.116C179.231 288.226 178.707 285.36 176.571 282.232C176.26 281.787 175.855 281.416 175.386 281.143C169.213 277.478 168.992 272.572 170.728 269.609L154.316 254.658Z" fill="#FF8B7B"/>
<path opacity="0.2" d="M154.321 254.658L170.719 269.609C170.172 270.551 169.855 271.608 169.795 272.696C169.735 273.783 169.934 274.87 170.375 275.865C166.915 275.973 163.542 274.767 160.936 272.489C156.705 268.893 155.272 264.648 154.211 258.709C154.294 257.414 154.321 256.036 154.321 254.658Z" fill="black"/>
<path d="M149.44 246.886C150.157 257.91 148.6 259.674 154.194 265.255C162.614 273.647 176.325 275.245 178.268 264.083C180.004 254.024 181.024 235.821 170.152 231.576C167.756 230.623 165.156 230.297 162.599 230.629C160.042 230.96 157.612 231.939 155.538 233.472C153.465 235.004 151.817 237.041 150.75 239.388C149.682 241.735 149.232 244.316 149.44 246.886V246.886Z" fill="#FF8B7B"/>
<path d="M176.191 258.792C176.191 258.792 172.319 257.566 161.336 257.097C162.507 261.038 164.808 264.318 170.431 264.497C176.053 264.676 176.191 258.792 176.191 258.792Z" fill="#263238"/>
<path d="M167.924 261.286C170.136 261.251 172.286 262.009 173.987 263.422C172.971 264.184 171.713 264.551 170.446 264.456C168.231 264.5 166.075 263.736 164.383 262.306C165.401 261.549 166.659 261.187 167.924 261.286V261.286Z" fill="#FF5652"/>
<path d="M175.702 258.613C175.372 259.426 175.027 260.253 173.925 260.473C170.673 260.32 167.443 259.858 164.279 259.095C163.735 258.997 163.227 258.758 162.804 258.403C162.381 258.048 162.058 257.588 161.867 257.069C166.516 257.16 171.148 257.676 175.702 258.613V258.613Z" fill="white"/>
<path d="M171.883 248.498C173.044 250.553 174.487 252.437 176.168 254.093C175.734 254.518 175.211 254.842 174.637 255.042C174.063 255.243 173.452 255.314 172.847 255.25L171.883 248.498Z" fill="#FF5652"/>
<path d="M161.006 243.744C160.912 243.732 160.825 243.688 160.758 243.62C160.706 243.569 160.665 243.508 160.637 243.44C160.608 243.373 160.594 243.3 160.594 243.227C160.594 243.154 160.608 243.082 160.637 243.015C160.665 242.947 160.706 242.886 160.758 242.835C161.329 242.164 162.053 241.641 162.868 241.307C163.683 240.974 164.566 240.841 165.443 240.919C165.59 240.941 165.721 241.02 165.809 241.139C165.897 241.258 165.934 241.407 165.912 241.553C165.89 241.699 165.811 241.831 165.692 241.919C165.573 242.007 165.424 242.044 165.278 242.022V242.022C164.581 241.968 163.881 242.081 163.236 242.352C162.591 242.622 162.021 243.043 161.571 243.579C161.502 243.657 161.413 243.714 161.313 243.743C161.213 243.772 161.106 243.773 161.006 243.744V243.744Z" fill="#263238"/>
<path d="M179.313 245.701C179.223 245.717 179.131 245.71 179.044 245.681C178.958 245.652 178.88 245.602 178.817 245.536C178.36 245.015 177.785 244.611 177.14 244.357C176.496 244.102 175.8 244.006 175.11 244.075C174.968 244.099 174.822 244.067 174.703 243.984C174.585 243.902 174.503 243.776 174.476 243.634C174.452 243.488 174.486 243.338 174.571 243.217C174.656 243.096 174.786 243.013 174.931 242.986C175.8 242.891 176.68 243.003 177.497 243.315C178.314 243.626 179.045 244.128 179.63 244.778C179.682 244.829 179.723 244.89 179.752 244.958C179.78 245.025 179.794 245.097 179.794 245.171C179.794 245.244 179.78 245.316 179.752 245.383C179.723 245.451 179.682 245.512 179.63 245.563C179.541 245.64 179.43 245.688 179.313 245.701V245.701Z" fill="#263238"/>
<path d="M106.716 343.001C106.74 343.523 106.819 344.04 106.95 344.545C108.195 348.951 109.814 353.243 111.787 357.374C112.789 359.56 113.822 361.71 114.888 363.823C116.307 364.31 117.797 364.561 119.297 364.567H134.166L132.691 361.274C131.052 357.677 129.536 354.067 128.158 350.498C127.01 347.603 126.044 344.639 125.264 341.623C125.42 340.47 125.655 339.328 125.967 338.206C126.394 336.552 126.973 334.761 127.634 332.942C129.012 329.318 130.528 325.584 132.182 321.918C133.835 318.253 135.668 314.491 137.514 310.784C139.361 307.077 141.29 303.329 143.206 299.829V299.705L143.302 299.498C144.552 297.059 144.782 294.222 143.94 291.614C143.099 289.005 141.256 286.837 138.817 285.587C136.377 284.337 133.541 284.108 130.932 284.949C128.323 285.79 126.156 287.633 124.906 290.073C122.839 294.124 120.978 297.996 119.104 302.006C117.23 306.016 115.535 310.067 113.882 314.201C112.228 318.335 110.74 322.511 109.362 326.989C108.687 329.235 108.08 331.55 107.57 334.044C106.937 336.884 106.645 339.789 106.702 342.698L106.716 343.001Z" fill="#263238"/>
<path d="M144.428 254.272C145.383 256.635 147.201 258.546 149.513 259.619C152.462 260.886 154.088 258.006 153.385 254.699C152.765 251.737 150.464 247.492 147.446 247.63C144.428 247.768 143.174 251.24 144.428 254.272Z" fill="#FF8B7B"/>
<path d="M163.617 247.492C163.617 248.443 164.017 249.256 164.664 249.298C165.312 249.339 165.85 248.595 165.891 247.616C165.932 246.638 165.491 245.853 164.857 245.811C164.223 245.77 163.672 246.514 163.617 247.492Z" fill="#2E353A"/>
<path d="M174.516 248.126C174.516 249.091 174.929 249.904 175.549 249.945C176.169 249.987 176.734 249.229 176.803 248.264C176.872 247.299 176.39 246.5 175.77 246.459C175.15 246.418 174.571 247.162 174.516 248.126Z" fill="#2E353A"/>
<path d="M206.046 69.4134H107.988C104.372 69.4171 100.906 70.856 98.3502 73.414C95.7948 75.972 94.3594 79.4399 94.3594 83.0556V157.633C94.3576 159.424 94.7087 161.198 95.3928 162.853C96.0769 164.508 97.0805 166.012 98.3462 167.279C99.6119 168.546 101.115 169.551 102.769 170.236C104.424 170.922 106.197 171.275 107.988 171.275H182.083C182.793 177.117 185.617 182.496 190.022 186.398C194.426 190.3 200.107 192.454 205.991 192.455C206.542 192.455 207.08 192.455 207.617 192.372C203.786 187.315 200.645 179.97 198.605 171.275H206.115C209.733 171.275 213.203 169.838 215.762 167.279C218.32 164.721 219.757 161.251 219.757 157.633V83.0556C219.756 81.2588 219.399 79.48 218.709 77.8212C218.018 76.1624 217.007 74.6561 215.733 73.3888C214.46 72.1214 212.948 71.1179 211.286 70.4358C209.624 69.7536 207.843 69.4062 206.046 69.4134Z" fill="#278FD9"/>
<path opacity="0.4" d="M206.046 69.4134H107.988C104.372 69.4171 100.906 70.856 98.3502 73.414C95.7948 75.972 94.3594 79.4399 94.3594 83.0556V157.633C94.3576 159.424 94.7087 161.198 95.3928 162.853C96.0769 164.508 97.0805 166.012 98.3462 167.279C99.6119 168.546 101.115 169.551 102.769 170.236C104.424 170.922 106.197 171.275 107.988 171.275H182.083C182.793 177.117 185.617 182.496 190.022 186.398C194.426 190.3 200.107 192.454 205.991 192.455C206.542 192.455 207.08 192.455 207.617 192.372C203.786 187.315 200.645 179.97 198.605 171.275H206.115C209.733 171.275 213.203 169.838 215.762 167.279C218.32 164.721 219.757 161.251 219.757 157.633V83.0556C219.756 81.2588 219.399 79.48 218.709 77.8212C218.018 76.1624 217.007 74.6561 215.733 73.3888C214.46 72.1214 212.948 71.1179 211.286 70.4358C209.624 69.7536 207.843 69.4062 206.046 69.4134Z" fill="white"/>
<path d="M182.017 171.275C181.455 163.265 181.455 155.225 182.017 147.215C182.872 133.105 178.655 117.85 175.472 115.246C170.883 111.456 166.611 107.887 165.096 112.655C164.214 115.411 163.952 119.958 164.007 125.057C164.145 137.376 166.763 152.741 168.003 159.838C168.458 162.346 169.602 171.289 169.602 171.289L182.017 171.275Z" fill="#278FD9"/>
<path d="M173.439 115.852C173.282 114.839 172.836 113.893 172.154 113.128C171.472 112.363 170.583 111.811 169.595 111.539C166.15 110.616 160.197 109.114 154.781 108.149C148.4 107.112 141.953 106.523 135.489 106.385C131.355 106.22 127.387 106.385 124.203 106.523C123.826 106.553 123.453 106.617 123.087 106.716C122.415 106.907 121.787 107.228 121.238 107.661C120.69 108.095 120.233 108.632 119.892 109.243C119.552 109.853 119.335 110.525 119.254 111.219C119.174 111.913 119.231 112.617 119.422 113.289C127.593 142.461 129.288 156.42 129.715 171.275H169.595C171.455 157.798 175.107 146.733 175.437 138.81C175.721 131.104 175.05 123.393 173.439 115.852Z" fill="#278FD9"/>
<path opacity="0.8" d="M173.439 115.852C173.282 114.839 172.836 113.893 172.154 113.128C171.472 112.363 170.583 111.811 169.595 111.539C166.15 110.616 160.197 109.114 154.781 108.149C148.4 107.112 141.953 106.523 135.489 106.385C131.355 106.22 127.387 106.385 124.203 106.523C123.826 106.553 123.453 106.617 123.087 106.716C122.415 106.907 121.787 107.228 121.238 107.661C120.69 108.095 120.233 108.632 119.892 109.243C119.552 109.853 119.335 110.525 119.254 111.219C119.174 111.913 119.231 112.617 119.422 113.289C127.593 142.461 129.288 156.42 129.715 171.275H169.595C171.455 157.798 175.107 146.733 175.437 138.81C175.721 131.104 175.05 123.393 173.439 115.852Z" fill="white"/>
<path d="M157.058 101.411C154.44 104.952 152.524 109.155 156.631 113.813C157.521 114.784 158.043 116.038 158.105 117.354C158.105 119.462 156.934 121.488 150.071 117.464C140.122 111.622 140.963 105.062 140.963 105.062C146.185 103.478 149.314 92.495 150.526 86.2113L157.058 101.411Z" fill="#FFB573"/>
<path opacity="0.2" d="M151.079 95.5955C150.321 98.2688 153.146 102.485 155.296 104.222C155.796 103.253 156.382 102.331 157.046 101.466L153.187 92.4398C152.285 93.3438 151.569 94.4159 151.079 95.5955V95.5955Z" fill="black"/>
<path d="M177.255 68.3662C180.755 72.8034 172.873 86.17 172.019 83.3726C170.641 78.8252 168.629 69.5926 168.657 65.8031C168.712 59.8226 173.769 63.9428 177.255 68.3662Z" fill="#263238"/>
<path d="M148.24 69.758C149.169 68.1769 150.4 66.7944 151.863 65.6894C153.327 64.5843 154.994 63.7784 156.769 63.3178C158.543 62.8571 160.392 62.7506 162.208 63.0045C164.024 63.2583 165.772 63.8675 167.353 64.7972C176.737 70.2265 176.02 85.4672 172.575 94.2313C168.8 104.001 156.039 105.255 149.439 96.3672C145.002 90.4418 145.567 86.1286 146.352 75.9176C146.489 73.7447 147.136 71.6347 148.24 69.758V69.758Z" fill="#FFB573"/>
<path d="M160.711 81.03C160.642 81.8705 161.014 82.5871 161.552 82.6422C162.089 82.6973 162.599 82.0635 162.696 81.2642C162.792 80.465 162.392 79.7071 161.855 79.652C161.318 79.5968 160.835 80.2996 160.711 81.03Z" fill="#263238"/>
<path d="M161.578 79.776L163.631 79.4039C163.631 79.4039 162.474 80.8095 161.578 79.776Z" fill="#263238"/>
<path d="M171.156 83.4139C171.156 84.2545 171.459 84.9711 171.997 85.0262C172.534 85.0813 173.044 84.4474 173.141 83.6482C173.237 82.8489 172.837 82.0911 172.3 82.0359C171.763 81.9808 171.28 82.6285 171.156 83.4139Z" fill="#263238"/>
<path d="M172.023 82.1049L174.077 81.7328C174.077 81.7328 172.919 83.1384 172.023 82.1049Z" fill="#263238"/>
<path d="M167.242 89.7114C167.725 89.9078 168.245 89.9971 168.766 89.9733C169.287 89.9495 169.797 89.8132 170.26 89.5736C169.269 87.791 168.527 85.8807 168.055 83.8962L167.242 89.7114Z" fill="#ED893E"/>
<path d="M159.373 89.3669C159.347 89.3079 159.345 89.2415 159.365 89.1805C159.385 89.1195 159.427 89.0682 159.483 89.0362C159.542 89.0074 159.609 89.0028 159.671 89.0234C159.733 89.044 159.784 89.0883 159.814 89.1464C160.323 90.0503 161.039 90.8202 161.904 91.3929C162.769 91.9655 163.758 92.3243 164.788 92.4399C164.848 92.4558 164.9 92.4922 164.935 92.5426C164.97 92.593 164.987 92.6542 164.981 92.7154V92.7154C164.978 92.7459 164.969 92.7753 164.953 92.8018C164.938 92.8283 164.918 92.8514 164.893 92.8696C164.868 92.8877 164.84 92.9005 164.81 92.9072C164.78 92.9139 164.75 92.9143 164.72 92.9084C164.323 92.8649 163.931 92.7865 163.548 92.6741C162.668 92.4275 161.845 92.0081 161.128 91.4403C160.411 90.8725 159.815 90.1677 159.373 89.3669V89.3669Z" fill="#263238"/>
<path d="M160.354 75.7247C160.278 75.6224 160.245 75.4937 160.263 75.3671C160.281 75.2405 160.348 75.1262 160.451 75.0495C161.269 74.5532 162.185 74.2375 163.135 74.1234C164.086 74.0093 165.05 74.0995 165.963 74.388C166.084 74.4318 166.183 74.521 166.24 74.6367C166.296 74.7524 166.306 74.8856 166.266 75.0081C166.225 75.1283 166.138 75.2275 166.025 75.2842C165.911 75.3409 165.78 75.3507 165.66 75.3113C164.898 75.0658 164.094 74.983 163.299 75.0685C162.503 75.154 161.735 75.4057 161.043 75.8074C160.963 75.8711 160.863 75.9058 160.761 75.9058C160.658 75.9058 160.559 75.8711 160.478 75.8074L160.354 75.7247Z" fill="#263238"/>
<path d="M175.383 78.9079C175.052 78.39 174.602 77.9594 174.069 77.6524C173.537 77.3454 172.938 77.1711 172.324 77.144C172.26 77.1459 172.196 77.1348 172.135 77.1113C172.075 77.0879 172.02 77.0527 171.974 77.0077C171.928 76.9628 171.891 76.909 171.866 76.8495C171.841 76.7901 171.828 76.7262 171.828 76.6617C171.828 76.5325 171.878 76.4084 171.969 76.3157C172.059 76.2231 172.181 76.1692 172.31 76.1656C173.085 76.1929 173.841 76.4046 174.517 76.7833C175.193 77.162 175.769 77.6967 176.196 78.3429V78.3429C176.232 78.395 176.257 78.4537 176.269 78.5156C176.281 78.5775 176.281 78.6412 176.268 78.703C176.255 78.7647 176.23 78.8233 176.194 78.8751C176.158 78.9268 176.112 78.9708 176.059 79.0043C175.987 79.0512 175.903 79.0761 175.817 79.0761C175.732 79.0761 175.648 79.0512 175.576 79.0043L175.383 78.9079Z" fill="#263238"/>
<path d="M162.845 67.7185C161.306 68.0074 159.85 68.6343 158.582 69.5542C157.314 70.474 156.267 71.6637 155.514 73.0376C154.812 74.3329 150.292 77.1716 149.52 78.4531C147.095 82.4907 149.741 93.9832 148.597 94.8513C147.453 95.7195 147.853 92.3158 146.764 91.6544C145.609 91.133 144.502 90.5104 143.457 89.7941C142.079 88.6365 137.297 76.1656 143.195 68.6142C146.13 64.631 150.426 61.8651 155.266 60.8423C160.17 60.0089 165.205 61.1535 169.267 64.0255C170.548 64.9487 172.794 67.4705 169.267 68.6004C168.302 68.9036 168.261 68.1319 167.255 67.8839C165.814 67.5115 164.31 67.4551 162.845 67.7185V67.7185Z" fill="#263238"/>
<path d="M139.392 78.4532C142.795 75.146 147.04 75.1459 150.788 75.1459C152.569 75.287 154.36 75.0859 156.066 74.5534C159.841 72.9136 162.156 67.5256 162.584 65.7618C162.812 65.04 163.22 64.3881 163.77 63.8674C164.319 63.3467 164.992 62.9743 165.725 62.7853C166.322 62.756 166.917 62.8652 167.465 63.1042C168.012 63.3433 168.497 63.7058 168.881 64.1633C169.556 65.1417 169.487 66.561 168.674 68.2973L169.212 68.5316C170.107 66.5335 170.149 64.935 169.363 63.7775C168.919 63.241 168.358 62.814 167.722 62.5296C167.086 62.2452 166.394 62.1111 165.698 62.1376C164.837 62.3297 164.042 62.7475 163.395 63.348C162.749 63.9486 162.274 64.7103 162.019 65.5551C161.633 67.1811 159.359 72.4451 155.831 73.9609C154.2 74.4619 152.488 74.6444 150.788 74.4983C147.122 74.4983 142.52 74.4983 138.992 77.9709L139.392 78.4532Z" fill="#263238"/>
<path opacity="0.1" d="M139.392 78.4532C142.795 75.146 147.04 75.1459 150.788 75.1459C152.569 75.287 154.36 75.0859 156.066 74.5534C159.841 72.9136 162.156 67.5256 162.584 65.7618C162.812 65.04 163.22 64.3881 163.77 63.8674C164.319 63.3467 164.992 62.9743 165.725 62.7853C166.322 62.756 166.917 62.8652 167.465 63.1042C168.012 63.3433 168.497 63.7058 168.881 64.1633C169.556 65.1417 169.487 66.561 168.674 68.2973L169.212 68.5316C170.107 66.5335 170.149 64.935 169.363 63.7775C168.919 63.241 168.358 62.814 167.722 62.5296C167.086 62.2452 166.394 62.1111 165.698 62.1376C164.837 62.3297 164.042 62.7475 163.395 63.348C162.749 63.9486 162.274 64.7103 162.019 65.5551C161.633 67.1811 159.359 72.4451 155.831 73.9609C154.2 74.4619 152.488 74.6444 150.788 74.4983C147.122 74.4983 142.52 74.4983 138.992 77.9709L139.392 78.4532Z" fill="white"/>
<path d="M142.313 82.3253C142.369 81.8879 142.511 81.4658 142.731 81.0834C142.951 80.701 143.244 80.3657 143.593 80.0968C143.943 79.8279 144.342 79.6307 144.768 79.5166C145.194 79.4024 145.638 79.3735 146.075 79.4315C148.611 79.8174 149.768 83.2348 149.768 85.4672C149.768 87.9338 147.936 89.7665 145.703 88.3747C144.031 87.3082 142.847 85.6243 142.41 83.6895C142.282 83.2467 142.249 82.7818 142.313 82.3253V82.3253Z" fill="#FFB573"/>
<path d="M146.823 118.691C146.285 125.746 139.768 152.397 125.643 153.141C123.393 153.204 121.2 152.422 119.497 150.95V150.95C108.115 144.06 117.058 110.85 119.346 108.921C120.339 108.069 121.53 107.48 122.809 107.207C124.089 106.934 125.417 106.987 126.671 107.36C127.925 107.732 129.066 108.414 129.989 109.341C130.912 110.269 131.588 111.413 131.954 112.669C132.252 111.618 132.486 110.551 132.657 109.472C133.25 105.875 135.206 97.4971 138.817 96.8908C140.994 96.5187 145.472 96.3258 146.768 98.1034C148.063 99.8811 147.719 107.047 146.823 118.691Z" fill="#278FD9"/>
<g opacity="0.2">
<path d="M146.07 79.4315V80.0516L146.718 86.1699V94.0521L147.793 89.3669C148.066 88.1462 148.126 86.8876 147.972 85.6463L147.214 79.776L146.07 79.4315Z" fill="black"/>
</g>
<path d="M138.992 98.3101L137.297 86.0321L147.535 85.9495C147.535 85.9495 146.695 95.1683 144.132 98.3515L138.992 98.3101Z" fill="#FFB573"/>
<path d="M139.102 77.6401L146.681 78.9767L147.494 85.9219L137.297 86.0321L139.102 77.6401Z" fill="#FFB573"/>
<path opacity="0.2" d="M128.806 123.844C128.806 123.844 122.674 138.01 122.481 132.402C122.288 126.297 128.806 123.844 128.806 123.844Z" fill="black"/>
<path d="M506.773 206.676H468.85C467.114 206.676 465.449 207.366 464.222 208.593C462.994 209.821 462.305 211.486 462.305 213.222V237.64C462.308 239.373 463 241.035 464.227 242.259C465.454 243.484 467.117 244.171 468.85 244.171H479.75L484.615 250.538C484.989 251.029 485.471 251.427 486.025 251.701C486.578 251.975 487.187 252.118 487.805 252.118C488.422 252.118 489.031 251.975 489.585 251.701C490.138 251.427 490.62 251.029 490.995 250.538L495.859 244.171H506.773C508.505 244.171 510.166 243.483 511.391 242.258C512.616 241.033 513.304 239.372 513.304 237.64V213.222C513.304 211.488 512.617 209.825 511.392 208.598C510.168 207.371 508.506 206.68 506.773 206.676V206.676Z" fill="#278FD9"/>
<path opacity="0.7" d="M506.773 206.676H468.85C467.114 206.676 465.449 207.366 464.222 208.593C462.994 209.821 462.305 211.486 462.305 213.222V237.64C462.308 239.373 463 241.035 464.227 242.259C465.454 243.484 467.117 244.171 468.85 244.171H479.75L484.615 250.538C484.989 251.029 485.471 251.427 486.025 251.701C486.578 251.975 487.187 252.118 487.805 252.118C488.422 252.118 489.031 251.975 489.585 251.701C490.138 251.427 490.62 251.029 490.995 250.538L495.859 244.171H506.773C508.505 244.171 510.166 243.483 511.391 242.258C512.616 241.033 513.304 239.372 513.304 237.64V213.222C513.304 211.488 512.617 209.825 511.392 208.598C510.168 207.371 508.506 206.68 506.773 206.676V206.676Z" fill="white"/>
<path d="M504.566 223.46L492.453 216.074V220.511H486.941C483.375 220.511 479.954 221.928 477.431 224.45C474.909 226.973 473.492 230.393 473.492 233.96C473.496 234.957 473.607 235.95 473.823 236.923C474.5 233.948 476.166 231.291 478.549 229.386C480.932 227.482 483.891 226.442 486.941 226.437H492.453V230.887L504.566 223.46Z" fill="#278FD9"/>
<path d="M239.932 57.2181H269.008C270.338 57.2181 271.614 57.7466 272.554 58.6873C273.495 59.6279 274.024 60.9038 274.024 62.2341V81.03C274.024 81.688 273.894 82.3396 273.641 82.9474C273.389 83.5552 273.02 84.1072 272.554 84.5719C272.088 85.0366 271.535 85.4047 270.926 85.6553C270.318 85.9059 269.666 86.0339 269.008 86.0321H260.643L256.923 90.924C256.636 91.301 256.266 91.6066 255.842 91.8169C255.417 92.0273 254.95 92.1368 254.477 92.1368C254.003 92.1368 253.536 92.0273 253.112 91.8169C252.687 91.6066 252.317 91.301 252.031 90.924L248.296 86.0321H239.932C239.274 86.0339 238.623 85.9058 238.015 85.6551C237.408 85.4043 236.856 85.0359 236.391 84.5711C235.926 84.1062 235.558 83.5541 235.307 82.9464C235.056 82.3387 234.928 81.6874 234.93 81.03V62.2341C234.928 61.576 235.056 60.9241 235.307 60.3156C235.557 59.7071 235.925 59.1541 236.39 58.6881C236.855 58.2221 237.407 57.8525 238.014 57.6002C238.622 57.348 239.274 57.2181 239.932 57.2181V57.2181Z" fill="#278FD9"/>
<path opacity="0.7" d="M239.932 57.2181H269.008C270.338 57.2181 271.614 57.7466 272.554 58.6873C273.495 59.6279 274.024 60.9038 274.024 62.2341V81.03C274.024 81.688 273.894 82.3396 273.641 82.9474C273.389 83.5552 273.02 84.1072 272.554 84.5719C272.088 85.0366 271.535 85.4047 270.926 85.6553C270.318 85.9059 269.666 86.0339 269.008 86.0321H260.643L256.923 90.924C256.636 91.301 256.266 91.6066 255.842 91.8169C255.417 92.0273 254.95 92.1368 254.477 92.1368C254.003 92.1368 253.536 92.0273 253.112 91.8169C252.687 91.6066 252.317 91.301 252.031 90.924L248.296 86.0321H239.932C239.274 86.0339 238.623 85.9058 238.015 85.6551C237.408 85.4043 236.856 85.0359 236.391 84.5711C235.926 84.1062 235.558 83.5541 235.307 82.9464C235.056 82.3387 234.928 81.6874 234.93 81.03V62.2341C234.928 61.576 235.056 60.9241 235.307 60.3156C235.557 59.7071 235.925 59.1541 236.39 58.6881C236.855 58.2221 237.407 57.8525 238.014 57.6002C238.622 57.348 239.274 57.2181 239.932 57.2181V57.2181Z" fill="white"/>
<path d="M241.656 70.0886L250.972 64.4113V67.8149H255.23C256.775 67.8192 258.3 68.1701 259.692 68.8417C261.084 69.5133 262.308 70.4886 263.273 71.6958C264.238 72.903 264.92 74.3112 265.269 75.8169C265.618 77.3226 265.625 78.8874 265.289 80.396C264.771 78.1153 263.493 76.0782 261.665 74.6186C259.838 73.159 257.568 72.3635 255.23 72.3623H250.972V75.766L241.656 70.0886Z" fill="#278FD9"/>
</svg>
