<svg width="49" height="39" viewBox="0 0 49 39" fill="none" xmlns="http://www.w3.org/2000/svg">
<g opacity="0.5">
<path d="M1.48633 37.1646V24.5449C1.4919 22.6341 2.24288 20.8032 3.57524 19.4521C4.90761 18.1009 6.71308 17.3393 8.59733 17.3337H40.5968C42.4811 17.3393 44.2865 18.1009 45.6189 19.4521C46.9513 20.8032 47.7022 22.6341 47.7078 24.5449V37.1646M38.8191 17.3337H6.81958V5.61542C6.82309 4.42118 7.29247 3.27687 8.12519 2.43242C8.95791 1.58796 10.0863 1.11197 11.2639 1.1084H37.9302C39.1078 1.11197 40.2362 1.58796 41.0689 2.43242C41.9017 3.27687 42.371 4.42118 42.3746 5.61542V17.3337H38.8191Z" stroke="black" stroke-width="1.95304" stroke-linecap="round" stroke-linejoin="round"/>
<path d="M1.48584 37.1641V36.2627C1.48789 35.5462 1.7695 34.8596 2.26914 34.3529C2.76879 33.8462 3.44586 33.5606 4.15246 33.5585H45.0407C45.7473 33.5606 46.4244 33.8462 46.924 34.3529C47.4237 34.8596 47.7053 35.5462 47.7073 36.2627V37.1641M8.59684 17.3332V15.5304C8.59948 14.575 8.97492 13.6594 9.64113 12.9838C10.3073 12.3082 11.2102 11.9275 12.1523 11.9248H21.0411C21.9832 11.9275 22.8861 12.3082 23.5523 12.9838C24.2185 13.6594 24.5939 14.575 24.5966 15.5304V17.3332M24.5966 17.3332V15.5304C24.5992 14.575 24.9747 13.6594 25.6409 12.9838C26.3071 12.3082 27.2099 11.9275 28.1521 11.9248H37.0408C37.983 11.9275 38.8858 12.3082 39.552 12.9838C40.2182 13.6594 40.5937 14.575 40.5963 15.5304V17.3332" stroke="black" stroke-width="1.95304" stroke-linecap="round" stroke-linejoin="round"/>
</g>
</svg>
