<svg width="34" height="35" viewBox="0 0 34 35" fill="none" xmlns="http://www.w3.org/2000/svg">
<path fill-rule="evenodd" clip-rule="evenodd" d="M16.74 3.19409C9.03964 3.19409 2.79004 9.63176 2.79004 17.5639C2.79004 25.496 9.03964 31.9337 16.74 31.9337C24.4404 31.9337 30.69 25.496 30.69 17.5639C30.69 9.63176 24.4404 3.19409 16.74 3.19409V3.19409ZM18.1351 27.6227H15.3451V24.7487H18.1351V27.6227V27.6227ZM21.0227 16.4861L19.7672 17.8081C18.7628 18.8571 18.135 19.7193 18.135 21.8748H15.345V21.1563C15.345 19.5756 15.9728 18.1386 16.9772 17.0896L18.707 15.279C19.2231 14.7617 19.53 14.0432 19.53 13.2529C19.53 11.6722 18.2745 10.3789 16.74 10.3789C15.2055 10.3789 13.95 11.6722 13.95 13.2529H11.16C11.16 10.0772 13.6571 7.50498 16.74 7.50498C19.823 7.50498 22.32 10.0772 22.32 13.2529C22.32 14.5174 21.8178 15.667 21.0227 16.4861V16.4861Z" fill="#898989"/>
</svg>
