<svg width="36" height="36" viewBox="0 0 36 36" fill="none" xmlns="http://www.w3.org/2000/svg">
<path fill-rule="evenodd" clip-rule="evenodd" d="M18.2376 32.9336C19.7721 32.9336 21.0276 31.6404 21.0276 30.0597H15.4476C15.4476 31.6404 16.7031 32.9336 18.2376 32.9336V32.9336ZM27.3051 24.3118V16.4084C27.3051 11.9969 24.3338 8.30385 20.3301 7.32671V6.34956C20.3301 5.15687 19.3955 4.19409 18.2376 4.19409C17.0798 4.19409 16.1451 5.15687 16.1451 6.34956V7.32671C12.1415 8.30385 9.17013 11.9969 9.17013 16.4084V24.3118L6.38013 27.1858V28.6227H30.0951V27.1858L27.3051 24.3118V24.3118Z" fill="#898989"/>
<ellipse cx="28.7001" cy="7.06799" rx="5.58" ry="5.74792" fill="#F9837C" stroke="white" stroke-width="2.325"/>
</svg>
