<svg width="60" height="61" viewBox="0 0 60 61" fill="none" xmlns="http://www.w3.org/2000/svg">
<path d="M36.4307 32.2143C39.4873 29.9851 41.4778 26.3773 41.4778 22.3129C41.4778 15.5589 35.983 10.0641 29.229 10.0641C22.475 10.0641 16.9802 15.5589 16.9802 22.3129C16.9802 26.3773 18.9706 29.9851 22.0274 32.2143C14.4289 35.1221 9.01855 42.4893 9.01855 51.0976C9.01855 54.8123 12.0407 57.8344 15.7554 57.8344H42.7027C46.4174 57.8344 49.4395 54.8123 49.4395 51.0976C49.4395 42.4893 44.0292 35.1221 36.4307 32.2143ZM20.6549 22.3129C20.6549 17.5851 24.5013 13.7388 29.229 13.7388C33.9568 13.7388 37.8032 17.5851 37.8032 22.3129C37.8032 27.0407 33.9568 30.8871 29.229 30.8871C24.5013 30.8871 20.6549 27.0407 20.6549 22.3129ZM42.7027 54.1598H15.7554C14.0669 54.1598 12.6932 52.7861 12.6932 51.0975C12.6932 41.9796 20.1111 34.5616 29.2291 34.5616C38.3472 34.5616 45.765 41.9795 45.765 51.0975C45.7649 52.7861 44.3913 54.1598 42.7027 54.1598Z" fill="white"/>
</svg>
