<svg width="22" height="21" viewBox="0 0 22 21" fill="none" xmlns="http://www.w3.org/2000/svg">
<path d="M20.5167 6.40337L13.7047 0.953773C12.3735 -0.107027 10.2935 -0.117427 8.97272 0.943373L2.16072 6.40337C1.18312 7.18337 0.590316 8.74337 0.798316 9.97057L2.10872 17.8122C2.41032 19.5698 4.04312 20.953 5.82152 20.953H16.8455C18.6031 20.953 20.2671 19.5386 20.5687 17.8018L21.8791 9.96017C22.0663 8.74337 21.4735 7.18337 20.5167 6.40337ZM12.1135 16.793C12.1135 17.2194 11.7599 17.573 11.3335 17.573C10.9071 17.573 10.5535 17.2194 10.5535 16.793V13.673C10.5535 13.2466 10.9071 12.893 11.3335 12.893C11.7599 12.893 12.1135 13.2466 12.1135 13.673V16.793Z" fill="#278FD9"/>
</svg>
