<svg width="88" height="88" viewBox="0 0 88 88" fill="none" xmlns="http://www.w3.org/2000/svg">
<g clip-path="url(#clip0_532_2502)">
<path d="M82.1336 53.0199H68.9336V73.5532H82.1336V53.0199ZM79.2003 55.9532V64.7532H71.8669V55.9532H79.2003ZM71.8669 70.6199V67.6866H79.2003V70.6199H71.8669Z" fill="white"/>
<path d="M80.6668 42.4604V22.2199H67.4668V25.1533H77.7335V39.6731L55.7335 18.7001L23.4668 49.5001V82.3533H88.0001V49.5001L80.6668 42.4604ZM48.4001 66.2199H51.3335V63.2866H48.4001V51.5533H63.0668V79.4199H48.4001V66.2199ZM85.0668 79.4199H66.0001V48.6199H45.4668V79.4199H26.4001V50.6731L55.7335 22.8065L85.0668 50.6731V79.4199Z" fill="white"/>
<path d="M5.86621 76.4865H19.0662V50.0865H5.86621V76.4865ZM8.79954 73.5532V72.0865H16.1329V73.5532H8.79954ZM16.1329 53.0199V69.1532H8.79954V53.0199H16.1329Z" fill="white"/>
<path d="M2.93333 40.4064L36.6667 9.60638L48.8397 21.7801L50.8936 19.727L36.6667 5.5L0 39.2333V82.3532H20.5333V79.4199H2.93333V40.4064Z" fill="white"/>
<path d="M49.8669 14.8866H52.8003V9.0199H46.9336V11.9532H49.8669V14.8866Z" fill="white"/>
<path d="M16.5518 38.7922L37.0801 19.7291L39.0767 21.8783L18.5484 40.9414L16.5518 38.7922Z" fill="white"/>
<path d="M45.4668 42.7532H66.0001V45.6865H45.4668V42.7532Z" fill="white"/>
</g>
<defs>
<clipPath id="clip0_532_2502">
<rect width="88" height="88" fill="white"/>
</clipPath>
</defs>
</svg>
