<svg id="group-1000001363" xmlns="http://www.w3.org/2000/svg" xmlns:xlink="http://www.w3.org/1999/xlink" viewBox="0 0 713 667" shape-rendering="geometricPrecision" text-rendering="geometricPrecision">
<style><![CDATA[
#group-1000001363-s-g1_to {animation: group-1000001363-s-g1_to__to 3000ms linear infinite normal forwards}@keyframes group-1000001363-s-g1_to__to { 0% {offset-distance: 0%} 100% {offset-distance: 100%}} #group-1000001363-s-g1_ts {animation: group-1000001363-s-g1_ts__ts 3000ms linear infinite normal forwards}@keyframes group-1000001363-s-g1_ts__ts { 0% {transform: scale(1,1)} 100% {transform: scale(0.128887,0.141038)}} #group-1000001363-s-g4_to {animation: group-1000001363-s-g4_to__to 3000ms linear infinite normal forwards}@keyframes group-1000001363-s-g4_to__to { 0% {offset-distance: 0%} 100% {offset-distance: 100%}} #group-1000001363-s-g4_ts {animation: group-1000001363-s-g4_ts__ts 3000ms linear infinite normal forwards}@keyframes group-1000001363-s-g4_ts__ts { 0% {transform: scale(1,1)} 100% {transform: scale(8.044111,8.034685)}} #group-1000001363-s-g8_to {animation: group-1000001363-s-g8_to__to 3000ms linear infinite normal forwards}@keyframes group-1000001363-s-g8_to__to { 0% {offset-distance: 0%} 100% {offset-distance: 100%}} #group-1000001363-s-g12_to {animation: group-1000001363-s-g12_to__to 3000ms linear infinite normal forwards}@keyframes group-1000001363-s-g12_to__to { 0% {offset-distance: 0%} 100% {offset-distance: 100%}}
]]></style>
<path id="group-1000001363-s-path1" d="M701,333.504C701,510.92,562.398,654.68,391.5,654.68s-309.5-143.76-309.5-321.176s138.602-321.1764,309.5-321.1764s309.5,143.7604,309.5,321.1764Z" fill="rgba(255,255,255,0)" stroke="#278fd9" stroke-width="2"/><g id="group-1000001363-s-g1_to" style="offset-path:path('M84,333.496002C100.420175,443.499013,119.506153,617.58557,383.923492,657.1915');offset-rotate:0deg"><g id="group-1000001363-s-g1_ts" transform="scale(1,1)"><g id="group-1000001363-s-g1" transform="translate(-84,-333.496002)"><ellipse id="group-1000001363-s-ellipse1" rx="84" ry="87.0187" transform="translate(84 333.496)" fill="#278fd9"/><g id="group-1000001363-s-g2" clip-path="url(#group-1000001363-u-clip0_1301_1218)"><g id="group-1000001363-s-g3"><path id="group-1000001363-s-path2" d="M122.134,342.84h-13.2v21.271h13.2v-21.271Zm-2.934,3.038v9.117h-7.333v-9.117h7.333Zm-7.333,15.194v-3.039h7.333v3.039h-7.333Z" fill="#fff"/><path id="group-1000001363-s-path3" d="M120.667,331.901v-20.968h-13.2v3.039h10.266v15.041L95.7335,307.287L63.4668,339.193v34.034h64.5332v-34.034l-7.333-7.292ZM88.4001,356.514h2.9334v-3.039h-2.9334v-12.155h14.6669v28.869h-14.6669v-13.675Zm36.6669,13.675h-19.067v-31.907h-20.5332v31.907h-19.0667v-29.78l29.3334-28.868l29.3335,28.868v29.78Z" fill="#fff"/><path id="group-1000001363-s-path4" d="M45.8662,367.15h13.2v-27.349h-13.2v27.349Zm2.9333-3.039v-1.519h7.3334v1.519h-7.3334Zm7.3334-21.271v16.713h-7.3334v-16.713h7.3334Z" fill="#fff"/><path id="group-1000001363-s-path5" d="M42.9333,329.773l33.7334-31.907l12.173,12.611l2.0539-2.127-14.2269-14.738L40,328.558v44.669h20.5333v-3.039h-17.6v-40.415Z" fill="#fff"/><path id="group-1000001363-s-path6" d="M89.8669,303.336h2.9334v-6.077h-5.8667v3.038h2.9333v3.039Z" fill="#fff"/><path id="group-1000001363-s-path7" d="M56.5518,328.101l20.5283-19.748l1.9966,2.226-20.5283,19.748-1.9966-2.226Z" fill="#fff"/><path id="group-1000001363-s-path8" d="M85.4668,332.204h20.5332v3.039h-20.5332v-3.039Z" fill="#fff"/></g><clipPath id="group-1000001363-u-clip0_1301_1218"><rect id="group-1000001363-s-rect1" width="88" height="91.1624" rx="0" ry="0" transform="translate(40 287.915)" fill="#fff"/></clipPath></g></g></g></g><g id="group-1000001363-s-g4_to" style="offset-path:path('M391.5,10.877301C206.707132,13.966478,69.551696,186.490712,83.536835,334.191996');offset-rotate:0deg"><g id="group-1000001363-s-g4_ts" transform="scale(1,1)"><g id="group-1000001363-s-g4" transform="translate(-391.5,-10.8773)"><g id="group-1000001363-s-g5"><ellipse id="group-1000001363-s-ellipse2" rx="10.5" ry="10.8773" transform="translate(391.5 10.8773)" fill="#278fd9"/><g id="group-1000001363-s-g6" clip-path="url(#group-1000001363-u-clip3_1301_1218)"><g id="group-1000001363-s-g7"><path id="group-1000001363-s-path9" d="M395.4,11.025h-1.35v2.3334h1.35v-2.3334Zm-.3.3334v1h-.75v-1h.75Zm-.75,1.6666v-.3333h.75v.3333h-.75Z" fill="#fff"/><path id="group-1000001363-s-path10" d="M395.25,9.82503v-2.30005h-1.35v.33334h1.05v1.64998L392.7,7.125l-3.3,3.5v3.7333h6.6v-3.7333l-.75-.79997Zm-3.3,2.69997h.3v-.3333h-.3v-1.3334h1.5v3.1667h-1.5v-1.5Zm3.75,1.5h-1.95v-3.5h-2.1v3.5h-1.95v-3.2667l3-3.16667l3,3.16667v3.2667Z" fill="#fff"/><path id="group-1000001363-s-path11" d="M387.6,13.6916h1.35v-2.9999h-1.35v2.9999Zm.3-.3333v-.1667h.75v.1667h-.75Zm.75-2.3333v1.8333h-.75v-1.8333h.75Z" fill="#fff"/><path id="group-1000001363-s-path12" d="M387.3,9.59163l3.45-3.5l1.245,1.38339.21-.23332L390.75,5.625L387,9.45833v4.89997h2.1v-.3333h-1.8v-4.43337Z" fill="#fff"/><path id="group-1000001363-s-path13" d="M392.1,6.69169h.3v-.66667h-.6v.33334h.3v.33333Z" fill="#fff"/><path id="group-1000001363-s-path14" d="M388.693,9.4082l2.099-2.16626.205.24423-2.1,2.16626-.204-.24423Z" fill="#fff"/><path id="group-1000001363-s-path15" d="M391.65,9.85828h2.1v.33332h-2.1v-.33332Z" fill="#fff"/></g><clipPath id="group-1000001363-u-clip3_1301_1218"><rect id="group-1000001363-s-rect2" width="9" height="10" rx="0" ry="0" transform="translate(387 5)" fill="#fff"/></clipPath></g></g></g></g></g><g id="group-1000001363-s-g8_to" style="offset-path:path('M702.5,332.877029C702.868937,160.356849,551.919175,6.269343,387.987815,17.456859');offset-rotate:0deg"><g id="group-1000001363-s-g8" transform="translate(-702.5,-332.877029)"><ellipse id="group-1000001363-s-ellipse3" rx="10.5" ry="10.8773" transform="translate(702.5 332.877)" fill="#278fd9"/><g id="group-1000001363-s-g9" clip-path="url(#group-1000001363-u-clip2_1301_1218)"><g id="group-1000001363-s-g10"><path id="group-1000001363-s-path16" d="M706.4,333.025h-1.35v2.333h1.35v-2.333Zm-.3.333v1h-.75v-1h.75Zm-.75,1.667v-.333h.75v.333h-.75Z" fill="#fff"/><path id="group-1000001363-s-path17" d="M706.25,331.825v-2.3h-1.35v.333h1.05v1.65l-2.25-2.383-3.3,3.5v3.733h6.6v-3.733l-.75-.8Zm-3.3,2.7h.3v-.333h-.3v-1.334h1.5v3.167h-1.5v-1.5Zm3.75,1.5h-1.95v-3.5h-2.1v3.5h-1.95v-3.267l3-3.166l3,3.166v3.267Z" fill="#fff"/><path id="group-1000001363-s-path18" d="M698.6,335.692h1.35v-3h-1.35v3Zm.3-.334v-.166h.75v.166h-.75Zm.75-2.333v1.833h-.75v-1.833h.75Z" fill="#fff"/><path id="group-1000001363-s-path19" d="M698.3,331.592l3.45-3.5l1.245,1.383.21-.233-1.455-1.617-3.75,3.833v4.9h2.1v-.333h-1.8v-4.433Z" fill="#fff"/><path id="group-1000001363-s-path20" d="M703.1,328.692h.3v-.667h-.6v.333h.3v.334Z" fill="#fff"/><path id="group-1000001363-s-path21" d="M699.693,331.408l2.099-2.166.205.244-2.1,2.166-.204-.244Z" fill="#fff"/><path id="group-1000001363-s-path22" d="M702.65,331.858h2.1v.334h-2.1v-.334Z" fill="#fff"/></g><clipPath id="group-1000001363-u-clip2_1301_1218"><rect id="group-1000001363-s-rect3" width="9" height="10" rx="0" ry="0" transform="translate(698 327)" fill="#fff"/></clipPath></g></g></g><g id="group-1000001363-s-g11" transform="translate(0 0.000001)"><g id="group-1000001363-s-g12_to" style="offset-path:path('M392.5,655.876984C541.017788,661.414409,710.081,515.633472,702.5,333.499999');offset-rotate:0deg"><g id="group-1000001363-s-g12" transform="translate(-392.5,-655.876983)"><ellipse id="group-1000001363-s-ellipse4" rx="10.5" ry="10.8773" transform="translate(392.5 655.877)" fill="#278fd9"/><g id="group-1000001363-s-g13" clip-path="url(#group-1000001363-u-clip1_1301_1218)"><g id="group-1000001363-s-g14"><path id="group-1000001363-s-path23" d="M396.4,656.025h-1.35v2.333h1.35v-2.333Zm-.3.333v1h-.75v-1h.75Zm-.75,1.667v-.333h.75v.333h-.75Z" fill="#fff"/><path id="group-1000001363-s-path24" d="M396.25,654.825v-2.3h-1.35v.333h1.05v1.65l-2.25-2.383-3.3,3.5v3.733h6.6v-3.733l-.75-.8Zm-3.3,2.7h.3v-.333h-.3v-1.334h1.5v3.167h-1.5v-1.5Zm3.75,1.5h-1.95v-3.5h-2.1v3.5h-1.95v-3.267l3-3.166l3,3.166v3.267Z" fill="#fff"/><path id="group-1000001363-s-path25" d="M388.6,658.692h1.35v-3h-1.35v3Zm.3-.334v-.166h.75v.166h-.75Zm.75-2.333v1.833h-.75v-1.833h.75Z" fill="#fff"/><path id="group-1000001363-s-path26" d="M388.3,654.592l3.45-3.5l1.245,1.383.21-.233-1.455-1.617-3.75,3.833v4.9h2.1v-.333h-1.8v-4.433Z" fill="#fff"/><path id="group-1000001363-s-path27" d="M393.1,651.692h.3v-.667h-.6v.333h.3v.334Z" fill="#fff"/><path id="group-1000001363-s-path28" d="M389.693,654.408l2.099-2.166.205.244-2.1,2.166-.204-.244Z" fill="#fff"/><path id="group-1000001363-s-path29" d="M392.65,654.858h2.1v.334h-2.1v-.334Z" fill="#fff"/></g><clipPath id="group-1000001363-u-clip1_1301_1218"><rect id="group-1000001363-s-rect4" width="9" height="10" rx="0" ry="0" transform="translate(388 650)" fill="#fff"/></clipPath></g></g></g></g></svg>
