<svg width="32" height="33" viewBox="0 0 32 33" fill="none" xmlns="http://www.w3.org/2000/svg">
<path d="M11.1484 10.0684H12.9634" stroke="#939197" stroke-width="1.69545" stroke-miterlimit="10"/>
<path d="M11.1484 14.3457H12.9634" stroke="#939197" stroke-width="1.69545" stroke-miterlimit="10"/>
<path d="M19.4824 14.3457H21.2974" stroke="#939197" stroke-width="1.69545" stroke-miterlimit="10"/>
<path d="M23.6484 14.3457H25.4634" stroke="#939197" stroke-width="1.69545" stroke-miterlimit="10"/>
<path d="M19.4824 18.623H21.2974" stroke="#939197" stroke-width="1.69545" stroke-miterlimit="10"/>
<path d="M23.6484 18.623H25.4634" stroke="#939197" stroke-width="1.69545" stroke-miterlimit="10"/>
<path d="M19.4824 22.9023H21.2974" stroke="#939197" stroke-width="1.69545" stroke-miterlimit="10"/>
<path d="M23.6484 22.9023H25.4634" stroke="#939197" stroke-width="1.69545" stroke-miterlimit="10"/>
<path d="M19.4824 27.1797H21.2974" stroke="#939197" stroke-width="1.69545" stroke-miterlimit="10"/>
<path d="M23.6484 27.1797H25.4634" stroke="#939197" stroke-width="1.69545" stroke-miterlimit="10"/>
<path d="M6.98242 14.3457H8.79736" stroke="#939197" stroke-width="1.69545" stroke-miterlimit="10"/>
<path d="M11.1484 18.623H12.9634" stroke="#939197" stroke-width="1.69545" stroke-miterlimit="10"/>
<path d="M6.98242 18.623H8.79736" stroke="#939197" stroke-width="1.69545" stroke-miterlimit="10"/>
<path d="M11.1484 22.9023H12.9634" stroke="#939197" stroke-width="1.69545" stroke-miterlimit="10"/>
<path d="M6.98242 22.9023H8.79736" stroke="#939197" stroke-width="1.69545" stroke-miterlimit="10"/>
<path d="M3.72266 31.458V7.93142L16.2198 5.7926V31.458" stroke="#939197" stroke-width="1.69545" stroke-miterlimit="10"/>
<path d="M5.80664 7.5752V1.51528H14.1381V6.1493" stroke="#939197" stroke-width="1.69545" stroke-miterlimit="10"/>
<path d="M7.88672 31.458V27.1804H12.0524V31.458" stroke="#939197" stroke-width="1.69545" stroke-miterlimit="10"/>
<path d="M16.2188 31.458V10.0702H28.7159V31.458" stroke="#939197" stroke-width="1.69545" stroke-miterlimit="10"/>
<path d="M0.732422 31.458H31.7074" stroke="#939197" stroke-width="1.69545" stroke-miterlimit="10"/>
</svg>
