<svg width="45" height="44" viewBox="0 0 45 44" fill="none" xmlns="http://www.w3.org/2000/svg">
<rect x="0.628906" width="43.6213" height="43.6213" rx="21.8107" fill="white"/>
<path d="M12.4708 15.7686L21.8566 11.1362C22.0382 11.0466 22.2379 11 22.4404 11C22.6429 11 22.8427 11.0466 23.0243 11.1362L32.4101 15.7686C32.7699 15.9449 33.0732 16.2183 33.2858 16.5579C33.4985 16.8976 33.6119 17.2899 33.6133 17.6906V27.607C33.6133 28.7936 32.6389 29.7556 31.4367 29.7556H13.442C12.2399 29.7556 11.2655 28.7936 11.2655 27.607V17.6906C11.2671 17.2896 11.3808 16.8972 11.5938 16.5575C11.8068 16.2179 12.1106 15.9446 12.4708 15.7686V15.7686Z" stroke="#278FD9" stroke-width="0.81742" stroke-linecap="round" stroke-linejoin="round"/>
<path d="M14.8481 26.318L21.7913 20.9174C22.0176 20.7414 22.2961 20.6458 22.5828 20.6458C22.8695 20.6458 23.148 20.7414 23.3743 20.9174L30.3181 26.318M19.575 22.3967L12.2697 16.864M32.8965 16.864L25.43 22.5041" stroke="#278FD9" stroke-width="0.81742" stroke-linecap="round" stroke-linejoin="round"/>
</svg>
