<svg width="45" height="46" viewBox="0 0 45 46" fill="none" xmlns="http://www.w3.org/2000/svg">
<rect x="0.387695" y="0.192474" width="43.6213" height="44.833" rx="21.8107" fill="white"/>
<path d="M33.5081 15.6907C32.6597 16.0715 31.762 16.3223 30.8434 16.4353C31.8088 15.8515 32.5347 14.924 32.8852 13.8267C31.9725 14.3779 30.9756 14.7647 29.9372 14.9704C29.5 14.4971 28.9741 14.1206 28.3916 13.8638C27.8091 13.6069 27.1821 13.4751 26.5487 13.4763C23.9843 13.4763 21.9091 15.5885 21.9091 18.1922C21.9073 18.5544 21.9474 18.9155 22.0288 19.2678C20.1899 19.1788 18.3893 18.6943 16.7422 17.8454C15.095 16.9964 13.6375 15.8017 12.463 14.3377C12.051 15.0552 11.8331 15.8737 11.8321 16.7079C11.8321 18.3431 12.6581 19.7885 13.9054 20.6354C13.1664 20.6173 12.4426 20.4152 11.7953 20.0465V20.1049C11.7953 22.3923 13.3975 24.2952 15.518 24.7283C15.1192 24.8381 14.7083 24.8938 14.2956 24.8938C14.0028 24.8943 13.7106 24.865 13.4234 24.8062C14.0129 26.6799 15.7286 28.0426 17.761 28.0816C16.1095 29.3961 14.082 30.1065 11.997 30.1013C11.6269 30.1007 11.2572 30.078 10.8896 30.0332C13.0107 31.432 15.4762 32.1719 17.9928 32.1648C26.5388 32.1648 31.2076 24.9766 31.2076 18.7422C31.2076 18.5378 31.2024 18.3334 31.193 18.1338C32.0992 17.4681 32.8832 16.6408 33.5081 15.6907Z" fill="#278FD9"/>
</svg>
