<svg width="45" height="46" viewBox="0 0 45 46" fill="none" xmlns="http://www.w3.org/2000/svg">
<rect x="0.695312" y="0.192474" width="43.6213" height="44.833" rx="21.8107" fill="white"/>
<path fill-rule="evenodd" clip-rule="evenodd" d="M33.8148 23.0912C33.8148 16.8642 28.7508 11.8152 22.5055 11.8152C16.2602 11.8152 11.1963 16.8642 11.1963 23.0912C11.1963 28.7191 15.3312 33.384 20.7385 34.2307V26.3516H17.8662V23.0912H20.7385V20.6069C20.7385 17.7814 22.4273 16.2194 25.0102 16.2194C26.2477 16.2194 27.5422 16.4399 27.5422 16.4399V19.2151H26.1154C24.7113 19.2151 24.2721 20.0839 24.2721 20.9769V23.0912H27.4084L26.9075 26.3516H24.2726V34.2317C29.6798 33.3855 33.8148 28.7206 33.8148 23.0912Z" fill="#278FD9"/>
</svg>
