<svg width="44" height="46" viewBox="0 0 44 46" fill="none" xmlns="http://www.w3.org/2000/svg">
<rect x="0.0419922" y="0.192474" width="43.6213" height="44.833" rx="21.8107" fill="white"/>
<mask id="path-2-inside-1_676_11550" fill="white">
<path d="M26.5642 12.9222C27.8129 12.926 29.0094 13.4376 29.8924 14.345C30.7753 15.2525 31.273 16.4822 31.2767 17.7656V27.4514C31.273 28.7348 30.7753 29.9645 29.8924 30.872C29.0094 31.7795 27.8129 32.291 26.5642 32.2949H17.1402C15.8915 32.291 14.695 31.7795 13.8121 30.872C12.9291 29.9645 12.4314 28.7348 12.4277 27.4514V17.7656C12.4314 16.4822 12.9291 15.2525 13.8121 14.345C14.695 13.4376 15.8915 12.926 17.1402 12.9222H26.5642ZM26.5642 10.9851H17.1402C13.5116 10.9851 10.543 14.0363 10.543 17.7656V27.4514C10.543 31.1808 13.5116 34.2319 17.1402 34.2319H26.5642C30.1928 34.2319 33.1614 31.1808 33.1614 27.4514V17.7656C33.1614 14.0363 30.1928 10.9851 26.5642 10.9851Z"/>
</mask>
<path d="M26.5642 12.9222C27.8129 12.926 29.0094 13.4376 29.8924 14.345C30.7753 15.2525 31.273 16.4822 31.2767 17.7656V27.4514C31.273 28.7348 30.7753 29.9645 29.8924 30.872C29.0094 31.7795 27.8129 32.291 26.5642 32.2949H17.1402C15.8915 32.291 14.695 31.7795 13.8121 30.872C12.9291 29.9645 12.4314 28.7348 12.4277 27.4514V17.7656C12.4314 16.4822 12.9291 15.2525 13.8121 14.345C14.695 13.4376 15.8915 12.926 17.1402 12.9222H26.5642ZM26.5642 10.9851H17.1402C13.5116 10.9851 10.543 14.0363 10.543 17.7656V27.4514C10.543 31.1808 13.5116 34.2319 17.1402 34.2319H26.5642C30.1928 34.2319 33.1614 31.1808 33.1614 27.4514V17.7656C33.1614 14.0363 30.1928 10.9851 26.5642 10.9851Z" fill="#278FD9"/>
<path d="M31.2767 17.7656H32.0845L32.0845 17.7633L31.2767 17.7656ZM31.2767 27.4514L32.0845 27.4538V27.4514H31.2767ZM26.5642 32.2949V33.1027L26.5667 33.1027L26.5642 32.2949ZM17.1402 32.2949L17.1377 33.1027H17.1402V32.2949ZM12.4277 27.4514H11.6199L11.6199 27.4538L12.4277 27.4514ZM12.4277 17.7656L11.6199 17.7633V17.7656H12.4277ZM17.1402 12.9222V12.1144L17.1377 12.1144L17.1402 12.9222ZM26.5617 13.73C27.5898 13.7332 28.5795 14.1541 29.3134 14.9084L30.4713 13.7817C29.4393 12.721 28.036 12.1189 26.5667 12.1144L26.5617 13.73ZM29.3134 14.9084C30.048 15.6634 30.4658 16.691 30.4689 17.768L32.0845 17.7633C32.0802 16.2735 31.5027 14.8417 30.4713 13.7817L29.3134 14.9084ZM30.4689 17.7656V27.4514H32.0845V17.7656H30.4689ZM30.4689 27.4491C30.4658 28.526 30.048 29.5537 29.3134 30.3087L30.4713 31.4353C31.5027 30.3754 32.0802 28.9436 32.0845 27.4538L30.4689 27.4491ZM29.3134 30.3087C28.5795 31.0629 27.5898 31.4839 26.5617 31.4871L26.5667 33.1027C28.036 33.0981 29.4393 32.4961 30.4713 31.4353L29.3134 30.3087ZM26.5642 31.4871H17.1402V33.1027H26.5642V31.4871ZM17.1427 31.4871C16.1146 31.4839 15.1249 31.0629 14.391 30.3087L13.2331 31.4353C14.2651 32.4961 15.6684 33.0981 17.1377 33.1027L17.1427 31.4871ZM14.391 30.3087C13.6564 29.5537 13.2386 28.526 13.2355 27.4491L11.6199 27.4538C11.6242 28.9436 12.2018 30.3754 13.2331 31.4353L14.391 30.3087ZM13.2355 27.4514V17.7656H11.6199V27.4514H13.2355ZM13.2355 17.768C13.2386 16.691 13.6564 15.6634 14.391 14.9084L13.2331 13.7817C12.2018 14.8417 11.6242 16.2735 11.6199 17.7633L13.2355 17.768ZM14.391 14.9084C15.1249 14.1541 16.1146 13.7332 17.1427 13.73L17.1377 12.1144C15.6684 12.1189 14.2651 12.721 13.2331 13.7817L14.391 14.9084ZM17.1402 13.73H26.5642V12.1144H17.1402V13.73ZM26.5642 10.1773H17.1402V11.7929H26.5642V10.1773ZM17.1402 10.1773C13.0448 10.1773 9.73517 13.6112 9.73517 17.7656H11.3508C11.3508 14.4614 13.9785 11.7929 17.1402 11.7929V10.1773ZM9.73517 17.7656V27.4514H11.3508V17.7656H9.73517ZM9.73517 27.4514C9.73517 31.6059 13.0448 35.0397 17.1402 35.0397V33.4241C13.9785 33.4241 11.3508 30.7556 11.3508 27.4514H9.73517ZM17.1402 35.0397H26.5642V33.4241H17.1402V35.0397ZM26.5642 35.0397C30.6596 35.0397 33.9692 31.6059 33.9692 27.4514H32.3536C32.3536 30.7556 29.7259 33.4241 26.5642 33.4241V35.0397ZM33.9692 27.4514V17.7656H32.3536V27.4514H33.9692ZM33.9692 17.7656C33.9692 13.6112 30.6596 10.1773 26.5642 10.1773V11.7929C29.7259 11.7929 32.3536 14.4614 32.3536 17.7656H33.9692Z" fill="#278FD9" mask="url(#path-2-inside-1_676_11550)"/>
<mask id="path-4-inside-2_676_11550" fill="white">
<path d="M27.9878 17.7871C27.7103 17.7871 27.439 17.7013 27.2083 17.5404C26.9775 17.3796 26.7977 17.1509 26.6915 16.8834C26.5853 16.616 26.5575 16.3216 26.6117 16.0377C26.6658 15.7537 26.7994 15.4929 26.9957 15.2881C27.1919 15.0834 27.4419 14.944 27.714 14.8875C27.9862 14.831 28.2683 14.86 28.5247 14.9708C28.7811 15.0816 29.0002 15.2692 29.1543 15.51C29.3085 15.7507 29.3908 16.0337 29.3908 16.3232C29.3912 16.5156 29.3552 16.7061 29.2848 16.8839C29.2144 17.0617 29.1111 17.2233 28.9807 17.3593C28.8504 17.4953 28.6956 17.6031 28.5252 17.6765C28.3547 17.7499 28.1721 17.7875 27.9878 17.7871ZM21.9081 18.7627C22.6481 18.7627 23.3715 18.9916 23.9868 19.4206C24.6021 19.8495 25.0817 20.4592 25.3649 21.1726C25.6481 21.8859 25.7222 22.6708 25.5778 23.4281C25.4334 24.1853 25.0771 24.8809 24.5538 25.4269C24.0305 25.9729 23.3638 26.3447 22.638 26.4953C21.9122 26.6459 21.1599 26.5686 20.4762 26.2731C19.7925 25.9777 19.2082 25.4773 18.797 24.8353C18.3859 24.1934 18.1665 23.4386 18.1665 22.6665C18.1675 21.6315 18.5621 20.6392 19.2635 19.9073C19.965 19.1754 20.9161 18.7638 21.9081 18.7627ZM21.9081 16.811C20.7981 16.811 19.713 17.1544 18.7901 17.7979C17.8672 18.4413 17.1479 19.3558 16.7231 20.4257C16.2983 21.4956 16.1872 22.673 16.4037 23.8088C16.6203 24.9447 17.1548 25.988 17.9397 26.8069C18.7245 27.6258 19.7245 28.1835 20.8132 28.4094C21.9018 28.6354 23.0303 28.5194 24.0558 28.0762C25.0813 27.633 25.9578 26.8825 26.5744 25.9196C27.1911 24.9567 27.5202 23.8246 27.5202 22.6665C27.5202 21.1135 26.929 19.6242 25.8765 18.5261C24.824 17.4279 23.3965 16.811 21.9081 16.811Z"/>
</mask>
<path d="M27.9878 17.7871C27.7103 17.7871 27.439 17.7013 27.2083 17.5404C26.9775 17.3796 26.7977 17.1509 26.6915 16.8834C26.5853 16.616 26.5575 16.3216 26.6117 16.0377C26.6658 15.7537 26.7994 15.4929 26.9957 15.2881C27.1919 15.0834 27.4419 14.944 27.714 14.8875C27.9862 14.831 28.2683 14.86 28.5247 14.9708C28.7811 15.0816 29.0002 15.2692 29.1543 15.51C29.3085 15.7507 29.3908 16.0337 29.3908 16.3232C29.3912 16.5156 29.3552 16.7061 29.2848 16.8839C29.2144 17.0617 29.1111 17.2233 28.9807 17.3593C28.8504 17.4953 28.6956 17.6031 28.5252 17.6765C28.3547 17.7499 28.1721 17.7875 27.9878 17.7871ZM21.9081 18.7627C22.6481 18.7627 23.3715 18.9916 23.9868 19.4206C24.6021 19.8495 25.0817 20.4592 25.3649 21.1726C25.6481 21.8859 25.7222 22.6708 25.5778 23.4281C25.4334 24.1853 25.0771 24.8809 24.5538 25.4269C24.0305 25.9729 23.3638 26.3447 22.638 26.4953C21.9122 26.6459 21.1599 26.5686 20.4762 26.2731C19.7925 25.9777 19.2082 25.4773 18.797 24.8353C18.3859 24.1934 18.1665 23.4386 18.1665 22.6665C18.1675 21.6315 18.5621 20.6392 19.2635 19.9073C19.965 19.1754 20.9161 18.7638 21.9081 18.7627ZM21.9081 16.811C20.7981 16.811 19.713 17.1544 18.7901 17.7979C17.8672 18.4413 17.1479 19.3558 16.7231 20.4257C16.2983 21.4956 16.1872 22.673 16.4037 23.8088C16.6203 24.9447 17.1548 25.988 17.9397 26.8069C18.7245 27.6258 19.7245 28.1835 20.8132 28.4094C21.9018 28.6354 23.0303 28.5194 24.0558 28.0762C25.0813 27.633 25.9578 26.8825 26.5744 25.9196C27.1911 24.9567 27.5202 23.8246 27.5202 22.6665C27.5202 21.1135 26.929 19.6242 25.8765 18.5261C24.824 17.4279 23.3965 16.811 21.9081 16.811Z" fill="#278FD9"/>
<path d="M29.3908 16.3232H28.583L28.583 16.3249L29.3908 16.3232ZM18.1665 22.6665L17.3587 22.6657V22.6665H18.1665ZM21.9081 16.811V17.6188V16.811ZM27.9878 16.9793C27.8779 16.9793 27.7674 16.9455 27.6702 16.8777L26.7463 18.2031C27.1106 18.457 27.5427 18.5949 27.9878 18.5949V16.9793ZM27.6702 16.8777C27.5726 16.8097 27.4915 16.7093 27.4423 16.5854L25.9407 17.1815C26.1039 17.5926 26.3825 17.9494 26.7463 18.2031L27.6702 16.8777ZM27.4423 16.5854C27.393 16.4612 27.3797 16.3228 27.4052 16.1889L25.8182 15.8864C25.7354 16.3204 25.7776 16.7707 25.9407 17.1815L27.4423 16.5854ZM27.4052 16.1889C27.4307 16.0552 27.4929 15.9368 27.5788 15.8471L26.4125 14.7292C26.106 15.0489 25.9009 15.4522 25.8182 15.8864L27.4052 16.1889ZM27.5788 15.8471C27.6645 15.7577 27.7694 15.701 27.8782 15.6785L27.5499 14.0966C27.1144 14.1869 26.7193 14.4091 26.4125 14.7292L27.5788 15.8471ZM27.8782 15.6785C27.9867 15.6559 28.0997 15.6671 28.2042 15.7123L28.8451 14.2293C28.437 14.0529 27.9857 14.0061 27.5499 14.0966L27.8782 15.6785ZM28.2042 15.7123C28.3092 15.7577 28.4045 15.837 28.4741 15.9456L29.8346 15.0743C29.5958 14.7015 29.2529 14.4055 28.8451 14.2293L28.2042 15.7123ZM28.4741 15.9456C28.5439 16.0546 28.583 16.186 28.583 16.3232H30.1986C30.1986 15.8814 30.0732 15.4468 29.8346 15.0743L28.4741 15.9456ZM28.583 16.3249C28.5832 16.4156 28.5662 16.5046 28.5337 16.5866L30.0359 17.1812C30.1442 16.9077 30.1992 16.6157 30.1986 16.3216L28.583 16.3249ZM28.5337 16.5866C28.5012 16.6687 28.4544 16.741 28.3976 16.8003L29.5639 17.9182C29.7678 17.7055 29.9276 17.4548 30.0359 17.1812L28.5337 16.5866ZM28.3976 16.8003C28.3408 16.8596 28.2752 16.9046 28.2055 16.9347L28.8448 18.4184C29.1159 18.3016 29.36 18.131 29.5639 17.9182L28.3976 16.8003ZM28.2055 16.9347C28.1359 16.9646 28.0627 16.9795 27.9896 16.9793L27.9859 18.5949C28.2816 18.5956 28.5735 18.5353 28.8448 18.4184L28.2055 16.9347ZM21.9081 19.5705C22.4805 19.5705 23.0431 19.7474 23.5248 20.0833L24.4488 18.7579C23.6999 18.2359 22.8157 17.9549 21.9081 17.9549V19.5705ZM23.5248 20.0833C24.007 20.4194 24.3879 20.9009 24.6141 21.4706L26.1157 20.8745C25.7755 20.0176 25.1972 19.2797 24.4488 18.7579L23.5248 20.0833ZM24.6141 21.4706C24.8404 22.0406 24.9 22.6696 24.7843 23.2768L26.3713 23.5794C26.5443 22.672 26.4558 21.7312 26.1157 20.8745L24.6141 21.4706ZM24.7843 23.2768C24.6686 23.8839 24.3836 24.437 23.9706 24.8679L25.137 25.9859C25.7705 25.3249 26.1983 24.4868 26.3713 23.5794L24.7843 23.2768ZM23.9706 24.8679C23.5579 25.2985 23.0364 25.5876 22.4739 25.7043L22.8022 27.2862C23.6913 27.1017 24.5031 26.6472 25.137 25.9859L23.9706 24.8679ZM22.4739 25.7043C21.9117 25.821 21.3286 25.7615 20.7967 25.5316L20.1558 27.0147C20.9913 27.3757 21.9128 27.4708 22.8022 27.2862L22.4739 25.7043ZM20.7967 25.5316C20.2644 25.3016 19.8038 24.9095 19.4773 24.3997L18.1168 25.271C18.6125 26.0451 19.3207 26.6538 20.1558 27.0147L20.7967 25.5316ZM19.4773 24.3997C19.1506 23.8895 18.9743 23.2863 18.9743 22.6665H17.3587C17.3587 23.5909 17.6212 24.4972 18.1168 25.271L19.4773 24.3997ZM18.9743 22.6673C18.9751 21.8355 19.2925 21.0445 19.8467 20.4663L18.6803 19.3483C17.8316 20.2339 17.3599 21.4275 17.3587 22.6657L18.9743 22.6673ZM19.8467 20.4663C20.3998 19.8892 21.1422 19.5713 21.909 19.5705L21.9072 17.9549C20.6899 17.9562 19.5302 18.4617 18.6803 19.3483L19.8467 20.4663ZM21.9081 16.0032C20.6305 16.0032 19.3846 16.3987 18.3281 17.1352L19.2521 18.4605C20.0415 17.9102 20.9657 17.6188 21.9081 17.6188V16.0032ZM18.3281 17.1352C17.2721 17.8714 16.4541 18.9141 15.9723 20.1276L17.4739 20.7238C17.8417 19.7974 18.4623 19.0111 19.2521 18.4605L18.3281 17.1352ZM15.9723 20.1276C15.4906 21.3409 15.3651 22.6742 15.6102 23.9601L17.1972 23.6575C17.0093 22.6718 17.106 21.6504 17.4739 20.7238L15.9723 20.1276ZM15.6102 23.9601C15.8554 25.2462 16.4614 26.432 17.3565 27.3659L18.5229 26.248C17.8482 25.5441 17.3852 24.6432 17.1972 23.6575L15.6102 23.9601ZM17.3565 27.3659C18.2519 28.3002 19.3971 28.9406 20.649 29.2004L20.9773 27.6185C20.052 27.4264 19.1972 26.9515 18.5229 26.248L17.3565 27.3659ZM20.649 29.2004C21.9013 29.4603 23.1989 29.3265 24.3762 28.8177L23.7353 27.3347C22.8616 27.7123 21.9024 27.8105 20.9773 27.6185L20.649 29.2004ZM24.3762 28.8177C25.5531 28.3091 26.5534 27.4503 27.2547 26.3553L25.8942 25.484C25.3621 26.3148 24.6094 26.9569 23.7353 27.3347L24.3762 28.8177ZM27.2547 26.3553C27.9558 25.2605 28.328 23.9769 28.328 22.6665H26.7124C26.7124 23.6723 26.4264 24.6528 25.8942 25.484L27.2547 26.3553ZM28.328 22.6665C28.328 20.9101 27.6596 19.2191 26.4597 17.9671L25.2933 19.085C26.1983 20.0293 26.7124 21.317 26.7124 22.6665H28.328ZM26.4597 17.9671C25.2586 16.7139 23.6221 16.0032 21.9081 16.0032V17.6188C23.1709 17.6188 24.3894 18.1419 25.2933 19.085L26.4597 17.9671Z" fill="#278FD9" mask="url(#path-4-inside-2_676_11550)"/>
</svg>
