<svg width="45" height="46" viewBox="0 0 45 46" fill="none" xmlns="http://www.w3.org/2000/svg">
<rect x="0.385742" y="0.192383" width="43.6213" height="44.833" rx="21.8107" fill="white"/>
<path d="M34.1787 16.8166C33.8825 15.7152 33.0141 14.847 31.9129 14.5504C29.9011 14 21.8539 14 21.8539 14C21.8539 14 13.807 14 11.7952 14.5296C10.7152 14.8258 9.82567 15.7154 9.52942 16.8166C9 18.8282 9 23 9 23C9 23 9 27.1928 9.52942 29.1834C9.82598 30.2846 10.694 31.1528 11.7954 31.4494C13.8282 32 21.8542 32 21.8542 32C21.8542 32 29.9011 32 31.9129 31.4704C33.0143 31.174 33.8825 30.3058 34.179 29.2046C34.7083 27.1928 34.7083 23.0212 34.7083 23.0212C34.7083 23.0212 34.7295 18.8282 34.1787 16.8166ZM19.2919 26.8541V19.1459L25.9835 23L19.2919 26.8541Z" fill="#278FD9"/>
</svg>
