<svg width="45" height="46" viewBox="0 0 45 46" fill="none" xmlns="http://www.w3.org/2000/svg">
<rect x="0.733398" y="0.192474" width="43.6213" height="44.833" rx="21.8107" fill="white"/>
<path d="M32.0448 10.9851H13.168C12.1366 10.9851 11.2354 11.7479 11.2354 12.7956V32.2398C11.2354 33.2932 12.1366 34.2319 13.168 34.2319H32.0393C33.0763 34.2319 33.8538 33.287 33.8538 32.2398V12.7956C33.8598 11.7479 33.0763 10.9851 32.0448 10.9851ZM18.2466 30.3625H15.0063V20.0078H18.2466V30.3625ZM16.7385 18.4335H16.7153C15.6783 18.4335 15.0068 17.6401 15.0068 16.6469C15.0068 15.6355 15.6959 14.8608 16.7562 14.8608C17.8164 14.8608 18.4652 15.6298 18.4884 16.6469C18.4879 17.6401 17.8164 18.4335 16.7385 18.4335ZM30.0889 30.3625H26.8486V24.7007C26.8486 23.3443 26.3771 22.4176 25.2048 22.4176C24.3091 22.4176 23.779 23.0403 23.5432 23.6468C23.4549 23.8648 23.4311 24.1616 23.4311 24.4646V30.3625H20.1908V20.0078H23.4311V21.4488C23.9027 20.7586 24.6393 19.7655 26.3534 19.7655C28.4804 19.7655 30.0894 21.2065 30.0894 24.3131L30.0889 30.3625Z" fill="#278FD9"/>
</svg>
