<svg width="36" height="36" viewBox="0 0 36 36" fill="none" xmlns="http://www.w3.org/2000/svg">
<path d="M17.543 35.4727C27.1929 35.4727 35.0156 27.6499 35.0156 18C35.0156 8.35012 27.1929 0.527344 17.543 0.527344C7.89309 0.527344 0.0703125 8.35012 0.0703125 18C0.0703125 27.6499 7.89309 35.4727 17.543 35.4727Z" fill="#CBE2FF"/>
<path d="M17.5434 0.527344C16.791 0.527344 16.0496 0.574945 15.3223 0.667266C23.9234 1.75845 30.5738 9.10259 30.5738 18C30.5738 26.8974 23.9235 34.2416 15.3223 35.3327C16.0497 35.425 16.791 35.4727 17.5435 35.4727C27.1934 35.4727 35.0162 27.6499 35.0162 18C35.0162 8.3501 27.1933 0.527344 17.5434 0.527344Z" fill="#BED8FB"/>
<path d="M21.8851 7.14459C21.8851 6.25218 21.1617 5.52881 20.2694 5.52881H14.7012C12.6474 5.52881 10.9824 7.19374 10.9824 9.24757V13.3764H24.1012V9.30621C24.1012 8.4138 23.3777 7.69043 22.4854 7.69043H22.431C22.1295 7.69036 21.8851 7.44602 21.8851 7.14459Z" fill="#365E7D"/>
<path d="M22.4846 7.69028H22.4302C22.1288 7.69028 21.8845 7.44595 21.8845 7.14459C21.8845 6.25218 21.1611 5.52881 20.2687 5.52881H19.6582V13.3764H24.1005V9.30621C24.1004 8.41366 23.377 7.69028 22.4846 7.69028Z" fill="#2B4D66"/>
<path d="M30.2352 28.7048C30.2352 27.0121 29.1384 25.5144 27.5247 25.0035L22.7544 23.4932L17.5435 23.3101L12.3304 23.4932L7.56009 25.0035C5.94634 25.5145 4.84961 27.0121 4.84961 28.7048V30.008C8.0278 33.3663 12.5245 35.4641 17.5113 35.4728C18.2227 35.4717 18.9246 35.4305 19.6151 35.3511C23.7806 34.8588 27.4972 32.9012 30.2352 30.008V28.7048H30.2352Z" fill="#4A80AA"/>
<path d="M30.236 30.0079V28.7047C30.236 27.5078 29.6872 26.409 28.7955 25.687C26.2626 30.8487 21.2589 34.5781 15.3262 35.3323C16.0423 35.423 16.7716 35.4714 17.512 35.4727C18.2235 35.4716 18.9254 35.4304 19.6159 35.351C23.7813 34.8587 27.498 32.9011 30.236 30.0079Z" fill="#407093"/>
<path d="M20.9635 23.43L17.544 22.0991L14.1213 23.4301C13.3011 27.3193 16.3426 33.65 17.2775 35.469C17.3556 35.4702 17.4334 35.4723 17.5117 35.4725C17.6107 35.4723 17.7092 35.4695 17.8078 35.4679C18.7435 33.6472 21.7835 27.3183 20.9635 23.43Z" fill="#E4F6FF"/>
<path d="M16.7307 28.0928L15.3477 33.5325L17.0868 35.4687C17.3929 35.4751 17.6967 35.4741 18.0031 35.4656L19.7394 33.5473L18.353 28.0928H16.7307V28.0928Z" fill="#E28086"/>
<path d="M17.0852 35.4662C17.2268 35.47 17.3687 35.4725 17.5111 35.4727C17.676 35.4724 17.8402 35.4695 18.004 35.465L18.8849 34.4917C18.1916 34.7349 17.4782 34.9357 16.748 35.0908L17.0852 35.4662Z" fill="#DD636E"/>
<path d="M20.4622 22.9265V19.8506H14.6211V22.9265C14.6211 24.5394 17.5417 26.3013 17.5417 26.3013C17.5417 26.3013 20.4622 24.5394 20.4622 22.9265Z" fill="#FFDDCE"/>
<path d="M24.1012 12.8345H22.9847C22.3638 12.8345 21.8603 12.3311 21.8603 11.7101V11.0948C21.8603 10.2859 21.069 9.71399 20.3009 9.96782C18.5098 10.5598 16.5758 10.5599 14.7846 9.96824L14.7825 9.96753C14.0145 9.71385 13.2233 10.2858 13.2233 11.0945V11.7101C13.2233 12.331 12.7199 12.8345 12.0989 12.8345H10.9824V14.6731C10.9824 15.1429 11.3633 15.5237 11.8331 15.5237C11.9813 15.5237 12.1019 15.6399 12.1112 15.7877C12.2906 18.6317 14.6526 20.8831 17.5417 20.8831C20.4309 20.8831 22.7929 18.6317 22.9722 15.7877C22.9816 15.6398 23.1022 15.5237 23.2504 15.5237C23.7202 15.5237 24.101 15.1428 24.101 14.6731V12.8345H24.1012Z" fill="#FFDDCE"/>
<path d="M22.9844 12.8342C22.3635 12.8342 21.8601 12.3309 21.8601 11.7099V11.0946C21.8601 10.2857 21.0687 9.71376 20.3007 9.96759C20.0885 10.0377 19.8743 10.0989 19.6586 10.1524V16.2249C19.6287 18.2006 18.5461 19.9203 16.9473 20.8496C17.1425 20.8708 17.3406 20.8828 17.5415 20.8828C20.4306 20.8828 22.7926 18.6314 22.972 15.7874C22.9813 15.6395 23.1019 15.5234 23.2501 15.5234C23.72 15.5234 24.1008 15.1425 24.1008 14.6728V12.8342H22.9844V12.8342Z" fill="#FFCBBE"/>
<path d="M14.6205 22.0991L12.3301 23.9602L14.732 26.9301C15.0242 27.2146 15.4842 27.2321 15.7971 26.9707L17.6034 25.4618L14.6205 22.0991Z" fill="#F4FBFF"/>
<path d="M20.4628 22.0991L17.6035 25.4617L19.3013 26.9133C19.6123 27.1793 20.0744 27.1659 20.3695 26.8824L22.7543 23.9602L20.4628 22.0991Z" fill="#F4FBFF"/>
<path d="M14.6215 22.0991L11.2596 23.7508C11.0037 23.8765 10.9009 24.1878 11.0316 24.4412L11.6902 25.7182C11.8609 26.0491 11.798 26.4524 11.5344 26.7154C11.3989 26.8508 11.2519 26.9974 11.1246 27.1245C10.8968 27.352 10.8149 27.688 10.9153 27.9938C11.7105 30.4179 15.5377 34.1249 16.9861 35.466C17.0835 35.4686 17.1811 35.4704 17.2789 35.4714C16.2286 33.4285 12.5066 25.6666 14.6215 22.0991Z" fill="#365E7D"/>
<path d="M23.5503 26.7154C23.2867 26.4524 23.2238 26.0491 23.3944 25.7182L24.0531 24.4412C24.1838 24.1878 24.081 23.8765 23.825 23.7508L20.4632 22.0991C22.5775 25.6657 18.8581 33.4242 17.8066 35.4697C17.9054 35.4681 18.0041 35.4656 18.1025 35.4623C19.5539 34.1181 23.3749 30.4157 24.1694 27.9938C24.2697 27.6879 24.1879 27.3518 23.96 27.1244C23.8327 26.9974 23.6858 26.8508 23.5503 26.7154Z" fill="#365E7D"/>
<path d="M17.6029 25.4619L15.8242 26.9474L16.7305 28.0927H18.3527L19.259 26.8798L17.6029 25.4619Z" fill="#DD636E"/>
</svg>
