<svg width="22" height="23" viewBox="0 0 22 23" fill="none" xmlns="http://www.w3.org/2000/svg">
<path d="M21.3611 14.1606C21.3522 14.1383 21.3388 14.1205 21.3254 14.1027C20.7502 13.3937 19.7112 13.2867 18.9978 13.8619C18.106 14.5887 16.8084 15.6366 15.9657 16.3188C15.3726 16.7959 14.6413 17.0679 13.8789 17.0947L11.5958 17.1705C11.5022 17.1749 11.4175 17.1259 11.3684 17.0501L11.1143 16.6131C11.0697 16.5417 11.0652 16.457 11.1009 16.3812C11.1366 16.3054 11.2035 16.2519 11.2837 16.2385L13.6425 15.7926C14.4719 15.6366 15.0516 14.8518 14.9579 14.0001C14.8688 13.1796 14.1732 12.5643 13.3527 12.5643C13.3304 12.5643 13.3036 12.5643 13.2724 12.5643L10.1199 12.435C8.86248 12.3904 7.7834 12.6312 6.5215 13.2421L4.87167 14.0402C4.6398 13.5587 4.15377 13.251 3.61869 13.251H1.79495C1.03246 13.2465 0.412662 13.8619 0.408203 14.6244V21.4154C0.412662 22.1779 1.03246 22.7933 1.79495 22.7933H3.61869C4.38118 22.7933 4.99652 22.1779 5.00098 21.4154V20.9562L6.75337 20.6351C7.31966 20.5504 7.67638 20.5192 8.27835 20.5459L13.0718 20.7689C14.7974 20.8447 16.4874 20.2739 17.8117 19.1681L21.1337 16.4124L21.1381 16.408C21.8025 15.8417 21.9006 14.8473 21.3611 14.1606ZM4.10918 21.4154C4.10918 21.683 3.89069 21.9015 3.62315 21.9015H1.78604C1.5185 21.9015 1.3 21.683 1.3 21.4154V14.6288C1.3 14.3613 1.5185 14.1428 1.78604 14.1428H3.62315C3.89069 14.1428 4.10918 14.3613 4.10918 14.6288V21.4154ZM20.5629 15.7257L17.2454 18.4769C16.0905 19.4401 14.6146 19.935 13.1119 19.8726L8.31848 19.6497C7.64517 19.6185 7.23494 19.6586 6.61514 19.7478C6.61068 19.7478 6.60622 19.7478 6.60176 19.7522L5.00098 20.0465V14.9633L6.90943 14.0402C8.0331 13.4962 8.98287 13.2822 10.0842 13.3223L13.2591 13.4516C13.2769 13.4516 13.2992 13.4516 13.317 13.4516C13.3215 13.4516 13.3393 13.4516 13.3527 13.4516C13.7183 13.4561 14.0305 13.7281 14.0751 14.0937C14.1196 14.4772 13.861 14.8339 13.482 14.9097L11.1232 15.3556C10.5034 15.4716 10.0976 16.0735 10.2136 16.6933C10.2403 16.8227 10.2849 16.9475 10.3518 17.059L10.606 17.4915C10.82 17.8527 11.2124 18.0667 11.6315 18.0533L13.9145 17.9775C14.8688 17.9419 15.7873 17.5985 16.532 17.0055C17.3747 16.3232 18.6768 15.2754 19.5686 14.5486C19.8896 14.2989 20.3489 14.339 20.6209 14.6422C20.6298 14.66 20.6432 14.6779 20.6565 14.6957C20.9107 15.0034 20.8706 15.4671 20.5629 15.7257Z" fill="black"/>
<path d="M14.6009 0.676575C11.386 0.676575 8.76855 3.29401 8.76855 6.50895C8.76855 9.7239 11.386 12.3458 14.6009 12.3458C17.8159 12.3458 20.4333 9.72836 20.4333 6.51341C20.4333 3.29847 17.8159 0.676575 14.6009 0.676575ZM14.6054 11.454C11.8765 11.454 9.66036 9.24232 9.66036 6.51341C9.66036 6.51341 9.66036 6.51341 9.66036 6.50895C9.66481 3.7845 11.872 1.57283 14.6009 1.56838C17.3298 1.56838 19.546 3.78004 19.546 6.50895C19.546 9.23787 17.3343 11.454 14.6054 11.454Z" fill="black"/>
<path d="M16.345 5.13557H15.7475C15.6985 4.91262 15.6137 4.70305 15.4889 4.51131H16.345C16.5903 4.51131 16.7909 4.31065 16.7909 4.06541C16.7909 3.82016 16.5903 3.61951 16.345 3.61951H12.8581C12.6128 3.61951 12.4122 3.82016 12.4122 4.06541C12.4122 4.31065 12.6128 4.51131 12.8581 4.51131H13.8569C14.276 4.51131 14.6417 4.77885 14.8067 5.13557H12.8581C12.6128 5.13557 12.4122 5.33622 12.4122 5.58147C12.4122 5.82671 12.6128 6.02737 12.8581 6.02737H14.8067C14.7487 6.12993 14.6818 6.22357 14.6016 6.30829C14.4009 6.50448 14.1334 6.6115 13.8569 6.60704H12.8581C12.6084 6.6115 12.4077 6.81216 12.4122 7.06186C12.4122 7.18225 12.4657 7.29819 12.5504 7.38291L15.043 9.74172C15.2214 9.91116 15.5023 9.90225 15.6717 9.72389C15.8412 9.54553 15.8322 9.26461 15.6539 9.09517L13.9728 7.5033C14.4455 7.47655 14.8914 7.28035 15.2258 6.94593C15.48 6.69176 15.6583 6.37517 15.7475 6.02737H16.345C16.5903 6.02737 16.7909 5.82671 16.7909 5.58147C16.7909 5.33622 16.5903 5.13557 16.345 5.13557Z" fill="black"/>
</svg>
