<svg width="15" height="16" viewBox="0 0 15 16" fill="none" xmlns="http://www.w3.org/2000/svg">
<path d="M8.25625 3.48337H1.49316V1.50364C1.49316 1.3329 1.63068 1.19446 1.80035 1.19446H7.94907C8.1187 1.19446 8.25625 1.33287 8.25625 1.50364V3.48337Z" fill="#B9CBEA"/>
<path d="M7.94923 1.19446H6.17285C6.34249 1.19446 6.48003 1.33287 6.48003 1.50364V3.48337H8.25642V1.50362C8.25642 1.33287 8.11887 1.19446 7.94923 1.19446Z" fill="#A2B9E2"/>
<path d="M8.90003 14.6855H0.848633V3.0046C0.848633 2.71103 1.08509 2.47302 1.37676 2.47302H8.3719C8.66357 2.47302 8.90003 2.71103 8.90003 3.0046V14.6855Z" fill="#D8E2F1"/>
<path d="M8.37188 2.47302H6.59766C6.88933 2.47302 7.12578 2.71103 7.12578 3.0046V14.6855H8.90001V3.0046C8.90001 2.711 8.66355 2.47302 8.37188 2.47302Z" fill="#B9CBEA"/>
<path d="M2.03125 11.4104H4.09052V14.6855H2.03125V11.4104Z" fill="#F4FBFF"/>
<path d="M1.95361 4.69279V3.7813C1.95361 3.66085 2.05062 3.56323 2.17027 3.56323H3.07585C3.19553 3.56323 3.29251 3.66087 3.29251 3.7813V4.69279C3.29251 4.81325 3.1955 4.91086 3.07585 4.91086H2.17027C2.05062 4.91089 1.95361 4.81325 1.95361 4.69279Z" fill="#BED8FB"/>
<path d="M4.20508 4.69279V3.7813C4.20508 3.66085 4.30209 3.56323 4.42173 3.56323H5.32732C5.44699 3.56323 5.54397 3.66087 5.54397 3.7813V4.69279C5.54397 4.81325 5.44696 4.91086 5.32732 4.91086H4.42173C4.30209 4.91089 4.20508 4.81325 4.20508 4.69279Z" fill="#BED8FB"/>
<path d="M6.45654 4.69279V3.7813C6.45654 3.66085 6.55355 3.56323 6.6732 3.56323H7.57878C7.69846 3.56323 7.79544 3.66087 7.79544 3.7813V4.69279C7.79544 4.81325 7.69843 4.91086 7.57878 4.91086H6.6732C6.55355 4.91089 6.45654 4.81325 6.45654 4.69279Z" fill="#BED8FB"/>
<path d="M1.95361 7.03496V6.12346C1.95361 6.00301 2.05062 5.9054 2.17027 5.9054H3.07585C3.19553 5.9054 3.29251 6.00304 3.29251 6.12346V7.03496C3.29251 7.15541 3.1955 7.25303 3.07585 7.25303H2.17027C2.05062 7.25305 1.95361 7.15541 1.95361 7.03496Z" fill="#BED8FB"/>
<path d="M4.20508 7.03496V6.12346C4.20508 6.00301 4.30209 5.9054 4.42173 5.9054H5.32732C5.44699 5.9054 5.54397 6.00304 5.54397 6.12346V7.03496C5.54397 7.15541 5.44696 7.25303 5.32732 7.25303H4.42173C4.30209 7.25305 4.20508 7.15541 4.20508 7.03496Z" fill="#BED8FB"/>
<path d="M6.45654 7.03496V6.12346C6.45654 6.00301 6.55355 5.9054 6.6732 5.9054H7.57878C7.69846 5.9054 7.79544 6.00304 7.79544 6.12346V7.03496C7.79544 7.15541 7.69843 7.25303 7.57878 7.25303H6.6732C6.55355 7.25305 6.45654 7.15541 6.45654 7.03496Z" fill="#BED8FB"/>
<path d="M1.95361 9.377V8.4655C1.95361 8.34505 2.05062 8.24744 2.17027 8.24744H3.07585C3.19553 8.24744 3.29251 8.34508 3.29251 8.4655V9.377C3.29251 9.49745 3.1955 9.59507 3.07585 9.59507H2.17027C2.05062 9.59509 1.95361 9.49745 1.95361 9.377Z" fill="#BED8FB"/>
<path d="M4.20508 9.377V8.4655C4.20508 8.34505 4.30209 8.24744 4.42173 8.24744H5.32732C5.44699 8.24744 5.54397 8.34508 5.54397 8.4655V9.377C5.54397 9.49745 5.44696 9.59507 5.32732 9.59507H4.42173C4.30209 9.59509 4.20508 9.49745 4.20508 9.377Z" fill="#BED8FB"/>
<path d="M6.45654 9.377V8.4655C6.45654 8.34505 6.55355 8.24744 6.6732 8.24744H7.57878C7.69846 8.24744 7.79544 8.34508 7.79544 8.4655V9.377C7.79544 9.49745 7.69843 9.59507 7.57878 9.59507H6.6732C6.55355 9.59509 6.45654 9.49745 6.45654 9.377Z" fill="#BED8FB"/>
<path d="M10.701 5.37454C10.701 5.09432 10.4753 4.86719 10.197 4.86719H8.45992C7.81921 4.86719 7.2998 5.38998 7.2998 6.03487V7.33131H11.3923V6.05328C11.3923 5.77306 11.1667 5.54593 10.8883 5.54593H10.8713C10.7772 5.5459 10.701 5.46918 10.701 5.37454Z" fill="#EFC984"/>
<path d="M10.8883 5.5459H10.8714C10.7773 5.5459 10.7011 5.46918 10.7011 5.37454C10.7011 5.09432 10.4754 4.86719 10.197 4.86719H9.26709V7.33131H11.3924V6.05328C11.3924 5.77306 11.1667 5.5459 10.8883 5.5459Z" fill="#EABC6B"/>
<path d="M8.04902 10.4652L6.38982 10.9554C5.79517 11.131 5.38672 11.6802 5.38672 12.3039V14.6806H13.306V12.3038C13.306 11.6801 12.8976 11.131 12.3031 10.9553L10.6958 10.4803L8.04902 10.4652Z" fill="#4A80AA"/>
<path d="M12.3028 10.9554L10.6955 10.4804L8.91504 10.4702C8.91748 10.9102 9.20646 11.2965 9.62593 11.4205L10.5265 11.6866C11.1211 11.8623 11.5295 12.4114 11.5295 13.0351V14.6807H13.3058V12.3039C13.3058 11.6802 12.8974 11.1311 12.3028 10.9554Z" fill="#407093"/>
<path d="M9.59981 12.0813H9.09376L8.63672 14.6767L8.63879 14.6806H10.0578L9.59981 12.0813Z" fill="#DD636E"/>
<path d="M10.2573 10.8005V9.32642H8.43506V10.8005C8.43506 11.3069 9.34614 11.3519 9.34614 11.3519C9.34614 11.3519 10.2573 11.3069 10.2573 10.8005Z" fill="#FFDDCE"/>
<path d="M11.3923 7.16138H11.044C10.8503 7.16138 10.6933 7.00331 10.6933 6.80834V6.61512C10.6933 6.36114 10.4464 6.18156 10.2068 6.26127C9.64805 6.44715 9.04471 6.4472 8.48592 6.26138L8.48528 6.26115C8.2457 6.1815 7.99886 6.36108 7.99886 6.61504V6.80832C7.99886 7.00329 7.84182 7.16135 7.64811 7.16135H7.2998V7.73867C7.2998 7.88618 7.41861 8.00579 7.56519 8.00579C7.61142 8.00579 7.64907 8.04224 7.65196 8.08869C7.70789 8.98166 8.44477 9.68861 9.34606 9.68861C10.2474 9.68861 10.9842 8.98169 11.0402 8.08869C11.0431 8.04224 11.0807 8.00579 11.1269 8.00579C11.2735 8.00579 11.3923 7.8862 11.3923 7.73867V7.16138H11.3923Z" fill="#FFDDCE"/>
<path d="M11.044 7.16129C10.8503 7.16129 10.6933 7.00323 10.6933 6.80825V6.61503C10.6933 6.36105 10.4464 6.18147 10.2068 6.26118C9.90196 6.36257 9.58386 6.40826 9.26697 6.39903V8.25979C9.25923 8.77493 9.02493 9.23456 8.66016 9.54285C8.86991 9.63625 9.10183 9.68852 9.346 9.68852C10.2473 9.68852 10.9842 8.9816 11.0401 8.0886C11.043 8.04215 11.0806 8.0057 11.1269 8.0057C11.2734 8.0057 11.3923 7.88611 11.3923 7.73858V7.16126H11.044V7.16129Z" fill="#FFCBBE"/>
<path d="M8.08011 10.3674L7.82062 10.4847C7.6725 10.5517 7.63676 10.7471 7.75147 10.8627L8.47011 11.5872C8.56125 11.6765 8.70474 11.682 8.80237 11.5999L9.36587 11.1261L8.40516 10.4036C8.31135 10.333 8.18694 10.3192 8.08011 10.3674Z" fill="#365E7D"/>
<path d="M10.287 10.4083L9.36572 11.1263L9.89534 11.5821C9.99237 11.6656 10.1365 11.6614 10.2286 11.5724L10.9476 10.8676C11.0651 10.7525 11.0299 10.5543 10.8801 10.4871L10.6156 10.3684C10.5072 10.3198 10.3809 10.3351 10.287 10.4083Z" fill="#365E7D"/>
<path d="M9.36541 11.126L8.81055 11.5924L9.09327 12.0812H9.59932L9.88204 11.5712L9.36541 11.126Z" fill="#E28086"/>
<path d="M13.829 15.2279H0.80472C0.551484 15.2279 0.346191 15.0212 0.346191 14.7663C0.346191 14.5114 0.551484 14.3048 0.80472 14.3048H13.8289C14.0822 14.3048 14.2875 14.5114 14.2875 14.7663C14.2875 15.0212 14.0822 15.2279 13.829 15.2279Z" fill="#365E7D"/>
<path d="M3.50283 3.78128C3.50283 3.54427 3.31125 3.35144 3.0758 3.35144H2.17022C1.93474 3.35144 1.74316 3.54427 1.74316 3.78128V4.6928C1.74316 4.92982 1.93477 5.12264 2.17022 5.12264H3.07583C3.31131 5.12264 3.50286 4.92982 3.50286 4.6928V3.78128H3.50283ZM3.08209 4.69277C3.08209 4.69627 3.07925 4.6991 3.0758 4.6991H2.17022C2.16674 4.6991 2.16391 4.69625 2.16391 4.69277V3.78128C2.16391 3.77778 2.16674 3.77496 2.17022 3.77496H3.07583C3.07928 3.77496 3.08211 3.77781 3.08211 3.78128V4.69277H3.08209Z" fill="black"/>
<path d="M5.75432 3.78128C5.75432 3.54427 5.56274 3.35144 5.32729 3.35144H4.42168C4.1862 3.35144 3.99463 3.54427 3.99463 3.78128V4.6928C3.99463 4.92982 4.18623 5.12264 4.42168 5.12264H5.32729C5.56277 5.12264 5.75432 4.92982 5.75432 4.6928V3.78128ZM5.33358 4.69277C5.33358 4.69627 5.33074 4.6991 5.32729 4.6991H4.42168C4.4182 4.6991 4.41537 4.69625 4.41537 4.69277V3.78128C4.41537 3.77778 4.4182 3.77496 4.42168 3.77496H5.32729C5.33074 3.77496 5.33358 3.77781 5.33358 3.78128V4.69277Z" fill="black"/>
<path d="M3.50283 6.12344C3.50283 5.88643 3.31125 5.6936 3.0758 5.6936H2.17022C1.93474 5.6936 1.74316 5.88643 1.74316 6.12344V7.03496C1.74316 7.27198 1.93477 7.4648 2.17022 7.4648H3.07583C3.31131 7.4648 3.50286 7.27198 3.50286 7.03496V6.12344H3.50283ZM3.08209 7.03494C3.08209 7.03844 3.07925 7.04126 3.0758 7.04126H2.17022C2.16674 7.04126 2.16391 7.03841 2.16391 7.03494V6.12344C2.16391 6.11994 2.16674 6.11712 2.17022 6.11712H3.07583C3.07928 6.11712 3.08211 6.11997 3.08211 6.12344V7.03494H3.08209Z" fill="black"/>
<path d="M5.75432 6.12344C5.75432 5.88643 5.56274 5.6936 5.32729 5.6936H4.42168C4.1862 5.6936 3.99463 5.88643 3.99463 6.12344V7.03496C3.99463 7.27198 4.18623 7.4648 4.42168 7.4648H5.32729C5.56277 7.4648 5.75432 7.27198 5.75432 7.03496V6.12344ZM5.33358 7.03494C5.33358 7.03844 5.33074 7.04126 5.32729 7.04126H4.42168C4.4182 7.04126 4.41537 7.03841 4.41537 7.03494V6.12344C4.41537 6.11994 4.4182 6.11712 4.42168 6.11712H5.32729C5.33074 6.11712 5.33358 6.11997 5.33358 6.12344V7.03494Z" fill="black"/>
<path d="M3.0758 8.03564H2.17022C1.93474 8.03564 1.74316 8.22847 1.74316 8.46548V9.37701C1.74316 9.61402 1.93477 9.80685 2.17022 9.80685H3.07583C3.31131 9.80685 3.50286 9.61402 3.50286 9.37701V8.46548C3.50283 8.22847 3.31128 8.03564 3.0758 8.03564ZM3.08209 9.37701C3.08209 9.38051 3.07925 9.38333 3.0758 9.38333H2.17022C2.16674 9.38333 2.16391 9.38048 2.16391 9.37701V8.46548C2.16391 8.46198 2.16674 8.45916 2.17022 8.45916H3.07583C3.07928 8.45916 3.08211 8.46201 3.08211 8.46548V9.37701H3.08209Z" fill="black"/>
<path d="M5.32729 8.03564H4.42168C4.1862 8.03564 3.99463 8.22847 3.99463 8.46548V9.37701C3.99463 9.61402 4.18623 9.80685 4.42168 9.80685H5.32729C5.56277 9.80685 5.75432 9.61402 5.75432 9.37701V8.46548C5.75432 8.22847 5.56277 8.03564 5.32729 8.03564ZM5.33358 9.37701C5.33358 9.38051 5.33074 9.38333 5.32729 9.38333H4.42168C4.4182 9.38333 4.41537 9.38048 4.41537 9.37701V8.46548C4.41537 8.46198 4.4182 8.45916 4.42168 8.45916H5.32729C5.33074 8.45916 5.33358 8.46201 5.33358 8.46548V9.37701Z" fill="black"/>
<path d="M13.8289 14.0931H13.5166V12.3037C13.5166 11.5909 13.042 10.9528 12.3625 10.752L11.0883 10.3755C11.0524 10.3416 11.011 10.3137 10.9658 10.2934L10.7012 10.1747C10.6264 10.1412 10.5466 10.1263 10.4677 10.1287V9.53169C10.8864 9.22453 11.1781 8.75014 11.2413 8.20337C11.4487 8.15178 11.6029 7.96288 11.6029 7.73843V7.16112V6.05318C11.6029 5.66409 11.2943 5.34621 10.9105 5.3344C10.8898 4.95646 10.5777 4.65535 10.1971 4.65535H8.46007C8.30003 4.65535 8.14644 4.68336 8.00353 4.73433C8.00485 4.7206 8.00564 4.70674 8.00564 4.69268V3.78121C8.00564 3.5442 7.81406 3.35137 7.57861 3.35137H6.673C6.43752 3.35137 6.24595 3.5442 6.24595 3.78121V4.69273C6.24595 4.92975 6.43755 5.12257 6.673 5.12257H7.4333C7.2916 5.28394 7.18663 5.47863 7.13206 5.69354H6.673C6.43752 5.69354 6.24595 5.88636 6.24595 6.12338V7.0349C6.24595 7.27192 6.43755 7.46474 6.673 7.46474H7.08953V7.73846C7.08953 7.85067 7.12808 7.95399 7.19252 8.0357H6.67297C6.43749 8.0357 6.24592 8.22853 6.24592 8.46554V9.37707C6.24592 9.61408 6.43752 9.80688 6.67297 9.80688H7.57859C7.81406 9.80688 8.00561 9.61405 8.00561 9.37707V9.34445C8.07384 9.41228 8.14711 9.47485 8.22471 9.53177V10.1277C8.14649 10.1258 8.06752 10.1409 7.99369 10.1743L7.73422 10.2916C7.68926 10.3119 7.64816 10.3397 7.6125 10.3735L6.3307 10.7521C5.65111 10.9529 5.17648 11.591 5.17648 12.3039V12.4476C5.17648 12.5646 5.27065 12.6594 5.38685 12.6594C5.50304 12.6594 5.59722 12.5646 5.59722 12.4476V12.3039C5.59722 11.7777 5.94755 11.3067 6.44919 11.1585L7.49877 10.8484C7.52029 10.9083 7.55485 10.9644 7.60237 11.0124L8.32107 11.7367C8.32177 11.7374 8.32247 11.7381 8.32317 11.7388C8.41216 11.826 8.5274 11.8701 8.64303 11.8701C8.67002 11.8701 8.69701 11.8676 8.72372 11.8627L8.87293 12.1207L8.5256 14.0931H6.91384V13.633C6.91384 13.516 6.81966 13.4213 6.70347 13.4213C6.58727 13.4213 6.4931 13.5161 6.4931 13.633V14.0931H5.5973V13.4375C5.5973 13.3205 5.50313 13.2257 5.38693 13.2257C5.27073 13.2257 5.17656 13.3206 5.17656 13.4375V14.0931H4.30096V11.622H4.32739C4.44359 11.622 4.53776 11.5272 4.53776 11.4103C4.53776 11.2933 4.44359 11.1985 4.32739 11.1985H1.79447C1.67827 11.1985 1.5841 11.2933 1.5841 11.4103C1.5841 11.5272 1.67827 11.622 1.79447 11.622H1.8209V14.0931H1.059V3.00446C1.059 2.8281 1.20157 2.68463 1.37676 2.68463H8.3719C8.54712 2.68463 8.68963 2.8281 8.68963 3.00446V3.86313C8.68963 3.98008 8.78381 4.07487 8.9 4.07487C9.0162 4.07487 9.11037 3.98005 9.11037 3.86313V3.00446C9.11037 2.62678 8.829 2.3142 8.46622 2.26741V1.5036C8.46624 1.21635 8.23405 0.982666 7.94866 0.982666H1.79997C1.51458 0.982666 1.28244 1.21635 1.28244 1.5036V2.26741C0.919632 2.3142 0.638259 2.62678 0.638259 3.00446V14.1141C0.349648 14.1888 0.135742 14.4529 0.135742 14.7663C0.135742 15.1376 0.435799 15.4396 0.80467 15.4396H13.8289C14.1977 15.4396 14.4978 15.1376 14.4978 14.7663C14.4978 14.3951 14.1977 14.0931 13.8289 14.0931ZM1.79997 1.40618H7.94866C8.00205 1.40618 8.04547 1.44989 8.04547 1.5036V2.26112H1.70319V1.5036C1.70319 1.44986 1.74661 1.40618 1.79997 1.40618ZM13.0959 12.3037V14.0931H12.1994V13.633C12.1994 13.516 12.1052 13.4213 11.989 13.4213C11.8729 13.4213 11.7787 13.5161 11.7787 13.633V14.0931H10.1678L9.81989 12.1185L9.97116 11.8457C9.99932 11.8511 10.0278 11.854 10.0564 11.854C10.1711 11.854 10.2859 11.8104 10.3754 11.7239L11.0944 11.0191C11.1438 10.9707 11.1796 10.9127 11.2016 10.8503L12.244 11.1584C12.7456 11.3066 13.0959 11.7775 13.0959 12.3037ZM9.21451 11.8695L9.08204 11.6405L9.36414 11.4033L9.61491 11.6191L9.4761 11.8694H9.21451V11.8695ZM10.53 10.5616L10.7946 10.6803C10.808 10.6862 10.8119 10.7048 10.8008 10.7157L10.0828 11.4194C10.0687 11.433 10.0469 11.4337 10.0321 11.4209L9.6989 11.1342L10.4158 10.5754C10.4485 10.5499 10.4923 10.5447 10.53 10.5616ZM10.1972 5.07887C10.3591 5.07887 10.4908 5.21146 10.4908 5.37447C10.4908 5.5857 10.6616 5.75758 10.8715 5.75758H10.8884C11.0504 5.75758 11.1821 5.89018 11.1821 6.05318V6.94934H11.0442C10.9668 6.94934 10.9038 6.88598 10.9038 6.80808V6.61486C10.9038 6.27704 10.6283 6.0298 10.325 6.0298C10.2636 6.0298 10.2016 6.03977 10.1409 6.05993C9.62868 6.23037 9.06436 6.23042 8.55141 6.05982C8.1753 5.93473 7.78862 6.21605 7.78862 6.61477V6.80808C7.78862 6.88598 7.72564 6.94934 7.64824 6.94934H7.5103V6.0348C7.5103 5.50772 7.93635 5.07887 8.46007 5.07887H10.1972ZM6.66674 4.69271V3.78121C6.66674 3.77771 6.66958 3.77489 6.67306 3.77489H7.57867C7.58212 3.77489 7.58495 3.77774 7.58495 3.78121V4.69273C7.58495 4.69624 7.58212 4.69906 7.57867 4.69906H6.67306C6.66958 4.69903 6.66674 4.69621 6.66674 4.69271ZM6.66674 7.03484V6.12335C6.66674 6.11985 6.66958 6.11703 6.67306 6.11703H7.08959V7.0412H6.67306C6.66958 7.04117 6.66674 7.03835 6.66674 7.03484ZM7.58492 9.37701C7.58492 9.38051 7.58209 9.38334 7.57864 9.38334H6.67303C6.66955 9.38334 6.66672 9.38051 6.66672 9.37701V8.46549C6.66672 8.46199 6.66955 8.45916 6.67303 8.45916H7.49863C7.52141 8.54816 7.55025 8.63465 7.5849 8.71806V9.37701H7.58492ZM7.86212 8.07504C7.85216 7.91734 7.7218 7.79378 7.56537 7.79378C7.53505 7.79378 7.51036 7.76893 7.51036 7.73841V7.37286H7.6483C7.9577 7.37286 8.20942 7.1195 8.20942 6.80808V6.61477C8.20942 6.50618 8.31456 6.42709 8.42012 6.46219C9.0176 6.66086 9.67564 6.6608 10.273 6.46204C10.3764 6.42768 10.4831 6.50488 10.4831 6.61486V6.80808C10.4831 7.1195 10.7348 7.37286 11.0442 7.37286H11.1822V7.73841C11.1822 7.76893 11.1575 7.79378 11.1271 7.79378C10.9707 7.79378 10.8404 7.91731 10.8304 8.07512C10.7812 8.86099 10.1293 9.4766 9.34624 9.4766C8.56325 9.4766 7.91135 8.86099 7.86212 8.07504ZM9.34627 9.90009C9.593 9.90009 9.82949 9.85223 10.047 9.76537V10.3272L9.36344 10.86L8.64553 10.32V9.7654C8.86303 9.85223 9.09952 9.90009 9.34627 9.90009ZM7.90021 10.713C7.88882 10.7016 7.89401 10.6835 7.90664 10.6778L8.16607 10.5606C8.20319 10.5439 8.24642 10.5486 8.27907 10.5731L9.02652 11.1353L8.66727 11.4373C8.65257 11.4497 8.63122 11.4491 8.61728 11.436L7.90021 10.713ZM9.26994 12.293H9.42328L9.74045 14.0931H8.95297L9.26994 12.293ZM2.24167 11.622H3.88017V14.0931H2.24167V11.622ZM13.8289 15.0161H0.80467C0.667827 15.0161 0.556512 14.9041 0.556512 14.7663C0.556512 14.6286 0.667827 14.5166 0.80467 14.5166H13.8289C13.9657 14.5166 14.077 14.6286 14.077 14.7663C14.077 14.904 13.9657 15.0161 13.8289 15.0161Z" fill="black"/>
</svg>
