<svg width="24" height="23" viewBox="0 0 24 23" fill="none" xmlns="http://www.w3.org/2000/svg">
<path d="M23.3749 11.7489C23.3749 10.5498 22.3998 9.57471 21.2007 9.57471C20.8521 9.57471 20.5365 9.70335 20.2861 9.90917C19.8324 9.69393 19.3371 9.57471 18.833 9.57471C17.9264 9.57471 17.0737 9.92802 16.4324 10.569L16.3012 10.7002C16.1841 10.735 16.0722 10.7814 15.9635 10.8339C15.5645 9.68124 14.4709 8.84998 13.1841 8.84998H11.4755C10.6863 8.84998 9.98295 9.32141 9.67893 10.0385L9.16654 10.2947C8.73569 10.5103 8.42115 10.8778 8.2657 11.3133C7.54205 10.6712 6.60026 10.2994 5.61897 10.2994C3.42122 10.2994 1.63294 12.0877 1.63294 14.2855V16.734C1.63294 17.5892 1.90254 18.4186 2.39753 19.1082C1.47712 19.8634 0.908203 21.0045 0.908203 22.2575V22.6199H23.3749V22.2575C23.3749 20.4214 22.1552 18.8227 20.3948 18.332L20.2912 18.0211C20.7315 17.7653 21.0591 17.3362 21.1638 16.8217H21.2007C22.0001 16.8217 22.6502 16.1716 22.6502 15.3722C22.6502 14.8834 22.4052 14.4522 22.0335 14.1894C22.8386 13.6742 23.3749 12.774 23.3749 11.7489ZM16.578 11.3757L16.6755 11.3514L16.9455 11.0814C17.4495 10.5774 18.1199 10.2994 18.833 10.2994C19.1834 10.2994 19.5302 10.369 19.8524 10.502C19.7893 10.6643 19.7513 10.8397 19.7513 11.0242C19.7513 11.8236 20.4014 12.4736 21.2007 12.4736V11.7489C20.801 11.7489 20.476 11.4239 20.476 11.0242C20.476 10.6245 20.801 10.2994 21.2007 10.2994C22.0001 10.2994 22.6502 10.9495 22.6502 11.7489C22.6502 12.948 21.6751 13.9231 20.476 13.9231C19.2769 13.9231 18.3018 12.948 18.3018 11.7489H17.5771C17.5771 12.0091 17.6148 12.2598 17.6793 12.5001C16.9234 12.6103 16.3153 13.1813 16.1642 13.9231H16.1276C16.1276 13.6278 16.0377 13.3535 15.8855 13.1241L16.0395 12.5077C16.0979 12.2747 16.1276 12.0345 16.1276 11.7935C16.1276 11.7232 16.1218 11.6547 16.1171 11.5855C16.2595 11.4934 16.4106 11.4177 16.578 11.3757ZM16.9335 18.332C16.6222 18.4186 16.328 18.5505 16.0472 18.7071C15.5268 17.9204 14.7803 17.2848 13.8813 16.9094L13.7686 16.5713C14.2089 16.3155 14.5365 15.8864 14.6412 15.3719H14.6781C14.6781 16.1712 15.3282 16.8213 16.1276 16.8213H16.1642C16.2689 17.3355 16.5965 17.7649 17.0368 18.0208L16.9335 18.332ZM4.72139 20.4457H6.51619C6.33464 20.9563 6.02627 21.4172 5.61861 21.7836C5.21167 21.4172 4.90293 20.9563 4.72139 20.4457ZM5.61897 17.5468C4.61993 17.5468 3.80714 16.734 3.80714 15.7349V14.3442C3.80714 13.9017 4.04268 13.5024 4.41338 13.2853C4.93192 13.9238 5.67622 14.3489 6.49735 14.4663C7.0293 14.5424 7.4308 15.0051 7.4308 15.5425V15.7349C7.4308 16.734 6.61802 17.5468 5.61897 17.5468ZM5.61897 18.2715C5.89799 18.2715 6.16542 18.2244 6.4169 18.1411L6.70607 18.7194V19.3586C6.70607 19.4804 6.6981 19.601 6.68469 19.721H4.55361C4.53984 19.601 4.53187 19.4804 4.53187 19.3586V18.7194L4.82104 18.1411C5.07252 18.2244 5.33995 18.2715 5.61897 18.2715ZM7.4308 19.3586V19.1227C7.58771 19.1814 7.74026 19.2499 7.88666 19.3314C7.59314 19.9583 7.4308 20.6508 7.4308 21.3676V21.8952H6.51655C7.09888 21.1875 7.4308 20.2888 7.4308 19.3586ZM9.605 14.6478C9.20531 14.6478 8.88027 14.3228 8.88027 13.9231C8.88027 13.5234 9.20531 13.1984 9.605 13.1984V14.6478ZM9.6416 15.3726C9.74633 15.8868 10.0739 16.3162 10.5142 16.572L10.4015 16.9101C10.0985 17.0366 9.81481 17.1946 9.5492 17.3761C9.58326 17.1641 9.605 16.9503 9.605 16.734V15.3726H9.6416ZM10.6787 17.583L11.3889 17.9381L10.4982 18.4726L10.2131 17.812C10.362 17.7258 10.5178 17.6504 10.6787 17.583ZM13.6044 17.583C13.7653 17.6504 13.9212 17.7258 14.0701 17.812L13.7849 18.4726L12.8942 17.9381L13.6044 17.583ZM13.1479 17.0007L12.1416 17.504L11.1353 17.0011L11.202 16.8007C11.2733 16.809 11.3433 16.822 11.4168 16.822H12.8663C12.9399 16.822 13.0098 16.809 13.0812 16.8003L13.1479 17.0007ZM12.8663 16.0973H11.4168C10.8175 16.0973 10.3297 15.6096 10.3297 15.0102V12.8204C10.3297 12.4294 10.6479 12.1113 11.0389 12.1113H13.2446C13.6352 12.1113 13.9534 12.4294 13.9534 12.8204V15.0102C13.9534 15.6096 13.4657 16.0973 12.8663 16.0973ZM8.15554 21.3676C8.15554 20.1464 8.70887 19.0082 9.60899 18.2407L10.1612 19.5199L12.1416 18.3317L14.1219 19.5199L14.6742 18.2407C15.5743 19.0082 16.1276 20.1464 16.1276 21.3676V21.8952H8.15554V21.3676ZM14.6781 13.1984C15.0778 13.1984 15.4029 13.5234 15.4029 13.9231C15.4029 14.3228 15.0778 14.6478 14.6781 14.6478V13.1984ZM16.1276 14.6478V16.0973C15.7279 16.0973 15.4029 15.7723 15.4029 15.3726C15.4029 15.2954 15.4188 15.2215 15.4424 15.1494C15.6297 15.032 15.7873 14.8747 15.9047 14.687C15.9765 14.6638 16.0504 14.6478 16.1276 14.6478ZM9.49086 10.943L10.2638 10.5564L10.3113 10.414C10.4787 9.91207 10.9465 9.57471 11.4755 9.57471H13.1841C14.4074 9.57471 15.4029 10.5701 15.4029 11.7935C15.4029 11.975 15.3804 12.1558 15.3366 12.3316L15.2688 12.6023C15.088 12.5211 14.889 12.4736 14.6781 12.4736H14.631C14.4748 11.8511 13.915 11.3865 13.2446 11.3865H11.0389C10.3685 11.3865 9.80829 11.8511 9.65247 12.4736H9.605C9.39411 12.4736 9.19517 12.5211 9.01435 12.6026L8.91325 12.1982C8.8915 12.1113 8.88027 12.021 8.88027 11.9305C8.88027 11.5097 9.11436 11.1311 9.49086 10.943ZM2.35767 16.734V14.2855C2.35767 12.4874 3.82091 11.0242 5.61897 11.0242C6.63831 11.0242 7.5714 11.4862 8.19467 12.2899C8.20047 12.3178 8.20337 12.3465 8.21025 12.374L8.3976 13.1237C8.2454 13.3535 8.15554 13.6278 8.15554 13.9231C8.15554 14.4572 8.44905 14.9196 8.88027 15.1711V16.7343C8.88027 17.3554 8.70778 17.9635 8.38202 18.4926L8.38709 18.4958C8.33708 18.5632 8.28708 18.6306 8.24069 18.7006C7.95044 18.5386 7.64206 18.4117 7.31847 18.3241L7.06481 17.8167C7.72323 17.3576 8.15554 16.5963 8.15554 15.7349V15.5425C8.15554 14.6468 7.48697 13.8756 6.60026 13.7488C5.88096 13.6459 5.2374 13.2404 4.83372 12.6349L4.68008 12.4044L4.41736 12.4921C3.61871 12.7585 3.0824 13.5028 3.0824 14.3442V15.7349C3.0824 16.5963 3.51471 17.3576 4.17313 17.8164L3.91947 18.3237C3.59117 18.4125 3.28207 18.54 2.99507 18.6998C2.58234 18.1302 2.35767 17.4428 2.35767 16.734ZM3.80714 19.1285V19.3586C3.80714 20.2888 4.13906 21.1875 4.72139 21.8952H1.6525C1.78767 20.6378 2.62437 19.572 3.80714 19.1285ZM22.6306 21.8952H16.8523V21.3676C16.8523 20.6541 16.6911 19.9641 16.4001 19.3398C16.6251 19.2144 16.8621 19.1133 17.1107 19.0426L17.1709 19.1028C17.5695 19.5014 18.1 19.721 18.6642 19.721C19.2284 19.721 19.7589 19.5014 20.1575 19.1024L20.2176 19.0423C21.537 19.4188 22.4857 20.5479 22.6306 21.8952ZM19.6991 18.536L19.6451 18.59C19.1211 19.114 18.2072 19.114 17.6832 18.59L17.6293 18.536L17.7246 18.2498C17.7959 18.2585 17.8659 18.2715 17.9394 18.2715H19.3889C19.4625 18.2715 19.5324 18.2585 19.6038 18.2498L19.6991 18.536ZM20.476 16.4597C20.476 17.059 19.9883 17.5468 19.3889 17.5468H17.9394C17.3401 17.5468 16.8523 17.059 16.8523 16.4597V14.2855C16.8523 13.6861 17.3401 13.1984 17.9394 13.1984H17.9692C18.4714 14.0633 19.4056 14.6478 20.476 14.6478V16.4597ZM21.2007 16.0973V14.6478C21.6004 14.6478 21.9255 14.9729 21.9255 15.3726C21.9255 15.7723 21.6004 16.0973 21.2007 16.0973Z" fill="black"/>
<path d="M20.3358 3.77662C18.6906 2.44674 16.7436 1.53864 14.6781 1.13062V0.152954H9.605V1.13243C7.16446 1.61329 4.93373 2.77069 3.12589 4.50135H0.908203V9.57449H5.98134V4.50135H4.20248C5.76138 3.18415 7.60836 2.29019 9.605 1.87275V5.22609H14.6781V1.87057C16.2689 2.20395 17.7811 2.85331 19.1218 3.77662H18.3018V8.84976H23.3749V3.77662H20.3358ZM1.63294 8.84976V5.22609H4.82031L3.06465 7.23251L2.61386 6.78173L2.10148 7.29412L3.10016 8.2928L5.2566 5.82798V8.84976H1.63294ZM10.3297 4.50135V0.877688H13.5171L11.7614 2.88411L11.3107 2.43333L10.7983 2.94571L11.797 3.9444L13.9534 1.47958V4.50135H10.3297ZM19.0265 8.12502V4.50135H22.2139L20.4583 6.50778L20.0075 6.05699L19.4951 6.56938L20.4938 7.56806L22.6502 5.10325V8.12502H19.0265Z" fill="black"/>
<path d="M11.7793 6.67578H12.504V7.40051H11.7793V6.67578Z" fill="black"/>
<path d="M13.2285 6.67578H13.9532V7.40051H13.2285V6.67578Z" fill="black"/>
<path d="M10.3301 6.67578H11.0548V7.40051H10.3301V6.67578Z" fill="black"/>
</svg>
