<svg width="25" height="24" viewBox="0 0 25 24" fill="none" xmlns="http://www.w3.org/2000/svg">
<path d="M23.4077 22.709H23.3968V8.92441C23.3968 8.90457 23.3968 8.88474 23.3932 8.86515C23.3932 8.86189 23.3932 8.85837 23.3932 8.8551C23.3897 8.84205 23.3897 8.82547 23.3861 8.81241C23.3861 8.80589 23.3826 8.79584 23.379 8.78931C23.3755 8.77952 23.3755 8.76972 23.3719 8.75968C23.3684 8.74989 23.3646 8.74009 23.361 8.73005C23.3575 8.72352 23.3575 8.71699 23.3539 8.71046C23.3504 8.70042 23.3433 8.69062 23.3397 8.68083C23.3362 8.67405 23.3323 8.66752 23.3288 8.66099C23.3217 8.6512 23.3182 8.64115 23.3111 8.63462C23.3075 8.62809 23.304 8.62157 23.3001 8.61504C23.293 8.60826 23.2895 8.59846 23.2824 8.59193C23.2753 8.5854 23.2717 8.57862 23.2644 8.5721C23.2573 8.56557 23.2537 8.55904 23.2466 8.55251C23.2395 8.54573 23.2322 8.53593 23.2251 8.52941C23.2215 8.52288 23.2144 8.51936 23.2073 8.5161C23.2 8.50957 23.1893 8.49977 23.1822 8.49325C23.1787 8.48973 23.1716 8.48646 23.1642 8.47994C23.1535 8.47341 23.1429 8.46688 23.1358 8.46035C23.1284 8.45683 23.1213 8.45357 23.1178 8.4503C23.1071 8.44378 23.0962 8.43725 23.0891 8.43398C23.0785 8.43072 23.0714 8.42394 23.0605 8.42067C23.0534 8.41741 23.0427 8.41414 23.0356 8.41088C23.0211 8.40435 23.007 8.40108 22.9925 8.39757C22.9889 8.39757 22.9854 8.39431 22.9783 8.39431C22.9603 8.38778 22.939 8.38451 22.921 8.38125H22.9174L19.9296 7.80518V2.144C19.9296 2.12416 19.9296 2.10458 19.926 2.08474C19.926 2.08147 19.926 2.07821 19.9225 2.07143C19.9189 2.05837 19.9189 2.0418 19.9154 2.02874C19.9118 2.01895 19.9118 2.01217 19.9083 2.00564C19.9047 1.99584 19.9047 1.98605 19.9012 1.97927C19.8976 1.96948 19.8938 1.95968 19.8903 1.94964C19.8867 1.94311 19.8867 1.93658 19.8832 1.93005C19.8796 1.92001 19.8725 1.91021 19.869 1.89715C19.8654 1.89063 19.8616 1.88384 19.8581 1.88058C19.851 1.87079 19.8474 1.86099 19.8403 1.85095C19.8368 1.84442 19.8332 1.83789 19.8294 1.83463C19.8223 1.82785 19.8188 1.81805 19.8117 1.81152C19.8046 1.80499 19.801 1.79847 19.7936 1.79168C19.7865 1.78516 19.783 1.77863 19.7759 1.7721C19.7688 1.76532 19.7614 1.75879 19.7543 1.749C19.7472 1.74247 19.7437 1.7392 19.7366 1.73569C19.7292 1.72916 19.7186 1.71936 19.7115 1.71283C19.7044 1.70957 19.7008 1.70631 19.6935 1.69953C19.6828 1.693 19.6757 1.68647 19.6651 1.67994C19.6577 1.67667 19.6506 1.67316 19.6435 1.66989C19.6328 1.66336 19.6255 1.6601 19.6148 1.65357C19.6042 1.65031 19.5971 1.64353 19.5862 1.64026C19.5791 1.637 19.572 1.63373 19.5611 1.63047C19.5469 1.62394 19.5288 1.62067 19.5146 1.61415C19.5111 1.61415 19.5075 1.61063 19.504 1.61063C19.4824 1.6041 19.4609 1.60084 19.4396 1.59431L11.1921 0.00774971C11.1741 0.00448522 11.1564 0.0012207 11.1419 0.0012207C11.1384 0.0012207 11.1348 0.0012207 11.1313 0.0012207C11.1206 0.0012207 11.1097 0.0012207 11.099 0.0012207C11.0884 0.0012207 11.0775 0.0012207 11.0704 0.0012207C11.0704 0.0012207 11.0704 0.0012207 11.0668 0.0012207C11.0562 0.0012207 11.0488 0.0012207 11.0382 0.0012207C11.0275 0.0012207 11.0166 0.0012207 11.0095 0.0012207C10.9953 0.0012207 10.9844 0.00448522 10.9702 0.00774971C10.9631 0.00774971 10.956 0.00774971 10.9525 0.0110143H10.9486H10.9451L4.15757 1.2322C4.13955 1.23546 4.12536 1.23873 4.10734 1.24199C4.10379 1.24199 4.10024 1.24199 4.0967 1.24551C4.0825 1.24877 4.06803 1.2553 4.05384 1.25856C4.05029 1.25856 4.04674 1.26183 4.03937 1.26183C4.02872 1.26509 4.01808 1.27162 4.01098 1.27489C3.93209 1.3113 3.86411 1.35725 3.81061 1.41652C3.81061 1.41978 3.80678 1.41978 3.80678 1.42305C3.80324 1.42983 3.79969 1.43309 3.79259 1.43962C3.75328 1.48884 3.72107 1.54484 3.6995 1.6041C3.6995 1.60737 3.69595 1.61063 3.69595 1.61063C3.6924 1.61741 3.6924 1.62394 3.68885 1.63047C3.68531 1.64026 3.68176 1.65357 3.67821 1.66336V1.67316C3.67439 1.68973 3.67084 1.70279 3.67084 1.71936V1.72589C3.67084 1.74247 3.66729 1.75879 3.66729 1.77536V6.13325L1.30214 6.56115C1.2844 6.56441 1.26638 6.56768 1.24864 6.57421C1.24509 6.57421 1.24509 6.57421 1.24154 6.57747C1.22352 6.58074 1.20933 6.58752 1.19131 6.59405C1.18776 6.59405 1.18421 6.59731 1.18066 6.59731C1.16974 6.60058 1.1591 6.6071 1.14845 6.61037C1.07693 6.64327 1.0125 6.68947 0.958726 6.74221C0.955178 6.74547 0.951629 6.752 0.944531 6.75526C0.940982 6.75853 0.937161 6.76506 0.933612 6.77184C0.887204 6.82759 0.851443 6.89338 0.829877 6.96269C0.826328 6.97574 0.82278 6.98554 0.819231 6.99885V7.00538C0.815682 7.02195 0.812133 7.03827 0.812133 7.05485V7.05811C0.808584 7.07443 0.808584 7.09427 0.808584 7.11085V22.7122H0.797665C0.461347 22.7122 0.189453 22.9624 0.189453 23.2717C0.189453 23.5811 0.461347 23.8312 0.797665 23.8312H23.4112C23.7476 23.8312 24.0195 23.5811 24.0195 23.2717C24.0159 22.9591 23.744 22.709 23.4077 22.709ZM10.8629 7.18643C10.9093 7.20301 10.9631 7.2128 11.0131 7.21606L22.1803 9.3719V11.2415L8.21878 8.54573V6.67616L10.8629 7.18643ZM22.1803 14.1512L8.21878 11.4554V9.48717L22.1803 12.1829V14.1512ZM22.1803 15.0926V17.041L8.21878 14.3651V12.3969L22.1803 15.0926ZM8.21878 15.3063L22.1803 17.9857V19.954L8.21878 17.2781V15.3063ZM22.1803 20.8954V22.709H8.21878V18.216L22.1803 20.8954ZM11.6715 6.19904V1.24199L18.7096 2.59476V7.55834L11.6715 6.19904ZM4.87662 2.23616L10.4551 1.2322V5.96525L7.73559 5.44192C7.7285 5.44192 7.71785 5.43866 7.71048 5.43866C7.70338 5.43866 7.69273 5.43539 7.68564 5.43539C7.67117 5.43213 7.65697 5.43213 7.6425 5.43213C7.63541 5.43213 7.62831 5.43213 7.62121 5.43213C7.60319 5.43213 7.58545 5.43213 7.56743 5.43213C7.56388 5.43213 7.56034 5.43213 7.55679 5.43213C7.53522 5.43539 7.51011 5.43539 7.48881 5.44192L4.87662 5.91277V2.23616ZM2.02146 7.56813L4.29707 7.1568C4.35794 7.15354 4.41882 7.14374 4.47232 7.1239L7.00208 6.66637V8.54246L2.90511 9.32268C2.63322 9.37517 2.46151 9.61875 2.51529 9.8656C2.56525 10.0828 2.77272 10.2342 3.0053 10.2342C3.03751 10.2342 3.07327 10.231 3.10548 10.2244L6.99853 9.4839V11.4522L2.90156 12.2321C2.62967 12.2849 2.45796 12.5284 2.51174 12.7753C2.5617 12.9925 2.76917 13.1439 3.00175 13.1439C3.03396 13.1439 3.06972 13.1407 3.10194 13.1341L6.99498 12.3936V14.3651L2.89802 15.1451C2.62612 15.1978 2.45441 15.4414 2.50819 15.6882C2.55815 15.9055 2.76562 16.0569 2.9982 16.0569C3.03041 16.0569 3.06617 16.0536 3.09839 16.0471L6.99143 15.3063V17.2748L2.89447 18.0548C2.62257 18.1075 2.45087 18.3511 2.50437 18.5979C2.5546 18.8152 2.76207 18.9666 2.99465 18.9666C3.02686 18.9666 3.06263 18.9633 3.09484 18.9565L7.00208 18.216V22.709H2.02146V7.56813Z" fill="#FE5E6A"/>
<path d="M17.4466 4.35587L13.1528 3.54275C12.8809 3.49027 12.6161 3.65148 12.5626 3.90159C12.5053 4.15171 12.6806 4.39529 12.9524 4.44476L17.2462 5.25763C17.282 5.26416 17.3142 5.26767 17.3464 5.26767C17.579 5.26767 17.7865 5.11625 17.8367 4.89903C17.8938 4.65193 17.7185 4.4086 17.4466 4.35587Z" fill="#FE5E6A"/>
</svg>
