<svg width="25" height="24" viewBox="0 0 25 24" fill="none" xmlns="http://www.w3.org/2000/svg">
<path d="M14.2398 23.9559H2.32285C1.36453 23.9559 0.584961 23.1704 0.584961 22.2049V1.87453C0.584961 1.35824 0.809396 0.871969 1.19968 0.537783C1.58996 0.203596 2.10437 0.0605163 2.60786 0.146564L13.5208 1.81249C14.3738 1.95557 14.9846 2.68198 14.9846 3.54146V23.2054C14.9846 23.6197 14.6509 23.9559 14.2398 23.9559ZM2.32384 1.62439C2.2434 1.62439 2.18977 1.65941 2.16296 1.68242C2.13019 1.71144 2.07458 1.77347 2.07458 1.87453V22.2049C2.07458 22.343 2.1858 22.455 2.32285 22.455H13.495V3.54146C13.495 3.41839 13.4076 3.31433 13.2874 3.29432L2.37449 1.62939C2.35661 1.62639 2.33973 1.62439 2.32384 1.62439Z" fill="#FE5E6A"/>
<path d="M22.6811 23.9559H14.2399C13.8288 23.9559 13.4951 23.6197 13.4951 23.2055V9.69792C13.4951 9.47179 13.5964 9.25768 13.7702 9.1156C13.944 8.97252 14.1724 8.91748 14.3919 8.96351L23.0485 10.7905C23.8589 10.9716 24.419 11.674 24.419 12.5015V22.2049C24.419 23.1704 23.6394 23.9559 22.6811 23.9559ZM14.9847 22.455H22.6811C22.8181 22.455 22.9294 22.343 22.9294 22.2049V12.5015C22.9294 12.3834 22.8499 12.2834 22.7357 12.2573L14.9847 10.6214V22.455Z" fill="#FE5E6A"/>
<path d="M10.2674 23.7057H5.79852C5.38739 23.7057 5.05371 23.3695 5.05371 22.9553V18.7029C5.05371 17.7373 5.83328 16.9519 6.7916 16.9519H9.27429C10.2326 16.9519 11.0122 17.7373 11.0122 18.7029V22.9553C11.0122 23.3695 10.6785 23.7057 10.2674 23.7057ZM6.54333 22.2048H9.52256V18.7029C9.52256 18.5648 9.41134 18.4527 9.27429 18.4527H6.7916C6.65455 18.4527 6.54333 18.5648 6.54333 18.7029V22.2048Z" fill="#FE5E6A"/>
<path d="M6.29497 5.94578H4.80536C4.39422 5.94578 4.06055 5.6096 4.06055 5.19537C4.06055 4.78113 4.39422 4.44495 4.80536 4.44495H6.29497C6.70611 4.44495 7.03978 4.78113 7.03978 5.19537C7.03978 5.6096 6.70611 5.94578 6.29497 5.94578Z" fill="#FE5E6A"/>
<path d="M11.2608 5.94578H9.77118C9.36004 5.94578 9.02637 5.6096 9.02637 5.19537C9.02637 4.78113 9.36004 4.44495 9.77118 4.44495H11.2608C11.6719 4.44495 12.0056 4.78113 12.0056 5.19537C12.0056 5.6096 11.6719 5.94578 11.2608 5.94578Z" fill="#FE5E6A"/>
<path d="M6.29497 8.94737H4.80536C4.39422 8.94737 4.06055 8.61118 4.06055 8.19695C4.06055 7.78272 4.39422 7.44653 4.80536 7.44653H6.29497C6.70611 7.44653 7.03978 7.78272 7.03978 8.19695C7.03978 8.61118 6.70611 8.94737 6.29497 8.94737Z" fill="#FE5E6A"/>
<path d="M11.2608 8.94737H9.77118C9.36004 8.94737 9.02637 8.61118 9.02637 8.19695C9.02637 7.78272 9.36004 7.44653 9.77118 7.44653H11.2608C11.6719 7.44653 12.0056 7.78272 12.0056 8.19695C12.0056 8.61118 11.6719 8.94737 11.2608 8.94737Z" fill="#FE5E6A"/>
<path d="M6.29497 11.9492H4.80536C4.39422 11.9492 4.06055 11.613 4.06055 11.1988C4.06055 10.7846 4.39422 10.4484 4.80536 10.4484H6.29497C6.70611 10.4484 7.03978 10.7846 7.03978 11.1988C7.03978 11.613 6.70611 11.9492 6.29497 11.9492Z" fill="#FE5E6A"/>
<path d="M11.2608 11.9492H9.77118C9.36004 11.9492 9.02637 11.613 9.02637 11.1988C9.02637 10.7846 9.36004 10.4484 9.77118 10.4484H11.2608C11.6719 10.4484 12.0056 10.7846 12.0056 11.1988C12.0056 11.613 11.6719 11.9492 11.2608 11.9492Z" fill="#FE5E6A"/>
<path d="M6.29497 14.9508H4.80536C4.39422 14.9508 4.06055 14.6146 4.06055 14.2004C4.06055 13.7861 4.39422 13.45 4.80536 13.45H6.29497C6.70611 13.45 7.03978 13.7861 7.03978 14.2004C7.03978 14.6146 6.70611 14.9508 6.29497 14.9508Z" fill="#FE5E6A"/>
<path d="M11.2608 14.9508H9.77118C9.36004 14.9508 9.02637 14.6146 9.02637 14.2004C9.02637 13.7861 9.36004 13.45 9.77118 13.45H11.2608C11.6719 13.45 12.0056 13.7861 12.0056 14.2004C12.0056 14.6146 11.6719 14.9508 11.2608 14.9508Z" fill="#FE5E6A"/>
<path d="M19.7012 14.9508H18.2116C17.8005 14.9508 17.4668 14.6146 17.4668 14.2004C17.4668 13.7861 17.8005 13.45 18.2116 13.45H19.7012C20.1124 13.45 20.446 13.7861 20.446 14.2004C20.446 14.6146 20.1124 14.9508 19.7012 14.9508Z" fill="#FE5E6A"/>
<path d="M19.7012 17.9524H18.2116C17.8005 17.9524 17.4668 17.6162 17.4668 17.202C17.4668 16.7877 17.8005 16.4515 18.2116 16.4515H19.7012C20.1124 16.4515 20.446 16.7877 20.446 17.202C20.446 17.6162 20.1124 17.9524 19.7012 17.9524Z" fill="#FE5E6A"/>
<path d="M19.7012 20.9542H18.2116C17.8005 20.9542 17.4668 20.618 17.4668 20.2038C17.4668 19.7896 17.8005 19.4534 18.2116 19.4534H19.7012C20.1124 19.4534 20.446 19.7896 20.446 20.2038C20.446 20.618 20.1124 20.9542 19.7012 20.9542Z" fill="#FE5E6A"/>
</svg>
