<svg width="95" height="95" viewBox="0 0 95 95" fill="none" xmlns="http://www.w3.org/2000/svg">
<path d="M87.5781 23.7501H85.6503C87.3727 21.8288 88.5019 19.45 88.9014 16.9008C89.3009 14.3517 88.9537 11.7414 87.9017 9.3854C86.8496 7.02936 85.1379 5.02838 82.9731 3.62425C80.8084 2.22011 78.2834 1.4729 75.7031 1.4729C73.1229 1.4729 70.5978 2.22011 68.4331 3.62425C66.2684 5.02838 64.5566 7.02936 63.5046 9.3854C62.4526 11.7414 62.1053 14.3517 62.5049 16.9008C62.9044 19.45 64.0336 21.8288 65.756 23.7501H47.5V8.9063C47.5 8.51262 47.3436 8.13507 47.0652 7.85669C46.7869 7.57832 46.4093 7.42193 46.0156 7.42193H40.0781C39.6844 7.42193 39.3069 7.57832 39.0285 7.85669C38.7501 8.13507 38.5938 8.51262 38.5938 8.9063V23.7501H37.1094V2.9688C37.1094 2.57512 36.953 2.19757 36.6746 1.91919C36.3962 1.64082 36.0187 1.48443 35.625 1.48443H29.6875C29.2938 1.48443 28.9163 1.64082 28.6379 1.91919C28.3595 2.19757 28.2031 2.57512 28.2031 2.9688V23.7501H26.7188V13.3594C26.7188 12.9657 26.5624 12.5882 26.284 12.3098C26.0056 12.0314 25.6281 11.8751 25.2344 11.8751H19.2969C18.9032 11.8751 18.5256 12.0314 18.2473 12.3098C17.9689 12.5882 17.8125 12.9657 17.8125 13.3594V23.7501H7.42188C5.84769 23.7518 4.3385 24.3779 3.22538 25.4911C2.11227 26.6042 1.48614 28.1134 1.48438 29.6876V74.2188C1.48614 75.793 2.11227 77.3022 3.22538 78.4153C4.3385 79.5284 5.84769 80.1545 7.42188 80.1563H38.0186L36.0388 86.0938H31.1719C30.7782 86.0938 30.4006 86.2502 30.1223 86.5286C29.8439 86.8069 29.6875 87.1845 29.6875 87.5782V90.5469H14.8438C14.4501 90.5469 14.0725 90.7033 13.7941 90.9817C13.5158 91.2601 13.3594 91.6376 13.3594 92.0313C13.3594 92.425 13.5158 92.8025 13.7941 93.0809C14.0725 93.3593 14.4501 93.5157 14.8438 93.5157H80.1562C80.5499 93.5157 80.9275 93.3593 81.2059 93.0809C81.4842 92.8025 81.6406 92.425 81.6406 92.0313C81.6406 91.6376 81.4842 91.2601 81.2059 90.9817C80.9275 90.7033 80.5499 90.5469 80.1562 90.5469H65.3125V87.5782C65.3125 87.1845 65.1561 86.8069 64.8777 86.5286C64.5994 86.2502 64.2218 86.0938 63.8281 86.0938H58.9612L56.9814 80.1563H87.5781C89.1523 80.1545 90.6615 79.5284 91.7746 78.4153C92.8877 77.3022 93.5139 75.793 93.5156 74.2188V29.6876C93.5139 28.1134 92.8877 26.6042 91.7746 25.4911C90.6615 24.3779 89.1523 23.7518 87.5781 23.7501ZM77.1875 4.56079C79.4059 4.88452 81.4606 5.91572 83.0459 7.50101C84.6312 9.0863 85.6624 11.141 85.9861 13.3594H77.1875V4.56079ZM76.3173 16.3282H85.9861C85.7298 18.1118 85.0136 19.7981 83.9081 21.2211C82.8026 22.6441 81.3458 23.755 79.6809 24.4444C78.016 25.1338 76.2003 25.3781 74.4124 25.1533C72.6245 24.9284 70.9259 24.2421 69.4836 23.1619L76.3173 16.3282ZM65.3125 14.8438C65.3161 12.3463 66.2177 9.9334 67.8528 8.04556C69.4879 6.15771 71.7474 4.92086 74.2188 4.56079V14.2296L67.3851 21.0633C66.0376 19.27 65.3102 17.0869 65.3125 14.8438ZM41.5625 10.3907H44.5312V38.5938H41.5625V10.3907ZM37.1094 26.7188H38.5938V38.5938H37.1094V26.7188ZM31.1719 4.45318H34.1406V38.5938H31.1719V4.45318ZM26.7188 26.7188H28.2031V38.5938H26.7188V26.7188ZM20.7812 14.8438H23.75V38.5938H20.7812V14.8438ZM62.3438 89.0626V90.5469H32.6562V89.0626H62.3438ZM39.1689 86.0938L41.1487 80.1563H53.8513L55.8311 86.0938H39.1689ZM90.5469 74.2188C90.5458 75.0058 90.2327 75.7604 89.6762 76.3169C89.1197 76.8734 88.3652 77.1865 87.5781 77.1876H7.42188C6.63483 77.1865 5.88032 76.8734 5.32379 76.3169C4.76727 75.7604 4.45416 75.0058 4.45312 74.2188V71.2501H90.5469V74.2188ZM90.5469 68.2813H4.45312V29.6876C4.45416 28.9005 4.76727 28.146 5.32379 27.5895C5.88032 27.0329 6.63483 26.7198 7.42188 26.7188H17.8125V38.5938H16.3281V29.6876C16.3281 29.2939 16.1717 28.9163 15.8934 28.6379C15.615 28.3596 15.2374 28.2032 14.8438 28.2032H8.90625C8.51257 28.2032 8.13501 28.3596 7.85664 28.6379C7.57826 28.9163 7.42188 29.2939 7.42188 29.6876V40.0782C7.42188 40.4719 7.57826 40.8494 7.85664 41.1278C8.13501 41.4062 8.51257 41.5626 8.90625 41.5626H56.4062C56.7999 41.5626 57.1775 41.4062 57.4559 41.1278C57.7342 40.8494 57.8906 40.4719 57.8906 40.0782V29.6876C57.8906 29.2939 57.7342 28.9163 57.4559 28.6379C57.1775 28.3596 56.7999 28.2032 56.4062 28.2032H50.4688C50.0751 28.2032 49.6975 28.3596 49.4191 28.6379C49.1408 28.9163 48.9844 29.2939 48.9844 29.6876V38.5938H47.5V26.7188H69.5949C71.4833 27.6942 73.5777 28.2032 75.7031 28.2032C77.8285 28.2032 79.923 27.6942 81.8113 26.7188H87.5781C88.3652 26.7198 89.1197 27.0329 89.6762 27.5895C90.2327 28.146 90.5458 28.9005 90.5469 29.6876V68.2813ZM13.3594 31.1719V38.5938H10.3906V31.1719H13.3594ZM51.9531 38.5938V31.1719H54.9219V38.5938H51.9531Z" fill="white"/>
<path d="M17.8125 72.7344H8.90625C8.51257 72.7344 8.13501 72.8908 7.85664 73.1691C7.57826 73.4475 7.42188 73.8251 7.42188 74.2188C7.42188 74.6124 7.57826 74.99 7.85664 75.2684C8.13501 75.5467 8.51257 75.7031 8.90625 75.7031H17.8125C18.2062 75.7031 18.5837 75.5467 18.8621 75.2684C19.1405 74.99 19.2969 74.6124 19.2969 74.2188C19.2969 73.8251 19.1405 73.4475 18.8621 73.1691C18.5837 72.8908 18.2062 72.7344 17.8125 72.7344Z" fill="white"/>
<path d="M23.75 72.7344H22.2656C21.8719 72.7344 21.4944 72.8908 21.216 73.1691C20.9376 73.4475 20.7812 73.8251 20.7812 74.2188C20.7812 74.6124 20.9376 74.99 21.216 75.2684C21.4944 75.5467 21.8719 75.7031 22.2656 75.7031H23.75C24.1437 75.7031 24.5212 75.5467 24.7996 75.2684C25.078 74.99 25.2344 74.6124 25.2344 74.2188C25.2344 73.8251 25.078 73.4475 24.7996 73.1691C24.5212 72.8908 24.1437 72.7344 23.75 72.7344Z" fill="white"/>
<path d="M63.8282 38.5937C64.0232 38.594 64.2163 38.5558 64.3964 38.4811C64.5765 38.4065 64.7401 38.2971 64.8778 38.159L70.3804 32.6562H83.1251C83.5187 32.6562 83.8963 32.4999 84.1747 32.2215C84.453 31.9431 84.6094 31.5656 84.6094 31.1719C84.6094 30.7782 84.453 30.4006 84.1747 30.1223C83.8963 29.8439 83.5187 29.6875 83.1251 29.6875H69.7657C69.5707 29.6875 69.3777 29.7259 69.1976 29.8005C69.0175 29.8751 68.8539 29.9844 68.716 30.1222L62.7785 36.0597C62.5709 36.2673 62.4296 36.5318 62.3723 36.8198C62.315 37.1077 62.3444 37.4062 62.4567 37.6774C62.5691 37.9487 62.7594 38.1805 63.0035 38.3436C63.2476 38.5067 63.5346 38.5938 63.8282 38.5937Z" fill="white"/>
<path d="M83.1253 54.9219C82.3452 54.9224 81.579 55.1279 80.9033 55.5177C80.2276 55.9074 79.6662 56.4679 79.2752 57.1429L63.7357 48.077C63.5251 47.0655 62.9694 46.1586 62.1637 45.5118C61.358 44.865 60.3524 44.5185 59.3192 44.5316C58.2861 44.5448 57.2897 44.9168 56.5007 45.5839C55.7117 46.251 55.1792 47.1718 54.9945 48.1884L39.3566 59.9168C38.9312 59.2617 38.3408 58.7301 37.6448 58.3755C36.9488 58.0209 36.1717 57.8558 35.3916 57.8968C34.6116 57.9378 33.856 58.1834 33.201 58.609C32.546 59.0346 32.0146 59.6252 31.6602 60.3213L16.2041 53.8809C15.9602 52.8641 15.3665 51.9655 14.5268 51.3424C13.687 50.7192 12.6549 50.4113 11.611 50.4726C10.5672 50.5339 9.57809 50.9603 8.81701 51.6774C8.05594 52.3944 7.57134 53.3564 7.44807 54.3947C7.32479 55.4331 7.57071 56.4818 8.14275 57.3571C8.71479 58.2324 9.5765 58.8786 10.577 59.1825C11.5775 59.4865 12.6531 59.4288 13.6153 59.0196C14.5776 58.6104 15.3653 57.8758 15.8404 56.9443L31.2965 63.3847C31.5351 64.3777 32.1079 65.2586 32.9189 65.8795C33.7299 66.5004 34.7297 66.8236 35.7506 66.7949C36.7716 66.7662 37.7516 66.3873 38.5264 65.7218C39.3012 65.0563 39.8236 64.1447 40.0061 63.1397L55.644 51.4113C56.0582 52.0495 56.6293 52.5708 57.3025 52.9253C57.9757 53.2798 58.7286 53.4556 59.4892 53.4361C60.2498 53.4166 60.9927 53.2022 61.6468 52.8136C62.3009 52.425 62.8445 51.8751 63.2254 51.2165L78.7649 60.2823C78.9365 61.1065 79.3381 61.8652 79.9233 62.4704C80.5085 63.0756 81.2532 63.5025 82.0711 63.7017C82.8891 63.9009 83.7467 63.8641 84.5446 63.5957C85.3425 63.3272 86.048 62.8381 86.5792 62.185C87.1104 61.532 87.4457 60.7417 87.546 59.9058C87.6464 59.07 87.5078 58.2228 87.1462 57.4626C86.7847 56.7023 86.2151 56.0601 85.5034 55.6104C84.7917 55.1607 83.9671 54.922 83.1253 54.9219ZM13.3597 54.9293C13.3587 55.3236 13.2012 55.7015 12.9219 55.9798C12.6425 56.2581 12.2641 56.4142 11.8697 56.4137C11.4754 56.4132 11.0974 56.2562 10.8187 55.9772C10.54 55.6981 10.3835 55.3199 10.3835 54.9256C10.3835 54.5312 10.54 54.153 10.8187 53.874C11.0974 53.595 11.4754 53.438 11.8697 53.4375C12.2641 53.437 12.6425 53.5931 12.9219 53.8714C13.2012 54.1497 13.3587 54.5275 13.3597 54.9219V54.9293ZM35.6253 63.8281C35.2318 63.8276 34.8545 63.671 34.5763 63.3928C34.298 63.1145 34.1415 62.7373 34.1409 62.3437V62.3363C34.1424 62.0431 34.2307 61.7568 34.3947 61.5137C34.5587 61.2705 34.791 61.0814 35.0624 60.9702C35.3337 60.859 35.632 60.8307 35.9194 60.8888C36.2069 60.9469 36.4707 61.0889 36.6775 61.2967C36.8844 61.5046 37.025 61.7691 37.0817 62.0569C37.1383 62.3446 37.1085 62.6427 36.996 62.9135C36.8834 63.1843 36.6931 63.4157 36.4492 63.5785C36.2053 63.7412 35.9186 63.8281 35.6253 63.8281ZM59.3753 50.4687C59.0817 50.4687 58.7947 50.3817 58.5506 50.2186C58.3065 50.0555 58.1163 49.8236 58.0039 49.5524C57.8916 49.2812 57.8622 48.9827 57.9194 48.6948C57.9767 48.4068 58.1181 48.1423 58.3257 47.9348C58.5333 47.7272 58.7978 47.5858 59.0857 47.5285C59.3737 47.4712 59.6721 47.5006 59.9433 47.613C60.2146 47.7253 60.4464 47.9156 60.6095 48.1597C60.7726 48.4038 60.8597 48.6908 60.8597 48.9844C60.8591 49.3779 60.7026 49.7551 60.4243 50.0334C60.1461 50.3116 59.7688 50.4682 59.3753 50.4687ZM83.1253 60.8594C82.8317 60.8594 82.5447 60.7723 82.3006 60.6092C82.0565 60.4461 81.8663 60.2143 81.7539 59.943C81.6416 59.6718 81.6122 59.3733 81.6694 59.0854C81.7267 58.7975 81.8681 58.533 82.0757 58.3254C82.2833 58.1178 82.5478 57.9764 82.8357 57.9191C83.1236 57.8619 83.4221 57.8913 83.6933 58.0036C83.9646 58.116 84.1964 58.3062 84.3595 58.5503C84.5226 58.7944 84.6097 59.0814 84.6097 59.375C84.6091 59.7685 84.4526 60.1457 84.1743 60.424C83.8961 60.7023 83.5188 60.8588 83.1253 60.8594Z" fill="white"/>
<path d="M71.25 63.8281H60.8594C60.4657 63.8281 60.0881 63.9845 59.8098 64.2629C59.5314 64.5413 59.375 64.9188 59.375 65.3125C59.375 65.7062 59.5314 66.0837 59.8098 66.3621C60.0881 66.6405 60.4657 66.7969 60.8594 66.7969H71.25C71.6437 66.7969 72.0212 66.6405 72.2996 66.3621C72.578 66.0837 72.7344 65.7062 72.7344 65.3125C72.7344 64.9188 72.578 64.5413 72.2996 64.2629C72.0212 63.9845 71.6437 63.8281 71.25 63.8281Z" fill="white"/>
<path d="M71.25 59.375H66.7969C66.4032 59.375 66.0256 59.5314 65.7473 59.8098C65.4689 60.0881 65.3125 60.4657 65.3125 60.8594C65.3125 61.2531 65.4689 61.6306 65.7473 61.909C66.0256 62.1874 66.4032 62.3438 66.7969 62.3438H71.25C71.6437 62.3438 72.0212 62.1874 72.2996 61.909C72.578 61.6306 72.7344 61.2531 72.7344 60.8594C72.7344 60.4657 72.578 60.0881 72.2996 59.8098C72.0212 59.5314 71.6437 59.375 71.25 59.375Z" fill="white"/>
<path d="M8.90625 46.0156H25.2344C25.6281 46.0156 26.0056 45.8592 26.284 45.5809C26.5624 45.3025 26.7188 44.9249 26.7188 44.5312C26.7188 44.1376 26.5624 43.76 26.284 43.4816C26.0056 43.2033 25.6281 43.0469 25.2344 43.0469H8.90625C8.51257 43.0469 8.13501 43.2033 7.85664 43.4816C7.57826 43.76 7.42188 44.1376 7.42188 44.5312C7.42188 44.9249 7.57826 45.3025 7.85664 45.5809C8.13501 45.8592 8.51257 46.0156 8.90625 46.0156Z" fill="white"/>
<path d="M29.6875 46.0156H31.1719C31.5656 46.0156 31.9431 45.8592 32.2215 45.5809C32.4999 45.3025 32.6562 44.9249 32.6562 44.5312C32.6562 44.1376 32.4999 43.76 32.2215 43.4816C31.9431 43.2033 31.5656 43.0469 31.1719 43.0469H29.6875C29.2938 43.0469 28.9163 43.2033 28.6379 43.4816C28.3595 43.76 28.2031 44.1376 28.2031 44.5312C28.2031 44.9249 28.3595 45.3025 28.6379 45.5809C28.9163 45.8592 29.2938 46.0156 29.6875 46.0156Z" fill="white"/>
</svg>
