<svg width="125" height="125" viewBox="0 0 125 125" fill="none" xmlns="http://www.w3.org/2000/svg">
<path d="M123.035 120.885C122.114 112.285 116.353 105.312 108.623 102.533C111.431 100.315 113.239 96.8835 113.239 93.0354C113.239 86.363 107.811 80.9348 101.139 80.9348C94.4666 80.9348 89.0383 86.363 89.0383 93.0354C89.0383 96.8835 90.8462 100.315 93.6548 102.533C85.9248 105.312 80.1631 112.285 79.2427 120.885C79.1836 121.436 79.3613 121.986 79.7319 122.399C80.1025 122.811 80.6306 123.046 81.1846 123.046L121.093 123.046C121.647 123.046 122.175 122.811 122.545 122.399C122.916 121.987 123.094 121.436 123.035 120.885ZM101.139 84.8413C105.657 84.8413 109.333 88.5173 109.333 93.0356C109.333 97.554 105.657 101.23 101.139 101.23C96.6204 101.23 92.9446 97.5537 92.9446 93.0356C92.9443 88.5171 96.6204 84.8413 101.139 84.8413ZM83.489 119.14C85.3586 111.021 92.5974 105.136 101.139 105.136C109.68 105.136 116.919 111.021 118.788 119.14L83.489 119.14ZM113.935 59.1934V25.1531C113.935 24.0745 113.061 23.2 111.982 23.2H99.2974V9.98169C99.2974 8.90308 98.4229 8.02856 97.3442 8.02856H92.0723V3.90576C92.0723 2.82715 91.1977 1.95264 90.1191 1.95264H74.0754C72.9968 1.95264 72.1223 2.82715 72.1223 3.90576V8.02856H66.7175C65.6389 8.02856 64.7644 8.90308 64.7644 9.98169V23.2002H52.0796C51.001 23.2002 50.1265 24.0747 50.1265 25.1533V59.1936C50.1265 60.2722 51.001 61.1467 52.0796 61.1467H111.982C113.061 61.1465 113.935 60.2722 113.935 59.1934ZM76.0286 5.85889H88.166V8.02856H76.0286V5.85889ZM95.3911 11.9348V57.2405H90.9902V43.8542C90.9902 42.7756 90.1157 41.9011 89.0371 41.9011H75.4648C74.3862 41.9011 73.5117 42.7756 73.5117 43.8542V57.2405H68.6707V11.9348H95.3911ZM87.084 57.2402H77.418V45.8071H87.084V57.2402ZM54.0327 27.1062H64.7644V57.2402H54.0327V27.1062ZM110.029 57.2402H99.2974V27.1062H110.029V57.2402ZM76.0286 18.4226H72.1223V14.5164H76.0286V18.4226ZM83.9841 18.4226H80.0779V14.5164H83.9841V18.4226ZM91.9395 18.4226H88.0332V14.5164H91.9395V18.4226ZM76.0286 25.5205H72.1223V21.6143H76.0286V25.5205ZM83.9841 25.5205H80.0779V21.6143H83.9841V25.5205ZM91.9395 25.5205H88.0332V21.6143H91.9395V25.5205ZM83.9841 32.6182H80.0779V28.7119H83.9841V32.6182ZM76.0286 32.6182H72.1223V28.7119H76.0286V32.6182ZM91.9395 32.6182H88.0332V28.7119H91.9395V32.6182ZM91.9395 39.7161H88.0332V35.8098H91.9395V39.7161ZM83.9841 39.7161H80.0779V35.8098H83.9841V39.7161ZM76.0286 39.7161H72.1223V35.8098H76.0286V39.7161ZM61.3518 32.2647V36.1709H57.4456V32.2647H61.3518ZM57.4456 48.1755H61.3518V52.0818H57.4456V48.1755ZM57.4456 40.2202H61.3518V44.1265H57.4456V40.2202ZM102.71 52.0818V48.1755H106.616V52.0818H102.71ZM106.616 44.1265H102.71V40.2202H106.616V44.1265ZM106.616 36.1709H102.71V32.2647H106.616V36.1709ZM20.9353 60.5312C20.3298 59.6387 20.5625 58.4241 21.4551 57.8184C22.3467 57.2131 23.5623 57.4453 24.1677 58.3379L24.8013 59.2715V31.4053C24.8013 30.3267 25.6758 29.4521 26.7544 29.4521H43.0024C44.0811 29.4521 44.9556 30.3267 44.9556 31.4053C44.9556 32.4839 44.0811 33.3584 43.0024 33.3584H28.7075V59.2715L29.3411 58.3379C29.9468 57.4448 31.1614 57.2129 32.0537 57.8184C32.9463 58.4241 33.179 59.6387 32.5735 60.5312L28.3706 66.7256C28.0071 67.2612 27.4016 67.582 26.7544 67.582C26.1072 67.582 25.5017 67.2612 25.1382 66.7256L20.9353 60.5312ZM83.1357 99.8604L76.9414 104.063C76.6055 104.291 76.2241 104.4 75.8464 104.4C75.2209 104.4 74.6064 104.1 74.2285 103.544C73.623 102.651 73.8557 101.437 74.748 100.831L75.6819 100.197H56.627C55.5483 100.197 54.6738 99.3228 54.6738 98.2441C54.6738 97.1655 55.5483 96.291 56.627 96.291H75.6816L74.748 95.6577C73.8555 95.0523 73.6228 93.8374 74.2283 92.9448C74.834 92.052 76.0488 91.8198 76.9409 92.4253L83.1353 96.6279C83.6709 96.9915 83.9919 97.5967 83.9919 98.2441C83.9919 98.8916 83.6716 99.4968 83.1357 99.8604Z" fill="white"/>
<path d="M46.3273 87.5408V82.7275H19.8545V87.5408H28.2777C31.4111 87.5408 34.0559 89.5575 35.0523 92.354H19.8545V97.1672H35.0523C34.5582 98.5708 33.6418 99.7871 32.4288 100.649C31.2156 101.511 29.7657 101.976 28.2777 101.98H19.8545V107.79L33.2979 121.233H40.1038L25.6641 106.794H28.2777C31.0501 106.79 33.7363 105.831 35.8835 104.077C38.0307 102.323 39.5076 99.8829 40.0653 97.1672H46.3273V92.354H40.0653C39.6963 90.6025 38.9361 88.957 37.8415 87.5408H46.3273Z" fill="white"/>
</svg>
