<svg width="143" height="143" viewBox="0 0 143 143" fill="none" xmlns="http://www.w3.org/2000/svg">
<g clip-path="url(#clip0_2129_4359)">
<path d="M35.0839 56.3726C25.8163 56.3726 18.2764 63.9122 18.2764 73.1801C18.2764 82.448 25.8163 89.9876 35.0839 89.9876C44.3515 89.9876 51.8914 82.448 51.8914 73.1801C51.8914 63.9122 44.3518 56.3726 35.0839 56.3726ZM35.0839 81.5842C30.4498 81.5842 26.6796 77.8142 26.6796 73.1798C26.6796 68.5457 30.4495 64.7755 35.0839 64.7755C39.718 64.7755 43.4882 68.5455 43.4882 73.1798C43.4882 77.8142 39.7183 81.5842 35.0839 81.5842Z" fill="white"/>
<path d="M91.3922 60.6632H74.5869V69.0672H91.3922V60.6632Z" fill="white"/>
<path d="M116.602 60.6632H99.7969V69.0672H116.602V60.6632Z" fill="white"/>
<path d="M91.3922 77.4718H74.5869V85.8758H91.3922V77.4718Z" fill="white"/>
<path d="M116.602 77.4718H99.7969V85.8758H116.602V77.4718Z" fill="white"/>
<path d="M91.3922 27.4355H74.5869V35.8395H91.3922V27.4355Z" fill="white"/>
<path d="M116.602 27.4355H99.7969V35.8395H116.602V27.4355Z" fill="white"/>
<path d="M91.3922 44.2404H74.5869V52.6445H91.3922V44.2404Z" fill="white"/>
<path d="M116.602 44.2404H99.7969V52.6445H116.602V44.2404Z" fill="white"/>
<path d="M126.127 8.41801V0H64.4991V8.46074H47.4117V40.405C43.575 38.9572 39.421 38.1626 35.0838 38.1626C15.7752 38.1626 0.0664062 53.8713 0.0664062 73.18C0.0664062 81.0891 5.28786 94.0566 16.0291 112.823C23.7248 126.267 31.5306 137.774 31.6085 137.889L35.0833 143L38.558 137.889C38.6205 137.797 43.6934 130.319 49.6846 120.391H142.933V8.47498L126.127 8.41801ZM35.0835 127.922C25.3523 112.925 8.46961 84.5468 8.46961 73.1797C8.46961 58.5046 20.4084 46.5658 35.0835 46.5658C49.7589 46.5658 61.6977 58.5046 61.6977 73.1797C61.6977 84.5468 44.8154 112.925 35.0835 127.922ZM134.53 111.987H99.7963V94.6191H91.3931V111.987H54.6131C65.0309 93.6734 70.1012 80.9707 70.1012 73.1797C70.1012 61.6235 64.4728 51.3585 55.8149 44.9771V16.8642H72.9023V8.40348H117.724V16.7927L134.53 16.85V111.987Z" fill="white"/>
</g>
<defs>
<clipPath id="clip0_2129_4359">
<rect width="143" height="143" fill="white"/>
</clipPath>
</defs>
</svg>
