<svg width="107" height="107" viewBox="0 0 107 107" fill="none" xmlns="http://www.w3.org/2000/svg">
<path d="M61.3427 89.5263H58.0269V73.279C58.0269 72.8393 57.8523 72.4176 57.5413 72.1066C57.2304 71.7957 56.8087 71.6211 56.369 71.6211C55.9293 71.6211 55.5076 71.7957 55.1967 72.1066C54.8858 72.4176 54.7111 72.8393 54.7111 73.279V89.5263H11.6059V56.3684H25.3996C25.8393 56.3684 26.261 56.1938 26.5719 55.8828C26.8828 55.5719 27.0575 55.1502 27.0575 54.7105C27.0575 54.2708 26.8828 53.8491 26.5719 53.5382C26.261 53.2273 25.8393 53.0526 25.3996 53.0526H9.94799C9.50828 53.0526 9.08659 53.2273 8.77568 53.5382C8.46476 53.8491 8.29009 54.2708 8.29009 54.7105V89.5263H4.9743C4.5346 89.5263 4.11291 89.701 3.80199 90.0119C3.49108 90.3228 3.31641 90.7445 3.31641 91.1842V94.5C3.31641 96.6985 4.18976 98.807 5.74434 100.362C7.29891 101.916 9.40737 102.789 11.6059 102.789H54.7111C56.9096 102.789 59.0181 101.916 60.5727 100.362C62.1273 98.807 63.0006 96.6985 63.0006 94.5V91.1842C63.0006 90.7445 62.8259 90.3228 62.515 90.0119C62.2041 89.701 61.7824 89.5263 61.3427 89.5263ZM59.6848 94.5C59.6848 95.8191 59.1608 97.0842 58.2281 98.0169C57.2953 98.9497 56.0302 99.4737 54.7111 99.4737H51.3954V97.8158C51.3954 97.3761 51.2207 96.9544 50.9098 96.6435C50.5989 96.3326 50.1772 96.1579 49.7375 96.1579C49.2978 96.1579 48.8761 96.3326 48.5651 96.6435C48.2542 96.9544 48.0796 97.3761 48.0796 97.8158V99.4737H18.2375V97.8158C18.2375 97.3761 18.0628 96.9544 17.7519 96.6435C17.441 96.3326 17.0193 96.1579 16.5796 96.1579C16.1399 96.1579 15.7182 96.3326 15.4073 96.6435C15.0963 96.9544 14.9217 97.3761 14.9217 97.8158V99.4737H11.6059C10.2868 99.4737 9.0217 98.9497 8.08895 98.0169C7.15621 97.0842 6.6322 95.8191 6.6322 94.5V92.8421H59.6848V94.5Z" fill="white"/>
<path d="M89.5268 13.2632H92.8426C93.2823 13.2632 93.704 13.0885 94.0149 12.7776C94.3258 12.4667 94.5005 12.045 94.5005 11.6053C94.5005 11.1656 94.3258 10.7439 94.0149 10.433C93.704 10.1221 93.2823 9.94739 92.8426 9.94739H89.5268C88.2077 9.94739 86.9426 10.4714 86.0099 11.4041C85.0771 12.3369 84.5531 13.602 84.5531 14.9211V16.579H82.8952C82.4555 16.579 82.0338 16.7536 81.7229 17.0646C81.412 17.3755 81.2373 17.7972 81.2373 18.2369C81.2373 18.6766 81.412 19.0983 81.7229 19.4092C82.0338 19.7201 82.4555 19.8948 82.8952 19.8948H84.5531V24.8684C84.5531 25.3081 84.7278 25.7298 85.0387 26.0407C85.3496 26.3517 85.7713 26.5263 86.211 26.5263C86.6507 26.5263 87.0724 26.3517 87.3833 26.0407C87.6942 25.7298 87.8689 25.3081 87.8689 24.8684V19.8948H89.5268C89.9665 19.8948 90.3882 19.7201 90.6991 19.4092C91.01 19.0983 91.1847 18.6766 91.1847 18.2369C91.1847 17.7972 91.01 17.3755 90.6991 17.0646C90.3882 16.7536 89.9665 16.579 89.5268 16.579H87.8689V14.9211C87.8689 14.4814 88.0436 14.0597 88.3545 13.7488C88.6654 13.4378 89.0871 13.2632 89.5268 13.2632Z" fill="white"/>
<path d="M97.8157 3.3158H77.9209C76.6018 3.3158 75.3368 3.83981 74.404 4.77255C73.4713 5.7053 72.9473 6.97038 72.9473 8.28948V11.6053C72.9473 12.045 73.1219 12.4667 73.4329 12.7776C73.7438 13.0885 74.1655 13.2632 74.6052 13.2632C75.0449 13.2632 75.4666 13.0885 75.7775 12.7776C76.0884 12.4667 76.2631 12.045 76.2631 11.6053V8.28948C76.2631 7.84978 76.4377 7.42809 76.7486 7.11717C77.0596 6.80626 77.4812 6.63159 77.9209 6.63159H97.8157C98.2554 6.63159 98.6771 6.80626 98.988 7.11717C99.2989 7.42809 99.4736 7.84978 99.4736 8.28948V28.1842C99.4736 28.6239 99.2989 29.0456 98.988 29.3565C98.6771 29.6674 98.2554 29.8421 97.8157 29.8421H77.9209C77.4812 29.8421 77.0596 29.6674 76.7486 29.3565C76.4377 29.0456 76.2631 28.6239 76.2631 28.1842V18.2368C76.2631 17.7971 76.0884 17.3755 75.7775 17.0645C75.4666 16.7536 75.0449 16.579 74.6052 16.579C74.1655 16.579 73.7438 16.7536 73.4329 17.0645C73.1219 17.3755 72.9473 17.7971 72.9473 18.2368V28.1842C72.9473 29.5033 73.4713 30.7684 74.404 31.7011C75.3368 32.6339 76.6018 33.1579 77.9209 33.1579H97.8157C99.1348 33.1579 100.4 32.6339 101.333 31.7011C102.265 30.7684 102.789 29.5033 102.789 28.1842V8.28948C102.789 6.97038 102.265 5.7053 101.333 4.77255C100.4 3.83981 99.1348 3.3158 97.8157 3.3158Z" fill="white"/>
<path d="M81.2373 69.6316C81.2373 70.9432 81.6262 72.2253 82.3549 73.3159C83.0836 74.4064 84.1193 75.2564 85.3311 75.7584C86.5428 76.2603 87.8762 76.3916 89.1626 76.1357C90.449 75.8799 91.6307 75.2483 92.5581 74.3208C93.4856 73.3934 94.1172 72.2117 94.373 70.9253C94.6289 69.6389 94.4976 68.3055 93.9957 67.0938C93.4937 65.882 92.6438 64.8463 91.5532 64.1176C90.4626 63.3889 89.1805 63 87.8689 63C86.1101 63 84.4233 63.6987 83.1797 64.9423C81.936 66.186 81.2373 67.8728 81.2373 69.6316ZM91.1847 69.6316C91.1847 70.2874 90.9902 70.9285 90.6259 71.4737C90.2615 72.019 89.7437 72.444 89.1378 72.695C88.5319 72.9459 87.8652 73.0116 87.222 72.8837C86.5788 72.7557 85.988 72.4399 85.5243 71.9762C85.0605 71.5125 84.7447 70.9217 84.6168 70.2785C84.4889 69.6353 84.5545 68.9686 84.8055 68.3627C85.0565 67.7568 85.4814 67.2389 86.0267 66.8746C86.572 66.5103 87.2131 66.3158 87.8689 66.3158C88.7483 66.3158 89.5917 66.6651 90.2135 67.287C90.8353 67.9088 91.1847 68.7522 91.1847 69.6316Z" fill="white"/>
<path d="M97.8157 54.7105H77.9209C76.6018 54.7105 75.3368 55.2346 74.404 56.1673C73.4713 57.1 72.9473 58.3651 72.9473 59.6842V79.579C72.9473 80.8981 73.4713 82.1631 74.404 83.0959C75.3368 84.0286 76.6018 84.5526 77.9209 84.5526H97.8157C99.1348 84.5526 100.4 84.0286 101.333 83.0959C102.265 82.1631 102.789 80.8981 102.789 79.579V76.2632C102.789 75.8235 102.615 75.4018 102.304 75.0909C101.993 74.7799 101.571 74.6053 101.131 74.6053C100.692 74.6053 100.27 74.7799 99.9592 75.0909C99.6483 75.4018 99.4736 75.8235 99.4736 76.2632V79.579C99.4736 80.0187 99.2989 80.4404 98.988 80.7513C98.6771 81.0622 98.2554 81.2369 97.8157 81.2369H77.9209C77.4812 81.2369 77.0596 81.0622 76.7486 80.7513C76.4377 80.4404 76.2631 80.0187 76.2631 79.579V59.6842C76.2631 59.2445 76.4377 58.8228 76.7486 58.5119C77.0596 58.201 77.4812 58.0263 77.9209 58.0263H97.8157C98.2554 58.0263 98.6771 58.201 98.988 58.5119C99.2989 58.8228 99.4736 59.2445 99.4736 59.6842V69.6316C99.4736 70.0713 99.6483 70.493 99.9592 70.8039C100.27 71.1148 100.692 71.2895 101.131 71.2895C101.571 71.2895 101.993 71.1148 102.304 70.8039C102.615 70.493 102.789 70.0713 102.789 69.6316V59.6842C102.789 58.3651 102.265 57.1 101.333 56.1673C100.4 55.2346 99.1348 54.7105 97.8157 54.7105Z" fill="white"/>
<path d="M40.5693 22.962C40.8331 23.1255 41.1375 23.2117 41.4479 23.2107C41.7075 23.2091 41.963 23.1467 42.194 23.0283L52.1414 18.0546C52.4129 17.9155 52.6408 17.7041 52.8 17.4438C52.9591 17.1834 53.0433 16.8842 53.0433 16.5791C53.0433 16.274 52.9591 15.9748 52.8 15.7144C52.6408 15.4541 52.4129 15.2427 52.1414 15.1036L42.194 10.1299C41.9416 10.0027 41.6609 9.94217 41.3785 9.954C41.0962 9.96583 40.8215 10.0496 40.5807 10.1975C40.3398 10.3453 40.1407 10.5523 40.0024 10.7987C39.864 11.0451 39.7909 11.3228 39.79 11.6054V21.5528C39.7895 21.8345 39.8607 22.1118 39.9971 22.3584C40.1334 22.6049 40.3303 22.8127 40.5693 22.962ZM43.1058 14.2912L47.6816 16.5791L43.1058 18.867V14.2912Z" fill="white"/>
<path d="M44.7638 31.5C47.7149 31.5 50.5998 30.6249 53.0535 28.9854C55.5073 27.3458 57.4197 25.0155 58.5491 22.289C59.6784 19.5625 59.9739 16.5624 59.3982 13.668C58.8224 10.7736 57.4013 8.11493 55.3146 6.02818C53.2279 3.94143 50.5692 2.52034 47.6748 1.94461C44.7804 1.36888 41.7803 1.66436 39.0538 2.7937C36.3273 3.92304 33.997 5.83551 32.3574 8.28926C30.7179 10.743 29.8428 13.6279 29.8428 16.579C29.8428 20.5363 31.4148 24.3315 34.213 27.1297C37.0113 29.928 40.8065 31.5 44.7638 31.5ZM44.7638 4.97369C47.0591 4.97369 49.3029 5.65433 51.2114 6.92953C53.1198 8.20474 54.6073 10.0172 55.4857 12.1378C56.3641 14.2584 56.5939 16.5918 56.1461 18.843C55.6983 21.0942 54.593 23.1621 52.97 24.7851C51.347 26.4081 49.2791 27.5134 47.0279 27.9612C44.7767 28.409 42.4433 28.1792 40.3227 27.3008C38.2021 26.4224 36.3896 24.935 35.1144 23.0265C33.8392 21.118 33.1586 18.8743 33.1586 16.579C33.1586 13.501 34.3813 10.5492 36.5577 8.3728C38.7341 6.19639 41.6859 4.97369 44.7638 4.97369Z" fill="white"/>
<path d="M61.3425 38.1316C61.5998 38.1316 61.8537 38.0717 62.0839 37.9566C62.3141 37.8415 62.5144 37.6744 62.6688 37.4685L67.6425 30.8369C67.9063 30.4851 68.0196 30.043 67.9574 29.6077C67.8952 29.1724 67.6626 28.7796 67.3109 28.5158C66.9591 28.252 66.517 28.1387 66.0817 28.2009C65.6464 28.2631 65.2537 28.4956 64.9898 28.8474L60.0162 35.479C59.7523 35.8307 59.6391 36.2729 59.7012 36.7082C59.7634 37.1435 59.996 37.5362 60.3477 37.8C60.6347 38.0153 60.9838 38.1316 61.3425 38.1316Z" fill="white"/>
<path d="M64.9898 44.1C65.1442 44.3059 65.3445 44.473 65.5747 44.5881C65.8049 44.7032 66.0587 44.7632 66.3161 44.7632C66.6748 44.7632 67.0239 44.6468 67.3108 44.4316L73.9424 39.4579C74.2942 39.1941 74.5267 38.8013 74.5889 38.3661C74.6511 37.9308 74.5378 37.4886 74.274 37.1369C74.0102 36.7851 73.6174 36.5525 73.1821 36.4904C72.7469 36.4282 72.3047 36.5415 71.9529 36.8053L65.3214 41.779C64.9696 42.0428 64.7371 42.4355 64.6749 42.8708C64.6127 43.3061 64.726 43.7483 64.9898 44.1Z" fill="white"/>
<path d="M81.2364 47.7472C81.197 47.5274 81.1136 47.3178 80.9912 47.131C80.8688 46.9443 80.7099 46.7841 80.5241 46.6603C80.3383 46.5364 80.1294 46.4514 79.9099 46.4102C79.6905 46.3691 79.4649 46.3727 79.2469 46.4209L70.9574 48.0788C70.7397 48.1005 70.5284 48.165 70.3356 48.2684C70.1428 48.3718 69.9722 48.5122 69.8337 48.6816C69.5538 49.0236 69.4213 49.4627 69.4653 49.9024C69.5093 50.3421 69.7261 50.7464 70.0681 51.0262C70.4101 51.306 70.8493 51.4385 71.289 51.3945H71.6206L79.91 49.7367C80.1298 49.6972 80.3394 49.6138 80.5262 49.4915C80.713 49.3691 80.8731 49.2102 80.9969 49.0244C81.1208 48.8386 81.2059 48.6297 81.247 48.4102C81.2881 48.1907 81.2845 47.9652 81.2364 47.7472Z" fill="white"/>
<path d="M4.9743 48.079H24.869C25.3087 48.079 25.7304 47.9043 26.0413 47.5934C26.3523 47.2825 26.5269 46.8608 26.5269 46.4211V19.8947C26.5269 19.455 26.3523 19.0333 26.0413 18.7224C25.7304 18.4115 25.3087 18.2368 24.869 18.2368H4.9743C4.5346 18.2368 4.11291 18.4115 3.80199 18.7224C3.49108 19.0333 3.31641 19.455 3.31641 19.8947V46.4211C3.31641 46.8608 3.49108 47.2825 3.80199 47.5934C4.11291 47.9043 4.5346 48.079 4.9743 48.079ZM6.6322 21.5526H23.2111V44.7632H6.6322V21.5526Z" fill="white"/>
<path d="M18.2374 24.8684H14.9216C14.4819 24.8684 14.0602 25.0431 13.7493 25.354C13.4383 25.6649 13.2637 26.0866 13.2637 26.5263C13.2637 26.966 13.4383 27.3877 13.7493 27.6986C14.0602 28.0096 14.4819 28.1842 14.9216 28.1842H18.2374C18.6771 28.1842 19.0987 28.0096 19.4097 27.6986C19.7206 27.3877 19.8953 26.966 19.8953 26.5263C19.8953 26.0866 19.7206 25.6649 19.4097 25.354C19.0987 25.0431 18.6771 24.8684 18.2374 24.8684Z" fill="white"/>
<path d="M18.2367 31.5H11.6052C11.1655 31.5 10.7438 31.6747 10.4329 31.9856C10.1219 32.2965 9.94727 32.7182 9.94727 33.1579C9.94727 33.5976 10.1219 34.0193 10.4329 34.3302C10.7438 34.6411 11.1655 34.8158 11.6052 34.8158H18.2367C18.6764 34.8158 19.0981 34.6411 19.409 34.3302C19.72 34.0193 19.8946 33.5976 19.8946 33.1579C19.8946 32.7182 19.72 32.2965 19.409 31.9856C19.0981 31.6747 18.6764 31.5 18.2367 31.5Z" fill="white"/>
<path d="M18.2367 38.1316H11.6052C11.1655 38.1316 10.7438 38.3063 10.4329 38.6172C10.1219 38.9281 9.94727 39.3498 9.94727 39.7895C9.94727 40.2292 10.1219 40.6509 10.4329 40.9618C10.7438 41.2727 11.1655 41.4474 11.6052 41.4474H18.2367C18.6764 41.4474 19.0981 41.2727 19.409 40.9618C19.72 40.6509 19.8946 40.2292 19.8946 39.7895C19.8946 39.3498 19.72 38.9281 19.409 38.6172C19.0981 38.3063 18.6764 38.1316 18.2367 38.1316Z" fill="white"/>
<path d="M59.8833 47.5815C59.7745 47.3921 59.6294 47.226 59.4563 47.0927C59.2833 46.9593 59.0856 46.8614 58.8747 46.8044C58.6638 46.7475 58.4438 46.7326 58.2271 46.7607C58.0104 46.7888 57.8014 46.8593 57.612 46.9681C57.4226 47.077 57.2565 47.2221 57.1232 47.3951C56.9898 47.5682 56.8919 47.7658 56.8349 47.9767C56.778 48.1876 56.7631 48.4077 56.7912 48.6244C56.8193 48.841 56.8898 49.05 56.9986 49.2394L64.3099 61.8892L37.7836 71.8365C37.7836 71.8365 37.7836 71.8365 37.6676 71.8365H37.5349L33.2244 74.3234L30.3562 75.9813C29.9786 76.1996 29.5617 76.3412 29.1293 76.3981C28.6969 76.455 28.2575 76.426 27.8362 76.3129C26.9901 76.0843 26.2688 75.5299 25.8302 74.771L22.5144 69.0347C22.1243 68.2842 22.0358 67.413 22.2669 66.5994C22.4981 65.7857 23.0314 65.0912 23.7578 64.6579L29.4941 61.3421L33.6389 68.5208C33.7849 68.7738 33.9953 68.9837 34.2486 69.1292C34.5018 69.2748 34.7891 69.3509 35.0812 69.3497C35.3728 69.3509 35.6595 69.2751 35.9125 69.1301C36.1655 68.985 36.3757 68.7758 36.522 68.5236C36.6683 68.2714 36.7454 67.985 36.7457 67.6935C36.746 67.4019 36.6694 67.1154 36.5236 66.8629L32.2462 59.4686L53.0528 42.3094L53.7326 43.4865C53.8414 43.676 53.9865 43.8421 54.1596 43.9754C54.3326 44.1088 54.5303 44.2067 54.7412 44.2637C54.9521 44.3206 55.1721 44.3355 55.3888 44.3074C55.6055 44.2793 55.8145 44.2088 56.0039 44.1C56.1933 43.9911 56.3594 43.846 56.4927 43.6729C56.6261 43.4999 56.724 43.3023 56.781 43.0914C56.838 42.8804 56.8528 42.6604 56.8247 42.4437C56.7966 42.2271 56.7262 42.0181 56.6173 41.8287L54.9594 38.9605C54.8379 38.7528 54.6726 38.574 54.4751 38.4366C54.2776 38.2992 54.0525 38.2064 53.8155 38.1647C53.5772 38.1198 53.332 38.1277 53.0971 38.1878C52.8622 38.248 52.6433 38.3589 52.456 38.5129L29.2455 57.645L22.1828 61.7234C20.9154 62.4616 19.9284 63.5992 19.3765 64.9582C18.8245 66.3171 18.7386 67.8207 19.1323 69.2336L17.4744 70.1787C16.6202 70.6692 15.9309 71.4023 15.4938 72.2851C15.0568 73.1679 14.8918 74.1606 15.0196 75.1373C15.1475 76.1141 15.5625 77.0308 16.212 77.7714C16.8616 78.5119 17.7164 79.0429 18.6681 79.2971C19.09 79.4088 19.5248 79.4646 19.9612 79.4629C20.8334 79.4593 21.6899 79.2308 22.4481 78.7997L24.106 77.8547C24.9024 78.6774 25.904 79.2726 27.0073 79.5789C27.5738 79.7374 28.1598 79.8155 28.7481 79.811C29.9134 79.8137 31.0583 79.5046 32.0639 78.9158L33.5062 78.0868L36.822 83.8397C37.481 84.979 38.5647 85.8107 39.8356 86.1525C41.1066 86.4943 42.4613 86.3184 43.6028 85.6634C44.1692 85.3371 44.6656 84.9023 45.0638 84.384C45.462 83.8657 45.7542 83.274 45.9235 82.6427C46.0929 82.0114 46.1362 81.3529 46.0509 80.7049C45.9656 80.0569 45.7534 79.432 45.4265 78.866L42.4091 73.6105L67.2776 64.2765C67.5031 64.1918 67.7074 64.0589 67.8764 63.8871C68.0453 63.7153 68.1747 63.5087 68.2557 63.2818C68.3364 63.0576 68.3678 62.8186 68.3478 62.5811C68.3278 62.3437 68.2568 62.1133 68.1397 61.9058L59.8833 47.5815ZM20.7239 75.915C20.5351 76.0241 20.3266 76.0949 20.1104 76.1234C19.8942 76.1518 19.6745 76.1373 19.4639 76.0808C19.0391 75.9704 18.6754 75.6962 18.4526 75.3181C18.3434 75.1293 18.2726 74.9209 18.2441 74.7046C18.2157 74.4884 18.2302 74.2687 18.2868 74.0581C18.3434 73.8464 18.4414 73.648 18.5751 73.4745C18.7089 73.3009 18.8757 73.1555 19.066 73.0468L20.5083 72.2179L22.1662 75.086L20.7239 75.915ZM42.5418 80.5571C42.6509 80.7459 42.7217 80.9543 42.7502 81.1706C42.7786 81.3868 42.7642 81.6065 42.7076 81.8171C42.5893 82.2385 42.3092 82.5961 41.9283 82.8118C41.5497 83.0293 41.1005 83.0887 40.6783 82.9769C40.2561 82.8652 39.8951 82.5914 39.6736 82.215L36.3578 76.4621L39.1099 74.8871H39.2426L42.5418 80.5571Z" fill="white"/>
</svg>
