<svg width="116" height="116" viewBox="0 0 116 116" fill="none" xmlns="http://www.w3.org/2000/svg">
<g clip-path="url(#clip0_2044_1246)">
<path d="M33.0781 45.3121C32.6275 45.3121 32.1953 45.4911 31.8766 45.8097C31.5579 46.1284 31.3789 46.5606 31.3789 47.0113C31.3789 47.4619 31.5579 47.8941 31.8766 48.2128C32.1953 48.5315 32.6275 48.7105 33.0781 48.7105H82.9219C83.3725 48.7105 83.8047 48.5315 84.1234 48.2128C84.4421 47.8941 84.6211 47.4619 84.6211 47.0113C84.6211 46.5606 84.4421 46.1284 84.1234 45.8097C83.8047 45.4911 83.3725 45.3121 82.9219 45.3121H80.0898V23.2313L82.1176 24.3233C82.3765 24.4624 82.6671 24.532 82.961 24.5253C83.2548 24.5185 83.5419 24.4356 83.7942 24.2847C84.0464 24.1338 84.2552 23.9201 84.4002 23.6643C84.5451 23.4086 84.6212 23.1197 84.6211 22.8257V15.1226C84.6208 14.8158 84.5375 14.5148 84.3799 14.2515C84.2224 13.9882 83.9964 13.7725 83.7262 13.6273L58.8043 0.203461C58.5573 0.069613 58.2809 -0.000488281 58 -0.000488281C57.7191 -0.000488281 57.4427 0.069613 57.1957 0.203461L32.2738 13.616C32.0036 13.7612 31.7776 13.9769 31.6201 14.2402C31.4625 14.5034 31.3792 14.8045 31.3789 15.1113V22.8257C31.3788 23.1197 31.4549 23.4086 31.5998 23.6643C31.7448 23.9201 31.9536 24.1338 32.2058 24.2847C32.4581 24.4356 32.7452 24.5185 33.039 24.5253C33.3329 24.532 33.6235 24.4624 33.8824 24.3233L35.9102 23.2313V45.3121H33.0781ZM63.3106 45.3121H52.6894V36.4761C52.6894 35.0677 53.2489 33.7169 54.2448 32.7209C55.2408 31.725 56.5915 31.1655 58 31.1655C59.4085 31.1655 60.7592 31.725 61.7552 32.7209C62.7511 33.7169 63.3106 35.0677 63.3106 36.4761V45.3121ZM34.7773 16.1263L58 3.62455L81.2227 16.1263V19.9778L58.8043 7.92924C58.5573 7.79539 58.2809 7.72529 58 7.72529C57.7191 7.72529 57.4427 7.79539 57.1957 7.92924L34.7773 19.9824V16.1263ZM39.3086 21.4029L58 11.3435L76.6914 21.4029V45.3121H66.7091V36.4761C66.7091 34.1663 65.7915 31.9511 64.1582 30.3179C62.525 28.6846 60.3098 27.7671 58 27.7671C55.6902 27.7671 53.475 28.6846 51.8418 30.3179C50.2085 31.9511 49.2909 34.1663 49.2909 36.4761V45.3121H39.3086V21.4029Z" fill="white"/>
<path d="M115.887 78.4268L103.602 46.3025C103.444 45.8876 103.129 45.5514 102.725 45.3656C102.322 45.1797 101.862 45.159 101.443 45.3079L90.6793 49.1458C90.1796 49.3242 89.7208 49.6012 89.3303 49.9606C88.9399 50.3199 88.6257 50.7541 88.4065 51.2373C88.1873 51.7205 88.0675 52.2429 88.0544 52.7734C88.0412 53.3038 88.1349 53.8315 88.3299 54.325L88.4409 54.606L81.8366 56.7674L64.7221 53.5547C63.0211 53.2394 61.2734 53.2779 59.5879 53.6677C57.9025 54.0575 56.3154 54.7903 54.9255 55.8204L51.8443 58.1086C49.4687 56.6776 46.7468 55.9239 43.9735 55.9291H30.9779L27.9238 54.3047C28.0908 53.4459 27.9681 52.556 27.5749 51.7745C27.1816 50.993 26.5402 50.3641 25.7511 49.9864L16.1471 45.3872C15.94 45.2878 15.7149 45.2315 15.4854 45.2217C15.256 45.2119 15.0269 45.2488 14.8121 45.3302C14.5973 45.4115 14.4013 45.5356 14.2358 45.695C14.0704 45.8543 13.9391 46.0456 13.8497 46.2572L0.135913 78.5944C-0.0354562 78.9964 -0.0451238 79.4491 0.108924 79.858C0.262971 80.267 0.568857 80.6008 0.962866 80.7898L10.5419 85.3958C11.3945 85.8079 12.3667 85.9001 13.2816 85.6555C14.1964 85.411 14.993 84.8461 15.5263 84.0636L23.9318 89.6847C23.2158 90.5407 22.7589 91.5832 22.6147 92.6898C22.4705 93.7964 22.6449 94.9212 23.1175 95.9321C23.5902 96.9431 24.3414 97.7982 25.283 98.3972C26.2247 98.9961 27.3176 99.314 28.4336 99.3136C28.5627 99.3136 28.6896 99.3136 28.8165 99.3C28.8897 100.802 29.5375 102.219 30.6258 103.257C31.7142 104.295 33.1599 104.876 34.664 104.878C34.7909 104.878 34.9201 104.878 35.0469 104.864C35.1203 106.368 35.7699 107.786 36.8609 108.823C37.9518 109.86 39.4004 110.438 40.9058 110.436C41.0327 110.436 41.1596 110.431 41.2865 110.422C41.3447 111.556 41.7303 112.648 42.3967 113.567C43.0632 114.486 43.9818 115.192 45.0413 115.6C46.1008 116.007 47.2557 116.099 48.3663 115.864C49.4768 115.628 50.4952 115.076 51.2983 114.273L53.7587 111.815L57.2115 114.414C58.4471 115.331 59.9704 115.775 61.5054 115.666C63.0404 115.557 64.4854 114.901 65.5785 113.818L65.8934 113.505C66.9334 112.473 67.5862 111.113 67.7422 109.656C68.8783 110.049 70.1018 110.114 71.2735 109.846C72.4451 109.577 73.5177 108.984 74.3691 108.136L74.7996 107.705C75.8682 106.639 76.5248 105.229 76.6529 103.725C77.7871 104.118 79.0091 104.182 80.1786 103.912C81.348 103.641 82.4174 103.046 83.264 102.195L83.665 101.792C84.6957 100.76 85.3438 99.4067 85.5024 97.9564C86.596 98.2593 87.7502 98.2679 88.8482 97.9814C89.9463 97.695 90.9492 97.1236 91.7555 96.3252L91.9821 96.0986C92.8335 95.2467 93.4274 94.1719 93.6955 92.9977C93.9637 91.8234 93.8951 90.5974 93.4978 89.4604L100.764 84.4125C101.324 84.8679 102 85.16 102.715 85.2567C103.431 85.3535 104.16 85.2511 104.821 84.9608L114.974 80.5836C115.374 80.4103 115.692 80.0896 115.862 79.688C116.032 79.2864 116.041 78.8347 115.887 78.4268ZM56.951 58.5391C57.9648 57.7888 59.1223 57.2555 60.3514 56.9725C61.5805 56.6895 62.8547 56.6629 64.0945 56.8943L81.6372 60.1885C81.9182 60.242 82.2082 60.2233 82.48 60.1341L89.6915 57.7733L99.0508 81.4559L91.5743 86.6487L91.1982 86.3746L76.4535 75.7556C76.224 75.5895 75.9565 75.4836 75.6755 75.4476C75.3944 75.4116 75.1089 75.4466 74.8449 75.5494C70.4473 77.2554 66.7815 77.3914 63.9495 75.9504C60.184 74.0337 59.0399 69.8604 59.0308 69.8332C58.9644 69.5742 58.8377 69.3345 58.6612 69.1336C58.4846 68.9328 58.2631 68.7764 58.0148 68.6773C57.7664 68.5782 57.4981 68.5391 57.2318 68.5632C56.9654 68.5873 56.7086 68.6739 56.482 68.816L46.3501 75.1597C45.4445 75.7235 44.3895 76.0003 43.3237 75.9539C42.2579 75.9074 41.2311 75.5397 40.3779 74.8992C40.0634 74.6612 39.8086 74.3533 39.6337 73.9997C39.4588 73.6462 39.3687 73.2568 39.3705 72.8624C39.3722 72.468 39.4658 72.0794 39.6438 71.7274C39.8219 71.3755 40.0794 71.0698 40.3961 70.8347L56.951 58.5391ZM12.7713 82.045C12.7427 82.1141 12.7004 82.1768 12.6471 82.2293C12.5938 82.2819 12.5305 82.3232 12.4609 82.3508C12.3884 82.3802 12.3105 82.3937 12.2324 82.3906C12.1543 82.3875 12.0777 82.3677 12.0078 82.3327L3.89685 78.429L16.283 49.2025L24.2829 53.0336C24.4118 53.0943 24.512 53.2026 24.5627 53.3357C24.6134 53.4687 24.6106 53.6163 24.5548 53.7473L12.7713 82.045ZM26.68 95.1856C26.2171 94.7221 25.957 94.0939 25.957 93.4388C25.957 92.7837 26.2171 92.1555 26.68 91.692L30.8125 87.555C31.042 87.3254 31.3145 87.1433 31.6144 87.0191C31.9143 86.8949 32.2358 86.8309 32.5604 86.8309C32.885 86.8309 33.2065 86.8949 33.5064 87.0191C33.8063 87.1433 34.0788 87.3254 34.3083 87.555C34.5379 87.7845 34.72 88.057 34.8442 88.3569C34.9684 88.6568 35.0324 88.9783 35.0324 89.3029C35.0324 89.6275 34.9684 89.949 34.8442 90.2489C34.72 90.5488 34.5379 90.8213 34.3083 91.0508L30.1645 95.1947C29.7007 95.6544 29.0741 95.9124 28.4211 95.9124C27.7681 95.9124 27.1415 95.6544 26.6777 95.1947L26.68 95.1856ZM32.924 100.75C32.6945 100.52 32.5124 100.248 32.3881 99.948C32.2639 99.6481 32.2 99.3267 32.2 99.002C32.2 98.6774 32.2639 98.356 32.3881 98.0561C32.5124 97.7561 32.6945 97.4836 32.924 97.2541L36.7303 93.4479C36.8436 93.3346 36.9569 93.2213 37.0543 93.0944L37.0747 93.1148C37.545 92.6864 38.1624 92.456 38.7984 92.4716C39.4344 92.4872 40.0398 92.7477 40.4885 93.1987C40.9372 93.6497 41.1945 94.2565 41.2068 94.8925C41.2192 95.5286 40.9855 96.1449 40.5547 96.6129L36.7529 100.415C36.6374 100.53 36.5264 100.641 36.4267 100.773L36.4086 100.754C35.9457 101.215 35.3193 101.475 34.6661 101.475C34.0129 101.476 33.3858 101.219 32.9218 100.759L32.924 100.75ZM39.1658 106.308C38.7033 105.843 38.4436 105.215 38.4436 104.56C38.4436 103.904 38.7033 103.276 39.1658 102.812L43.3097 98.6679C43.7753 98.2046 44.406 97.9453 45.0629 97.947C45.7197 97.9487 46.349 98.2112 46.8123 98.6769C47.2756 99.1426 47.5349 99.7732 47.5332 100.43C47.5315 101.087 47.2689 101.716 46.8033 102.18L42.6572 106.323C42.1925 106.785 41.5638 107.043 40.909 107.042C40.2541 107.041 39.6264 106.78 39.1636 106.317L39.1658 106.308ZM48.908 111.872C48.6785 112.101 48.406 112.284 48.1061 112.408C47.8062 112.532 47.4847 112.596 47.1601 112.596C46.8355 112.596 46.514 112.532 46.2141 112.408C45.9142 112.284 45.6417 112.101 45.4122 111.872C45.1826 111.642 45.0005 111.37 44.8763 111.07C44.7521 110.77 44.6881 110.449 44.6881 110.124C44.6881 109.799 44.7521 109.478 44.8763 109.178C45.0005 108.878 45.1826 108.606 45.4122 108.376L49.2161 104.57C49.3317 104.457 49.4427 104.343 49.5424 104.216L49.5628 104.237C49.7922 104.007 50.0645 103.825 50.3642 103.701C50.6639 103.577 50.9852 103.513 51.3096 103.513C51.634 103.513 51.9552 103.577 52.2549 103.701C52.5547 103.825 52.827 104.007 53.0564 104.237C53.2858 104.466 53.4677 104.738 53.5919 105.038C53.716 105.338 53.7799 105.659 53.7799 105.984C53.7799 106.308 53.716 106.629 53.5919 106.929C53.4677 107.229 53.2858 107.501 53.0564 107.73L48.908 111.872ZM89.5828 93.6812L89.3562 93.9078C88.8201 94.4402 88.1039 94.7523 87.3489 94.7825C86.5939 94.8127 85.855 94.5588 85.2781 94.0709L83.2866 92.3762L83.264 92.3604L83.2504 92.3468L79.75 89.5442C79.3991 89.2612 78.9501 89.1291 78.5018 89.1772C78.0536 89.2252 77.6428 89.4493 77.3597 89.8002C77.0767 90.1511 76.9447 90.6001 76.9927 91.0483C77.0407 91.4966 77.2648 91.9074 77.6158 92.1904L81.0822 94.9862C81.397 95.2554 81.6527 95.5868 81.8333 95.9595C82.0138 96.3323 82.1153 96.7385 82.1312 97.1524C82.1472 97.5663 82.0773 97.979 81.926 98.3646C81.7747 98.7502 81.5453 99.1003 81.2521 99.3929L80.8511 99.7939C80.3492 100.299 79.6836 100.609 78.974 100.667C78.2643 100.726 77.557 100.529 76.9791 100.113L72.6744 97.0389C72.4936 96.9012 72.2869 96.8012 72.0667 96.7448C71.8465 96.6884 71.6172 96.6768 71.3924 96.7106C71.1676 96.7445 70.9519 96.823 70.7581 96.9417C70.5642 97.0604 70.3961 97.2168 70.2637 97.4016C70.1314 97.5864 70.0375 97.7959 69.9875 98.0176C69.9376 98.2394 69.9326 98.4689 69.973 98.6926C70.0134 98.9163 70.0982 99.1296 70.2225 99.32C70.3467 99.5103 70.508 99.6738 70.6965 99.8007L72.0038 100.736C72.3585 100.99 72.6536 101.318 72.8688 101.697C73.0839 102.077 73.2139 102.498 73.2497 102.933C73.2855 103.368 73.2262 103.805 73.076 104.214C72.9258 104.624 72.6883 104.996 72.3799 105.304L71.9472 105.734C71.4066 106.274 70.6811 106.587 69.9178 106.611C69.1545 106.635 68.4107 106.368 67.8373 105.863L64.4683 102.893C64.1425 102.606 63.719 102.455 63.2849 102.47C62.8508 102.485 62.4391 102.666 62.1343 102.976C61.8295 103.285 61.6547 103.699 61.646 104.134C61.6372 104.568 61.7951 104.989 62.0872 105.311L63.5802 106.953C64.1 107.524 64.3798 108.273 64.3612 109.045C64.3426 109.817 64.0272 110.552 63.4805 111.097L63.1679 111.41C62.6564 111.917 61.9804 112.225 61.262 112.277C60.5436 112.329 59.8302 112.123 59.2506 111.695L56.115 109.346C56.7471 108.44 57.1103 107.373 57.1628 106.27C57.2153 105.166 56.955 104.07 56.4118 103.108C55.8687 102.146 55.0647 101.357 54.0927 100.832C53.1206 100.307 52.02 100.067 50.9176 100.141C50.8796 99.3627 50.6871 98.6002 50.3512 97.8976C50.0153 97.1951 49.5428 96.5664 48.9614 96.0484C48.3799 95.5304 47.701 95.1334 46.9645 94.8807C46.2279 94.6279 45.4483 94.5244 44.6713 94.5761C44.6336 93.7989 44.4414 93.037 44.1058 92.3349C43.7702 91.6328 43.298 91.0047 42.7169 90.4873C42.1357 89.9698 41.4572 89.5734 40.7211 89.3212C39.9849 89.069 39.2059 88.9662 38.4295 89.0186C38.3749 87.8834 37.9917 86.7885 37.3265 85.8671C36.6613 84.9456 35.7427 84.2373 34.6825 83.8281C33.6222 83.4189 32.4659 83.3265 31.3541 83.5622C30.2424 83.7979 29.223 84.3515 28.42 85.1557L26.3515 87.2264L16.9219 80.9122L26.6845 57.4811L29.7567 59.1168C30.002 59.2481 30.276 59.3166 30.5542 59.3162H43.9735C45.6419 59.3134 47.292 59.664 48.8151 60.3448L38.3661 68.0978C37.6257 68.6476 37.0235 69.3622 36.6072 70.1851C36.1909 71.0079 35.9719 71.9164 35.9675 72.8386C35.9631 73.7608 36.1734 74.6713 36.5819 75.4981C36.9904 76.3249 37.5857 77.0452 38.3208 77.6021C39.7251 78.6562 41.4152 79.2614 43.1694 79.3382C44.9237 79.415 46.6602 78.9599 48.1513 78.0325L56.5341 72.7718C57.4404 74.6454 59.1917 77.3279 62.35 78.9501C65.8844 80.7626 70.2004 80.7966 75.187 79.0362L89.1999 89.1273C89.5528 89.3821 89.8463 89.7104 90.0599 90.0897C90.2735 90.469 90.4022 90.8901 90.4371 91.324C90.472 91.7579 90.4123 92.1942 90.262 92.6028C90.1118 93.0113 89.8746 93.3824 89.5669 93.6903L89.5828 93.6812ZM103.482 81.8411C103.414 81.8704 103.34 81.8856 103.266 81.8856C103.192 81.8856 103.118 81.8704 103.05 81.8411C102.981 81.8123 102.919 81.7703 102.867 81.7174C102.815 81.6645 102.774 81.6018 102.746 81.5329L91.4904 53.0744C91.4608 53.0061 91.4455 52.9325 91.4455 52.858C91.4455 52.7836 91.4608 52.71 91.4904 52.6417C91.5215 52.5738 91.5657 52.5129 91.6205 52.4623C91.6754 52.4117 91.7398 52.3726 91.8099 52.3472L101.011 49.0665L112.112 78.1186L103.482 81.8411Z" fill="white"/>
</g>
<defs>
<clipPath id="clip0_2044_1246">
<rect width="116" height="116" fill="white"/>
</clipPath>
</defs>
</svg>
