<svg width="122" height="122" viewBox="0 0 122 122" fill="none" xmlns="http://www.w3.org/2000/svg">
<path d="M20.8422 15.1578H26.5264V22.7368C26.5264 24.2443 27.1253 25.6901 28.1913 26.7561C29.2573 27.8221 30.7031 28.421 32.2106 28.421C33.7182 28.421 35.164 27.8221 36.23 26.7561C37.296 25.6901 37.8948 24.2443 37.8948 22.7368V18.9473H34.1054V22.7368C34.1054 23.2393 33.9057 23.7212 33.5504 24.0765C33.1951 24.4319 32.7131 24.6315 32.2106 24.6315C31.7081 24.6315 31.2262 24.4319 30.8708 24.0765C30.5155 23.7212 30.3159 23.2393 30.3159 22.7368V11.3683C30.3159 10.3633 30.7151 9.39945 31.4258 8.68878C32.1365 7.97812 33.1003 7.57887 34.1054 7.57887C35.1104 7.57887 36.0743 7.97812 36.7849 8.68878C37.4956 9.39945 37.8948 10.3633 37.8948 11.3683H34.1054V15.1578H79.5791V26.5262C79.5791 27.0288 79.7787 27.5107 80.134 27.866C80.4893 28.2214 80.9713 28.421 81.4738 28.421H92.8422V51.1578H96.6317V26.5262C96.6317 26.2774 96.5827 26.031 96.4875 25.8011C96.3923 25.5713 96.2527 25.3624 96.0768 25.1864L82.8136 11.9233C82.6377 11.7473 82.4288 11.6078 82.1989 11.5126C81.969 11.4173 81.7226 11.3683 81.4738 11.3683H41.6843C41.6843 9.35828 40.8858 7.43055 39.4645 6.00922C38.0432 4.58789 36.1154 3.7894 34.1054 3.7894C32.0953 3.7894 30.1676 4.58789 28.7462 6.00922C27.3249 7.43055 26.5264 9.35828 26.5264 11.3683H18.9475C18.445 11.3683 17.963 11.568 17.6077 11.9233C17.2524 12.2786 17.0527 12.7606 17.0527 13.2631V58.7368H20.8422V15.1578ZM83.3685 17.8372L90.1628 24.6315H83.3685V17.8372Z" fill="white"/>
<path d="M92.8423 108H79.5791V111.789H94.737C95.2395 111.789 95.7214 111.59 96.0768 111.234C96.4321 110.879 96.6317 110.397 96.6317 109.895V85.2631H92.8423V108Z" fill="white"/>
<path d="M39.7902 90.9473C39.2877 90.9473 38.8058 91.1469 38.4505 91.5022C38.0951 91.8576 37.8955 92.3395 37.8955 92.842V102.316C37.8955 102.818 38.0951 103.3 38.4505 103.655C38.8058 104.011 39.2877 104.21 39.7902 104.21H51.1587C51.6612 104.21 52.1431 104.011 52.4984 103.655C52.8538 103.3 53.0534 102.818 53.0534 102.316V92.842C53.0534 92.3395 52.8538 91.8576 52.4984 91.5022C52.1431 91.1469 51.6612 90.9473 51.1587 90.9473H39.7902ZM49.2639 100.421H41.685V94.7368H49.2639V100.421Z" fill="white"/>
<path d="M24.6318 79.5789H28.4213V83.3683H24.6318V79.5789Z" fill="white"/>
<path d="M72.0006 102.316C72.0006 97.6078 69.3972 92.842 64.4216 92.842C59.446 92.842 56.8427 97.6078 56.8427 102.316C56.8427 103.378 56.4336 103.835 55.5083 104.767C54.4721 105.811 53.0532 107.24 53.0532 109.949C53.0478 111.268 53.4106 112.561 54.1008 113.684H34.1058V89.0525C34.1058 88.55 33.9062 88.0681 33.5509 87.7128C33.1955 87.3574 32.7136 87.1578 32.2111 87.1578H20.8427C20.3402 87.1578 19.8582 87.3574 19.5029 87.7128C19.1476 88.0681 18.9479 88.55 18.9479 89.0525V113.684H13.2637V80.2259L36.0006 70.2785L58.7374 80.2259V90.9473H62.5269V81.8838L65.5568 83.2101C65.8452 83.3363 66.1605 83.3887 66.4743 83.3624C66.788 83.3362 67.0902 83.2322 67.3537 83.0598C67.6171 82.8875 67.8335 82.6522 67.9832 82.3753C68.1329 82.0983 68.2112 81.7884 68.2111 81.4736V71.9999C68.2111 71.6315 68.1037 71.2712 67.9021 70.9629C67.7005 70.6546 67.4134 70.4118 67.0759 70.2641L36.7601 57.0009C36.5206 56.8961 36.262 56.842 36.0006 56.842C35.7391 56.842 35.4805 56.8961 35.241 57.0009L4.92522 70.2641C4.58775 70.4118 4.30065 70.6546 4.09903 70.9629C3.89742 71.2712 3.79004 71.6315 3.79004 71.9999V81.4736C3.79004 81.7884 3.86846 82.0982 4.01821 82.375C4.16796 82.6519 4.38432 82.8871 4.64775 83.0593C4.91118 83.2316 5.21338 83.3355 5.52704 83.3617C5.84071 83.3879 6.15597 83.3356 6.44433 83.2094L9.47425 81.8838V113.684H3.79004V117.474H68.2111C69.7233 117.474 71.5321 116.793 72.9314 115.697C73.8205 115.026 74.5416 114.157 75.0377 113.16C75.5337 112.163 75.7913 111.063 75.79 109.949C75.79 107.24 74.3711 105.811 73.3352 104.767C72.4094 103.835 72.0006 103.378 72.0006 102.316ZM7.57951 78.5765V73.2391L36.0006 60.8049L64.4216 73.2391V78.5765L62.5269 77.7476V77.6841H62.3819L36.7601 66.4746C36.5206 66.3698 36.262 66.3157 36.0006 66.3157C35.7391 66.3157 35.4805 66.3698 35.241 66.4746L9.6192 77.6841H9.47425V77.7476L7.57951 78.5765ZM22.7374 90.9473H30.3164V113.684H22.7374V90.9473ZM68.2111 113.684H60.6321C59.5886 113.684 56.8427 112.536 56.8427 109.949C56.8427 108.848 57.2579 108.383 58.1974 107.437C59.2248 106.402 60.6321 104.984 60.6321 102.316C60.6321 97.8195 63.1109 96.6315 64.4216 96.6315C67.4191 96.6315 68.2111 100.35 68.2111 102.316C68.2111 104.984 69.6182 106.402 70.6456 107.437C71.5849 108.384 72.0003 108.848 72.0003 109.949C72.0006 112.536 69.2532 113.684 68.2111 113.684Z" fill="white"/>
<path d="M110.949 54.5881L115.428 47.9658C115.85 47.3476 116.146 46.652 116.298 45.9192C116.451 45.1863 116.457 44.4306 116.317 43.6953C116.176 42.96 115.892 42.2596 115.48 41.6345C115.069 41.0093 114.537 40.4716 113.917 40.0523C113.297 39.6329 112.601 39.3402 111.867 39.1909C111.133 39.0416 110.378 39.0386 109.643 39.1822C108.908 39.3257 108.209 39.613 107.586 40.0275C106.963 40.4419 106.427 40.9754 106.011 41.5973L75.2287 87.1132C75.0643 87.3569 74.9589 87.6355 74.9208 87.927L73.814 96.328C73.7681 96.6768 73.8203 97.0315 73.9646 97.3524C74.1089 97.6733 74.3398 97.9476 74.6312 98.1447C74.9227 98.3418 75.2632 98.4538 75.6148 98.4683C75.9663 98.4827 76.3149 98.399 76.6216 98.2265L84.0063 94.0714C84.2624 93.9271 84.4813 93.7252 84.6458 93.4816L108.761 57.8236L111.369 60.7313L103.707 72.0621L106.845 74.1849L115.337 61.6287C115.574 61.2787 115.687 60.8596 115.658 60.4381C115.629 60.0166 115.46 59.6168 115.178 59.3022L110.949 54.5881ZM109.149 43.7202C109.288 43.5129 109.467 43.3351 109.674 43.197C109.882 43.0589 110.115 42.9632 110.36 42.9154C110.605 42.8675 110.857 42.8686 111.101 42.9183C111.346 42.9681 111.578 43.0657 111.785 43.2055C111.991 43.3453 112.168 43.5245 112.306 43.7329C112.443 43.9413 112.538 44.1747 112.584 44.4198C112.631 44.6649 112.629 44.9168 112.578 45.1611C112.527 45.4053 112.429 45.6371 112.288 45.8432L108.34 51.6804L105.732 48.7727L109.149 43.7202ZM81.758 90.9884L78.0654 93.0657L78.6189 88.8653L83.6754 81.3885L86.8145 83.5113L81.758 90.9884ZM88.9374 80.3724L85.7983 78.2494L103.545 52.0073L106.153 54.9159L88.9374 80.3724Z" fill="white"/>
<path d="M32.2109 34.1052H36.0004V37.8947H32.2109V34.1052Z" fill="white"/>
<path d="M39.79 34.1052H85.2637V37.8947H39.79V34.1052Z" fill="white"/>
<path d="M28.4219 41.6841H85.264V45.4736H28.4219V41.6841Z" fill="white"/>
<path d="M28.4219 49.2631H85.264V53.0526H28.4219V49.2631Z" fill="white"/>
<path d="M56.8428 56.842H85.2638V60.6315H56.8428V56.842Z" fill="white"/>
<path d="M72.001 64.421H77.6852V68.2104H72.001V64.421Z" fill="white"/>
</svg>
