<svg width="507" height="261" viewBox="0 0 507 261" fill="none" xmlns="http://www.w3.org/2000/svg">
<rect width="506.599" height="261" fill="#ECF7FF"/>
<g style="mix-blend-mode:multiply">
<g clip-path="url(#clip0_2130_5106)">
<path d="M450.774 208.548C441.952 234.883 422.881 247.274 404.533 248.594H138.248C115.515 248.335 64.1527 238.199 53.9239 189.178C49.3203 167.109 52.8228 143.534 65.8375 124.854C81.1674 102.845 105.412 94.8912 129.127 85.1135C149.697 76.6294 163.123 58.6926 179.05 44.066C194.632 29.7577 212.509 18.5937 233.563 14.6932C277.822 6.49432 330.093 16.3449 358.663 53.8768C371.193 70.3343 383.684 85.8034 399.259 99.5478C409.422 108.516 420.393 116.49 429.773 126.36C451.066 148.774 460.837 178.512 450.774 208.548Z" fill="#E8F2F9"/>
<path d="M352.407 191.228C352.387 191.228 352.367 191.228 352.348 191.215C331.638 183.586 326.146 160.19 320.832 137.564C317.695 124.204 314.451 110.38 308.116 99.9258C301.018 88.2178 290.71 82.0753 276.587 81.1334C252.362 79.5214 240.137 93.0934 228.309 106.228C218.711 116.887 208.781 127.912 192.482 131.05C192.396 131.07 192.303 131.01 192.29 130.917C192.27 130.831 192.33 130.738 192.423 130.725C208.615 127.6 218.505 116.622 228.071 106.002C239.944 92.8148 252.223 79.1831 276.614 80.8017C290.849 81.7503 301.25 87.9459 308.408 99.7533C314.769 110.254 318.02 124.098 321.164 137.484C326.457 160.025 331.93 183.334 352.474 190.903C352.56 190.936 352.606 191.029 352.573 191.115C352.54 191.188 352.474 191.228 352.407 191.228Z" fill="white"/>
<path d="M199.673 113.193C199.587 113.193 199.521 113.126 199.507 113.047C199.501 112.954 199.56 112.874 199.653 112.868C199.766 112.854 210.996 111.043 215.182 100.463C215.215 100.377 215.315 100.337 215.394 100.37C215.481 100.403 215.52 100.503 215.487 100.583C211.229 111.335 199.793 113.179 199.68 113.193C199.686 113.193 199.68 113.193 199.673 113.193Z" fill="white"/>
<path d="M248.482 55.9928C248.455 55.9928 248.428 55.9862 248.402 55.9729C248.322 55.9265 248.296 55.827 248.342 55.7474C248.382 55.6811 252.349 48.789 259.825 43.0643C266.73 37.7775 278.126 32.4243 293.211 36.9483C293.297 36.9749 293.35 37.0677 293.323 37.154C293.297 37.2402 293.211 37.2933 293.118 37.2667C278.179 32.7825 266.883 38.0826 260.037 43.3164C252.607 49.0012 248.667 55.8336 248.627 55.9066C248.594 55.9597 248.541 55.9928 248.482 55.9928Z" fill="white"/>
<path d="M366.39 128.788C361.369 128.788 357.037 127.196 353.674 124.071C349.276 119.985 348.042 114.878 348.122 114.148C348.135 114.055 348.215 113.995 348.307 114.002C348.4 114.015 348.467 114.095 348.453 114.188C348.38 114.805 349.608 119.846 353.899 123.826C358.337 127.945 364.241 129.338 371.438 127.952C371.524 127.939 371.617 127.992 371.631 128.085C371.65 128.178 371.591 128.264 371.498 128.277C369.733 128.622 368.022 128.788 366.39 128.788Z" fill="white"/>
<path d="M336.812 160.555C336.739 160.555 336.673 160.502 336.653 160.429C334.424 151.408 339.366 146.771 341.475 144.788C341.94 144.35 342.378 143.938 342.397 143.779C342.411 143.686 342.49 143.627 342.583 143.633C342.676 143.647 342.736 143.726 342.729 143.819C342.689 144.098 342.318 144.449 341.701 145.026C339.631 146.97 334.789 151.514 336.971 160.35C336.991 160.436 336.938 160.529 336.852 160.549C336.839 160.555 336.825 160.555 336.812 160.555Z" fill="white"/>
<path d="M287.148 206.737C286.153 204.774 285.311 202.704 284.495 200.701C283.732 198.83 282.949 196.893 282.034 195.056C277.516 185.928 270.08 181.338 260.541 181.769C251.646 182.174 242.684 186.558 233.145 195.188L232.92 194.943C242.518 186.266 251.553 181.848 260.522 181.437C270.22 180.999 277.749 185.656 282.326 194.91C283.241 196.76 284.03 198.704 284.793 200.581C285.602 202.578 286.445 204.641 287.433 206.591L287.148 206.737Z" fill="white"/>
<path d="M212.701 239.951C211.613 239.951 210.996 239.725 210.903 239.685L211.023 239.38C211.116 239.413 220.25 242.697 233.928 221.258C244.395 204.847 252.992 195.162 263.48 197.55C273.901 199.925 274.783 216.614 275.314 226.584L274.982 226.637C274.458 216.727 273.589 200.197 263.407 197.875C253.112 195.527 244.601 205.152 234.213 221.443C223.766 237.801 216.031 239.951 212.701 239.951Z" fill="white"/>
<path d="M384.473 208.734C383.77 208.196 383.445 198.293 388.055 192.197C395.02 182.976 401.528 179.334 405.229 178.631C408.121 178.087 409.056 179.706 406.529 180.654C403.995 181.596 402.29 183.348 403.08 185.888C403.869 188.429 402.105 189.815 400.247 189.231C398.397 188.648 394.795 188.329 393.859 192.595C392.931 196.867 395.159 200.787 391.299 202.803C387.432 204.82 387.558 210.551 387.558 210.551L384.473 208.734Z" fill="#276B65"/>
<path d="M388.546 204.72C388.406 204.72 388.293 204.608 388.3 204.468C388.638 186.578 405.527 179.434 405.7 179.361C405.826 179.308 405.971 179.368 406.025 179.494C406.078 179.62 406.018 179.766 405.892 179.819C405.726 179.885 389.136 186.916 388.804 204.475C388.791 204.608 388.678 204.72 388.546 204.72Z" fill="#1A1D30"/>
<path d="M389.315 220.999C390.164 220.481 389.713 210.1 388.592 198.983C387.664 189.749 386.954 187.639 393.634 180.767C400.313 173.895 400.904 169.384 396.546 167.043C393.256 165.278 386.403 168.966 384.068 177.902C381.74 186.83 382.828 190.306 378.105 193.132C372.055 196.754 369.78 200.581 371.916 204.813C375.067 211.062 383.796 217.264 381.78 223.307L389.315 220.999Z" fill="#61A87F"/>
<path d="M386.847 221.185C386.741 221.185 386.642 221.112 386.609 221.006C385.269 216.482 383.312 213.556 381.056 210.167C379.975 208.548 378.861 206.876 377.68 204.847C375.352 200.853 379.119 196.615 380.333 195.407C383.385 192.369 384.751 188.223 386.065 184.217C387.723 179.162 389.441 173.942 394.569 170.957C394.688 170.884 394.841 170.93 394.907 171.043C394.973 171.162 394.933 171.315 394.821 171.381C389.859 174.273 388.247 179.175 386.536 184.369C385.202 188.429 383.822 192.635 380.685 195.752C379.537 196.893 375.962 200.906 378.111 204.588C379.285 206.604 380.4 208.269 381.474 209.881C383.756 213.304 385.726 216.256 387.093 220.853C387.133 220.986 387.06 221.125 386.927 221.165C386.894 221.185 386.867 221.185 386.847 221.185Z" fill="#1A1D30"/>
<path d="M345.708 245.874C346.271 244.614 346.179 243.155 345.542 241.934C343.791 238.571 339.658 233.019 329.535 230.962C318.71 228.76 311.227 231.115 312.235 234.266C313.244 237.417 322.166 233.423 327.253 238.365C330.477 241.496 335.665 248.886 340.898 248.674C343.791 248.554 345.111 247.201 345.708 245.874Z" fill="#276B65"/>
<path d="M344.918 247.327C344.785 247.327 344.679 247.228 344.672 247.095C344.665 247.042 344.148 241.576 333.03 235.898C321.84 230.18 312.573 233.277 312.487 233.311C312.354 233.357 312.215 233.284 312.168 233.158C312.122 233.025 312.195 232.886 312.321 232.84C312.414 232.806 321.886 229.642 333.256 235.453C344.665 241.284 345.15 246.829 345.17 247.062C345.176 247.201 345.077 247.314 344.937 247.327C344.931 247.327 344.924 247.327 344.918 247.327Z" fill="#1A1D30"/>
<path d="M348.222 236.939C348.488 236.196 350.047 236.694 345.489 229.284C339.871 220.15 332.269 219.314 322.763 217.649C316.608 216.574 318.564 203.288 312.508 204.124C306.452 204.959 304.283 217.079 308.508 220.833C312.74 224.588 317.045 220.78 321.357 224.866C323.42 226.823 320.933 232.607 325.801 235.015C330.239 237.218 335.128 228.992 340.892 239.858L342.577 240.037L348.222 236.939Z" fill="#61A87F"/>
<path d="M345.833 238.504H345.827C345.687 238.498 345.581 238.385 345.588 238.246C345.588 238.193 345.667 232.926 338.019 226.889C333.323 223.181 327.804 222 322.47 220.859C320.202 220.375 318.059 219.918 316.003 219.274C309.694 217.311 310.948 208.395 310.961 208.309C310.981 208.176 311.101 208.077 311.247 208.103C311.379 208.123 311.472 208.249 311.452 208.389C311.439 208.475 310.245 216.972 316.149 218.81C318.185 219.447 320.321 219.898 322.577 220.382C327.969 221.536 333.542 222.723 338.331 226.505C346.198 232.707 346.099 238.04 346.085 238.266C346.072 238.398 345.966 238.504 345.833 238.504Z" fill="#1A1D30"/>
<path d="M403.856 248.7H340.129C338.888 248.7 337.833 247.805 337.634 246.577L330.417 203.202V203.195L329.389 197.026C329.17 195.699 329.986 194.472 331.2 194.107C331.432 194.041 331.691 194.001 331.95 194.001H395.518C396.791 194.001 397.879 194.923 398.085 196.177L399.896 207.082L406.343 245.768C406.595 247.3 405.415 248.7 403.856 248.7Z" fill="#1A1D30"/>
<path d="M405.8 247.785C405.913 247.632 408.785 244.07 408.785 244.07L400.686 241.675L402.908 245.237L405.8 247.785Z" fill="#1A1D30"/>
<path d="M399.903 207.075L395.83 211.234L358.271 211.599L334.305 199.845L332.063 201.749C331.34 202.379 330.206 201.974 330.046 201.026L329.376 197.019C329.157 195.692 329.973 194.465 331.187 194.1C331.419 194.034 331.678 193.994 331.937 193.994H395.505C396.778 193.994 397.866 194.916 398.072 196.17L399.903 207.075Z" fill="#C74243"/>
<path d="M397.628 222.989L351.771 237.854C349.164 238.703 346.365 237.271 345.516 234.664L337.191 208.979C336.342 206.372 337.775 203.573 340.382 202.724L386.238 187.858C388.845 187.009 391.645 188.442 392.494 191.049L400.819 216.734C401.661 219.341 400.235 222.14 397.628 222.989Z" fill="#87B6DE"/>
<path d="M406.608 245.237H343.034C341.76 245.237 340.672 244.315 340.466 243.055L333.753 201.921C333.495 200.336 334.715 198.896 336.321 198.896H399.895C401.169 198.896 402.257 199.819 402.462 201.079L409.175 242.213C409.441 243.798 408.214 245.237 406.608 245.237Z" fill="#E69E5E"/>
<path d="M406.549 226.107C406.456 225.549 405.979 225.145 405.415 225.145H404.99L406.914 223.865L407.657 224.707L406.549 226.107Z" fill="#1A1D30"/>
<path d="M406.695 225.145H388.606C387.982 225.145 387.445 224.7 387.325 224.083L385.932 216.707C385.78 215.904 386.397 215.161 387.213 215.161H405.302C405.926 215.161 406.463 215.606 406.582 216.223L407.975 223.599C408.128 224.402 407.511 225.145 406.695 225.145Z" fill="#C74243"/>
<path d="M397.621 222.02C396.699 223.612 394.51 224.07 392.725 223.035C390.941 222.007 390.238 219.878 391.16 218.286C392.082 216.694 394.271 216.236 396.055 217.271C397.839 218.299 398.536 220.428 397.621 222.02Z" fill="white"/>
<path d="M141.797 228.276C142.294 227.095 141.79 211.659 135.077 199.261C126.799 183.978 114.58 181.941 99.3429 178.406C89.479 176.117 93.8305 154.784 83.9534 155.6C74.0762 156.416 69.4793 175.832 75.9866 182.286C82.494 188.74 89.804 182.963 96.4242 189.961C99.595 193.311 95.0444 202.445 102.706 206.79C109.698 210.75 118.334 197.875 126.692 215.977C132.609 228.8 132.377 232.8 132.377 232.8L141.797 228.276Z" fill="#427D5A"/>
<path d="M137.81 230.445C137.684 230.445 137.571 230.345 137.565 230.219C137.545 229.967 135.243 205.151 123.303 194.611C116.006 188.17 107.164 185.762 98.6132 183.434C94.9914 182.445 91.5685 181.517 88.2983 180.296C78.3879 176.601 81.1872 162.419 81.2204 162.273C81.2469 162.14 81.3796 162.048 81.5123 162.081C81.6449 162.107 81.7312 162.24 81.7046 162.373C81.6781 162.512 78.9584 176.283 88.4707 179.832C91.7211 181.039 95.1307 181.968 98.7393 182.956C107.343 185.298 116.238 187.719 123.628 194.24C135.721 204.913 138.036 229.927 138.055 230.173C138.069 230.312 137.969 230.431 137.83 230.445C137.823 230.445 137.817 230.445 137.81 230.445Z" fill="#1A1D30"/>
<path d="M152.621 194.392C153.033 192.78 138.068 191.381 124.045 179.009C116.078 171.978 114.234 157.06 110.632 141.159C107.09 125.498 106.002 119.004 98.0283 121.305C92.0185 123.043 88.1379 135.501 95.8128 148.927C103.488 162.353 108.867 165.225 106.526 174.147C103.527 185.57 105.292 192.827 112.801 195.387C123.892 199.175 141.616 196.369 146.293 205.968L152.621 194.392Z" fill="#61A87F"/>
<path d="M149.59 197.47C149.55 197.47 149.51 197.464 149.471 197.437C142.539 193.576 136.761 192.362 130.074 190.956C126.884 190.286 123.587 189.59 119.799 188.548C112.449 186.532 111.998 177.132 112.032 174.3C112.124 167.043 108.894 160.469 105.763 154.108C101.843 146.141 97.7896 137.902 100.416 128.377C100.45 128.244 100.589 128.164 100.722 128.204C100.854 128.237 100.934 128.377 100.894 128.509C98.3203 137.849 102.154 145.643 106.207 153.889C109.358 160.303 112.622 166.93 112.529 174.306C112.496 177.046 112.92 186.147 119.932 188.071C123.706 189.105 126.997 189.802 130.174 190.472C136.9 191.892 142.711 193.112 149.709 197.006C149.829 197.072 149.875 197.225 149.809 197.344C149.762 197.424 149.683 197.47 149.59 197.47Z" fill="#1A1D30"/>
<path d="M180.641 240.82C179.022 239.692 177.331 217.636 187.022 203.58C201.662 182.346 215.824 173.583 224.01 171.666C230.405 170.167 232.653 173.696 227.101 176.044C221.549 178.399 217.907 182.465 219.911 188.057C221.914 193.649 218.113 196.906 213.927 195.792C209.742 194.671 201.675 194.306 200.01 203.918C198.345 213.53 203.712 222.067 195.287 226.942C186.863 231.811 187.692 244.587 187.692 244.587L180.641 240.82Z" fill="#61A87F"/>
<path d="M189.305 231.175C189.172 231.175 189.059 231.068 189.059 230.929C188.548 210.16 198.419 195.659 206.784 187.155C215.845 177.941 225.151 173.577 225.244 173.537C225.37 173.477 225.516 173.537 225.576 173.656C225.636 173.782 225.576 173.928 225.457 173.988C225.364 174.028 216.123 178.366 207.128 187.52C198.837 195.958 189.052 210.339 189.557 230.922C189.557 231.055 189.444 231.168 189.305 231.175Z" fill="#1A1D30"/>
<path d="M182.844 234.836C181.676 233.476 181.259 231.619 181.603 229.854C182.552 225.019 185.67 216.574 197.544 210.293C210.24 203.573 220.442 203.765 220.336 208.064C220.23 212.362 207.64 210.657 203.102 218.697C200.23 223.792 196.469 234.909 189.862 236.567C186.22 237.483 184.071 236.276 182.844 234.836Z" fill="#276B65"/>
<path d="M184.27 236.302C184.157 236.302 184.051 236.223 184.031 236.11C183.965 235.818 182.552 228.76 194.605 217.324C206.638 205.915 219.586 206.386 219.712 206.399C219.852 206.405 219.958 206.525 219.951 206.658C219.945 206.797 219.832 206.896 219.692 206.896C219.56 206.89 206.824 206.432 194.95 217.682C183.129 228.886 184.502 235.924 184.515 235.997C184.542 236.13 184.462 236.262 184.33 236.296C184.303 236.302 184.283 236.302 184.27 236.302Z" fill="#1A1D30"/>
<path d="M150.877 240.926C152.097 238.75 152.164 236.096 151.215 233.788C148.608 227.44 142.061 216.76 124.131 211.4C104.967 205.676 91.09 208.707 92.4034 214.551C93.7168 220.395 110.44 214.644 118.818 224.388C124.124 230.564 132.277 244.72 141.749 245.197C146.983 245.456 149.583 243.227 150.877 240.926Z" fill="#276B65"/>
<path d="M149.258 243.221C149.251 243.221 149.251 243.221 149.258 243.221C149.119 243.221 149.006 243.101 149.013 242.969C149.013 242.869 148.993 232.839 129.749 220.707C110.446 208.541 93.1328 212.634 92.9603 212.68C92.8277 212.714 92.695 212.634 92.6618 212.501C92.6286 212.369 92.7082 212.236 92.8409 212.203C93.0134 212.163 110.519 208.004 130.015 220.289C149.537 232.594 149.523 242.564 149.51 242.982C149.504 243.114 149.391 243.221 149.258 243.221Z" fill="#1A1D30"/>
<path d="M198.631 243.393L195.388 247.095L192.25 246.776L195.932 243.055L198.631 243.393Z" fill="#1A1D30"/>
<path d="M114.161 126.327L117.398 122.665L115.78 128.31L114.161 126.327Z" fill="#1A1D30"/>
<path d="M138.631 248.594H192.05C195.181 248.594 197.304 246.053 196.787 242.922L178.127 130.075C177.609 126.944 174.651 124.403 171.52 124.403H118.101C114.97 124.403 112.847 126.944 113.365 130.075L132.018 242.922C132.542 246.053 135.5 248.594 138.631 248.594Z" fill="#1A1D30"/>
<path d="M195.785 246.935C195.812 246.902 198.041 244.342 198.041 244.342L194.93 243.645L195.228 244.926L195.785 246.935Z" fill="#1A1D30"/>
<path d="M141.225 245.642H194.644C197.775 245.642 199.898 243.101 199.381 239.97L180.727 127.123C180.21 123.992 177.251 121.451 174.12 121.451H120.702C117.571 121.451 115.448 123.992 115.965 127.123L134.619 239.97C135.129 243.101 138.094 245.642 141.225 245.642Z" fill="#87B6DE"/>
<path d="M143.573 241.708H190.989C193.854 241.708 195.791 239.387 195.314 236.521L177.801 130.572C177.33 127.706 174.624 125.385 171.758 125.385H124.343C121.477 125.385 119.54 127.706 120.018 130.572L137.53 236.521C138.007 239.387 140.714 241.708 143.573 241.708Z" fill="white"/>
<mask id="mask0_2130_5106" style="mask-type:luminance" maskUnits="userSpaceOnUse" x="119" y="125" width="77" height="117">
<path d="M143.573 241.708H190.989C193.854 241.708 195.791 239.387 195.314 236.521L177.801 130.572C177.33 127.706 174.624 125.385 171.758 125.385H124.343C121.477 125.385 119.54 127.706 120.018 130.572L137.53 236.521C138.007 239.387 140.714 241.708 143.573 241.708Z" fill="white"/>
</mask>
<g mask="url(#mask0_2130_5106)">
<mask id="mask1_2130_5106" style="mask-type:luminance" maskUnits="userSpaceOnUse" x="119" y="125" width="78" height="119">
<path d="M143.505 243.486H191.644C194.549 243.486 196.519 241.131 196.035 238.219L178.251 130.652C177.773 127.746 175.027 125.385 172.115 125.385H123.976C121.071 125.385 119.101 127.74 119.585 130.652L137.369 238.219C137.853 241.131 140.6 243.486 143.505 243.486Z" fill="white"/>
</mask>
<g mask="url(#mask1_2130_5106)">
<path d="M138.086 243.486H196.911L177.382 125.391H118.563L138.086 243.486Z" fill="white"/>
</g>
</g>
<path d="M119.686 160.117C120.104 160.117 120.389 159.779 120.323 159.355L118.93 150.923C118.863 150.506 118.465 150.161 118.041 150.161C117.623 150.161 117.338 150.499 117.404 150.923L118.797 159.355C118.87 159.772 119.268 160.117 119.686 160.117Z" fill="#87B6DE"/>
<path d="M121.444 170.731C121.862 170.731 122.147 170.392 122.081 169.968L120.688 161.537C120.621 161.119 120.223 160.774 119.799 160.774C119.381 160.774 119.096 161.112 119.162 161.537L120.555 169.968C120.628 170.392 121.026 170.731 121.444 170.731Z" fill="#87B6DE"/>
<path d="M184.727 151.368C185.145 151.368 185.43 151.03 185.364 150.605L184.104 142.983C184.037 142.565 183.639 142.22 183.215 142.22C182.797 142.22 182.512 142.559 182.578 142.983L183.838 150.605C183.911 151.03 184.309 151.368 184.727 151.368Z" fill="#87B6DE"/>
<path d="M153.53 124.058H157.364C157.749 124.058 158.007 123.746 157.948 123.362C157.881 122.977 157.523 122.665 157.138 122.665H153.304C152.919 122.665 152.661 122.977 152.72 123.362C152.78 123.746 153.145 124.058 153.53 124.058Z" fill="#1A1D30"/>
<path d="M149.231 123.362C149.298 123.746 149.656 124.058 150.04 124.058C150.425 124.058 150.684 123.746 150.624 123.362C150.558 122.977 150.2 122.665 149.815 122.665C149.43 122.665 149.172 122.977 149.231 123.362Z" fill="#1A1D30"/>
<path d="M141.729 123.362C141.795 123.746 142.154 124.058 142.538 124.058C142.923 124.058 143.182 123.746 143.122 123.362C143.056 122.977 142.698 122.665 142.313 122.665C141.921 122.665 141.663 122.977 141.729 123.362Z" fill="#1A1D30"/>
<path d="M144.847 123.362C144.953 124.005 145.557 124.522 146.2 124.522C146.844 124.522 147.275 124.005 147.169 123.362C147.063 122.718 146.459 122.201 145.816 122.201C145.172 122.201 144.741 122.718 144.847 123.362Z" fill="#1A1D30"/>
<path d="M137.75 139.003C138.252 139.003 138.658 138.596 138.658 138.095C138.658 137.593 138.252 137.186 137.75 137.186C137.248 137.186 136.841 137.593 136.841 138.095C136.841 138.596 137.248 139.003 137.75 139.003Z" fill="white"/>
<path d="M163.401 140.768C163.401 141.272 162.989 141.676 162.492 141.676C161.988 141.676 161.583 141.272 161.583 140.768C161.583 140.264 161.994 139.859 162.492 139.859C162.989 139.859 163.401 140.264 163.401 140.768Z" fill="white"/>
<path d="M143.229 135.123C143.229 135.481 142.944 135.766 142.586 135.766C142.228 135.766 141.942 135.481 141.942 135.123C141.942 134.764 142.228 134.479 142.586 134.479C142.937 134.479 143.229 134.764 143.229 135.123Z" fill="white"/>
<path d="M149.955 131.726C149.955 132.085 149.67 132.37 149.311 132.37C148.953 132.37 148.668 132.085 148.668 131.726C148.668 131.368 148.953 131.083 149.311 131.083C149.663 131.083 149.955 131.368 149.955 131.726Z" fill="white"/>
<path d="M157.623 133.199C157.623 133.557 157.338 133.843 156.979 133.843C156.621 133.843 156.336 133.557 156.336 133.199C156.336 132.841 156.621 132.556 156.979 132.556C157.331 132.556 157.623 132.841 157.623 133.199Z" fill="white"/>
<path d="M165.424 135.978C165.424 136.231 165.219 136.436 164.966 136.436C164.714 136.436 164.509 136.231 164.509 135.978C164.509 135.726 164.714 135.521 164.966 135.521C165.225 135.527 165.424 135.726 165.424 135.978Z" fill="white"/>
<path d="M155.348 137.935C155.348 138.187 155.142 138.393 154.89 138.393C154.638 138.393 154.433 138.187 154.433 137.935C154.433 137.683 154.638 137.478 154.89 137.478C155.142 137.478 155.348 137.683 155.348 137.935Z" fill="white"/>
<path d="M143.229 143.534C143.229 143.786 143.023 143.992 142.771 143.992C142.519 143.992 142.313 143.786 142.313 143.534C142.313 143.282 142.519 143.076 142.771 143.076C143.023 143.083 143.229 143.282 143.229 143.534Z" fill="white"/>
<path d="M150.359 145.557C150.293 145.557 150.227 145.517 150.207 145.451C149.391 143.209 145.981 141.849 145.948 141.836C145.862 141.803 145.822 141.703 145.855 141.624C145.889 141.537 145.988 141.498 146.068 141.531C146.214 141.59 149.65 142.957 150.519 145.338C150.552 145.424 150.505 145.517 150.419 145.551C150.399 145.551 150.379 145.557 150.359 145.557Z" fill="white"/>
<path d="M155.334 146.181C155.248 146.181 155.175 146.114 155.168 146.028C154.823 142.26 158.684 138.293 158.85 138.128C158.916 138.061 159.022 138.061 159.082 138.128C159.148 138.194 159.148 138.293 159.082 138.36C159.042 138.4 155.162 142.386 155.493 145.995C155.5 146.088 155.434 146.167 155.341 146.174C155.341 146.181 155.334 146.181 155.334 146.181Z" fill="white"/>
<path d="M152.834 146.181C152.741 146.181 152.668 146.108 152.668 146.015C152.695 140.396 149.843 137.325 149.816 137.299C149.75 137.232 149.756 137.126 149.823 137.066C149.889 137.007 149.995 137.007 150.055 137.073C150.081 137.106 153.027 140.27 153 146.022C153 146.108 152.921 146.181 152.834 146.181Z" fill="white"/>
<path d="M182.704 192.946H137.159C136.642 192.946 136.244 193.411 136.33 193.928L136.954 197.722C137.02 198.127 137.372 198.432 137.405 198.054H182.95C183.845 198.432 184.243 197.968 184.164 197.457L183.54 193.663C183.474 193.245 183.116 192.946 182.704 192.946Z" fill="#669DCF"/>
<path d="M180.815 183.314H135.27C134.752 183.314 134.354 183.779 134.44 184.296L135.064 188.09C135.13 188.495 135.482 188.8 135.893 188.8H181.438C181.956 188.8 182.354 188.336 182.267 187.819L181.644 184.024C181.584 183.613 181.226 183.314 180.815 183.314Z" fill="#669DCF"/>
<path d="M174.181 235.845H156.616C156.211 235.845 155.866 235.559 155.787 235.168C155.68 234.644 156.085 234.16 156.616 234.16H174.181C174.586 234.16 174.931 234.445 175.01 234.836C175.11 235.36 174.712 235.845 174.181 235.845Z" fill="#669DCF"/>
<path d="M288.255 144.37C287.094 144.522 284.083 142.904 282.988 140.741C274.955 140.204 265.357 134.864 257.304 134.406C261.596 126.4 260.023 113.007 260.574 100.324C265.045 100.55 269.503 101.226 273.914 102.294C277.635 103.196 281.33 104.384 284.952 105.816C286.497 106.427 293.887 108.151 295.413 108.855C293.356 117.12 288.945 124.761 288.54 130.44C288.54 130.433 292.454 143.813 288.255 144.37Z" fill="#017369"/>
<path d="M283.725 105.332C283.725 105.332 282.776 107.899 279.28 109.451C272.189 112.602 272.262 104.052 273.92 102.287C277.642 103.189 280.096 103.899 283.725 105.332Z" fill="#FFBB96"/>
<path d="M288.528 97.3852L287.958 97.9159C287.334 96.158 285.981 93.8297 285.948 93.7833L280.654 99.5411L281.251 101.591L275.951 96.8147L282.253 87.8198L287.573 90.5196C290.193 91.8596 290.684 95.3885 288.528 97.3852Z" fill="#613830"/>
<path d="M287.957 97.9226L282.671 102.831L281.642 101.956L281.244 101.604L280.647 99.5544L285.941 93.7966C285.981 93.8364 287.327 96.1648 287.957 97.9226Z" fill="#1A1D30"/>
<path d="M284.514 99.3753L283.267 103.163L282.319 105.883L281.801 107.369L275.394 105.876L276.123 103.773L276.163 103.647L276.919 101.478L277.204 100.629L278.332 97.2195L284.514 99.3753Z" fill="#FFBB96"/>
<path d="M280.15 102.34C280.15 102.34 278.711 103.249 276.17 103.647L276.926 101.478L277.211 100.622L280.15 102.34Z" fill="#1A1D30"/>
<path d="M276.389 102.055C278.717 103.342 281.649 102.493 282.936 100.158L283.606 98.9376L286.16 94.4136C286.286 93.6375 283.195 90.5331 278.472 91.4219L275.951 96.523C274.412 99.4086 274.87 101.219 276.389 102.055Z" fill="#FFBB96"/>
<path d="M284.296 97.3786C283.506 97.6705 283.049 98.4001 283.274 99.0104C283.5 99.6207 284.322 99.8794 285.112 99.5875C285.901 99.2956 286.359 98.566 286.133 97.9557C285.908 97.3454 285.085 97.0867 284.296 97.3786Z" fill="#FFBB96"/>
<path d="M297.449 83.601L291.765 84.2511L292.043 62.2149L296.103 62.0093L297.449 83.601Z" fill="#FFBB96"/>
<path d="M267.778 62.9645L264.548 63.389L262.975 83.4086L257.311 82.6325L260.581 62.6792C260.7 61.9496 260.879 61.2265 261.111 60.5234L262.471 56.4372C262.71 55.6345 263.572 55.1967 264.368 55.4687L267.088 56.404C267.088 56.404 267.3 58.9844 267.3 59.0906C267.307 59.1901 267.778 62.9645 267.778 62.9645Z" fill="#FFBB96"/>
<path d="M279.294 96.8213C279.267 96.8213 279.241 96.8147 279.214 96.8014L278.783 96.5759C278.597 96.483 278.465 96.3105 278.418 96.1049C278.372 95.9059 278.412 95.687 278.531 95.5212L279.546 94.0883C279.599 94.0154 279.705 93.9955 279.778 94.0485C279.851 94.1016 279.871 94.2077 279.818 94.2807L278.803 95.7135C278.737 95.8064 278.717 95.9192 278.743 96.0319C278.77 96.1381 278.843 96.2309 278.942 96.284L279.374 96.5095C279.453 96.5493 279.486 96.6488 279.446 96.7351C279.413 96.7881 279.354 96.8213 279.294 96.8213Z" fill="#C97125"/>
<path d="M283.951 94.5263C283.825 94.0553 283.546 93.5645 283.148 93.2859C282.75 93.0471 282.167 92.921 281.742 92.8613C281.41 92.8812 281.311 92.4368 281.629 92.3439C282.631 92.1449 283.712 92.6358 284.123 93.5578C284.256 93.8563 284.323 94.1548 284.342 94.4799C284.349 94.586 284.263 94.6855 284.157 94.6855C284.051 94.6988 283.964 94.6192 283.951 94.5263Z" fill="#1A1D30"/>
<path d="M277.469 91.9126C278.239 91.3488 279.426 91.2493 280.169 91.9126C280.375 92.1116 280.123 92.4632 279.871 92.3371C279.24 92.0585 278.352 92.0453 277.675 92.2509C277.463 92.3438 277.29 92.0453 277.469 91.9126Z" fill="#1A1D30"/>
<path d="M287.168 90.3405C286.405 91.3421 281.317 91.1365 279.301 89.8761C276.787 88.3107 276.959 86.5992 277.729 85.5976C278.491 84.5959 280.369 85.3323 282.107 86.9508C284.481 89.1796 287.168 90.3405 287.168 90.3405Z" fill="#613830"/>
<path d="M285.529 93.3124C285.529 93.3124 284.156 91.8 279.102 91.5944C277.145 91.5148 276.534 89.9493 276.879 89.1068C277.417 87.7934 278.823 88.1052 280.74 88.5032C284.023 89.1864 285.781 92.4435 285.529 93.3124Z" fill="#613830"/>
<path d="M276.88 89.2726C276.866 89.2726 276.853 89.2726 276.84 89.266C276.754 89.2461 276.694 89.1598 276.714 89.0669C276.72 89.047 276.827 88.596 277.384 88.2842C278.213 87.8265 279.553 87.926 281.364 88.5893C281.45 88.6225 281.496 88.7154 281.463 88.8016C281.43 88.8878 281.337 88.9343 281.251 88.9011C279.128 88.1316 278.074 88.2975 277.556 88.5694C277.125 88.8016 277.039 89.1267 277.039 89.1399C277.026 89.2262 276.953 89.2726 276.88 89.2726Z" fill="#1A1D30"/>
<path d="M288.255 142.499C288.255 142.751 288.222 142.997 288.163 143.249C287.758 144.754 286.159 145.796 283.798 146.32C283.294 146.433 282.756 146.526 282.179 146.585C279.095 146.937 275.128 146.579 270.955 145.424C270.65 145.338 270.345 145.252 270.047 145.166C269.191 144.907 268.368 144.622 267.566 144.317C263.36 142.718 260.037 140.555 258.345 138.413C257.324 137.126 256.893 135.846 257.198 134.698C257.198 134.692 257.198 134.678 257.211 134.672C257.37 134.075 257.722 133.557 258.239 133.106C259.957 131.614 263.486 130.97 267.765 131.322C269.317 131.435 270.975 131.693 272.687 132.085C273.251 132.211 273.828 132.357 274.398 132.516C277.848 133.471 280.912 134.818 283.28 136.337C286.371 138.307 288.255 140.536 288.255 142.499Z" fill="#1A1D30"/>
<path d="M289.429 96.3638C289.403 96.3638 289.383 96.3572 289.356 96.3505C289.277 96.3107 289.237 96.2112 289.277 96.1316C289.29 96.1117 289.794 94.9509 289.343 93.863C289.065 93.1997 288.487 92.6955 287.612 92.3705C286.026 91.7801 284.507 91.8199 282.895 91.873C281.443 91.9128 279.937 91.9592 278.192 91.5745C278.106 91.5546 278.046 91.4684 278.066 91.3755C278.086 91.2892 278.179 91.2295 278.265 91.2494C279.97 91.6276 281.456 91.5811 282.889 91.5413C284.534 91.4949 286.086 91.4485 287.725 92.0587C288.7 92.4236 289.35 92.994 289.655 93.7635C290.152 94.9973 289.575 96.2643 289.569 96.2776C289.549 96.324 289.496 96.3638 289.429 96.3638Z" fill="#1A1D30"/>
<path d="M280.388 86.9908C280.321 86.9908 280.255 86.9443 280.229 86.878C279.983 86.1417 279.625 85.6641 279.167 85.4584C278.67 85.2329 278.219 85.412 278.212 85.4186C278.126 85.4518 278.033 85.412 277.993 85.3324C277.96 85.2462 278 85.1533 278.079 85.1135C278.106 85.1002 278.663 84.8747 279.293 85.1599C279.837 85.4054 280.255 85.9493 280.534 86.7785C280.56 86.8647 280.514 86.9576 280.428 86.9908C280.421 86.9841 280.401 86.9908 280.388 86.9908Z" fill="#1A1D30"/>
<path d="M270.757 101.339L260.588 107.727L256.164 86.3671C256.064 85.843 256.004 85.3057 255.991 84.7618L255.573 67.8002C255.573 67.7935 255.567 67.7935 255.573 67.7869V67.7803C255.474 66.7587 258.552 65.3458 262.465 64.6161C264.867 64.1584 267.023 64.0788 268.356 64.3243C268.522 64.3508 268.674 64.384 268.814 64.4238C269.391 64.5763 269.736 64.8218 269.769 65.1335V65.1866L269.782 65.18L269.769 65.2529L269.059 69.83L266.505 86.3405C267.082 87.0503 267.52 87.9127 267.759 88.8878L270.452 100.092L270.578 100.609L270.757 101.339Z" fill="#017369"/>
<path d="M297.762 194.604C294.518 194.817 291.686 193.125 290.916 190.678C290.916 190.671 290.909 190.664 290.909 190.658C290.81 190.326 290.744 189.981 290.724 189.623C290.525 186.631 293.357 184.011 297.045 183.766C300.064 183.567 302.717 185.019 303.699 187.195C303.911 187.679 304.05 188.197 304.083 188.741C304.282 191.739 301.457 194.366 297.762 194.604Z" fill="#1A1D30"/>
<path opacity="0.5" d="M270.458 100.085L268.594 98.3405C268.594 98.3405 268.077 96.1647 267.32 92.6291C266.637 89.4318 264.249 83.8531 264.249 83.8531C265.569 79.7072 267.334 71.5282 268.315 66.8583C268.415 66.3674 268.508 65.9163 268.594 65.5183C268.674 65.1004 268.753 64.729 268.819 64.4238L269.065 69.8234L266.511 86.334C267.088 87.0438 267.526 87.9061 267.765 88.8812L270.458 100.085Z" fill="#013D38"/>
<path d="M286.232 103.07L289.649 91.508C289.934 90.5461 290.418 89.7103 291.028 89.0271L288.853 67.8068L288.846 67.7338H288.859C288.859 67.7139 288.859 67.7006 288.866 67.6807C288.932 67.296 289.456 67.0439 290.312 66.9444C291.658 66.772 293.808 66.9643 296.182 67.5414C300.05 68.4701 303.048 70.0422 302.895 71.0571V71.0638C302.895 71.0704 302.889 71.0704 302.895 71.077L301.609 87.9922C301.569 88.5295 301.483 89.0602 301.357 89.5843L293.887 113.756L284.375 106.373L286.232 103.07Z" fill="#017369"/>
<path d="M197.405 168.091C197.332 168.144 197.259 168.19 197.172 168.223C195.468 168.907 193.106 167.036 191.899 164.044C190.692 161.053 191.229 158.34 192.801 157.378C193.159 157.152 193.571 157 193.988 156.933C195.302 156.728 196.801 157.391 197.716 159.66C198.871 162.512 198.884 167.076 197.405 168.091Z" fill="#1A1D30"/>
<path d="M198.178 157.136L183.308 162.458L185.721 169.203L200.591 163.881L198.178 157.136Z" fill="#FFBB96"/>
<path d="M188.668 168.31L179.792 172.416L175.865 163.401L172.323 149.696L174.021 149.855C175.487 149.995 176.768 150.904 177.365 152.244C178.094 153.895 178.844 156.131 179.647 158.505C180.244 160.27 182.101 161.948 185.849 161.477L185.855 161.49C185.875 161.477 185.889 161.464 185.908 161.464C186.625 161.172 187.819 162.479 188.582 164.369C189.345 166.253 189.384 168.024 188.668 168.31Z" fill="#966D5A"/>
<path d="M173.803 163.388L175.262 165.782L172.032 166.85L173.843 170.565C174.639 172.827 177.013 173.53 177.013 173.53C177.312 173.464 179.335 172.681 179.594 172.542C180.562 172.024 181.046 170.592 179.965 167.918C179.103 165.796 177.597 164.807 176.642 160.356C176.111 157.882 174.141 148.449 172.032 149.703C170.453 150.645 171.11 155.613 172.748 161.04C173 161.855 173.358 162.651 173.803 163.388Z" fill="#1A1D30"/>
<path d="M172.031 166.85L173.424 170.658C174.22 172.92 176.058 174.26 177.749 173.238C179.069 172.436 176.29 166.857 176.29 166.857H172.031V166.85Z" fill="#212747"/>
<path d="M289.668 178.57L294.862 193.486L301.609 191.136L296.415 176.22L289.668 178.57Z" fill="#FFBB96"/>
<path opacity="0.5" d="M286.232 103.07L288.229 103.017C288.229 103.017 288.149 101.79 289.463 97.571C291.732 90.2742 291.705 90.2942 293.887 86.659C292.78 82.4535 291.44 74.1949 290.697 69.4785C290.624 68.981 290.551 68.5299 290.484 68.1253C290.418 67.6676 290.358 67.2762 290.305 66.9512C289.45 67.0507 288.926 67.2961 288.859 67.6875C288.859 67.7074 288.859 67.7206 288.853 67.7405H288.839L288.846 67.8135L291.022 89.0338C290.405 89.717 289.921 90.5529 289.642 91.5147L286.232 103.07Z" fill="#013D38"/>
<path d="M283.751 106.957C284.275 108.788 286.948 109.624 289.721 108.828C292.494 108.032 294.312 105.903 293.787 104.072C293.263 102.241 290.59 101.405 287.817 102.201C285.045 102.997 283.227 105.126 283.751 106.957Z" fill="#017369"/>
<path d="M289.728 91.2959C289.708 91.2959 289.681 91.2893 289.661 91.2826C289.575 91.2428 289.542 91.15 289.575 91.0637C291.433 86.8383 294.988 85.9427 296.321 85.6111C296.507 85.5646 296.653 85.5315 296.719 85.4983C296.806 85.4651 296.898 85.5049 296.938 85.5845C296.971 85.6708 296.932 85.7636 296.852 85.8034C296.759 85.8432 296.613 85.8764 296.408 85.9295C295.114 86.2545 291.678 87.1169 289.88 91.1964C289.854 91.2561 289.794 91.2959 289.728 91.2959Z" fill="#1A1D30"/>
<path d="M283.764 105.843C283.744 105.843 283.731 105.843 283.711 105.836C283.625 105.81 283.579 105.717 283.605 105.631C284.514 102.765 288.063 101.923 289.23 101.644C289.356 101.611 289.489 101.584 289.515 101.571C289.602 101.538 289.695 101.571 289.734 101.657C289.774 101.737 289.734 101.836 289.655 101.876C289.602 101.903 289.515 101.923 289.303 101.969C288.182 102.234 284.773 103.044 283.917 105.73C283.904 105.803 283.837 105.843 283.764 105.843Z" fill="#1A1D30"/>
<path d="M271.852 104.032C270.83 105.637 268.283 105.849 266.167 104.503C264.051 103.156 263.162 100.762 264.184 99.1563C265.205 97.551 267.752 97.3387 269.868 98.6853C271.984 100.032 272.873 102.427 271.852 104.032Z" fill="#017369"/>
<path d="M267.705 88.6623C267.638 88.6623 267.572 88.6225 267.552 88.5562C265.973 84.3904 262.584 83.349 261.304 82.9642C261.098 82.9045 260.952 82.8581 260.866 82.8117C260.786 82.7719 260.746 82.6724 260.786 82.5928C260.826 82.5132 260.925 82.4734 261.005 82.5132C261.071 82.5463 261.217 82.5861 261.396 82.6458C262.716 83.0505 266.219 84.1251 267.857 88.4368C267.891 88.523 267.844 88.6159 267.764 88.6491C267.745 88.6557 267.725 88.6623 267.705 88.6623Z" fill="#1A1D30"/>
<path d="M272.255 102.977H272.249C272.156 102.971 272.083 102.898 272.089 102.805C272.202 100.105 269.562 98.6191 268.693 98.1283C268.527 98.0354 268.454 97.9956 268.415 97.9558C268.348 97.8961 268.342 97.79 268.408 97.7236C268.468 97.6573 268.574 97.6507 268.64 97.7104C268.667 97.7369 268.746 97.7767 268.859 97.8364C269.774 98.3538 272.547 99.9127 272.428 102.818C272.421 102.904 272.342 102.977 272.255 102.977Z" fill="#1A1D30"/>
<path d="M264.932 147.952L264.859 147.972L197.411 168.091C198.419 167.394 198.731 165.019 198.452 162.685C198.333 161.617 198.088 160.555 197.723 159.66C196.807 157.398 195.315 156.721 193.995 156.927L193.981 156.894L259.646 133.491L260.362 133.232L263.175 142.274L264.932 147.952Z" fill="#C74243"/>
<path d="M303.705 187.202C302.723 185.026 300.063 183.573 297.052 183.772C294.153 183.958 291.785 185.616 291.002 187.772V187.779C290.783 188.363 290.69 188.986 290.73 189.623C290.757 189.981 290.816 190.326 290.916 190.658L273.165 149.199L270.85 143.766L270.764 143.574L272.223 143.74H272.243L274.034 143.945L289.404 145.703H289.41L303.705 187.202Z" fill="#C74243"/>
<path d="M289.602 147.249L276.362 149.683L276.236 149.663L273.158 149.212L264.853 147.978L256.329 146.718L256.621 145.557L259.626 133.551L259.639 133.504L259.984 132.131C261.311 131.07 267.911 130.811 273.649 132.038C274.18 132.151 274.71 132.29 275.248 132.443C278.491 133.332 281.364 134.585 283.586 136.005C284.747 136.741 285.815 137.67 286.677 138.526C287.261 139.103 287.745 139.753 288.13 140.463V140.469C288.216 140.615 288.289 140.761 288.362 140.914C288.368 140.927 288.368 140.934 288.375 140.947C288.435 141.066 288.488 141.192 288.534 141.318C288.541 141.325 288.541 141.332 288.548 141.338C288.82 142.008 289.005 142.718 289.105 143.448L289.397 145.716L289.602 147.249Z" fill="#C74243"/>
<path opacity="0.5" d="M286.677 138.512C287.261 139.09 287.745 139.74 288.13 140.449C286.02 137.232 275.632 134.221 267.944 133.458C263.706 133.033 261.138 133.246 259.626 133.544L259.984 132.125C261.311 131.063 267.911 130.804 273.649 132.032C274.18 132.144 274.71 132.284 275.248 132.436C278.491 133.325 281.364 134.579 283.586 135.998C284.753 136.728 285.821 137.663 286.677 138.512Z" fill="#8A2121"/>
<path d="M268.342 134.566C268.335 134.566 268.335 134.566 268.329 134.566C268.236 134.559 268.17 134.479 268.176 134.386L268.415 131.229C268.422 131.136 268.501 131.056 268.594 131.076C268.687 131.083 268.753 131.163 268.747 131.255L268.508 134.413C268.501 134.499 268.428 134.566 268.342 134.566Z" fill="#1A1D30"/>
<path d="M293.489 189.537L296.03 199.281L303.154 192.9L309.847 180.456C309.847 180.456 305.469 178.14 300.494 187.573C300.494 187.573 300.388 185.537 298.769 185.378C297.151 185.218 293.768 187.58 293.489 189.537Z" fill="#966D5A"/>
<path d="M306.246 193.756L303.984 195.785L305.032 197.709L303.241 199.739C301.509 201.397 298.597 202.074 297.052 200.84C296.813 200.648 296.614 200.429 296.448 200.183C295.818 199.288 295.659 198.107 296.07 197.046C296.355 196.323 296.886 195.653 297.463 195.089C299.102 193.49 300.375 191.56 301.052 189.378C301.211 188.867 301.377 188.349 301.549 187.858C302.657 184.714 306.126 179.514 309.589 180.422C312.183 181.099 310.63 189.344 306.246 193.756Z" fill="#1A1D30"/>
<path d="M305.032 197.709L303.241 199.739C301.51 201.397 298.598 202.074 297.052 200.84C296.813 200.648 296.614 200.429 296.448 200.183C295.619 198.12 299.725 195.182 299.725 195.182L305.032 197.709Z" fill="#212747"/>
<path d="M278.298 93.7235C278.298 93.9822 278.106 94.1879 277.861 94.1879C277.622 94.1879 277.423 93.9756 277.423 93.7235C277.423 93.4648 277.615 93.2592 277.861 93.2592C278.106 93.2526 278.298 93.4648 278.298 93.7235Z" fill="#1A1D30"/>
<path d="M278.782 94.513C278.69 94.513 278.617 94.4401 278.617 94.3472C278.617 94.0885 278.358 93.5313 277.887 93.4384C277.549 93.3721 277.35 93.5844 277.343 93.5976C277.283 93.664 277.177 93.6706 277.111 93.6109C277.044 93.5512 277.038 93.4451 277.098 93.3787C277.111 93.3655 277.429 93.0139 277.953 93.12C278.617 93.2527 278.948 93.9824 278.948 94.3538C278.948 94.4401 278.875 94.513 278.782 94.513Z" fill="#1A1D30"/>
<path d="M282.047 95.1897C282.047 95.4484 281.855 95.654 281.61 95.654C281.371 95.654 281.172 95.4418 281.172 95.1897C281.172 94.931 281.364 94.7253 281.61 94.7253C281.848 94.7253 282.047 94.931 282.047 95.1897Z" fill="#1A1D30"/>
<path d="M282.61 95.9789C282.517 95.9789 282.444 95.9059 282.444 95.8131C282.444 95.5544 282.185 94.9972 281.714 94.9043C281.369 94.8313 281.17 95.0569 281.17 95.0569C281.11 95.1232 281.004 95.1298 280.938 95.0701C280.872 95.0104 280.865 94.9043 280.925 94.838C280.938 94.8247 281.256 94.4731 281.78 94.5793C282.444 94.7119 282.775 95.4416 282.775 95.8131C282.775 95.9059 282.702 95.9789 282.61 95.9789Z" fill="#1A1D30"/>
<path d="M280.654 98.0288C280.654 98.1018 280.541 98.3207 280.349 98.5529C279.99 98.9973 279.367 99.4882 278.757 99.0769C278.631 98.9907 278.518 98.8978 278.438 98.7917C278.418 98.7718 278.405 98.7519 278.392 98.732C278.239 98.4865 278.206 98.1947 278.339 97.9625C278.551 97.6043 279.009 97.7237 279.513 97.7635C280.375 97.8298 280.654 97.7303 280.654 98.0288Z" fill="#1A1D30"/>
<path d="M280.349 98.5528C279.991 98.9972 279.367 99.4881 278.757 99.0768C278.631 98.9906 278.518 98.8977 278.438 98.7916C278.909 98.6324 279.46 98.5461 280.05 98.5461C280.15 98.5461 280.249 98.5461 280.349 98.5528Z" fill="#944042"/>
<path d="M226.996 148.463C226.943 148.463 226.883 148.436 226.856 148.383C225.178 145.604 223.255 146.526 223.235 146.539C223.155 146.579 223.055 146.546 223.009 146.466C222.969 146.386 223.002 146.287 223.082 146.24C223.102 146.227 225.304 145.166 227.135 148.211C227.181 148.29 227.155 148.39 227.082 148.436C227.049 148.456 227.022 148.463 226.996 148.463Z" fill="#1A1D30"/>
<path d="M292.11 160.157C292.063 160.157 292.017 160.137 291.984 160.098C291.44 159.467 290.796 159.129 290.08 159.076C288.64 158.976 287.347 160.098 287.334 160.111C287.267 160.17 287.161 160.164 287.101 160.098C287.042 160.031 287.048 159.925 287.115 159.865C287.174 159.812 288.514 158.645 290.1 158.744C290.909 158.797 291.625 159.182 292.229 159.879C292.289 159.945 292.282 160.051 292.216 160.111C292.189 160.144 292.149 160.157 292.11 160.157Z" fill="#1A1D30"/>
<path d="M270.863 68.2845C271.32 68.6825 271.831 69.0407 272.382 69.3657L272.315 70.2413L275.937 71.4486C280.169 72.6758 284.746 71.0904 288.143 67.6477C289.967 65.8102 291.446 63.4421 292.368 60.6826C293.569 57.1072 293.609 53.4721 292.72 50.361C291.625 46.5203 289.118 43.4424 285.582 42.1555C285.489 42.1157 282.007 40.9548 282.007 40.9548L281.065 42.0361C278.59 41.8835 276.368 42.5203 274.458 43.8337C271.858 45.6181 269.828 48.6629 268.481 52.7026C266.319 59.1569 266.962 64.9412 270.863 68.2845Z" fill="#FACA32"/>
<path opacity="0.5" d="M272.381 69.3656L272.315 70.2412L275.937 71.4485C280.169 72.6756 284.746 71.0903 288.142 67.6475L278.743 63.3955L270.862 68.2843C271.327 68.6823 271.831 69.0405 272.381 69.3656Z" fill="#8B5703"/>
<mask id="mask2_2130_5106" style="mask-type:luminance" maskUnits="userSpaceOnUse" x="267" y="40" width="27" height="32">
<path d="M272.377 69.3656L272.317 70.2412L275.946 71.4418C282.433 73.3257 289.737 68.5961 292.377 60.6692C295.043 52.6892 292.005 44.4704 285.597 42.1421C285.504 42.1023 282.015 40.9414 282.015 40.9414L281.073 42.016C275.223 41.6578 270.831 45.671 268.49 52.6825C266.075 59.913 267.15 66.2943 272.377 69.3656Z" fill="white"/>
</mask>
<g mask="url(#mask2_2130_5106)">
<path d="M264.421 64.3042L264.282 64.6055L292.887 77.7709L293.025 77.4696L264.421 64.3042Z" fill="#A37010"/>
<path d="M264.793 58.4465L264.654 58.7478L293.259 71.9133L293.397 71.612L264.793 58.4465Z" fill="#A37010"/>
<path d="M265.156 52.5837L265.018 52.885L293.622 66.0505L293.761 65.7492L265.156 52.5837Z" fill="#A37010"/>
<path d="M265.52 46.7204L265.381 47.0217L293.985 60.1872L294.124 59.8859L265.52 46.7204Z" fill="#A37010"/>
<path d="M265.884 40.8591L265.745 41.1604L294.35 54.3259L294.488 54.0246L265.884 40.8591Z" fill="#A37010"/>
<path d="M266.255 34.9927L266.116 35.2939L294.721 48.4594L294.859 48.1581L266.255 34.9927Z" fill="#A37010"/>
<path d="M266.621 29.1316L266.482 29.4329L295.087 42.5983L295.226 42.297L266.621 29.1316Z" fill="#A37010"/>
</g>
<path opacity="0.5" d="M274.458 43.8271C277.861 45.0411 287.101 48.3445 292.72 50.3544C291.625 46.5137 289.118 43.4358 285.582 42.1489C285.489 42.1091 282.007 40.9482 282.007 40.9482L281.065 42.0295C278.591 41.8769 276.375 42.5071 274.458 43.8271Z" fill="white"/>
<path d="M288.619 59.4068C291.32 51.3208 288.163 42.9802 281.568 40.7773C274.972 38.5745 267.436 43.3437 264.736 51.4297C262.035 59.5156 265.192 67.8563 271.787 70.0591C278.383 72.2619 285.919 67.4927 288.619 59.4068Z" fill="#FAE278"/>
<mask id="mask3_2130_5106" style="mask-type:luminance" maskUnits="userSpaceOnUse" x="263" y="40" width="27" height="31">
<path d="M288.619 59.4068C291.32 51.3208 288.163 42.9802 281.568 40.7773C274.972 38.5745 267.436 43.3437 264.736 51.4297C262.035 59.5156 265.192 67.8563 271.787 70.0591C278.383 72.2619 285.919 67.4927 288.619 59.4068Z" fill="white"/>
</mask>
<g mask="url(#mask3_2130_5106)">
<path opacity="0.5" d="M264.57 39.0356L281.751 75.2031L287.21 72.6101L270.029 36.4426L264.57 39.0356Z" fill="white"/>
<path opacity="0.5" d="M272.517 33.0733L289.698 69.2407L292.167 68.068L274.986 31.9005L272.517 33.0733Z" fill="white"/>
<path opacity="0.5" d="M258.137 40.7796L275.317 76.947L276.246 76.5058L259.065 40.3384L258.137 40.7796Z" fill="white"/>
</g>
<path d="M275.142 69.0605C274.18 69.0605 273.225 68.9079 272.289 68.5962C266.492 66.6592 263.752 59.1767 266.173 51.9131C267.347 48.404 269.536 45.4654 272.349 43.6413C275.168 41.8104 278.273 41.3196 281.085 42.2549C283.898 43.1968 286.087 45.4522 287.234 48.6097C288.382 51.7539 288.369 55.4222 287.195 58.9313C285.165 65.0274 280.13 69.0605 275.142 69.0605ZM266.332 51.9662L266.492 52.0193C264.124 59.1104 266.77 66.4005 272.395 68.2844C278.021 70.1683 284.521 65.9229 286.889 58.8384C288.037 55.3957 288.05 51.807 286.929 48.7357C285.815 45.6711 283.699 43.4887 280.986 42.5799C278.266 41.6711 275.268 42.1487 272.535 43.9265C269.788 45.7109 267.646 48.5898 266.498 52.0259L266.332 51.9662Z" fill="#A37010"/>
<path d="M262.764 56.3775C262.837 56.1984 263.009 55.7473 263.082 55.5749C263.341 54.8386 264.243 54.4008 264.973 54.6794L268.104 56.0724C268.336 56.1785 268.442 56.4505 268.336 56.6826C268.237 56.9082 267.971 57.0143 267.739 56.9281L264.555 55.6611L264.615 55.681C264.449 55.6412 264.27 55.7142 264.184 55.8468C264.071 56.0657 263.938 56.5367 263.845 56.7755C263.58 57.5118 262.492 57.1072 262.764 56.3775Z" fill="#FFBB96"/>
<path d="M262.306 57.4321L262.519 56.9014C262.757 55.9993 263.666 55.3758 264.582 55.6809L264.621 55.6942L267.746 57.0938C268.369 57.3724 267.965 58.3276 267.328 58.0822L264.144 56.8218L264.217 56.8484C264.038 56.8152 263.878 56.9147 263.832 57.0872C263.772 57.2597 263.613 57.724 263.547 57.9031C263.242 58.7323 261.988 58.2613 262.306 57.4321Z" fill="#FFBB96"/>
<path d="M265.735 56.497C265.709 56.497 265.676 56.4904 265.649 56.4705C265.636 56.4639 264.356 55.6811 263.653 55.5949C263.255 55.5485 262.989 55.8072 262.85 56.3577C262.823 56.444 262.737 56.5037 262.651 56.4771C262.565 56.4572 262.512 56.3644 262.532 56.2781C262.717 55.5683 263.135 55.2101 263.692 55.2698C264.475 55.3561 265.775 56.1587 265.828 56.1919C265.908 56.2383 265.928 56.3445 265.881 56.4174C265.848 56.4639 265.789 56.497 265.735 56.497Z" fill="#C97125"/>
<path d="M261.928 58.3277L262.14 57.797C262.379 56.9148 263.261 56.2913 264.17 56.5765C264.209 56.5898 264.249 56.603 264.282 56.6229L266.797 58.0159C267.394 58.3476 266.916 59.263 266.299 58.9645L263.719 57.6975L263.831 57.744C263.652 57.7108 263.486 57.8103 263.44 57.9828C263.38 58.1552 263.221 58.6196 263.155 58.7987C262.856 59.6279 261.609 59.1635 261.928 58.3277Z" fill="#FFBB96"/>
<path d="M261.457 59.7672L261.676 59.2365C261.914 58.3542 262.797 57.7307 263.705 58.0159C263.732 58.0226 263.765 58.0292 263.785 58.0425L265.954 59.0839C266.564 59.3824 266.146 60.3177 265.516 60.059L263.294 59.137L263.374 59.1635C263.188 59.1304 263.029 59.2365 262.982 59.409C262.923 59.5814 262.763 60.0458 262.704 60.2249C262.392 61.0739 261.138 60.603 261.457 59.7672Z" fill="#FFBB96"/>
<path d="M293.502 59.3227L292.381 57.3658C292.083 56.8816 291.638 55.9396 291.267 55.5748C290.504 54.6196 288.481 54.6262 287.38 54.394C286.803 54.3012 286.902 53.4256 287.486 53.472L289.748 53.6445C291.002 53.671 292.355 54.5466 292.972 55.6279C293.39 56.2249 294.484 57.8235 294.915 58.4338C295.539 59.3824 294.093 60.2978 293.502 59.3227Z" fill="#FFBB96"/>
<path d="M293.145 60.7488C292.422 59.6543 291.394 57.9296 290.644 56.8816C289.821 55.7937 287.871 55.8534 286.664 55.6013C286.087 55.5151 286.186 54.6328 286.77 54.6793L289.118 54.8584C290.246 54.9313 291.374 55.5748 292.037 56.5101C292.68 57.3592 293.861 58.9379 294.518 59.8003C295.175 60.7157 293.775 61.6908 293.145 60.7488Z" fill="#FFBB96"/>
<path d="M292.302 61.5383C291.804 60.7489 290.922 59.3427 290.431 58.5666C290.086 57.9828 289.536 57.5914 288.846 57.472L286.869 57.147C286.299 57.0541 286.398 56.1852 286.975 56.225L288.978 56.3643C289.96 56.424 290.955 56.9812 291.532 57.7971C292.083 58.5135 293.104 59.8534 293.668 60.5831C294.338 61.5118 292.932 62.4935 292.302 61.5383Z" fill="#FFBB96"/>
<path d="M291.361 62.1552C290.976 61.525 290.28 60.3907 289.895 59.7672C289.643 59.3294 289.245 59.0309 288.734 58.9314L287.155 58.6528C286.903 58.6063 286.731 58.3675 286.777 58.1155C286.817 57.8833 287.029 57.7175 287.261 57.7307C288.362 57.8037 289.842 57.7175 290.664 58.6262C291.308 59.336 292.11 60.4571 292.721 61.2066C293.417 62.1353 291.991 63.1303 291.361 62.1552Z" fill="#FFBB96"/>
<path d="M290.862 62.7589L290.444 60.6163L291.751 59.5284C292.686 58.6395 293.29 56.7225 293.343 55.429L293.648 55.7341C294 56.079 294.305 56.4704 294.544 56.9016C295.141 57.9629 296.103 62.0159 296.103 62.0159C296.069 63.0176 293.011 63.2962 291.638 63.3691C291.26 63.3824 290.935 63.1237 290.862 62.7589Z" fill="#FFBB96"/>
<path d="M292.03 63.5549C291.917 63.5549 290.922 63.535 290.67 62.9513C290.497 62.5466 290.338 61.5251 290.219 60.7821C290.179 60.5168 290.133 60.2382 290.119 60.1785C290.086 60.1122 290.099 60.0326 290.159 59.9795C290.225 59.9198 290.332 59.9264 290.391 59.9994C290.438 60.0525 290.444 60.079 290.544 60.7357C290.643 61.3792 290.809 62.4538 290.968 62.8252C291.108 63.1569 291.791 63.2299 292.023 63.2299C292.116 63.2299 292.189 63.3028 292.189 63.3957C292.196 63.4819 292.116 63.5549 292.03 63.5549Z" fill="#C97125"/>
<path d="M291.797 59.8734C291.744 59.8734 291.698 59.8535 291.664 59.8071C290.291 57.9962 289.111 58.0095 289.084 58.0161C288.991 58.0227 288.918 57.9498 288.912 57.8569C288.905 57.764 288.978 57.6911 289.071 57.6844C289.124 57.6844 290.437 57.638 291.93 59.6015C291.983 59.6744 291.97 59.7806 291.897 59.8336C291.863 59.8602 291.83 59.8734 291.797 59.8734Z" fill="#C97125"/>
<path d="M292.342 58.5534C292.289 58.5534 292.243 58.5335 292.209 58.487C290.836 56.6761 289.649 56.6894 289.629 56.696C289.536 56.7093 289.463 56.6297 289.456 56.5368C289.45 56.444 289.523 56.371 289.616 56.3644C289.669 56.3644 290.982 56.3179 292.475 58.2814C292.528 58.3544 292.514 58.4605 292.442 58.5136C292.415 58.5467 292.375 58.5534 292.342 58.5534Z" fill="#C97125"/>
<path d="M292.985 57.3129C292.932 57.3129 292.885 57.293 292.852 57.2466C291.479 55.4356 290.291 55.4489 290.272 55.4555C290.185 55.4555 290.106 55.3892 290.099 55.2963C290.092 55.2035 290.165 55.1305 290.258 55.1239C290.311 55.1239 291.625 55.0774 293.117 57.0409C293.17 57.1139 293.157 57.22 293.084 57.2731C293.058 57.2996 293.018 57.3129 292.985 57.3129Z" fill="#C97125"/>
<path d="M295.042 58.3012C294.969 58.3012 294.902 58.2547 294.882 58.1818C294.564 57.1204 293.423 56.1055 292.873 55.6213C292.587 55.3692 292.521 55.3095 292.508 55.2166C292.494 55.1238 292.554 55.0375 292.64 55.0243C292.72 55.011 292.793 55.0508 292.819 55.1171C292.853 55.1569 292.972 55.2631 293.091 55.3692C293.662 55.8733 294.856 56.9347 295.201 58.0823C295.227 58.1685 295.174 58.2614 295.088 58.2879C295.075 58.3012 295.055 58.3012 295.042 58.3012Z" fill="#C97125"/>
<path d="M262.286 60.6164C262.253 60.6164 262.22 60.6097 262.193 60.5898C262.121 60.5368 262.094 60.4373 262.147 60.3643C262.2 60.2847 263.009 59.2632 263.175 59.0575C263.222 58.9978 263.308 58.9779 263.374 59.0111C263.388 59.0177 264.86 59.7076 265.756 59.8336C265.848 59.8469 265.908 59.9331 265.895 60.0194C265.882 60.1122 265.795 60.1653 265.709 60.1587C264.907 60.0393 263.732 59.5285 263.354 59.3627C262.989 59.827 262.465 60.4837 262.426 60.5434C262.392 60.5965 262.339 60.6164 262.286 60.6164Z" fill="#C97125"/>
<path d="M261.443 59.3295C261.403 59.3295 261.37 59.3162 261.337 59.2897C261.264 59.23 261.257 59.1238 261.317 59.0575C261.436 58.9182 262.504 57.6645 263.333 57.7839C264.109 57.8967 264.832 58.3942 264.866 58.4141C264.939 58.4671 264.958 58.5666 264.905 58.6462C264.852 58.7192 264.753 58.7391 264.673 58.686C264.667 58.6794 263.983 58.2084 263.287 58.1089C262.736 58.0293 261.867 58.9182 261.575 59.2631C261.536 59.3096 261.489 59.3295 261.443 59.3295Z" fill="#C97125"/>
<path d="M262.106 57.7175H262.1C262.007 57.7109 261.94 57.6379 261.94 57.545C261.94 57.5119 261.987 56.6694 262.464 56.2648C262.663 56.0923 262.902 56.026 263.188 56.0525C263.964 56.1388 265.27 56.9414 265.323 56.9746C265.403 57.021 265.423 57.1271 265.377 57.2001C265.33 57.2797 265.224 57.2996 265.151 57.2532C265.138 57.2465 263.857 56.4572 263.154 56.3776C262.969 56.3577 262.816 56.3975 262.683 56.5102C262.319 56.822 262.279 57.545 262.279 57.5517C262.272 57.6512 262.199 57.7175 262.106 57.7175Z" fill="#C97125"/>
<path d="M262.856 63.1369C262.405 63.1369 262.04 62.9777 262.014 62.9644C261.928 62.9246 261.895 62.8318 261.928 62.7455C261.967 62.6593 262.06 62.6261 262.147 62.6593C262.153 62.6659 263.002 63.0241 263.566 62.573C264.004 62.2215 263.699 61.4454 263.566 61.1203C263.513 60.9744 263.493 60.928 263.513 60.8616C263.54 60.7754 263.632 60.729 263.719 60.7555C263.785 60.7754 263.825 60.8351 263.831 60.9014C263.838 60.9213 263.851 60.9545 263.871 61.0009C264.017 61.3658 264.395 62.3342 263.772 62.8384C263.487 63.0706 263.155 63.1369 262.856 63.1369Z" fill="#C97125"/>
<path d="M184.343 163.361C184.263 163.361 184.19 163.301 184.177 163.222C183.912 161.544 182.897 161.51 182.85 161.504C182.758 161.504 182.685 161.424 182.685 161.338C182.685 161.245 182.758 161.172 182.85 161.172C182.903 161.172 184.19 161.199 184.502 163.169C184.515 163.262 184.456 163.341 184.363 163.361C184.356 163.361 184.35 163.361 184.343 163.361Z" fill="#1A1D30"/>
<path d="M186.167 163.361C186.088 163.361 186.015 163.301 186.001 163.222C185.736 161.544 184.721 161.51 184.675 161.504C184.582 161.504 184.509 161.424 184.509 161.338C184.509 161.245 184.582 161.172 184.675 161.172C184.728 161.172 186.015 161.199 186.326 163.169C186.34 163.262 186.28 163.341 186.187 163.361C186.187 163.361 186.18 163.361 186.167 163.361Z" fill="#1A1D30"/>
<path d="M297.164 191.991C297.157 191.991 297.144 191.991 297.137 191.991C297.044 191.978 296.985 191.885 296.998 191.799C297.031 191.6 297.628 190.784 299.081 188.84C299.937 187.699 300.812 186.519 301.33 185.762C301.383 185.689 301.482 185.669 301.562 185.716C301.635 185.769 301.655 185.868 301.608 185.948C301.091 186.718 300.202 187.898 299.346 189.039C298.424 190.266 297.383 191.659 297.323 191.858C297.316 191.938 297.243 191.991 297.164 191.991Z" fill="#1A1D30"/>
<path d="M295.274 190.147C295.254 190.147 295.227 190.14 295.207 190.134C295.121 190.094 295.088 190.001 295.121 189.915C295.28 189.557 296.189 187.719 298.219 186.936C299.751 186.346 300.395 187.202 300.421 187.235C300.474 187.308 300.461 187.414 300.381 187.467C300.308 187.52 300.202 187.507 300.149 187.427C300.129 187.401 299.618 186.751 298.338 187.242C296.428 187.978 295.579 189.703 295.426 190.041C295.4 190.114 295.34 190.147 295.274 190.147Z" fill="#1A1D30"/>
<path d="M296.077 191.261C296.05 191.261 296.03 191.255 296.01 191.248C295.924 191.208 295.891 191.109 295.931 191.029C296.163 190.525 297.065 188.807 299.029 188.051C299.32 187.938 299.612 187.872 299.891 187.852C299.984 187.852 300.063 187.918 300.063 188.011C300.07 188.104 299.997 188.183 299.904 188.183C299.659 188.197 299.407 188.256 299.141 188.356C297.297 189.066 296.442 190.678 296.223 191.162C296.203 191.222 296.143 191.261 296.077 191.261Z" fill="#1A1D30"/>
<path d="M288.541 141.305C288.495 141.212 288.442 141.086 288.382 140.934C288.442 141.053 288.495 141.179 288.541 141.305Z" fill="#1A1D30"/>
<path opacity="0.5" d="M290.995 187.779C290.776 188.362 290.683 188.986 290.723 189.623C290.75 189.981 290.809 190.326 290.909 190.658L273.158 149.199L264.853 147.965L197.404 168.084C198.413 167.388 198.724 165.013 198.446 162.678C201.888 161.862 263.161 142.273 263.161 142.273C263.161 142.273 263.161 142.273 263.168 142.273C263.301 142.327 264.846 142.917 267.845 143.481C268.906 143.68 269.934 143.759 270.843 143.766C271.347 143.773 271.811 143.759 272.216 143.739H272.236C273.237 143.686 273.881 143.574 273.881 143.574L274.027 143.945L290.995 187.765V187.779Z" fill="#8A2121"/>
<path d="M352.407 225.49V231.612C352.407 232.15 351.969 232.587 351.431 232.587H327.996C327.923 232.587 327.843 232.574 327.777 232.561C327.346 232.468 327.021 232.083 327.021 231.619V225.496C327.021 224.959 327.458 224.521 327.996 224.521H351.431C351.756 224.521 352.048 224.68 352.221 224.926C352.34 225.078 352.407 225.277 352.407 225.49Z" fill="#FACA32"/>
<path d="M349.861 232.581H349.529L349.536 224.515H349.868L349.861 232.581Z" fill="#A37010"/>
<path d="M344.833 232.581H344.501L344.514 224.515H344.846L344.833 232.581Z" fill="#A37010"/>
<path d="M339.804 232.581H339.473L339.486 224.515H339.818L339.804 232.581Z" fill="#A37010"/>
<path d="M334.775 232.581H334.443L334.457 224.515H334.788L334.775 232.581Z" fill="#A37010"/>
<path d="M329.755 232.581H329.423L329.429 224.515H329.761L329.755 232.581Z" fill="#A37010"/>
<path d="M358.953 233.549V239.665C358.953 240.203 358.522 240.64 357.984 240.64H334.549C334.23 240.64 333.945 240.481 333.779 240.249C333.646 240.083 333.58 239.884 333.58 239.665V233.549C333.58 233.012 334.018 232.574 334.555 232.574H357.991C358.522 232.581 358.953 233.012 358.953 233.549Z" fill="#FACA32"/>
<path d="M356.604 240.64H356.272L356.286 232.581H356.617L356.604 240.64Z" fill="#A37010"/>
<path d="M351.577 240.64H351.245L351.258 232.581H351.59L351.577 240.64Z" fill="#A37010"/>
<path d="M346.55 240.64H346.219L346.232 232.581H346.564L346.55 240.64Z" fill="#A37010"/>
<path d="M341.521 240.64H341.189L341.203 232.581H341.534L341.521 240.64Z" fill="#A37010"/>
<path d="M336.501 240.64H336.169L336.176 232.581H336.507L336.501 240.64Z" fill="#A37010"/>
<path d="M347.046 232.581C344.525 232.992 341.991 233.622 340.286 234.604C336.413 236.813 334.383 239.3 333.779 240.256C333.646 240.09 333.58 239.891 333.58 239.672V233.556C333.58 233.019 334.018 232.581 334.555 232.581H347.046Z" fill="#1A1D30"/>
<path d="M355.962 241.609V247.725C355.962 248.262 355.524 248.7 354.987 248.7H331.551C331.014 248.7 330.576 248.262 330.576 247.725V241.609C330.576 241.072 331.014 240.634 331.551 240.634H354.987C355.524 240.64 355.962 241.078 355.962 241.609Z" fill="#FACA32"/>
<path d="M353.481 248.7H353.149L353.163 240.64H353.494L353.481 248.7Z" fill="#A37010"/>
<path d="M348.454 248.7H348.122L348.135 240.64H348.467L348.454 248.7Z" fill="#A37010"/>
<path d="M343.431 248.7H343.1L343.106 240.64H343.438L343.431 248.7Z" fill="#A37010"/>
<path d="M338.404 248.7H338.072L338.086 240.64H338.417L338.404 248.7Z" fill="#A37010"/>
<path d="M333.376 248.7H333.044L333.057 240.64H333.389L333.376 248.7Z" fill="#A37010"/>
<path d="M355.962 241.609V244.912C354.775 244.302 353.375 243.698 351.75 243.161C345.011 240.892 337.681 240.64 337.681 240.64H354.987C355.525 240.64 355.962 241.078 355.962 241.609Z" fill="#1A1D30"/>
<path opacity="0.5" d="M347.936 224.515H342.562V232.581H347.936V224.515Z" fill="white"/>
<path opacity="0.5" d="M357.765 232.581H352.571V240.647H357.765V232.581Z" fill="white"/>
<path opacity="0.5" d="M337.68 240.64H332.486V248.707H337.68V240.64Z" fill="white"/>
<path d="M212.979 98.1282L208.747 102.115C206.114 104.589 202.048 104.921 197.961 103.415C195.368 102.453 192.767 100.748 190.525 98.3736C186.923 94.5528 185.106 89.9027 185.305 85.9625C185.418 83.601 186.26 81.4849 187.872 79.9659L192.104 75.9858L193.782 77.7636L194.592 78.6259L208.933 93.843L211.308 96.357L212.979 98.1282Z" fill="#FACA32"/>
<mask id="mask4_2130_5106" style="mask-type:luminance" maskUnits="userSpaceOnUse" x="185" y="75" width="28" height="30">
<path d="M212.979 98.1282L208.747 102.115C206.114 104.589 202.048 104.921 197.961 103.415C195.368 102.453 192.767 100.748 190.525 98.3736C186.923 94.5528 185.106 89.9027 185.305 85.9625C185.418 83.601 186.26 81.4849 187.872 79.9659L192.104 75.9858L193.782 77.7636L194.592 78.6259L208.933 93.843L211.308 96.357L212.979 98.1282Z" fill="white"/>
</mask>
<g mask="url(#mask4_2130_5106)">
<path d="M212.885 99.3132L190.353 120.687L190.581 120.928L213.113 99.5538L212.885 99.3132Z" fill="#A37010"/>
<path d="M210.686 93.9584L188.153 115.332L188.382 115.573L210.914 94.199L210.686 93.9584Z" fill="#A37010"/>
<path d="M208.482 88.5988L185.949 109.973L186.177 110.213L208.71 88.8394L208.482 88.5988Z" fill="#A37010"/>
<path d="M206.285 83.2249L183.756 104.605L183.984 104.846L206.513 83.4655L206.285 83.2249Z" fill="#A37010"/>
<path d="M204.073 77.8791L181.544 99.2561L181.772 99.4967L204.301 78.1197L204.073 77.8791Z" fill="#A37010"/>
<path d="M201.875 72.5246L179.346 93.9016L179.574 94.1422L202.103 72.7652L201.875 72.5246Z" fill="#A37010"/>
<path d="M199.673 67.1674L177.141 88.5413L177.369 88.7819L199.901 67.408L199.673 67.1674Z" fill="#A37010"/>
</g>
<path opacity="0.5" d="M212.979 98.1283L208.747 102.115C206.113 104.589 202.047 104.921 197.961 103.415L208.933 93.8298L211.307 96.3439L212.979 98.1283Z" fill="#8B5703"/>
<path opacity="0.5" d="M194.591 78.6193C193.119 79.8598 188.422 83.528 185.305 85.9625C185.417 83.601 186.26 81.4849 187.872 79.9659L192.104 75.9858L193.782 77.7636L194.591 78.6193Z" fill="white"/>
<path d="M212.977 98.1269C217.275 94.0763 216.086 85.8349 210.321 79.7192C204.557 73.6035 196.4 71.9295 192.103 75.9801C187.805 80.0308 188.994 88.2722 194.759 94.3879C200.523 100.504 208.68 102.178 212.977 98.1269Z" fill="#FAE278"/>
<mask id="mask5_2130_5106" style="mask-type:luminance" maskUnits="userSpaceOnUse" x="189" y="73" width="27" height="28">
<path d="M212.977 98.1269C217.275 94.0763 216.086 85.8349 210.321 79.7192C204.557 73.6035 196.4 71.9295 192.103 75.9801C187.805 80.0308 188.994 88.2722 194.759 94.3879C200.523 100.504 208.68 102.178 212.977 98.1269Z" fill="white"/>
</mask>
<g mask="url(#mask5_2130_5106)">
<path opacity="0.5" d="M201.899 106.369L209.049 67.5386L202.505 66.3337L195.355 105.164L201.899 106.369Z" fill="white"/>
<path opacity="0.5" d="M190.998 106.341L198.148 67.5105L195.193 66.9663L188.043 105.797L190.998 106.341Z" fill="white"/>
<path opacity="0.5" d="M208.788 108.822L215.938 69.991L214.823 69.7855L207.673 108.616L208.788 108.822Z" fill="white"/>
</g>
<path d="M206.784 98.4001C203.374 98.4001 199.341 96.5295 196.117 93.1067C193.709 90.5528 192.104 87.5213 191.6 84.5761C191.096 81.6043 191.766 79.077 193.491 77.4518C195.215 75.8266 197.782 75.3092 200.714 75.9858C203.626 76.6624 206.552 78.4402 208.96 80.9941C213.948 86.2875 215.129 93.3123 211.587 96.6489C210.333 97.8363 208.655 98.4001 206.784 98.4001ZM198.3 76.0256C196.469 76.0256 194.89 76.5895 193.723 77.6906C192.078 79.2362 191.448 81.664 191.932 84.5164C192.423 87.3953 193.995 90.3671 196.363 92.8745C201.225 98.0353 207.958 99.6207 211.368 96.4035C214.777 93.1929 213.59 86.3804 208.728 81.2196C206.366 78.7122 203.494 76.9676 200.648 76.3042C199.826 76.1251 199.043 76.0256 198.3 76.0256Z" fill="#A37010"/>
<path d="M165.591 168.913C165.319 169.371 165.007 169.809 164.642 170.233L164.94 170.937L162.287 172.953C159.136 175.155 154.911 175.129 151.136 173.238C149.113 172.23 147.223 170.691 145.69 168.668C143.694 166.048 142.639 163.063 142.5 160.237C142.327 156.761 143.528 153.511 146.088 151.454C146.155 151.394 148.709 149.458 148.709 149.458L149.79 150.081C151.793 149.259 153.803 149.159 155.753 149.71C158.4 150.453 160.934 152.396 163.183 155.355C166.778 160.098 167.872 165.059 165.591 168.913Z" fill="#FACA32"/>
<path opacity="0.5" d="M164.642 170.233L164.941 170.936L162.287 172.953C159.137 175.155 154.911 175.129 151.137 173.238L157.71 167.089L165.591 168.913C165.319 169.371 165.007 169.809 164.642 170.233Z" fill="#8B5703"/>
<mask id="mask6_2130_5106" style="mask-type:luminance" maskUnits="userSpaceOnUse" x="142" y="149" width="25" height="26">
<path d="M164.641 170.227L164.94 170.936L162.28 172.946C157.451 176.323 150.094 174.472 145.683 168.668C141.238 162.83 141.444 155.182 146.081 151.461C146.147 151.401 148.701 149.464 148.701 149.464L149.782 150.088C154.512 148.151 159.268 150.227 163.169 155.368C167.195 160.655 168.097 166.227 164.641 170.227Z" fill="white"/>
</mask>
<g mask="url(#mask6_2130_5106)">
<path d="M150.068 182.963L149.843 182.718L169.776 163.806L170.002 164.051L150.068 182.963Z" fill="#A37010"/>
<path d="M148.124 178.22L147.892 177.981L167.825 159.069L168.051 159.308L148.124 178.22Z" fill="#A37010"/>
<path d="M146.174 173.484L145.948 173.238L165.875 154.326L166.107 154.572L146.174 173.484Z" fill="#A37010"/>
<path d="M144.224 168.741L143.998 168.502L163.931 149.59L164.157 149.829L144.224 168.741Z" fill="#A37010"/>
<path d="M142.28 163.998L142.048 163.759L161.981 144.847L162.207 145.093L142.28 163.998Z" fill="#A37010"/>
<path d="M140.33 159.262L140.098 159.016L160.031 140.111L160.263 140.35L140.33 159.262Z" fill="#A37010"/>
<path d="M138.381 154.519L138.155 154.28L158.082 135.368L158.314 135.607L138.381 154.519Z" fill="#A37010"/>
</g>
<path opacity="0.5" d="M155.753 149.716C153.279 151.673 146.573 157 142.5 160.237C142.327 156.761 143.528 153.51 146.088 151.454C146.155 151.394 148.709 149.457 148.709 149.457L149.79 150.081C151.793 149.265 153.803 149.166 155.753 149.716Z" fill="white"/>
<path d="M165.323 170.641C170.152 166.969 170.418 159.193 165.916 153.273C161.415 147.354 153.851 145.532 149.021 149.204C144.192 152.876 143.927 160.652 148.428 166.572C152.93 172.492 160.494 174.314 165.323 170.641Z" fill="#FAE278"/>
<mask id="mask7_2130_5106" style="mask-type:luminance" maskUnits="userSpaceOnUse" x="145" y="147" width="25" height="26">
<path d="M165.323 170.641C170.152 166.969 170.418 159.193 165.916 153.273C161.415 147.354 153.851 145.532 149.021 149.204C144.192 152.876 143.927 160.652 148.428 166.572C152.93 172.492 160.494 174.314 165.323 170.641Z" fill="white"/>
</mask>
<g mask="url(#mask7_2130_5106)">
<path opacity="0.5" d="M157.339 142.389L153.305 177.086L158.543 177.695L162.578 142.998L157.339 142.389Z" fill="white"/>
<path opacity="0.5" d="M151.968 140.027L147.934 174.724L150.299 174.999L154.334 140.302L151.968 140.027Z" fill="white"/>
<path opacity="0.5" d="M167.491 142.525L163.456 177.222L164.346 177.326L168.38 142.628L167.491 142.525Z" fill="white"/>
</g>
<path d="M159.462 171.228C155.939 171.228 152.119 169.291 149.459 165.796C147.502 163.222 146.46 160.19 146.52 157.265C146.586 154.326 147.76 151.839 149.823 150.267C151.893 148.695 154.6 148.23 157.445 148.953C160.284 149.676 162.924 151.487 164.881 154.061C168.934 159.388 168.768 166.353 164.51 169.59C163.057 170.698 161.306 171.228 159.462 171.228ZM154.885 148.953C153.074 148.953 151.402 149.491 150.029 150.532C148.046 152.038 146.918 154.433 146.858 157.272C146.799 160.124 147.814 163.076 149.724 165.59C153.664 170.771 160.211 172.442 164.317 169.318C168.424 166.194 168.563 159.441 164.623 154.253C162.712 151.739 160.132 149.968 157.372 149.265C156.523 149.059 155.687 148.953 154.885 148.953Z" fill="#A37010"/>
<path d="M355.499 116.184L361.283 120.801C362.789 122.002 365.807 120.94 369.144 118.353C371.094 116.834 373.151 114.791 375.087 112.363C377.728 109.047 379.625 105.657 380.54 102.864C381.449 100.138 381.422 97.9888 380.235 97.0403L374.192 92.2576L371.227 96.0585L359.698 110.824L355.499 116.184Z" fill="#FACA32"/>
<mask id="mask8_2130_5106" style="mask-type:luminance" maskUnits="userSpaceOnUse" x="355" y="92" width="27" height="30">
<path d="M355.5 116.184L361.284 120.801C362.79 122.002 365.808 120.94 369.145 118.353C371.095 116.834 373.152 114.791 375.088 112.363C377.729 109.047 379.626 105.657 380.541 102.864C381.45 100.138 381.423 97.9888 380.236 97.0403L374.193 92.2576L371.228 96.0585L359.699 110.824L355.5 116.184Z" fill="white"/>
</mask>
<g mask="url(#mask8_2130_5106)">
<path d="M349.842 114.793L349.638 115.055L376.369 135.941L376.573 135.68L349.842 114.793Z" fill="#A37010"/>
<path d="M378.198 129.889L351.466 109L351.671 108.742L378.404 129.63L378.198 129.889Z" fill="#A37010"/>
<path d="M380.036 123.833L353.304 102.944L353.509 102.685L380.242 123.574L380.036 123.833Z" fill="#A37010"/>
<path d="M381.867 117.776L355.141 96.8942L355.34 96.6289L382.072 117.518L381.867 117.776Z" fill="#A37010"/>
<path d="M383.704 111.72L356.972 90.8381L357.177 90.5728L383.91 111.461L383.704 111.72Z" fill="#A37010"/>
<path d="M385.535 105.664L358.809 84.7819L359.014 84.5166L385.74 105.405L385.535 105.664Z" fill="#A37010"/>
<path d="M387.373 99.6075L360.641 78.7255L360.846 78.4668L387.579 99.3488L387.373 99.6075Z" fill="#A37010"/>
</g>
<path opacity="0.5" d="M355.498 116.184L361.282 120.801C362.788 122.002 365.806 120.94 369.143 118.353C366.37 116.158 362.709 113.232 359.69 110.824L355.498 116.184Z" fill="#8B5703"/>
<path opacity="0.5" d="M371.22 96.0587C373.442 97.6905 377.594 100.729 380.54 102.871C381.448 100.145 381.422 97.9957 380.235 97.0471L374.191 92.2644L371.22 96.0587Z" fill="white"/>
<path d="M369.293 107.767C374.527 101.205 376.835 94.3434 374.449 92.4407C372.063 90.5379 365.887 94.3148 360.653 100.877C355.42 107.439 353.112 114.301 355.498 116.203C357.884 118.106 364.06 114.329 369.293 107.767Z" fill="#FAE278"/>
<mask id="mask9_2130_5106" style="mask-type:luminance" maskUnits="userSpaceOnUse" x="354" y="91" width="22" height="26">
<path d="M369.293 107.767C374.527 101.205 376.835 94.3434 374.449 92.4407C372.063 90.5379 365.887 94.3148 360.653 100.877C355.42 107.439 353.112 114.301 355.498 116.203C357.884 118.106 364.06 114.329 369.293 107.767Z" fill="white"/>
</mask>
<g mask="url(#mask9_2130_5106)">
<path opacity="0.5" d="M362.485 84.1264L363.394 123.597L368.089 123.489L367.181 84.0184L362.485 84.1264Z" fill="white"/>
<path opacity="0.5" d="M357.443 82.2937L358.352 121.764L360.474 121.715L359.566 82.2449L357.443 82.2937Z" fill="white"/>
<path opacity="0.5" d="M371.45 82.7517L372.358 122.222L373.161 122.203L372.253 82.7333L371.45 82.7517Z" fill="white"/>
</g>
<path d="M357.753 115.222C357.276 115.222 356.878 115.096 356.559 114.851C355.604 114.088 355.611 112.271 356.579 109.73C357.521 107.242 359.272 104.337 361.494 101.544C363.723 98.7517 366.171 96.3968 368.38 94.9242C370.642 93.4184 372.413 93.0072 373.368 93.77C374.323 94.5328 374.317 96.3504 373.348 98.891C372.406 101.379 370.655 104.284 368.426 107.077C366.197 109.869 363.75 112.224 361.541 113.697C360.035 114.705 358.735 115.222 357.753 115.222ZM361.76 101.743C359.551 104.509 357.826 107.388 356.891 109.843C355.995 112.204 355.949 113.936 356.771 114.586C357.594 115.236 359.266 114.811 361.368 113.412C363.551 111.959 365.972 109.63 368.181 106.864C370.39 104.098 372.114 101.219 373.05 98.765C373.945 96.4035 373.992 94.6722 373.169 94.0221C372.347 93.3654 370.675 93.7965 368.572 95.1962C366.39 96.6489 363.969 98.9772 361.76 101.743Z" fill="#A37010"/>
<path d="M346.005 155.05L341.388 159.242C341.388 159.242 341.289 159.328 341.242 159.368C340.678 159.885 341.129 161.418 342.317 163.474C343.551 165.59 345.561 168.277 348.055 171.003C349.872 172.986 351.683 174.711 353.308 176.051C355.856 178.147 357.932 179.288 358.821 178.943C358.907 178.917 358.973 178.877 359.033 178.817L359.159 178.704L359.186 178.678L363.889 174.359L363.988 174.273L348.791 158.035L346.005 155.05Z" fill="#FACA32"/>
<mask id="mask10_2130_5106" style="mask-type:luminance" maskUnits="userSpaceOnUse" x="341" y="155" width="23" height="25">
<path d="M346.004 155.05L341.387 159.242C341.387 159.242 341.288 159.328 341.241 159.368C340.677 159.885 341.129 161.418 342.316 163.474C343.55 165.59 345.56 168.277 348.054 171.003C349.871 172.986 351.682 174.711 353.307 176.051C355.855 178.147 357.931 179.288 358.82 178.943C358.906 178.917 358.972 178.877 359.032 178.817L359.158 178.704L359.185 178.678L363.888 174.359L363.987 174.273L348.79 158.035L346.004 155.05Z" fill="white"/>
</mask>
<g mask="url(#mask10_2130_5106)">
<path d="M368.711 172.83L346.794 192.455L347.015 192.702L368.933 173.077L368.711 172.83Z" fill="#A37010"/>
<path d="M366.768 167.696L344.851 187.322L345.072 187.569L366.989 167.944L366.768 167.696Z" fill="#A37010"/>
<path d="M364.832 162.564L342.915 182.189L343.136 182.436L365.054 162.811L364.832 162.564Z" fill="#A37010"/>
<path d="M362.888 157.43L340.971 177.056L341.192 177.303L363.109 157.677L362.888 157.43Z" fill="#A37010"/>
<path d="M360.943 152.297L339.025 171.922L339.247 172.169L361.164 152.544L360.943 152.297Z" fill="#A37010"/>
<path d="M359 147.162L337.08 166.785L337.301 167.032L359.222 147.409L359 147.162Z" fill="#A37010"/>
<path d="M357.061 142.034L335.141 161.656L335.362 161.903L357.282 142.281L357.061 142.034Z" fill="#A37010"/>
</g>
<path opacity="0.5" d="M359.962 169.975C357.873 171.892 355.398 174.147 353.315 176.051C355.863 178.147 357.939 179.288 358.828 178.943C358.947 178.877 359.067 178.797 359.166 178.704L359.193 178.678L363.902 174.373L363.889 174.36L359.962 169.975Z" fill="#8B5703"/>
<path opacity="0.5" d="M346.005 155.05L341.388 159.242C341.388 159.242 341.289 159.328 341.242 159.368C340.678 159.885 341.129 161.418 342.317 163.474C344.506 161.643 347.159 159.408 348.791 158.028L346.005 155.05Z" fill="white"/>
<path d="M357.09 162.738C362.006 168.111 365.05 173.318 363.903 174.366C362.749 175.421 357.833 171.918 352.925 166.552C348.009 161.179 344.964 155.972 346.112 154.924C347.266 153.869 352.182 157.371 357.09 162.738Z" fill="#FAE278"/>
<mask id="mask11_2130_5106" style="mask-type:luminance" maskUnits="userSpaceOnUse" x="345" y="154" width="20" height="21">
<path d="M357.089 162.738C362.005 168.111 365.049 173.318 363.902 174.366C362.748 175.421 357.832 171.918 352.924 166.552C348.008 161.179 344.963 155.972 346.111 154.924C347.265 153.869 352.181 157.371 357.089 162.738Z" fill="white"/>
</mask>
<g mask="url(#mask11_2130_5106)">
<path opacity="0.5" d="M358.485 181.709L353.801 147.789L351.074 148.165L355.758 182.085L358.485 181.709Z" fill="white"/>
<path opacity="0.5" d="M354.323 183.988L349.639 150.068L348.41 150.238L353.094 184.158L354.323 183.988Z" fill="white"/>
<path opacity="0.5" d="M361.583 182.302L356.898 148.382L356.432 148.447L361.116 182.367L361.583 182.302Z" fill="white"/>
</g>
<path d="M362.655 173.643C362.025 173.643 360.963 173.066 359.484 171.918C357.686 170.525 355.517 168.469 353.381 166.134C351.245 163.799 349.388 161.457 348.161 159.54C346.854 157.504 346.43 156.244 346.914 155.806C347.391 155.368 348.612 155.899 350.522 157.385C352.32 158.778 354.482 160.834 356.625 163.169C358.761 165.504 360.618 167.845 361.846 169.763C363.152 171.806 363.577 173.059 363.093 173.497C362.987 173.59 362.841 173.643 362.655 173.643ZM347.358 155.985C347.259 155.985 347.186 156.011 347.139 156.051C346.9 156.27 347.099 157.265 348.446 159.361C349.667 161.258 351.504 163.587 353.633 165.909C355.756 168.23 357.912 170.273 359.69 171.653C361.66 173.179 362.635 173.464 362.874 173.245C363.113 173.026 362.914 172.031 361.567 169.935C360.346 168.038 358.509 165.71 356.38 163.388C354.257 161.066 352.101 159.023 350.323 157.643C348.731 156.403 347.783 155.985 347.358 155.985Z" fill="#A37010"/>
</g>
<g clip-path="url(#clip1_2130_5106)">
<path d="M137.574 217.289C137.638 217.187 137.707 217.106 137.763 217.017C137.807 216.947 137.835 216.868 137.898 216.732C138.037 216.994 138.153 217.214 138.278 217.452C138.214 217.475 138.16 217.494 138.105 217.514C138.105 219.818 138.105 222.12 138.105 224.445C142.228 224.445 146.341 224.445 150.465 224.445C150.465 224.553 150.465 224.637 150.465 224.752C150.388 224.752 150.311 224.752 150.234 224.752C146.16 224.752 142.086 224.75 138.012 224.756C137.801 224.756 137.743 224.696 137.744 224.488C137.751 222.227 137.749 219.967 137.746 217.706C137.746 217.615 137.808 217.467 137.593 217.489C137.574 217.428 137.574 217.368 137.574 217.289Z" fill="#278FD9"/>
<path d="M186.358 217.228C186.829 217.228 187.278 217.217 187.726 217.23C188.57 217.254 189.242 217.794 189.225 218.729C189.221 218.953 189.238 219.18 189.203 219.399C189.129 219.861 188.845 220.164 188.383 220.346C188.497 220.4 188.592 220.432 188.672 220.485C189.077 220.749 189.319 221.117 189.308 221.61C189.301 221.975 189.295 222.346 189.221 222.7C189.103 223.256 188.461 223.672 187.898 223.669C187.17 223.665 186.441 223.693 185.712 223.707C185.634 223.709 185.556 223.707 185.462 223.707C185.462 221.547 185.462 219.406 185.462 217.228C185.75 217.228 186.043 217.228 186.358 217.228ZM188.092 222.46C188.132 222.378 188.204 222.297 188.208 222.213C188.222 221.933 188.24 221.648 188.204 221.371C188.17 221.11 187.98 220.914 187.72 220.891C187.335 220.857 186.944 220.883 186.549 220.883C186.549 221.486 186.549 222.067 186.549 222.664C186.867 222.664 187.17 222.653 187.471 222.668C187.699 222.679 187.894 222.618 188.092 222.46ZM186.535 219.757C186.57 219.783 186.605 219.832 186.64 219.833C186.98 219.838 187.321 219.847 187.661 219.833C187.92 219.821 188.129 219.582 188.138 219.315C188.144 219.134 188.142 218.952 188.139 218.771C188.134 218.526 188.023 218.33 187.785 218.296C187.377 218.238 186.962 218.233 186.533 218.204C186.533 218.747 186.533 219.231 186.535 219.757Z" fill="#FC5C67"/>
<path d="M154.3 220.186C154.192 219.961 154.088 219.753 153.957 219.491C153.957 220.909 153.957 222.272 153.957 223.65C153.602 223.65 153.267 223.65 152.921 223.65C152.921 221.514 152.921 219.387 152.921 217.229C153.239 217.229 153.555 217.225 153.87 217.233C153.911 217.235 153.965 217.291 153.986 217.335C154.248 217.882 154.508 218.431 154.763 218.982C154.993 219.48 155.216 219.981 155.444 220.479C155.598 220.815 155.756 221.148 155.94 221.542C155.94 220.074 155.94 218.669 155.94 217.246C156.294 217.246 156.629 217.246 156.979 217.246C156.979 219.373 156.979 221.5 156.979 223.646C156.635 223.646 156.284 223.646 155.93 223.646C155.39 222.503 154.847 221.352 154.3 220.186Z" fill="#278FD9"/>
<path d="M174.271 223.219C173.913 223.589 173.479 223.735 172.99 223.752C172.471 223.771 171.983 223.697 171.556 223.364C171.161 223.056 170.919 222.652 170.901 222.163C170.861 221.131 170.849 220.097 170.855 219.065C170.859 218.356 171.131 217.766 171.778 217.411C172.193 217.184 172.636 217.111 173.114 217.173C173.486 217.222 173.813 217.332 174.117 217.554C174.532 217.858 174.767 218.28 174.791 218.765C174.842 219.796 174.856 220.831 174.835 221.863C174.825 222.361 174.688 222.851 174.271 223.219ZM171.936 220.207C171.936 220.707 171.925 221.207 171.939 221.706C171.952 222.188 172.119 222.607 172.715 222.674C173.312 222.74 173.717 222.365 173.717 221.85C173.717 220.93 173.717 220.01 173.717 219.09C173.716 218.654 173.487 218.347 173.062 218.251C172.596 218.145 172.036 218.324 171.981 218.977C171.948 219.371 171.95 219.768 171.936 220.207Z" fill="#278FD9"/>
<path d="M177.196 221.012C177.075 221.012 176.975 221.012 176.853 221.012C176.853 221.897 176.853 222.763 176.853 223.647C176.482 223.647 176.133 223.647 175.771 223.647C175.771 221.513 175.771 219.386 175.771 217.243C176.121 217.243 176.465 217.243 176.839 217.243C176.839 218.157 176.839 219.072 176.839 219.999C177.416 219.999 177.962 219.999 178.531 219.999C178.531 219.082 178.531 218.173 178.531 217.246C178.902 217.246 179.251 217.246 179.613 217.246C179.613 219.38 179.613 221.507 179.613 223.649C179.263 223.649 178.919 223.649 178.544 223.649C178.544 222.778 178.544 221.907 178.544 221.012C178.082 221.012 177.649 221.012 177.196 221.012Z" fill="#FC5C67"/>
<path d="M181.751 218.793C181.752 219.851 181.762 220.887 181.75 221.922C181.745 222.418 182.17 222.743 182.691 222.68C183.037 222.638 183.266 222.487 183.369 222.156C183.394 222.076 183.403 221.988 183.403 221.904C183.405 220.441 183.405 218.978 183.405 217.515C183.405 217.429 183.405 217.343 183.405 217.243C183.767 217.243 184.111 217.243 184.48 217.243C184.484 217.316 184.49 217.392 184.491 217.469C184.491 218.982 184.518 220.497 184.482 222.01C184.457 223.034 183.788 223.712 182.74 223.752C182.268 223.77 181.808 223.739 181.408 223.447C180.958 223.119 180.685 222.666 180.677 222.119C180.652 220.541 180.668 218.962 180.669 217.383C180.669 217.34 180.675 217.298 180.68 217.23C181.003 217.23 181.319 217.223 181.634 217.239C181.676 217.241 181.744 217.359 181.746 217.425C181.756 217.873 181.751 218.323 181.751 218.793Z" fill="#FC5C67"/>
<path d="M158.079 217.494C158.08 217.415 158.08 217.357 158.082 217.299C158.082 217.285 158.088 217.272 158.095 217.243C159.28 217.243 160.469 217.243 161.671 217.243C161.671 217.581 161.671 217.911 161.671 218.267C160.843 218.267 160.016 218.267 159.177 218.267C159.177 218.84 159.177 219.388 159.177 219.962C159.875 219.962 160.572 219.962 161.281 219.962C161.281 220.318 161.281 220.648 161.281 221.005C160.584 221.005 159.887 221.005 159.178 221.005C159.178 221.564 159.178 222.097 159.178 222.653C160.004 222.653 160.832 222.653 161.684 222.653C161.684 222.977 161.691 223.279 161.677 223.58C161.675 223.625 161.577 223.702 161.523 223.702C160.387 223.709 159.252 223.707 158.079 223.707C158.079 221.637 158.079 219.576 158.079 217.494Z" fill="#278FD9"/>
<path d="M163.909 217.185C164.407 217.085 164.869 217.152 165.303 217.361C165.754 217.578 166.011 217.969 166.149 218.437C166.164 218.489 166.08 218.606 166.015 218.64C165.802 218.75 165.573 218.83 165.357 218.933C165.24 218.989 165.213 218.95 165.15 218.846C165.032 218.651 164.899 218.445 164.723 218.307C164.393 218.05 163.626 218.246 163.522 218.608C163.366 219.15 163.454 219.57 164.098 219.794C164.513 219.938 164.93 220.079 165.344 220.228C165.848 220.409 166.254 220.978 166.242 221.51C166.233 221.874 166.229 222.244 166.158 222.599C166.042 223.183 165.607 223.493 165.073 223.656C164.526 223.823 163.956 223.82 163.42 223.65C162.809 223.457 162.359 222.994 162.254 222.3C162.582 222.157 162.913 222.014 163.231 221.876C163.324 222.051 163.391 222.216 163.491 222.358C163.832 222.843 164.67 222.792 164.998 222.488C165.21 222.292 165.201 222 165.19 221.726C165.173 221.274 164.844 221.131 164.489 221.011C164.098 220.881 163.7 220.769 163.321 220.611C162.819 220.401 162.526 220.003 162.425 219.468C162.334 218.993 162.375 218.532 162.579 218.088C162.799 217.608 163.193 217.359 163.681 217.229C163.75 217.21 163.82 217.199 163.909 217.185Z" fill="#278FD9"/>
<path d="M147.688 220.781C147.688 220.846 147.688 220.91 147.688 220.993C146.96 221.211 146.229 221.43 145.524 221.641C145.602 221.939 145.667 222.214 145.75 222.482C145.767 222.538 145.844 222.594 145.905 222.613C146.333 222.743 146.764 222.862 147.194 222.985C147.355 222.606 147.503 222.515 147.924 222.534C148.114 222.542 148.313 222.721 148.391 222.952C148.501 223.277 148.331 223.603 147.995 223.712C147.658 223.822 147.328 223.658 147.215 223.338C147.193 223.276 147.12 223.209 147.057 223.189C146.63 223.054 146.199 222.931 145.759 222.801C145.713 223.209 145.562 223.554 145.252 223.835C144.914 224.141 144.384 224.246 143.974 224.04C143.829 223.967 143.718 223.896 143.565 224.057C143.508 224.118 143.309 224.1 143.211 224.048C143.129 224.005 143.056 223.862 143.055 223.762C143.043 222.79 143.048 221.819 143.048 220.848C143.048 220.34 143.047 219.833 143.048 219.326C143.049 219.078 143.174 218.917 143.372 218.927C143.641 218.939 143.75 219.09 143.746 219.324C143.736 219.889 143.743 220.455 143.743 221.02C143.743 221.09 143.743 221.16 143.743 221.249C143.811 221.217 143.86 221.204 143.897 221.175C144.213 220.932 144.548 220.906 144.895 221.094C145.006 221.155 145.062 221.116 145.126 221.032C145.674 220.317 146.224 219.603 146.773 218.889C146.402 218.54 146.183 218.004 146.697 217.468C146.968 217.186 147.419 217.145 147.781 217.359C148.106 217.551 148.289 217.996 148.203 218.346C148.097 218.783 147.612 219.141 147.121 219.02C147.055 219.003 146.937 219.049 146.893 219.105C146.517 219.582 146.155 220.07 145.784 220.55C145.591 220.799 145.386 221.039 145.189 221.28C145.263 221.423 145.351 221.456 145.506 221.409C146.178 221.201 146.855 221.009 147.531 220.812C147.572 220.8 147.615 220.799 147.674 220.789C147.69 220.784 147.688 220.781 147.688 220.781ZM147.85 218.571C147.977 218.372 148.03 218.168 147.961 217.926C147.873 217.617 147.498 217.383 147.172 217.466C146.803 217.561 146.539 217.945 146.625 218.262C146.764 218.775 147.385 219.046 147.85 218.571ZM148.173 223.23C148.172 223.187 148.165 223.143 148.172 223.101C148.202 222.91 148.077 222.825 147.934 222.763C147.771 222.693 147.63 222.753 147.512 222.872C147.403 222.981 147.362 223.098 147.426 223.26C147.493 223.428 147.608 223.516 147.773 223.529C147.964 223.544 148.087 223.428 148.173 223.23Z" fill="#FC5C67"/>
<path d="M139.704 218.844C139.776 218.842 139.848 218.837 139.92 218.837C140.416 218.836 140.408 218.839 140.566 219.299C140.802 219.99 141.051 220.676 141.293 221.365C141.362 221.562 141.424 221.763 141.528 221.955C141.528 220.925 141.528 219.894 141.528 218.851C141.788 218.851 142.031 218.851 142.291 218.851C142.291 220.558 142.291 222.27 142.291 223.997C142.067 223.997 141.84 223.997 141.601 223.997C141.242 223.025 140.88 222.044 140.518 221.063C140.507 221.065 140.496 221.067 140.485 221.069C140.485 222.041 140.485 223.013 140.485 224.01C140.224 224.01 139.98 224.01 139.719 223.987C139.701 222.256 139.702 220.55 139.704 218.844Z" fill="#278FD9"/>
<path d="M166.549 217.621C166.549 217.485 166.549 217.371 166.549 217.242C167.856 217.242 169.146 217.242 170.447 217.242C170.447 217.58 170.447 217.91 170.447 218.256C169.98 218.256 169.514 218.256 169.033 218.256C169.033 220.041 169.033 221.834 169.033 223.646C168.682 223.646 168.347 223.646 167.993 223.646C167.993 221.856 167.993 220.063 167.993 218.262C167.51 218.262 167.046 218.262 166.549 218.262C166.549 218.056 166.549 217.85 166.549 217.621Z" fill="#278FD9"/>
<path d="M150.604 223.442C150.604 221.191 150.604 218.939 150.604 216.666C146.503 216.666 142.424 216.666 138.329 216.666C138.329 216.541 138.329 216.438 138.329 216.314C138.402 216.314 138.473 216.314 138.544 216.314C142.569 216.314 146.593 216.314 150.618 216.315C150.939 216.315 150.954 216.331 150.954 216.663C150.955 218.91 150.955 221.157 150.941 223.43C150.819 223.452 150.712 223.447 150.604 223.442Z" fill="#F85762"/>
<path d="M147.454 220.838C147.435 220.443 147.58 220.128 147.957 219.982C148.391 219.815 148.71 219.992 148.905 220.373C149.108 220.77 148.916 221.209 148.509 221.384C148.121 221.551 147.724 221.398 147.543 221.01C147.519 220.959 147.5 220.905 147.465 220.843C147.45 220.833 147.452 220.837 147.454 220.838ZM148.079 221.225C148.143 221.229 148.208 221.241 148.272 221.236C148.565 221.212 148.806 220.901 148.76 220.612C148.715 220.33 148.404 220.103 148.13 220.153C147.915 220.192 147.707 220.405 147.677 220.616C147.644 220.851 147.788 221.078 148.079 221.225Z" fill="#FC5C67"/>
<path d="M150.588 223.444C150.712 223.447 150.819 223.452 150.942 223.45C151.007 223.447 151.056 223.451 151.152 223.458C151.028 223.702 150.917 223.922 150.79 224.173C150.666 223.952 150.555 223.765 150.455 223.572C150.389 223.445 150.488 223.448 150.588 223.444Z" fill="#F5535C"/>
<path d="M139.689 218.853C139.703 220.55 139.702 222.256 139.699 223.982C139.685 223.948 139.662 223.895 139.662 223.842C139.66 222.217 139.66 220.593 139.661 218.969C139.661 218.933 139.668 218.897 139.689 218.853Z" fill="#278FD9"/>
</g>
</g>
<defs>
<clipPath id="clip0_2130_5106">
<rect width="402.754" height="236.7" fill="white" transform="translate(52 12)"/>
</clipPath>
<clipPath id="clip1_2130_5106">
<rect width="51.7406" height="8.44745" fill="white" transform="translate(137.571 216.309)"/>
</clipPath>
</defs>
</svg>
