<svg width="123" height="123" viewBox="0 0 123 123" fill="none" xmlns="http://www.w3.org/2000/svg">
<path d="M103.55 77.9606V33.8916C103.55 32.523 102.431 31.5774 101.062 31.5774H91.4321C90.0635 31.5774 88.869 32.523 88.869 33.8916V73.6557C87.2765 73.7055 85.6839 73.9045 84.1412 74.2778V46.8809C84.1412 45.5122 82.9716 44.5169 81.603 44.5169H71.973C70.6044 44.5169 69.4598 45.4874 69.4598 46.8809V84.0322C66.4986 88.1878 64.9061 93.1894 64.931 98.3154C64.931 111.952 75.9793 123 89.5907 123C103.227 123 114.275 111.952 114.275 98.3403C114.275 90.1784 110.269 82.564 103.55 77.9606ZM93.8458 36.5541H98.5737V75.3229C97.0558 74.7257 95.4632 74.2778 93.8458 74.0289V36.5541ZM74.4365 49.4936H79.1644V75.9948C77.4972 76.7661 75.9047 77.7117 74.4365 78.8315V49.4936ZM106.561 108.344C103.003 114.34 96.5581 117.998 89.6156 117.998C78.7414 117.998 69.9326 109.165 69.9326 98.3154C69.9326 90.3526 74.7351 83.1613 82.1007 80.1254C82.3993 80.0757 82.673 79.9513 82.9219 79.802C85.0618 79.0057 87.3511 78.6075 89.6404 78.6075C90.163 78.6075 90.6607 78.6324 91.1832 78.6822H91.2081C94.1942 78.9061 97.1055 79.8268 99.6686 81.3696C109.025 86.9187 112.11 98.9873 106.561 108.344Z" fill="white"/>
<path d="M97.006 90.751H94.9158C94.7665 90.328 94.5923 89.9049 94.3684 89.5068H96.9811C98.3995 89.5566 99.4944 88.4368 99.4944 87.0682C99.4944 85.6996 98.3746 84.5798 97.006 84.5798H82.2002C80.8316 84.5798 79.7119 85.6996 79.7119 87.0682C79.7119 88.4368 80.8316 89.5566 82.2002 89.5566H86.4305C87.5502 89.5566 88.6202 90.0045 89.3916 90.8008H82.1754C80.8068 90.8008 79.687 91.9205 79.687 93.2891C79.687 94.6577 80.8068 95.7775 82.1754 95.7775H89.3667C89.2921 96.0263 89.2174 96.0014 89.1428 96.0761C88.4212 96.8226 87.4258 97.2456 86.4056 97.2705H82.1754C80.8316 97.2456 79.7119 98.2907 79.687 99.6345C79.6621 100.331 79.9607 101.003 80.4584 101.476L91.0588 111.479C92.0542 112.425 93.6467 112.375 94.5923 111.38C95.5379 110.384 95.4881 108.792 94.4928 107.846L88.247 101.924C89.9391 101.575 91.457 100.729 92.6763 99.51C93.7463 98.4649 94.5177 97.171 94.9158 95.7277H97.006C98.3746 95.7277 99.4944 94.608 99.4944 93.2394C99.4944 91.8708 98.3746 90.751 97.006 90.751Z" fill="white"/>
<path d="M42.5856 64.4241H32.8809C31.5123 64.4241 30.3926 65.5438 30.3926 66.9124V105.98C30.3926 107.348 31.5123 108.468 32.8809 108.468H42.5856C43.9542 108.468 45.0739 107.348 45.0739 105.98V66.9124C45.0739 65.5438 43.9542 64.4241 42.5856 64.4241ZM40.0972 103.74H35.3693V69.4008H40.0972V103.74Z" fill="white"/>
<path d="M62.2428 58.7004H52.5382C51.1696 58.7004 50.0498 59.8202 50.0498 61.1888V106.228C50.0498 107.597 51.1696 108.717 52.5382 108.717H62.2428C63.6114 108.717 64.7312 107.597 64.7312 106.228V61.1888C64.7312 59.8202 63.6114 58.7004 62.2428 58.7004ZM59.7544 103.74H55.0265V63.6772H59.7544V103.74Z" fill="white"/>
<path d="M22.9269 85.8237H13.2223C11.8537 85.8237 10.7339 86.9435 10.7339 88.3121V105.98C10.7339 107.348 11.8537 108.468 13.2223 108.468H22.9269C24.2955 108.468 25.4153 107.348 25.4153 105.98V88.3121C25.4153 86.9435 24.2955 85.8237 22.9269 85.8237ZM20.4385 103.74H15.7106V90.8005H20.4385V103.74Z" fill="white"/>
<path d="M103.177 0L86.157 0.0248837C84.7884 0 83.6686 1.11977 83.6437 2.48837C83.6189 3.85697 84.7386 4.97674 86.1072 5.00162C86.1321 5.00162 86.1321 5.00162 86.157 5.00162L97.1805 4.97674L70.1817 31.876L60.7508 22.5197C60.278 22.0718 59.631 21.8479 58.984 21.8728C58.337 21.8479 57.6901 22.0718 57.2173 22.5197L9.44062 70.2964C8.47016 71.2668 8.49504 72.8345 9.46551 73.805C10.436 74.7506 12.0036 74.7506 12.9741 73.7801L59.0089 27.7453L68.4398 37.2509C68.8877 37.7485 69.5347 38.0223 70.2066 38.0471C70.8784 38.0223 71.5005 37.7237 71.9733 37.2509L100.689 8.51022L100.664 19.5835C100.664 20.9769 101.759 22.0967 103.153 22.1465C104.546 22.1216 105.641 20.9769 105.641 19.5835L105.666 2.51325C105.666 1.14465 104.546 0 103.177 0Z" fill="white"/>
</svg>
