<svg width="117" height="117" viewBox="0 0 117 117" fill="none" xmlns="http://www.w3.org/2000/svg">
<g clip-path="url(#clip0_2044_1188)">
<path d="M75.4192 79.5142C74.9674 79.5142 74.5342 79.6936 74.2147 80.0131C73.8953 80.3325 73.7158 80.7658 73.7158 81.2175V83.7816C73.7158 84.2334 73.8953 84.6666 74.2147 84.9861C74.5342 85.3055 74.9674 85.485 75.4192 85.485C75.8709 85.485 76.3042 85.3055 76.6236 84.9861C76.9431 84.6666 77.1225 84.2334 77.1225 83.7816V81.2175C77.1225 80.7658 76.9431 80.3325 76.6236 80.0131C76.3042 79.6936 75.8709 79.5142 75.4192 79.5142Z" fill="white"/>
<path d="M13.6255 52.4631H18.622C19.0737 52.4631 19.507 52.2836 19.8264 51.9642C20.1459 51.6447 20.3253 51.2115 20.3253 50.7597C20.3253 50.308 20.1459 49.8747 19.8264 49.5553C19.507 49.2359 19.0737 49.0564 18.622 49.0564H13.6255C11.0546 49.0564 8.96287 51.2049 8.96287 53.8439V53.9961C8.96287 56.6374 11.0546 58.7836 13.6255 58.7836H15.6559C16.0008 58.8149 16.3215 58.9741 16.5551 59.2298C16.7886 59.4855 16.9181 59.8193 16.9181 60.1656C16.9181 60.5119 16.7886 60.8457 16.5551 61.1015C16.3215 61.3572 16.0008 61.5163 15.6559 61.5476H10.6594C10.2076 61.5476 9.77439 61.727 9.45495 62.0465C9.13551 62.3659 8.95605 62.7992 8.95605 63.2509C8.95605 63.7027 9.13551 64.1359 9.45495 64.4554C9.77439 64.7748 10.2076 64.9543 10.6594 64.9543H15.6559C18.2268 64.9543 20.3185 62.8058 20.3185 60.1668C20.3185 57.5277 18.2268 55.3769 15.6559 55.3769H13.6255C13.2762 55.3593 12.9481 55.2042 12.7128 54.9455C12.4775 54.6868 12.3541 54.3455 12.3696 53.9961V53.8439C12.3541 53.4946 12.4775 53.1533 12.7128 52.8946C12.9481 52.6359 13.2762 52.4807 13.6255 52.4631V52.4631Z" fill="white"/>
<path d="M43.7617 61.5476H37.5161V50.7597C37.5161 50.308 37.3366 49.8747 37.0172 49.5553C36.6977 49.2359 36.2645 49.0564 35.8127 49.0564C35.361 49.0564 34.9277 49.2359 34.6083 49.5553C34.2888 49.8747 34.1094 50.308 34.1094 50.7597V63.2509C34.1094 63.7027 34.2888 64.1359 34.6083 64.4554C34.9277 64.7748 35.361 64.9543 35.8127 64.9543H43.7617C44.2134 64.9543 44.6467 64.7748 44.9661 64.4554C45.2855 64.1359 45.465 63.7027 45.465 63.2509C45.465 62.7992 45.2855 62.3659 44.9661 62.0465C44.6467 61.727 44.2134 61.5476 43.7617 61.5476Z" fill="white"/>
<path d="M56.3388 52.4631C56.7906 52.4631 57.2238 52.2836 57.5433 51.9642C57.8627 51.6447 58.0422 51.2115 58.0422 50.7597C58.0422 50.308 57.8627 49.8747 57.5433 49.5553C57.2238 49.2359 56.7906 49.0564 56.3388 49.0564H48.3899C47.9381 49.0564 47.5049 49.2359 47.1854 49.5553C46.866 49.8747 46.6865 50.308 46.6865 50.7597V63.2509C46.6865 63.7027 46.866 64.1359 47.1854 64.4554C47.5049 64.7748 47.9381 64.9543 48.3899 64.9543H56.3388C56.7906 64.9543 57.2238 64.7748 57.5433 64.4554C57.8627 64.1359 58.0422 63.7027 58.0422 63.2509C58.0422 62.7992 57.8627 62.3659 57.5433 62.0465C57.2238 61.727 56.7906 61.5476 56.3388 61.5476H50.0932V58.7087H56.3388C56.7906 58.7087 57.2238 58.5292 57.5433 58.2098C57.8627 57.8904 58.0422 57.4571 58.0422 57.0053C58.0422 56.5536 57.8627 56.1203 57.5433 55.8009C57.2238 55.4815 56.7906 55.302 56.3388 55.302H50.0932V52.4631H56.3388Z" fill="white"/>
<path d="M28.8117 50.1781C28.6923 49.8493 28.4746 49.5652 28.1882 49.3644C27.9017 49.1636 27.5604 49.0559 27.2105 49.0559C26.8607 49.0559 26.5194 49.1636 26.2329 49.3644C25.9464 49.5652 25.7287 49.8493 25.6094 50.1781L21.0671 62.6693C20.9908 62.8796 20.9566 63.1028 20.9665 63.3263C20.9764 63.5498 21.0303 63.7691 21.125 63.9718C21.2197 64.1745 21.3534 64.3565 21.5184 64.5075C21.6834 64.6585 21.8766 64.7755 22.0869 64.8519C22.2971 64.9282 22.5204 64.9624 22.7439 64.9525C22.9673 64.9426 23.1867 64.8887 23.3893 64.794C23.592 64.6993 23.774 64.5656 23.9251 64.4006C24.0761 64.2356 24.1931 64.0424 24.2694 63.8321L24.9644 61.9244H29.459L30.1403 63.8321C30.2166 64.0424 30.3337 64.2356 30.4847 64.4006C30.6357 64.5656 30.8177 64.6993 31.0204 64.794C31.223 64.8887 31.4424 64.9426 31.6659 64.9525C31.8893 64.9624 32.1126 64.9282 32.3228 64.8519C32.5331 64.7755 32.7263 64.6585 32.8913 64.5075C33.0564 64.3565 33.19 64.1745 33.2847 63.9718C33.3794 63.7691 33.4333 63.5498 33.4432 63.3263C33.4531 63.1028 33.4189 62.8796 33.3426 62.6693L28.8117 50.1781ZM26.2022 58.5177L27.2105 55.7446L28.2189 58.5177H26.2022Z" fill="white"/>
<path d="M114.578 96.1823H104.901V50.7598L109.189 53.2194C109.449 53.3684 109.743 53.4462 110.043 53.445C110.343 53.4438 110.637 53.3636 110.895 53.2125C111.154 53.0614 111.368 52.8447 111.516 52.5843C111.665 52.324 111.742 52.0291 111.739 51.7296V41.9274C111.739 41.6274 111.66 41.3328 111.51 41.0732C111.359 40.8136 111.143 40.5983 110.883 40.4489L69.8576 16.9177C69.5992 16.7704 69.3068 16.6929 69.0093 16.6929C68.7118 16.6929 68.4195 16.7704 68.1611 16.9177L32.9154 37.1308H5.11004C3.75475 37.132 2.45534 37.671 1.49722 38.6296C0.539099 39.5881 0.000601282 40.8878 0 42.2431V71.7677C0.00120275 73.1226 0.539966 74.4217 1.49802 75.3797C2.45608 76.3378 3.75514 76.8766 5.11004 76.8778H27.2535V96.1823H1.70335C1.25159 96.1823 0.818337 96.3618 0.498898 96.6812C0.179459 97.0007 0 97.4339 0 97.8857C0 98.3374 0.179459 98.7707 0.498898 99.0901C0.818337 99.4096 1.25159 99.589 1.70335 99.589H114.578C115.03 99.589 115.463 99.4096 115.783 99.0901C116.102 98.7707 116.282 98.3374 116.282 97.8857C116.282 97.4339 116.102 97.0007 115.783 96.6812C115.463 96.3618 115.03 96.1823 114.578 96.1823ZM101.494 96.1823H82.2511V67.1119C82.2511 66.6602 82.0717 66.2269 81.7522 65.9075C81.4328 65.588 80.9995 65.4086 80.5478 65.4086H66.9982V42.2431C66.997 40.8882 66.4583 39.5891 65.5002 38.6311C64.5422 37.673 63.2431 37.1342 61.8882 37.133H56.8577L69.0105 30.1629L101.488 48.7862L101.494 96.1823ZM55.7675 76.8778V96.1823H39.7447V76.8778H55.7675ZM59.1742 76.8778H61.8882C63.2431 76.8766 64.5422 76.3378 65.5002 75.3797C66.4583 74.4217 66.997 73.1226 66.9982 71.7677V68.8153H78.8444V96.1823H59.1742V76.8778ZM69.0105 20.3608L108.333 42.9244V48.8021L69.8576 26.7222C69.5992 26.5748 69.3068 26.4973 69.0093 26.4973C68.7118 26.4973 68.4195 26.5748 68.1611 26.7222L50.0102 37.133H39.7629L69.0105 20.3608ZM3.40669 71.7677V42.2431C3.40669 41.7913 3.58615 41.3581 3.90559 41.0386C4.22503 40.7192 4.65828 40.5397 5.11004 40.5397H61.8882C62.34 40.5397 62.7732 40.7192 63.0927 41.0386C63.4121 41.3581 63.5916 41.7913 63.5916 42.2431V71.7677C63.5916 72.2195 63.4121 72.6527 63.0927 72.9722C62.7732 73.2916 62.34 73.4711 61.8882 73.4711H5.11004C4.65828 73.4711 4.22503 73.2916 3.90559 72.9722C3.58615 72.6527 3.40669 72.2195 3.40669 71.7677ZM30.6602 76.8778H36.338V96.1823H30.6602V76.8778Z" fill="white"/>
</g>
<defs>
<clipPath id="clip0_2044_1188">
<rect width="116.282" height="116.282" fill="white"/>
</clipPath>
</defs>
</svg>
