<svg width="507" height="261" viewBox="0 0 507 261" fill="none" xmlns="http://www.w3.org/2000/svg">
<rect width="506.599" height="261" fill="#ECF7FF"/>
<g clip-path="url(#clip0_2130_5105)">
<g opacity="0.37">
<path d="M413.115 227C418.383 222.116 419.156 213.134 414.806 207.419C411.671 203.304 406.518 201.038 403.581 196.786C398.719 189.751 401.483 180.235 404.084 172.087C407.498 161.396 410.351 149.901 407.436 139.064C402.194 119.554 381.165 109.707 366.359 95.9641C354.484 84.9417 346.111 70.5897 334.325 59.4791C310.562 37.0811 274.431 30.4969 242.812 38.6488C229.374 42.1109 216.638 47.9621 203.187 51.3757C192.081 54.1975 180.547 55.3324 169.105 54.7274C156.117 54.043 141.514 51.5921 131.432 59.8103C121.752 67.7017 120.785 82.4423 124.379 94.4008C127.974 106.359 135.15 116.944 139.341 128.709C140.864 132.983 141.907 138.013 139.464 141.837C135.918 147.393 127.881 146.841 121.421 148.121C106.618 151.062 97.0753 166.655 96.0287 181.71C94.9865 196.764 100.476 211.42 105.872 225.512L413.115 227Z" fill="white"/>
</g>
<path d="M343.245 70.5764C343.757 70.6206 344.27 70.6692 344.782 70.7221" stroke="white" stroke-width="1.3248" stroke-miterlimit="10"/>
<path d="M347.819 71.1328C356.117 72.4576 364.145 75.4914 371.237 80.0046C380.047 85.6129 387.466 93.6103 391.608 103.197C395.755 112.785 396.457 123.975 392.748 133.738C390.919 138.547 388.076 142.941 384.609 146.744C382.525 149.027 380.206 151.111 377.645 152.842C371.679 156.878 364.56 158.91 357.433 159.956C347.612 161.396 337.534 161.065 327.828 158.994" stroke="white" stroke-width="1.3248" stroke-miterlimit="10" stroke-dasharray="3.06 3.06"/>
<path d="M326.332 158.654C325.828 158.539 325.329 158.415 324.83 158.287" stroke="white" stroke-width="1.3248" stroke-miterlimit="10"/>
<path d="M285.289 79.5453C285.24 79.0331 285.187 78.5208 285.13 78.0085" stroke="white" stroke-width="1.3248" stroke-miterlimit="10"/>
<path d="M284.79 74.9616C283.165 61.3913 279.963 47.472 270.252 38.1057C263.589 31.676 254.182 28.1299 244.94 28.757C235.701 29.3841 226.79 34.2284 221.398 41.7577C215.693 49.7242 213.961 60.1592 207.602 67.6178C202.74 73.3189 195.547 76.7059 188.163 77.9777C180.78 79.2496 173.18 78.5474 165.823 77.1211C159.389 75.8713 153.03 74.0696 146.489 73.6103C139.949 73.1511 133.029 74.1756 127.757 78.0661C124.736 80.2917 122.396 83.3609 120.687 86.7038C113.877 100.031 118.174 118.018 130.274 126.823C136.452 131.319 144.008 133.434 151.44 135.191C156.827 136.468 162.25 137.607 167.695 138.601" stroke="white" stroke-width="1.3248" stroke-miterlimit="10" stroke-dasharray="3.07 3.07"/>
<path d="M169.205 138.87C169.713 138.958 170.221 139.051 170.729 139.139" stroke="white" stroke-width="1.3248" stroke-miterlimit="10"/>
<path d="M419.2 213.836H88V240.8H419.2V213.836Z" fill="#8DADB2"/>
<g opacity="0.25">
<path d="M138.634 228.541H104.984V231.067H138.634V228.541Z" fill="white"/>
<path d="M191.352 228.541H157.702V231.067H191.352V228.541Z" fill="white"/>
<path d="M244.066 228.541H210.416V231.067H244.066V228.541Z" fill="white"/>
<path d="M296.785 228.541H263.135V231.067H296.785V228.541Z" fill="white"/>
<path d="M402.216 228.541H368.566V231.067H402.216V228.541Z" fill="white"/>
<path d="M349.502 228.541H315.853V231.067H349.502V228.541Z" fill="white"/>
</g>
<path d="M401.275 186.845L378.554 164.62L355.834 186.845V217.077H401.275V186.845Z" fill="#FFCE76"/>
<path opacity="0.08" d="M401.275 189.429V186.845L378.554 164.62L355.834 186.845V189.429L378.554 167.137L401.275 189.429Z" fill="#1D1D1B"/>
<path d="M396.699 195.271H390.543V203.71H396.699V195.271Z" fill="#9AD9E8"/>
<path d="M389.727 194.458V204.527H397.512V194.458H389.727ZM396.699 203.714H390.544V195.275H396.699V203.714Z" fill="white"/>
<path opacity="0.3" d="M396.7 195.271V196.587L390.544 201.321V199.016L395.406 195.271H396.7Z" fill="#F1F1F1"/>
<path opacity="0.3" d="M396.7 198.415V201.158L393.37 203.714H390.544V203.145L396.7 198.415Z" fill="#F1F1F1"/>
<path d="M366.966 195.271H360.811V203.71H366.966V195.271Z" fill="#9AD9E8"/>
<path d="M359.994 194.458V204.527H367.78V194.458H359.994ZM366.967 203.714H360.811V195.275H366.967V203.714Z" fill="white"/>
<path opacity="0.3" d="M366.966 195.271V196.587L360.811 201.321V199.016L365.673 195.271H366.966Z" fill="#F1F1F1"/>
<path opacity="0.3" d="M366.966 198.415V201.158L363.637 203.714H360.811V203.145L366.966 198.415Z" fill="#F1F1F1"/>
<path d="M384.08 192.961H373.026V217.077H384.08V192.961Z" fill="#C98A5F"/>
<path d="M372.403 192.423V217.62H373.653V216.538V193.505H383.457V216.538H383.448V217.62H384.706V192.423H372.403Z" fill="white"/>
<path d="M382.613 205.388C382.613 205.684 382.335 205.922 381.995 205.922C381.655 205.922 381.377 205.684 381.377 205.388C381.377 205.092 381.655 204.854 381.995 204.854C382.335 204.854 382.613 205.092 382.613 205.388Z" fill="#754C24"/>
<path d="M378.555 159.307L352.421 185.441C351.736 186.126 352.222 187.291 353.185 187.291H355.759L378.555 165.154L401.346 187.291H403.92C404.887 187.291 405.369 186.126 404.684 185.441L378.555 159.307Z" fill="#FFA457"/>
<path d="M402.075 217.077H355V219.206H402.075V217.077Z" fill="#FFA457"/>
<path d="M150.341 150.387H106.375V216.94H150.341V150.387Z" fill="#FFA457"/>
<path opacity="0.08" d="M150.341 150.387H106.375V153.178H150.341V150.387Z" fill="#1D1D1B"/>
<path d="M143.116 194.061H131.528V216.914H143.116V194.061Z" fill="#C98A5F"/>
<path d="M143.769 193.553V217.426H142.458V216.406V194.573H132.182V216.406H132.191V217.426H130.87V193.553H143.769Z" fill="white"/>
<path d="M132.999 205.755C132.999 206.081 133.264 206.346 133.595 206.346C133.922 206.346 134.191 206.081 134.191 205.755C134.191 205.428 133.926 205.163 133.595 205.163C133.264 205.163 132.999 205.428 132.999 205.755Z" fill="#1D1D1B"/>
<path d="M123.801 156.635H114.293V169.676H123.801V156.635Z" fill="#9AD9E8"/>
<path d="M113.03 155.373V170.935H125.064V155.373H113.03ZM114.289 156.631H123.801V169.672H114.289V156.631Z" fill="white"/>
<path opacity="0.3" d="M123.801 162.293V164.752L114.293 159.864V157.713L123.801 162.293Z" fill="#F1F1F1"/>
<path opacity="0.3" d="M123.801 166.589V169.676H122.052L114.293 165.715V161.445L123.801 166.589Z" fill="#F1F1F1"/>
<path d="M142.511 156.635H132.999V169.676H142.511V156.635Z" fill="#9AD9E8"/>
<path d="M131.736 155.373V170.935H143.77V155.373H131.736ZM132.999 156.631H142.511V169.672H132.999V156.631Z" fill="white"/>
<path opacity="0.3" d="M142.511 162.293V164.757L132.999 159.864V157.713L142.511 162.293Z" fill="#F1F1F1"/>
<path opacity="0.3" d="M142.511 166.589V169.676H140.758L132.999 165.71V161.445L142.511 166.589Z" fill="#F1F1F1"/>
<path d="M123.801 176.22H114.293V189.261H123.801V176.22Z" fill="#9AD9E8"/>
<path d="M113.03 174.958V190.52H125.064V174.958H113.03ZM114.293 176.216H123.805V189.257H114.293V176.216Z" fill="white"/>
<path opacity="0.3" d="M123.801 181.877V184.337L114.293 179.449V177.298L123.801 181.877Z" fill="#F1F1F1"/>
<path opacity="0.3" d="M123.801 186.174V189.261H122.052L114.293 185.3V181.03L123.801 186.174Z" fill="#F1F1F1"/>
<path d="M142.511 176.22H132.999V189.261H142.511V176.22Z" fill="#9AD9E8"/>
<path d="M131.736 174.958V190.52H143.77V174.958H131.736ZM132.999 176.216H142.511V189.257H132.999V176.216Z" fill="white"/>
<path opacity="0.3" d="M142.511 181.877V184.342L132.999 179.449V177.298L142.511 181.877Z" fill="#F1F1F1"/>
<path opacity="0.3" d="M142.511 186.174V189.261H140.758L132.999 185.295V181.03L142.511 186.174Z" fill="#F1F1F1"/>
<path d="M123.801 195.805H114.293V208.846H123.801V195.805Z" fill="#9AD9E8"/>
<path d="M113.03 194.542V210.104H125.064V194.542H113.03ZM114.293 195.801H123.805V208.841H114.293V195.801Z" fill="white"/>
<path opacity="0.3" d="M123.801 201.462V203.922L114.293 199.034V196.883L123.801 201.462Z" fill="#F1F1F1"/>
<path opacity="0.3" d="M123.801 205.759V208.846H122.052L114.293 204.885V200.615L123.801 205.759Z" fill="#F1F1F1"/>
<path d="M152.173 147.856H104.666V151.522H152.173V147.856Z" fill="#C98A5F"/>
<path d="M151.45 216.918H105.391V218.936H151.45V216.918Z" fill="#C98A5F"/>
<path d="M412.315 210.378C412.019 211.791 410.734 212.78 409.339 212.67C408.473 212.599 407.727 212.052 406.967 211.646C406.292 211.279 405.629 212.034 405.011 212.317C404.839 212.392 404.658 212.467 404.477 212.52C403.96 212.688 403.426 212.754 402.874 212.67C401.628 212.467 400.719 211.522 400.507 210.237C400.206 208.426 401.469 206.152 403.43 206.152C399.049 206.152 398.029 199.373 402.958 198.848C399.544 194.785 403.85 190.413 405.673 188.841H405.678C406.124 188.462 406.42 188.25 406.42 188.25L406.424 188.245C406.424 188.245 414.139 193.774 409.886 198.835C414.823 199.365 413.794 206.139 409.418 206.139C411.41 206.426 412.757 208.32 412.315 210.378Z" fill="#71E28F"/>
<path d="M407.289 219.21H405.85L406.212 192.957H406.932L407.289 219.21Z" fill="#BF7D60"/>
<path d="M107.792 202.672C107.792 204.911 106.061 206.717 103.928 206.717H103.862C102.758 206.7 101.769 206.192 101.076 205.393C100.55 205.658 99.9628 205.812 99.3357 205.812C97.1144 205.812 95.3127 203.926 95.3127 201.599C95.3127 200.054 96.1032 198.711 97.2823 197.974C96.0149 197.196 95.167 195.788 95.167 194.176C95.167 191.725 97.1277 189.729 99.5477 189.729C99.5609 189.729 99.5742 189.733 99.5874 189.733C99.5609 189.504 99.5477 189.274 99.5477 189.036C99.5477 186.66 100.771 184.73 102.299 184.664C102.325 184.659 102.356 184.659 102.378 184.659C103.942 184.659 105.209 186.616 105.209 189.036C105.209 189.914 105.037 190.731 104.75 191.42C106.98 191.478 108.777 193.39 108.777 195.744C108.777 197.444 107.836 198.919 106.468 199.625C107.28 200.372 107.792 201.458 107.792 202.672Z" fill="#71E28F"/>
<path d="M102.824 218.936H101.062L101.65 195.779H102.303L102.824 218.936Z" fill="#BF7D60"/>
<path d="M354.703 211.35H152.742C148.441 211.35 144.952 207.861 144.952 203.56V67.9358C144.952 63.6346 148.441 60.146 152.742 60.146H354.703C359.005 60.146 362.493 63.6346 362.493 67.9358V203.56C362.493 207.861 359.005 211.35 354.703 211.35Z" fill="#468CB2"/>
<path d="M354.853 68.5144H152.592V202.986H354.853V68.5144Z" fill="#E5E8EA"/>
<path d="M208.331 140.071L236.408 168.956L261.818 146.885L233.467 114.794L208.331 140.071Z" fill="#E8A87E"/>
<path d="M354.854 188.356V202.986H323.491L289.93 174.052L313.838 149.424L354.854 188.356Z" fill="#E8A87E"/>
<path d="M354.854 148.691V187.287L313.838 149.424L333.092 130.073L354.854 148.691Z" fill="#E8A87E"/>
<path d="M354.853 68.5144V84.359L322.793 115.704L277.449 70.718L279.75 68.5144H354.853Z" fill="#E8A87E"/>
<path d="M219.494 68.5144L211.082 83.5376L196.381 105.203L171.819 97.4878L168.542 93.9947L158.023 80.9543L169.063 68.5144H219.494Z" fill="#E8A87E"/>
<path d="M244.458 178.389L243.155 181.149L221.344 202.986H152.592V151.072L186.573 119.086L233.466 166.642L244.458 178.389Z" fill="#71E28F"/>
<path d="M336.346 65.4011H311.572C310.95 65.4011 310.446 64.8977 310.446 64.275C310.446 63.6524 310.95 63.1489 311.572 63.1489H336.346C336.969 63.1489 337.472 63.6524 337.472 64.275C337.472 64.8977 336.969 65.4011 336.346 65.4011Z" fill="#1D1D1B"/>
<path d="M196.597 65.4011H171.823C171.201 65.4011 170.697 64.8977 170.697 64.275C170.697 63.6524 171.201 63.1489 171.823 63.1489H196.597C197.22 63.1489 197.723 63.6524 197.723 64.275C197.723 64.8977 197.22 65.4011 196.597 65.4011Z" fill="#1D1D1B"/>
<path d="M212.539 202.986H152.592V187.72C155.966 184.072 158.792 179.837 162.488 176.494C166.785 172.599 172.265 169.994 178.019 169.261C183.773 168.528 189.779 169.707 194.751 172.688C196.787 173.907 198.735 175.54 199.49 177.784C200.033 179.404 199.905 181.197 200.466 182.814C201.773 186.572 206.149 188.082 209.271 190.542C211.475 192.273 213.197 194.728 213.608 197.501C213.881 199.387 213.458 201.321 212.539 202.986Z" fill="#9AD9E8"/>
<path d="M354.853 144.271V153.982L333.445 132.67L330.111 129.345L322.793 122.063L318.214 117.501L310.177 109.508L305.646 104.995L276.942 76.4146L274.27 73.7562L269.002 68.5144H279.455L279.596 68.6601L282.219 71.2877L323.076 112.343L327.655 116.945L335.145 124.47L338.404 127.737L354.853 144.271Z" fill="white"/>
<path d="M285.072 68.5144C284.14 69.4241 283.182 70.3515 282.214 71.2921C280.501 72.9569 278.739 74.6703 276.937 76.419C271.788 81.4047 266.33 86.6686 260.828 91.9634C260.002 92.7582 259.176 93.5531 258.346 94.3436C250.971 101.436 243.588 108.506 236.862 114.94C235.904 115.854 234.963 116.755 234.036 117.638C223.058 128.135 214.173 136.583 210.468 140.107C209.262 141.255 208.604 141.877 208.604 141.877L206.162 138.897L207.765 137.364L226.356 119.581L229.006 117.042L274.261 73.7606L279.587 68.6645L279.737 68.5188H285.072V68.5144Z" fill="white"/>
<path d="M245.146 182.491L224.948 202.982H218.655L240.788 180.416C241.892 179.294 241.874 177.493 240.757 176.384L186.347 122.478L184.303 120.451L186.378 115.708L189.443 118.813L207.774 137.36L210.476 140.102L235.219 165.145L239.026 168.996L245.142 175.192C247.138 177.214 247.142 180.469 245.146 182.491Z" fill="white"/>
<path d="M180.797 124.09L178.62 126.863L176.756 125.004L152.592 100.91V96.1587L179.075 122.39L180.797 124.09Z" fill="white"/>
<path d="M156.059 83.5377L169.033 96.7195C170.124 97.8279 171.457 98.6802 172.923 99.2013L194.858 107.035L197.724 103.582L174.553 95.7479C173.656 95.4432 172.844 94.9354 172.177 94.2642L158.978 80.9543L156.059 83.5377Z" fill="white"/>
<path d="M173.948 68.5144L160.108 82.098L157.326 84.8271L152.592 89.4727V82.7428L167.041 68.5144H173.948Z" fill="#FFCE76"/>
<path d="M237.923 169.915L311.93 108.042L307.346 103.547L233.467 166.642L237.923 169.915Z" fill="white"/>
<path d="M232.287 115.704C232.835 116.454 261.565 146.956 261.565 146.956L264.754 144.094L235.202 113.182L232.287 115.704Z" fill="white"/>
<path d="M256.757 92.6523L287.201 124.818L289.93 122.094L259.38 90.4531L256.757 92.6523Z" fill="white"/>
<path d="M354.853 105.556V111.389L338.403 127.737L333.444 132.67L316.509 149.495L314.018 151.968L293.007 172.856L290.017 175.823L262.691 202.986H255.731L330.11 129.345L331.537 127.927L335.144 124.47L354.853 105.556Z" fill="white"/>
<path d="M325.028 202.986H319.689L290.018 175.823L288.561 174.485L291.144 171.103L293.007 172.856L325.028 202.986Z" fill="white"/>
<path d="M354.853 185.821V191.301C346.255 182.911 321.411 158.698 314.018 151.968C312.764 150.824 312.018 150.188 311.93 150.21L313.829 146.956L316.509 149.495L354.853 185.821Z" fill="white"/>
<path d="M203.513 98.4946L227.858 120.95L229.916 117.863L205.226 95.2356L203.513 98.4946Z" fill="white"/>
<path d="M354.854 78.574V88.3201L327.656 116.945L322.794 122.063L245.893 202.986H237.772L318.214 117.501L323.076 112.343L354.854 78.574Z" fill="#FFCE76"/>
<path d="M223.968 68.5144C218.721 78.3047 212.804 87.6798 206.595 96.4942C205.911 97.4745 205.213 98.4461 204.515 99.4176V99.422C199.578 106.267 194.5 112.754 189.443 118.813C188.414 120.054 187.385 121.277 186.348 122.478C173.647 137.342 161.393 149.389 152.592 157.506V149.619C161.623 141.193 169.642 132.944 176.756 125.008C177.542 124.13 178.319 123.26 179.075 122.394C183.99 116.808 188.445 111.389 192.486 106.196C193.4 105.026 194.288 103.864 195.153 102.716C205.2 89.433 212.446 77.7218 217.516 68.5188H223.968V68.5144Z" fill="#FFCE76"/>
<path d="M370.5 220.897H136.947C134.399 220.897 132.332 218.831 132.332 216.283V215.96C132.332 213.412 134.399 211.345 136.947 211.345H370.496C373.044 211.345 375.11 213.412 375.11 215.96V216.283C375.11 218.831 373.048 220.897 370.5 220.897Z" fill="#468CB2"/>
<path opacity="0.55" d="M370.5 220.897H136.947C134.399 220.897 132.332 218.831 132.332 216.283V215.96C132.332 213.412 134.399 211.345 136.947 211.345H370.496C373.044 211.345 375.11 213.412 375.11 215.96V216.283C375.11 218.831 373.048 220.897 370.5 220.897Z" fill="#1D1D1B"/>
<path d="M239.067 104.081C246.247 104.081 251.383 111.027 249.272 117.894L240.422 142.045C239.959 143.304 238.179 143.304 237.715 142.045L228.866 117.894C226.755 111.032 231.886 104.081 239.067 104.081Z" fill="#FF6C54"/>
<path d="M244.194 114.905L239.071 109.782L233.949 114.905C233.816 115.037 233.909 115.267 234.099 115.267H234.602L234.616 115.253V120.76H237.866H237.99H238.113H240.034H240.158H240.281H243.532V115.253L243.545 115.267H244.048C244.229 115.267 244.327 115.037 244.194 114.905Z" fill="white"/>
<path d="M237.508 116.105H235.755V118.684H237.508V116.105Z" fill="#FF6C54"/>
<path d="M242.034 116.105H240.122V120.76H242.034V116.105Z" fill="#FF6C54"/>
<path d="M235.948 158.111C234.601 158.111 233.281 157.881 231.952 157.435C229.686 156.702 227.403 155.355 225.036 153.606C220.806 150.467 216.218 146.081 211.912 141.665C210.773 140.486 209.66 139.303 208.596 138.124C207.991 137.457 207.403 136.795 206.842 136.137C206.109 135.289 205.425 134.45 204.771 133.619C202.833 131.12 201.283 128.718 200.364 126.342C199.746 124.761 199.415 123.189 199.419 121.586C199.388 116.662 202.683 111.84 207.284 106.519C208.485 105.136 209.775 103.741 211.113 102.341C219.662 93.7563 228.242 84.9728 235.953 85.0567C238.58 85.0523 241.133 85.9532 243.782 87.5032C245.571 88.5542 247.403 89.9011 249.271 91.4423C250.777 92.6743 252.305 94.0389 253.846 95.4741C255.714 97.2052 257.582 99.0466 259.406 100.906C263.698 105.322 267.682 109.738 270.08 113.849C271.404 116.119 272.243 118.322 272.429 120.566C272.464 120.901 272.477 121.241 272.477 121.581C272.517 126.973 268.516 132.317 263.208 138.221C261.928 139.634 260.585 141.052 259.199 142.46C258.991 142.672 258.779 142.889 258.563 143.101C250.623 150.89 243.049 158.186 235.948 158.111Z" fill="#E5E8EA"/>
<path d="M234.756 114.604C243.968 125.15 254.169 136.252 259.199 142.465C258.991 142.677 258.779 142.893 258.563 143.105C250.623 150.891 243.05 158.186 235.949 158.106C234.602 158.106 233.281 157.877 231.952 157.431C229.687 156.698 227.404 155.351 225.037 153.602C220.806 150.462 216.218 146.077 211.912 141.661C210.773 140.482 209.66 139.299 208.596 138.119C207.991 137.453 207.404 136.79 206.843 136.132C211.232 132.626 217.569 126.819 224.167 120.38C224.785 119.775 225.408 119.162 226.035 118.548C227.704 116.905 229.382 115.227 231.042 113.549C231.537 113.045 232.032 112.542 232.522 112.034C233.255 112.891 234.001 113.748 234.756 114.604Z" fill="#E8A87E"/>
<path d="M249.267 91.4468C250.773 92.6788 252.301 94.0434 253.842 95.4786C249.943 99.612 243.606 105.993 237.225 112.206L237.22 112.211C236.394 113.01 235.569 113.805 234.756 114.6C234.262 115.077 233.776 115.549 233.286 116.022C221.733 127.155 212.539 135.209 208.596 138.119C207.991 137.453 207.403 136.79 206.843 136.132C206.11 135.284 205.425 134.445 204.771 133.615C209.501 130.352 215.887 124.924 222.462 118.861C223.725 117.695 224.997 116.508 226.26 115.306C235.41 106.642 244.383 97.3201 249.267 91.4468Z" fill="white"/>
<path d="M237.22 112.215C246.684 122.297 257.238 132.776 263.208 138.225C261.928 139.638 260.585 141.056 259.199 142.465C258.991 142.677 258.779 142.893 258.563 143.105C253.661 137.634 238.695 121.944 233.286 116.026C232.155 114.794 231.378 113.937 231.042 113.553C230.954 113.447 230.892 113.377 230.87 113.346C232.239 112.14 233.59 110.939 234.924 109.747C235.675 110.564 236.443 111.389 237.22 112.215Z" fill="white"/>
<path d="M227.497 116.424C227.007 117.135 226.521 117.846 226.035 118.548C225.536 119.276 225.041 120.001 224.547 120.716C224.419 120.606 224.295 120.491 224.167 120.38C223.597 119.868 223.028 119.36 222.462 118.861C216.686 113.752 211.286 109.27 207.28 106.514C208.481 105.132 209.771 103.737 211.109 102.337C214.911 105.234 220.343 109.972 226.26 115.306C226.671 115.677 227.082 116.048 227.497 116.424Z" fill="white"/>
<path d="M239.764 97.0108C248.123 97.841 257.048 108.444 254.628 116.781C250.976 127.079 245.421 138.601 241.115 150.179C240.431 152.008 238.474 152.162 237.993 150.391C234.942 139.188 229.903 127.503 226.021 116.494C223.447 107.406 231.413 96.7105 239.764 97.0108Z" fill="#FF6C54"/>
<path d="M238.139 117.501C237.318 117.497 236.496 117.497 235.675 117.497C235.675 116.287 235.675 115.072 235.679 113.862C236.492 113.862 237.304 113.862 238.121 113.871C238.126 115.081 238.135 116.291 238.139 117.501Z" fill="#FF6C54"/>
<path d="M244.525 120.438C243.628 120.433 242.727 120.429 241.831 120.429C241.827 118.261 241.8 116.088 241.756 113.92C242.643 113.937 243.531 113.959 244.414 113.986C244.476 116.137 244.511 118.287 244.525 120.438Z" fill="#FF6C54"/>
<path d="M326.835 51.124C334.015 51.124 339.151 58.0704 337.04 64.9373L328.19 89.0884C327.727 90.3469 325.947 90.3469 325.483 89.0884L316.634 64.9373C314.518 58.0704 319.654 51.124 326.835 51.124Z" fill="#FF6C54"/>
<path d="M324.027 42.429L324.95 44.2969L327.007 44.5972L325.519 46.0501L325.868 48.0991L324.027 47.132L322.185 48.0991L322.539 46.0501L321.046 44.5972L323.108 44.2969L324.027 42.429Z" fill="#FF6C54"/>
<path d="M316.82 42.429L317.743 44.2969L319.8 44.5972L318.312 46.0501L318.661 48.0991L316.82 47.132L314.978 48.0991L315.331 46.0501L313.839 44.5972L315.901 44.2969L316.82 42.429Z" fill="#FF6C54"/>
<path d="M331.397 42.429L332.32 44.2969L334.378 44.5972L332.889 46.0501L333.238 48.0991L331.397 47.132L329.555 48.0991L329.909 46.0501L328.416 44.5972L330.478 44.2969L331.397 42.429Z" fill="#FF6C54"/>
<path opacity="0.58" d="M338.551 42.429L339.474 44.2969L341.531 44.5972L340.043 46.0501L340.396 48.0991L338.551 47.132L336.709 48.0991L337.062 46.0501L335.574 44.5972L337.632 44.2969L338.551 42.429Z" fill="#FF6C54"/>
<path d="M313.838 134.816C321.018 134.816 326.154 141.763 324.043 148.629L315.194 172.781C314.73 174.039 312.95 174.039 312.487 172.781L303.637 148.629C301.526 141.763 306.658 134.816 313.838 134.816Z" fill="#FF6C54"/>
<path d="M310.182 126.373L311.1 128.236L313.163 128.537L311.67 129.99L312.023 132.039L310.182 131.071L308.34 132.039L308.689 129.99L307.201 128.537L309.259 128.236L310.182 126.373Z" fill="#FF6C54"/>
<path d="M302.975 126.373L303.893 128.236L305.956 128.537L304.463 129.99L304.816 132.039L302.975 131.071L301.133 132.039L301.482 129.99L299.994 128.537L302.052 128.236L302.975 126.373Z" fill="#FF6C54"/>
<path d="M317.552 126.373L318.471 128.236L320.533 128.537L319.04 129.99L319.394 132.039L317.552 131.071L315.711 132.039L316.059 129.99L314.571 128.537L316.629 128.236L317.552 126.373Z" fill="#FF6C54"/>
<path d="M324.706 126.373L325.629 128.236L327.687 128.537L326.195 129.99L326.548 132.039L324.706 131.071L322.865 132.039L323.214 129.99L321.726 128.537L323.783 128.236L324.706 126.373Z" fill="#FF6C54"/>
<path d="M190.69 43.2681C197.871 43.2681 203.002 50.2144 200.895 57.0813L192.046 81.2324C191.582 82.491 189.803 82.491 189.339 81.2324L180.489 57.0813C178.374 50.2144 183.51 43.2681 190.69 43.2681Z" fill="#FF6C54"/>
<path d="M188.747 55.2927H186.994V57.8717H188.747V55.2927Z" fill="#FF6C54"/>
<path d="M194.254 55.2927H192.501V57.8717H194.254V55.2927Z" fill="#FF6C54"/>
<path d="M191.564 55.2927H189.652V59.9472H191.564V55.2927Z" fill="#FF6C54"/>
<path d="M187.029 35.1382L187.952 37.0017L190.009 37.302L188.521 38.7549L188.87 40.8083L187.029 39.8368L185.187 40.8083L185.54 38.7549L184.048 37.302L186.11 37.0017L187.029 35.1382Z" fill="#FF6C54"/>
<path d="M179.822 35.1382L180.745 37.0017L182.802 37.302L181.314 38.7549L181.663 40.8083L179.822 39.8368L177.98 40.8083L178.333 38.7549L176.841 37.302L178.903 37.0017L179.822 35.1382Z" fill="#FF6C54"/>
<path opacity="0.58" d="M194.399 35.1382L195.322 37.0017L197.38 37.302L195.891 38.7549L196.24 40.8083L194.399 39.8368L192.557 40.8083L192.911 38.7549L191.418 37.302L193.48 37.0017L194.399 35.1382Z" fill="#FF6C54"/>
<path opacity="0.58" d="M201.553 35.1382L202.476 37.0017L204.533 37.302L203.045 38.7549L203.398 40.8083L201.553 39.8368L199.711 40.8083L200.064 38.7549L198.576 37.302L200.634 37.0017L201.553 35.1382Z" fill="#FF6C54"/>
<path d="M108.234 119.161H104.317V137.333H108.234V119.161Z" fill="#71E28F"/>
<path d="M113.918 123.873H110.001V137.333H113.918V123.873Z" fill="#71E28F"/>
<path d="M102.754 128.771H98.8369V137.333H102.754V128.771Z" fill="#71E28F"/>
<path d="M396.356 163.184V161.109C394.89 161.043 393.473 160.65 392.643 160.168L393.296 157.611C394.215 158.115 395.504 158.574 396.922 158.574C398.167 158.574 399.019 158.093 399.019 157.218C399.019 156.388 398.322 155.863 396.701 155.319C394.365 154.533 392.766 153.438 392.766 151.319C392.766 149.393 394.122 147.887 396.458 147.428V145.353H398.6V147.274C400.066 147.34 401.046 147.644 401.77 147.993L401.135 150.462C400.565 150.223 399.562 149.72 397.986 149.72C396.564 149.72 396.105 150.329 396.105 150.943C396.105 151.663 396.869 152.122 398.728 152.824C401.329 153.743 402.375 154.944 402.375 156.909C402.375 158.852 400.998 160.513 398.485 160.95V163.18H396.356V163.184Z" fill="#FFCE76"/>
<path d="M370.443 50.1215L380.927 58.4368L389.997 44.9768L398.344 50.6823L402.68 44.7693" stroke="#FF6C54" stroke-width="1.3248" stroke-miterlimit="10" stroke-linecap="round"/>
<path d="M405.232 48.1034L406.111 40.0928L398.736 43.3385L405.232 48.1034Z" fill="#FF6C54"/>
<path d="M122.418 49.2649C122.219 49.4548 121.994 49.6182 121.751 49.7595C122.352 50.2673 123.023 50.6957 123.738 51.0313C123.959 50.8458 124.162 50.6427 124.343 50.4263C123.654 50.126 123.005 49.733 122.418 49.2649Z" fill="#73C7E0"/>
<path d="M122.418 49.265C123.407 48.3288 123.783 46.8538 123.261 45.5026C122.626 43.873 120.881 42.9943 119.225 43.4005C119.075 43.4359 118.934 43.48 118.788 43.5374C118.673 43.5816 118.558 43.6346 118.452 43.692C116.907 44.4869 116.178 46.346 116.823 48.0064C117.516 49.7817 119.521 50.6604 121.292 49.9715C121.451 49.9053 121.605 49.8346 121.751 49.7552C122.352 50.263 123.023 50.6914 123.738 51.027C123.266 51.4465 122.709 51.7821 122.091 52.025C119.68 52.9612 117.017 52.131 115.529 50.157L107.284 53.3674L108.172 55.6461L106.216 56.4101L105.328 54.1314L103.999 54.6481L105.235 57.8276L103.023 58.6887L101.786 55.5092L101.022 53.5529L114.597 48.267C113.824 45.5026 115.26 42.5438 117.993 41.484C118.152 41.4178 118.316 41.3692 118.474 41.3206C118.753 41.2411 119.031 41.1793 119.314 41.144C121.835 40.8128 124.352 42.2259 125.315 44.6988C126.097 46.7081 125.65 48.8896 124.348 50.422C123.654 50.1261 123.005 49.7331 122.418 49.265Z" fill="#73C7E0"/>
<path d="M127.726 51.1241H127.704C127.606 51.3979 127.474 51.6673 127.302 51.9146C127.443 51.9234 127.584 51.9278 127.726 51.9278C128.454 51.9278 129.161 51.8439 129.837 51.685C129.929 51.3935 129.996 51.0976 130.04 50.8018C129.302 51.0137 128.525 51.1241 127.726 51.1241Z" fill="#73C7E0"/>
<path d="M127.704 51.124C128.181 49.755 127.761 48.1785 126.551 47.2467C125.037 46.0809 122.873 46.3679 121.707 47.8826C121.597 48.0283 121.504 48.1741 121.42 48.3286C121.265 48.5892 121.164 48.8718 121.089 49.1544C120.766 50.4439 121.212 51.8614 122.334 52.727C123.844 53.8884 126.013 53.6013 127.174 52.0955C127.218 52.0381 127.262 51.9807 127.298 51.9188C127.439 51.9277 127.58 51.9321 127.722 51.9321C128.45 51.9321 129.157 51.8482 129.832 51.6892C129.638 52.303 129.338 52.8948 128.918 53.4379C127.337 55.487 124.626 56.1538 122.338 55.2353L116.946 62.2479L118.885 63.7405L117.604 65.4053L115.666 63.9127L114.796 65.0432L117.498 67.1231L116.05 69.0088L113.347 66.9288L111.683 65.6482L120.563 54.1092C118.642 52.303 118.232 49.3973 119.561 47.1319C119.68 46.9288 119.812 46.73 119.958 46.5401C119.998 46.4872 120.033 46.4386 120.082 46.39C122.007 44.0495 125.465 43.6433 127.889 45.5068C129.567 46.7963 130.318 48.8453 130.036 50.806C129.298 51.0136 128.525 51.1284 127.726 51.1284H127.704V51.124Z" fill="#9AD9E8"/>
<path d="M127.726 33.2393C123.001 33.2393 119.089 36.7676 118.47 41.325C118.748 41.2455 119.027 41.1836 119.309 41.1483C119.994 37.1209 123.505 34.043 127.722 34.043C132.429 34.043 136.262 37.8761 136.262 42.5835C136.262 46.4873 133.622 49.7904 130.036 50.8017C129.298 51.0092 128.526 51.1241 127.726 51.1241H127.704C126.512 51.1196 125.377 50.8723 124.348 50.4263C123.655 50.126 123.006 49.733 122.418 49.2649C122.06 48.9779 121.725 48.6643 121.416 48.3287C121.261 48.5893 121.16 48.8719 121.085 49.1545C121.292 49.3665 121.513 49.5696 121.747 49.7595C122.348 50.2674 123.019 50.6957 123.734 51.0313C124.825 51.548 126.026 51.8571 127.293 51.9145C127.435 51.9234 127.576 51.9278 127.717 51.9278C128.446 51.9278 129.153 51.8439 129.828 51.6849C133.966 50.7266 137.062 47.0083 137.062 42.5835C137.07 37.4345 132.88 33.2393 127.726 33.2393ZM118.793 43.5374C118.678 43.5815 118.563 43.6345 118.457 43.6919C118.603 44.924 118.987 46.0854 119.565 47.1232C119.685 46.92 119.817 46.7213 119.963 46.5314C120.003 46.4784 120.038 46.4299 120.087 46.3813C119.627 45.4672 119.331 44.4603 119.23 43.3961C119.08 43.4402 118.934 43.4844 118.793 43.5374Z" fill="white"/>
<path d="M170.989 179.758C169.453 178.031 169.612 175.382 171.338 173.849L213.922 136.022L219.481 142.279L176.898 180.107C175.171 181.643 172.526 181.484 170.989 179.758Z" fill="#7C9DA0"/>
<path opacity="0.08" d="M219.49 142.275L213.93 136.015L203.147 145.593L208.708 151.853L219.49 142.275Z" fill="#1D1D1B"/>
<path d="M268.354 114.75C267.934 112.736 267.329 110.789 266.556 108.93C265.09 105.383 263.024 102.147 260.489 99.3468C257.451 96.0039 253.746 93.2792 249.577 91.3936C245.421 89.5168 240.807 88.4702 235.949 88.4702C217.662 88.4702 202.838 103.295 202.838 121.581C202.838 125.105 203.39 128.497 204.41 131.681C205.81 136.066 208.097 140.049 211.069 143.427C213.569 146.276 216.554 148.691 219.897 150.546C221.659 151.531 223.522 152.352 225.47 152.997C228.764 154.096 232.284 154.693 235.949 154.693C254.236 154.693 269.06 139.868 269.06 121.581C269.06 119.241 268.817 116.953 268.354 114.75ZM235.949 147.486C234.602 147.486 233.282 147.384 231.992 147.181C229.789 146.85 227.678 146.236 225.695 145.375C222.127 143.838 218.97 141.52 216.444 138.632C213.436 135.196 211.321 130.957 210.469 126.276C210.186 124.756 210.04 123.184 210.04 121.581C210.04 107.274 221.641 95.6771 235.949 95.6771C238.581 95.6771 241.12 96.0702 243.514 96.7988C248.022 98.1722 252.01 100.747 255.106 104.147C257.676 106.969 259.628 110.356 260.754 114.105C261.376 116.163 261.747 118.327 261.831 120.566C261.849 120.901 261.853 121.241 261.853 121.581C261.853 135.889 250.257 147.486 235.949 147.486Z" fill="#7C9DA0"/>
<path opacity="0.19" d="M261.853 121.582C261.853 135.889 250.257 147.486 235.949 147.486C234.602 147.486 233.281 147.384 231.992 147.181C229.788 146.85 227.678 146.236 225.695 145.375C222.127 143.838 218.969 141.52 216.443 138.632C213.436 135.196 211.321 130.957 210.468 126.276C210.186 124.757 210.04 123.185 210.04 121.582C210.04 107.274 221.641 95.6772 235.949 95.6772C238.581 95.6772 241.12 96.0703 243.513 96.7989C248.022 98.1723 252.01 100.747 255.105 104.147C257.675 106.969 259.627 110.356 260.753 114.105C261.376 116.163 261.747 118.327 261.831 120.566C261.849 120.901 261.853 121.241 261.853 121.582Z" fill="white"/>
<path opacity="0.54" d="M255.106 104.147L216.444 138.632C213.436 135.196 211.321 130.957 210.469 126.276L243.514 96.7988C248.022 98.1722 252.01 100.747 255.106 104.147Z" fill="white"/>
<path opacity="0.54" d="M261.831 120.566L231.993 147.181C229.789 146.85 227.678 146.236 225.695 145.375L260.754 114.105C261.377 116.163 261.748 118.327 261.831 120.566Z" fill="white"/>
<path d="M241.129 118.477H234.284C233.734 118.477 233.286 118.026 233.286 117.471V105.794C233.286 105.497 233.415 105.218 233.639 105.026C233.863 104.834 234.159 104.752 234.448 104.801L240.716 105.758C241.206 105.84 241.557 106.257 241.557 106.751V118.046C241.557 118.284 241.365 118.477 241.129 118.477ZM234.285 105.65C234.239 105.65 234.208 105.67 234.193 105.683C234.174 105.7 234.142 105.736 234.142 105.794V117.471C234.142 117.55 234.206 117.615 234.284 117.615H240.701V106.751C240.701 106.68 240.651 106.621 240.582 106.609L234.314 105.653C234.304 105.651 234.294 105.65 234.285 105.65V105.65Z" fill="white"/>
<path d="M245.978 118.477H241.13C240.894 118.477 240.702 118.284 240.702 118.046V110.287C240.702 110.157 240.76 110.034 240.86 109.953C240.96 109.87 241.091 109.839 241.217 109.865L246.189 110.915C246.655 111.019 246.977 111.422 246.977 111.897V117.471C246.977 118.025 246.529 118.477 245.978 118.477V118.477ZM241.558 117.615H245.978C246.057 117.615 246.121 117.55 246.121 117.471V111.897C246.121 111.83 246.075 111.772 246.01 111.757L241.558 110.818V117.615Z" fill="white"/>
<path d="M238.847 118.333H236.28C236.044 118.333 235.853 118.14 235.853 117.902V115.46C235.853 114.905 236.3 114.454 236.851 114.454H238.277C238.827 114.454 239.275 114.905 239.275 115.46V117.902C239.275 118.14 239.083 118.333 238.847 118.333ZM236.708 117.471H238.419V115.46C238.419 115.38 238.355 115.316 238.277 115.316H236.851C236.772 115.316 236.708 115.38 236.708 115.46V117.471Z" fill="white"/>
<path d="M236.566 108.132H235.71C235.474 108.132 235.282 107.939 235.282 107.701C235.282 107.463 235.474 107.27 235.71 107.27H236.566C236.802 107.27 236.993 107.463 236.993 107.701C236.993 107.939 236.802 108.132 236.566 108.132Z" fill="white"/>
<path d="M239.418 108.132H238.563C238.326 108.132 238.135 107.939 238.135 107.701C238.135 107.463 238.326 107.27 238.563 107.27H239.418C239.654 107.27 239.846 107.463 239.846 107.701C239.846 107.939 239.654 108.132 239.418 108.132Z" fill="white"/>
<path d="M236.566 109.856H235.71C235.474 109.856 235.282 109.663 235.282 109.425C235.282 109.187 235.474 108.994 235.71 108.994H236.566C236.802 108.994 236.993 109.187 236.993 109.425C236.993 109.663 236.802 109.856 236.566 109.856Z" fill="white"/>
<path d="M239.418 109.856H238.563C238.326 109.856 238.135 109.663 238.135 109.425C238.135 109.187 238.326 108.994 238.563 108.994H239.418C239.654 108.994 239.846 109.187 239.846 109.425C239.846 109.663 239.654 109.856 239.418 109.856Z" fill="white"/>
<path d="M236.566 111.58H235.71C235.474 111.58 235.282 111.387 235.282 111.149C235.282 110.911 235.474 110.718 235.71 110.718H236.566C236.802 110.718 236.993 110.911 236.993 111.149C236.993 111.387 236.802 111.58 236.566 111.58Z" fill="white"/>
<path d="M239.418 111.58H238.563C238.326 111.58 238.135 111.387 238.135 111.149C238.135 110.911 238.326 110.718 238.563 110.718H239.418C239.654 110.718 239.846 110.911 239.846 111.149C239.846 111.387 239.654 111.58 239.418 111.58Z" fill="white"/>
<path d="M236.566 113.304H235.71C235.474 113.304 235.282 113.111 235.282 112.873C235.282 112.635 235.474 112.442 235.71 112.442H236.566C236.802 112.442 236.993 112.635 236.993 112.873C236.993 113.111 236.802 113.304 236.566 113.304Z" fill="white"/>
<path d="M239.418 113.304H238.563C238.326 113.304 238.135 113.111 238.135 112.873C238.135 112.635 238.326 112.442 238.563 112.442H239.418C239.654 112.442 239.846 112.635 239.846 112.873C239.846 113.111 239.654 113.304 239.418 113.304Z" fill="white"/>
<path d="M244.266 113.304H243.41C243.174 113.304 242.982 113.111 242.982 112.873C242.982 112.635 243.174 112.442 243.41 112.442H244.266C244.502 112.442 244.694 112.635 244.694 112.873C244.694 113.111 244.502 113.304 244.266 113.304Z" fill="white"/>
<path d="M244.266 115.029H243.41C243.174 115.029 242.982 114.835 242.982 114.598C242.982 114.36 243.174 114.167 243.41 114.167H244.266C244.502 114.167 244.694 114.36 244.694 114.598C244.694 114.835 244.502 115.029 244.266 115.029Z" fill="white"/>
<path d="M244.266 116.753H243.41C243.174 116.753 242.982 116.56 242.982 116.322C242.982 116.084 243.174 115.891 243.41 115.891H244.266C244.502 115.891 244.694 116.084 244.694 116.322C244.694 116.56 244.502 116.753 244.266 116.753Z" fill="white"/>
<g clip-path="url(#clip1_2130_5105)">
<path d="M321.001 67.0986H333.625V67.6246H321.001V67.0986Z" fill="white"/>
<path d="M321.264 65.2576H322.053V65.7836H321.264V65.2576Z" fill="white"/>
<path d="M322.842 65.2576H323.631V65.7836H322.842V65.2576Z" fill="white"/>
<path d="M324.421 65.2576H325.21V65.7836H324.421V65.2576Z" fill="white"/>
<path d="M325.997 65.2576H326.786V65.7836H325.997V65.2576Z" fill="white"/>
<path d="M327.577 65.2576H328.366V65.7836H327.577V65.2576Z" fill="white"/>
<path d="M329.153 65.2576H329.942V65.7836H329.153V65.2576Z" fill="white"/>
<path d="M330.731 65.2576H331.52V65.7836H330.731V65.2576Z" fill="white"/>
<path d="M332.309 65.2576H333.098V65.7836H332.309V65.2576Z" fill="white"/>
<path d="M329.68 58.4194H331.258V58.9454H329.68V58.4194Z" fill="white"/>
<path d="M323.367 58.4192H324.945V58.9452H323.367V58.4192Z" fill="white"/>
<path d="M322.503 63.9425H321.001V63.4165H322.129L323.258 60.2604H322.842V59.7344H324.005L322.503 63.9425Z" fill="white"/>
<path d="M330.795 63.9425H323.83L324.732 59.7344H325.734V60.2604H325.158L324.482 63.4165H330.142L329.466 60.2604H328.89V59.7344H329.892L330.795 63.9425Z" fill="white"/>
<path d="M333.624 63.9425H332.122L330.62 59.7344H331.783V60.2604H331.367L332.495 63.4165H333.624V63.9425Z" fill="white"/>
<path d="M327.313 61.2044L327.108 60.9519C327.032 60.8546 325.209 58.5796 325.209 57.0646C325.209 55.9258 326.153 55 327.313 55C328.473 55 329.417 55.9258 329.417 57.0646C329.417 58.5822 327.594 60.8572 327.518 60.9519L327.313 61.2044ZM327.313 55.526C326.442 55.526 325.735 56.2151 325.735 57.0646C325.735 58.1193 326.845 59.7236 327.313 60.3549C327.781 59.7236 328.891 58.1193 328.891 57.0646C328.891 56.2151 328.184 55.526 327.313 55.526V55.526Z" fill="white"/>
<path d="M327.313 57.8933C326.879 57.8933 326.524 57.5382 326.524 57.1042C326.524 56.6702 326.879 56.3152 327.313 56.3152C327.747 56.3152 328.102 56.6702 328.102 57.1042C328.102 57.5382 327.747 57.8933 327.313 57.8933V57.8933ZM327.313 56.8412C327.169 56.8412 327.05 56.9596 327.05 57.1042C327.05 57.2489 327.169 57.3672 327.313 57.3672C327.458 57.3672 327.576 57.2489 327.576 57.1042C327.576 56.9596 327.458 56.8412 327.313 56.8412Z" fill="white"/>
</g>
<path d="M320.3 151.03H320.295V143.727C320.295 143.717 320.295 143.706 320.293 143.696C320.293 143.694 320.293 143.692 320.293 143.691C320.291 143.684 320.291 143.675 320.289 143.668C320.289 143.664 320.287 143.659 320.285 143.656C320.283 143.651 320.283 143.645 320.281 143.64C320.28 143.635 320.278 143.63 320.276 143.624C320.274 143.621 320.274 143.617 320.272 143.614C320.27 143.609 320.266 143.603 320.264 143.598C320.262 143.595 320.26 143.591 320.259 143.588C320.255 143.583 320.253 143.577 320.249 143.574C320.247 143.57 320.245 143.567 320.243 143.563C320.24 143.56 320.238 143.555 320.234 143.551C320.23 143.548 320.228 143.544 320.224 143.541C320.221 143.537 320.219 143.534 320.215 143.53C320.211 143.527 320.207 143.521 320.204 143.518C320.202 143.515 320.198 143.513 320.194 143.511C320.19 143.507 320.185 143.502 320.181 143.499C320.179 143.497 320.175 143.495 320.171 143.492C320.166 143.488 320.16 143.485 320.156 143.481C320.152 143.48 320.149 143.478 320.147 143.476C320.141 143.473 320.135 143.469 320.132 143.467C320.126 143.466 320.122 143.462 320.116 143.46C320.113 143.459 320.107 143.457 320.103 143.455C320.096 143.452 320.088 143.45 320.08 143.448C320.079 143.448 320.077 143.446 320.073 143.446C320.063 143.443 320.052 143.441 320.043 143.44H320.041L318.458 143.134V140.135C318.458 140.125 318.458 140.114 318.456 140.104C318.456 140.102 318.456 140.1 318.454 140.097C318.452 140.09 318.452 140.081 318.45 140.074C318.448 140.069 318.448 140.065 318.447 140.062C318.445 140.057 318.445 140.052 318.443 140.048C318.441 140.043 318.439 140.038 318.437 140.032C318.435 140.029 318.435 140.025 318.433 140.022C318.431 140.017 318.428 140.011 318.426 140.004C318.424 140.001 318.422 139.997 318.42 139.996C318.416 139.99 318.414 139.985 318.41 139.98C318.409 139.976 318.407 139.973 318.405 139.971C318.401 139.968 318.399 139.963 318.395 139.959C318.392 139.956 318.39 139.952 318.386 139.949C318.382 139.945 318.38 139.942 318.376 139.938C318.373 139.935 318.369 139.931 318.365 139.926C318.361 139.922 318.359 139.921 318.356 139.919C318.352 139.915 318.346 139.91 318.342 139.907C318.338 139.905 318.337 139.903 318.333 139.9C318.327 139.896 318.323 139.893 318.318 139.889C318.314 139.888 318.31 139.886 318.306 139.884C318.301 139.881 318.297 139.879 318.291 139.875C318.285 139.874 318.282 139.87 318.276 139.868C318.272 139.867 318.268 139.865 318.263 139.863C318.255 139.86 318.245 139.858 318.238 139.854C318.236 139.854 318.234 139.853 318.232 139.853C318.221 139.849 318.209 139.847 318.198 139.844L313.829 139.003C313.819 139.002 313.81 139 313.802 139C313.8 139 313.799 139 313.797 139C313.791 139 313.785 139 313.78 139C313.774 139 313.768 139 313.764 139C313.764 139 313.764 139 313.763 139C313.757 139 313.753 139 313.747 139C313.742 139 313.736 139 313.732 139C313.725 139 313.719 139.002 313.711 139.003C313.708 139.003 313.704 139.003 313.702 139.005H313.7H313.698L310.102 139.652C310.093 139.654 310.085 139.656 310.076 139.657C310.074 139.657 310.072 139.657 310.07 139.659C310.062 139.661 310.055 139.664 310.047 139.666C310.045 139.666 310.043 139.668 310.04 139.668C310.034 139.67 310.028 139.673 310.025 139.675C309.983 139.694 309.947 139.718 309.918 139.75C309.918 139.752 309.916 139.752 309.916 139.753C309.914 139.757 309.913 139.759 309.909 139.762C309.888 139.788 309.871 139.818 309.86 139.849C309.86 139.851 309.858 139.853 309.858 139.853C309.856 139.856 309.856 139.86 309.854 139.863C309.852 139.868 309.85 139.875 309.848 139.881V139.886C309.846 139.895 309.844 139.901 309.844 139.91V139.914C309.844 139.922 309.842 139.931 309.842 139.94V142.249L308.589 142.475C308.58 142.477 308.571 142.479 308.561 142.482C308.559 142.482 308.559 142.482 308.557 142.484C308.548 142.486 308.54 142.489 308.531 142.493C308.529 142.493 308.527 142.494 308.525 142.494C308.519 142.496 308.514 142.5 308.508 142.501C308.47 142.519 308.436 142.543 308.408 142.571C308.406 142.573 308.404 142.576 308.4 142.578C308.398 142.58 308.396 142.583 308.394 142.587C308.37 142.616 308.351 142.651 308.339 142.688C308.337 142.695 308.336 142.7 308.334 142.707V142.711C308.332 142.719 308.33 142.728 308.33 142.737V142.739C308.328 142.747 308.328 142.758 308.328 142.766V151.032H308.322C308.144 151.032 308 151.164 308 151.328C308 151.492 308.144 151.624 308.322 151.624H320.302C320.48 151.624 320.624 151.492 320.624 151.328C320.623 151.162 320.479 151.03 320.3 151.03V151.03ZM313.655 142.807C313.679 142.815 313.708 142.82 313.734 142.822L319.65 143.964V144.955L312.254 143.527V142.536L313.655 142.807ZM319.65 146.496L312.254 145.068V144.025L319.65 145.454V146.496ZM319.65 146.995V148.027L312.254 146.61V145.567L319.65 146.995ZM312.254 147.108L319.65 148.528V149.57L312.254 148.153V147.108ZM319.65 150.069V151.03H312.254V148.65L319.65 150.069ZM314.083 142.283V139.657L317.811 140.374V143.004L314.083 142.283ZM310.483 140.184L313.438 139.652V142.16L311.998 141.882C311.994 141.882 311.988 141.881 311.984 141.881C311.981 141.881 311.975 141.879 311.971 141.879C311.964 141.877 311.956 141.877 311.948 141.877C311.945 141.877 311.941 141.877 311.937 141.877C311.928 141.877 311.918 141.877 311.909 141.877C311.907 141.877 311.905 141.877 311.903 141.877C311.892 141.879 311.878 141.879 311.867 141.882L310.483 142.132V140.184ZM308.971 143.009L310.176 142.791C310.208 142.789 310.241 142.784 310.269 142.773L311.609 142.531V143.525L309.439 143.938C309.295 143.966 309.204 144.095 309.232 144.226C309.259 144.341 309.369 144.421 309.492 144.421C309.509 144.421 309.528 144.419 309.545 144.416L311.607 144.024V145.066L309.437 145.48C309.293 145.508 309.202 145.637 309.23 145.767C309.257 145.882 309.367 145.963 309.49 145.963C309.507 145.963 309.526 145.961 309.543 145.957L311.605 145.565V146.61L309.435 147.023C309.291 147.051 309.2 147.18 309.228 147.311C309.255 147.426 309.365 147.506 309.488 147.506C309.505 147.506 309.524 147.504 309.541 147.501L311.604 147.108V148.151L309.433 148.564C309.289 148.592 309.198 148.721 309.226 148.852C309.253 148.967 309.363 149.047 309.486 149.047C309.503 149.047 309.522 149.046 309.539 149.042L311.609 148.65V151.03H308.971V143.009Z" fill="white"/>
<path d="M317.142 141.307L314.867 140.876C314.723 140.849 314.583 140.934 314.555 141.066C314.524 141.199 314.617 141.328 314.761 141.354L317.036 141.785C317.055 141.788 317.072 141.79 317.089 141.79C317.212 141.79 317.322 141.71 317.349 141.595C317.379 141.464 317.286 141.335 317.142 141.307Z" fill="white"/>
<path d="M193.08 53.3948H193.451V53.7526H193.08V53.3948Z" fill="white"/>
<path d="M191.599 57.4424H191.969V57.8126H191.599V57.4424Z" fill="white"/>
<path d="M194.747 60.2542H195.118V60.6244H194.747V60.2542Z" fill="white"/>
<path d="M196.229 56.3379H196.624V56.0138L195.388 54.8571H195.117V52.2656H195.513V51.9415L194.277 50.7848H190.871V50.0443H189.746V50.7847H189.353L187.895 49.217L184.028 53.3762H185.301V58.1928C184.63 58.1928 184.002 58.9617 184.002 59.4869V60.6246H194.377V60.2544H184.372V59.8571H196.25V60.2544H195.488V60.6246H196.62L196.624 59.4869C196.585 59.1707 196.435 58.8852 196.229 58.6629V56.3379ZM195.858 58.3729C195.745 58.31 195.622 58.2619 195.492 58.2306V56.7082H190.857V59.1185H193.772C193.725 59.2348 193.693 59.3583 193.677 59.4869H190.49V56.3379H195.858V58.3729ZM193.987 58.7483H193.36V57.0784H195.122V58.1896C194.663 58.1967 194.254 58.4135 193.987 58.7483ZM191.228 58.7483V57.0784H192.989V58.7483H191.228ZM194.747 54.1167H192.71V53.006H194.747V54.1167ZM194.747 52.6358H192.339V54.4869H194.747V54.8571H194.018V55.2273H195.242L196.033 55.9677H190.49V55.2273H193.649V54.8571H190.49V53.3762H191.762L190.73 52.2656H194.747V52.6358ZM190.116 50.4145H190.501V50.7847H190.116V50.4145ZM194.13 51.1549L194.921 51.8954H190.386L189.697 51.1549H194.13ZM187.895 49.761L190.912 53.006H190.386L189.329 51.8698L189.058 52.1218L190.12 53.2638V59.4869H189.005V56.3379H186.786V59.4869H185.671V53.2638L187.895 50.8716L188.792 51.8363L189.064 51.5843L187.895 50.3277L185.405 53.006H184.878L187.895 49.761ZM188.635 59.4869H187.156V56.7081H188.635V59.4869ZM185.301 58.5671V59.4869H184.388C184.466 59.0193 184.834 58.6489 185.301 58.5671ZM194.051 59.4869C194.137 58.9614 194.595 58.5592 195.145 58.5592C195.695 58.5592 196.152 58.9614 196.239 59.4869H194.051Z" fill="white"/>
<path d="M187.894 54.8447C188.405 54.8447 188.82 54.4295 188.82 53.9192C188.82 53.4088 188.405 52.9937 187.894 52.9937C187.383 52.9937 186.968 53.4088 186.968 53.9192C186.968 54.4295 187.383 54.8447 187.894 54.8447ZM187.894 53.3639C188.2 53.3639 188.45 53.613 188.45 53.9192C188.45 54.2254 188.2 54.4745 187.894 54.4745C187.587 54.4745 187.338 54.2254 187.338 53.9192C187.338 53.613 187.587 53.3639 187.894 53.3639Z" fill="white"/>
<path d="M186.97 55.4124H187.34V55.7826H186.97V55.4124Z" fill="white"/>
<path d="M187.711 55.4124H188.081V55.7826H187.711V55.4124Z" fill="white"/>
<path d="M188.452 55.4124H188.823V55.7826H188.452V55.4124Z" fill="white"/>
<path d="M187.895 57.8186H188.265V58.1888H187.895V57.8186Z" fill="white"/>
<path d="M194.364 49.4824H195.872C196.281 49.4824 196.613 49.1499 196.613 48.7412C196.613 48.3325 196.281 48 195.872 48H194.364C193.955 48 193.622 48.3325 193.622 48.7412C193.622 49.1499 193.955 49.4824 194.364 49.4824ZM194.364 48.3702H195.872C196.076 48.3702 196.243 48.5366 196.243 48.7412C196.243 48.9458 196.076 49.1122 195.872 49.1122H194.364C194.159 49.1122 193.993 48.9458 193.993 48.7412C193.993 48.5366 194.159 48.3702 194.364 48.3702Z" fill="white"/>
<path d="M184.742 49.4824H186.25C186.659 49.4824 186.991 49.1499 186.991 48.7412C186.991 48.3325 186.659 48 186.25 48H184.742C184.333 48 184 48.3325 184 48.7412C184 49.1499 184.333 49.4824 184.742 49.4824ZM184.742 48.3702H186.25C186.454 48.3702 186.621 48.5366 186.621 48.7412C186.621 48.9458 186.454 49.1122 186.25 49.1122H184.742C184.537 49.1122 184.37 48.9458 184.37 48.7412C184.37 48.5366 184.537 48.3702 184.742 48.3702Z" fill="white"/>
</g>
<defs>
<clipPath id="clip0_2130_5105">
<rect width="331.2" height="220.8" fill="white" transform="translate(88 20)"/>
</clipPath>
<clipPath id="clip1_2130_5105">
<rect width="12.6245" height="12.6245" fill="white" transform="translate(321 55)"/>
</clipPath>
</defs>
</svg>
