<svg width="71" height="104" viewBox="0 0 71 104" fill="none" xmlns="http://www.w3.org/2000/svg">
<path d="M18.5821 61.1495H2.365C1.06087 61.1495 0 60.0806 0 58.7667V31.1002C0 30.3976 0.305422 29.7358 0.836533 29.2811C1.36764 28.8263 2.06768 28.6316 2.75286 28.7487L17.6037 31.0157C18.7646 31.2105 19.5957 32.199 19.5957 33.3686V60.1283C19.5957 60.692 19.1416 61.1495 18.5821 61.1495ZM2.36635 30.7598C2.25688 30.7598 2.18391 30.8074 2.14742 30.8387C2.10282 30.8782 2.02714 30.9626 2.02714 31.1002V58.7667C2.02714 58.9546 2.1785 59.1071 2.365 59.1071H17.5685V33.3686C17.5685 33.2011 17.4496 33.0595 17.2861 33.0323L2.43527 30.7666C2.41094 30.7625 2.38797 30.7598 2.36635 30.7598V30.7598Z" fill="white"/>
<path d="M30.072 61.1495H18.5849C18.0254 61.1495 17.5713 60.692 17.5713 60.1283V41.7466C17.5713 41.4389 17.7091 41.1475 17.9456 40.9542C18.1821 40.7594 18.493 40.6846 18.7916 40.7472L30.572 43.2335C31.6748 43.4799 32.437 44.4358 32.437 45.5618V58.7667C32.437 60.0807 31.3761 61.1495 30.072 61.1495V61.1495ZM19.5984 59.1071H30.072C30.2585 59.1071 30.4098 58.9546 30.4098 58.7667V45.5618C30.4098 45.4012 30.3017 45.265 30.1463 45.2296L19.5984 43.0034V59.1071Z" fill="white"/>
<path d="M13.176 60.8085H7.09462C6.53513 60.8085 6.08105 60.351 6.08105 59.7873V54.0005C6.08105 52.6865 7.14192 51.6177 8.44605 51.6177H11.8246C13.1287 51.6177 14.1896 52.6865 14.1896 54.0005V59.7873C14.1896 60.351 13.7355 60.8085 13.176 60.8085ZM8.10819 58.7661H12.1625V54.0005C12.1625 53.8126 12.0111 53.6601 11.8246 53.6601H8.44605C8.25955 53.6601 8.10819 53.8126 8.10819 54.0005V58.7661Z" fill="white"/>
<path d="M7.77216 36.6398H5.74502C5.18552 36.6398 4.73145 36.1823 4.73145 35.6186C4.73145 35.0549 5.18552 34.5974 5.74502 34.5974H7.77216C8.33165 34.5974 8.78573 35.0549 8.78573 35.6186C8.78573 36.1823 8.33165 36.6398 7.77216 36.6398Z" fill="white"/>
<path d="M14.527 36.6398H12.4999C11.9404 36.6398 11.4863 36.1823 11.4863 35.6186C11.4863 35.0549 11.9404 34.5974 12.4999 34.5974H14.527C15.0865 34.5974 15.5406 35.0549 15.5406 35.6186C15.5406 36.1823 15.0865 36.6398 14.527 36.6398Z" fill="white"/>
<path d="M7.77216 40.725H5.74502C5.18552 40.725 4.73145 40.2675 4.73145 39.7038C4.73145 39.1401 5.18552 38.6826 5.74502 38.6826H7.77216C8.33165 38.6826 8.78573 39.1401 8.78573 39.7038C8.78573 40.2675 8.33165 40.725 7.77216 40.725Z" fill="white"/>
<path d="M14.527 40.725H12.4999C11.9404 40.725 11.4863 40.2675 11.4863 39.7038C11.4863 39.1401 11.9404 38.6826 12.4999 38.6826H14.527C15.0865 38.6826 15.5406 39.1401 15.5406 39.7038C15.5406 40.2675 15.0865 40.725 14.527 40.725Z" fill="white"/>
<path d="M7.77216 44.81H5.74502C5.18552 44.81 4.73145 44.3525 4.73145 43.7888C4.73145 43.2251 5.18552 42.7676 5.74502 42.7676H7.77216C8.33165 42.7676 8.78573 43.2251 8.78573 43.7888C8.78573 44.3525 8.33165 44.81 7.77216 44.81Z" fill="white"/>
<path d="M14.527 44.81H12.4999C11.9404 44.81 11.4863 44.3525 11.4863 43.7888C11.4863 43.2251 11.9404 42.7676 12.4999 42.7676H14.527C15.0865 42.7676 15.5406 43.2251 15.5406 43.7888C15.5406 44.3525 15.0865 44.81 14.527 44.81Z" fill="white"/>
<path d="M7.77216 48.8952H5.74502C5.18552 48.8952 4.73145 48.4377 4.73145 47.874C4.73145 47.3103 5.18552 46.8528 5.74502 46.8528H7.77216C8.33165 46.8528 8.78573 47.3103 8.78573 47.874C8.78573 48.4377 8.33165 48.8952 7.77216 48.8952Z" fill="white"/>
<path d="M14.527 48.8952H12.4999C11.9404 48.8952 11.4863 48.4377 11.4863 47.874C11.4863 47.3103 11.9404 46.8528 12.4999 46.8528H14.527C15.0865 46.8528 15.5406 47.3103 15.5406 47.874C15.5406 48.4377 15.0865 48.8952 14.527 48.8952Z" fill="white"/>
<path d="M26.0153 48.8952H23.9882C23.4287 48.8952 22.9746 48.4377 22.9746 47.874C22.9746 47.3103 23.4287 46.8528 23.9882 46.8528H26.0153C26.5748 46.8528 27.0289 47.3103 27.0289 47.874C27.0289 48.4377 26.5748 48.8952 26.0153 48.8952Z" fill="white"/>
<path d="M26.0153 52.9799H23.9882C23.4287 52.9799 22.9746 52.5224 22.9746 51.9587C22.9746 51.395 23.4287 50.9375 23.9882 50.9375H26.0153C26.5748 50.9375 27.0289 51.395 27.0289 51.9587C27.0289 52.5224 26.5748 52.9799 26.0153 52.9799Z" fill="white"/>
<path d="M26.0153 57.0649H23.9882C23.4287 57.0649 22.9746 56.6074 22.9746 56.0437C22.9746 55.48 23.4287 55.0225 23.9882 55.0225H26.0153C26.5748 55.0225 27.0289 55.48 27.0289 56.0437C27.0289 56.6074 26.5748 57.0649 26.0153 57.0649Z" fill="white"/>
<g clip-path="url(#clip0_2144_1162)">
<path d="M48.612 15.857H32.6875V21.804H64.5366" stroke="white" stroke-width="1.98231" stroke-miterlimit="10" stroke-linecap="round" stroke-linejoin="round"/>
<path d="M44.6474 7.79632L64.5366 1.84939V33.6985H32.6875" stroke="white" stroke-width="1.98231" stroke-miterlimit="10" stroke-linecap="round" stroke-linejoin="round"/>
<path d="M48.6133 21.8037V6.60602" stroke="white" stroke-width="1.98231" stroke-miterlimit="10" stroke-linecap="round" stroke-linejoin="round"/>
<path d="M60.5068 33.6985V21.8046" stroke="white" stroke-width="1.98231" stroke-miterlimit="10" stroke-linecap="round" stroke-linejoin="round"/>
<path d="M56.5381 33.6985V21.8046" stroke="white" stroke-width="1.98231" stroke-miterlimit="10" stroke-linecap="round" stroke-linejoin="round"/>
<path d="M52.5762 33.6982V21.8044" stroke="white" stroke-width="1.98231" stroke-miterlimit="10" stroke-linecap="round" stroke-linejoin="round"/>
<path d="M60.5054 17.8394H52.5762V11.7603L60.5054 9.77797V17.8394Z" stroke="white" stroke-width="1.98231" stroke-miterlimit="10" stroke-linecap="round" stroke-linejoin="round"/>
<path d="M36.7197 15.8577V33.6985" stroke="white" stroke-width="1.98231" stroke-miterlimit="10" stroke-linecap="round" stroke-linejoin="round"/>
<path d="M40.6846 15.8568V21.8037" stroke="white" stroke-width="1.98231" stroke-miterlimit="10" stroke-linecap="round" stroke-linejoin="round"/>
<path d="M44.6475 15.8568V21.8037" stroke="white" stroke-width="1.98231" stroke-miterlimit="10" stroke-linecap="round" stroke-linejoin="round"/>
<path d="M48.6167 33.6982V25.769H40.6875V33.6982" stroke="white" stroke-width="1.98231" stroke-miterlimit="10" stroke-linecap="round" stroke-linejoin="round"/>
<path d="M46.6289 29.7332H48.6112" stroke="white" stroke-width="1.98231" stroke-miterlimit="10" stroke-linecap="round" stroke-linejoin="round"/>
</g>
<g clip-path="url(#clip1_2144_1162)">
<path d="M31.1736 83.0171H27.1897C28.3312 81.6554 29.2914 80.1811 29.2914 78.3115C29.2914 74.6789 26.336 71.7236 22.7035 71.7236C19.071 71.7236 16.1156 74.6789 16.1156 78.3115C16.1156 80.1811 17.0758 81.6554 18.2173 83.0171H14.2334V96.3183H31.1736V83.0171ZM22.7035 73.6059C25.2982 73.6059 27.4091 75.7168 27.4091 78.3115C27.4091 79.9733 26.1542 81.3755 24.8255 82.8601C24.0614 83.714 23.2839 84.5828 22.7035 85.5424C22.1231 84.5828 21.3456 83.714 20.5815 82.8601C19.2528 81.3755 17.9979 79.9733 17.9979 78.3115C17.9979 75.7168 20.1088 73.6059 22.7035 73.6059V73.6059ZM29.2914 94.4361H16.1156V84.8993H19.872C20.9129 86.1054 21.7624 87.2968 21.7624 88.6638H23.6446C23.6446 87.2968 24.4941 86.1054 25.535 84.8993H29.2914V94.4361Z" fill="white"/>
<path d="M22.7052 81.1353C24.262 81.1353 25.5286 79.8687 25.5286 78.3119C25.5286 76.7551 24.262 75.4885 22.7052 75.4885C21.1484 75.4885 19.8818 76.7551 19.8818 78.3119C19.8818 79.8687 21.1484 81.1353 22.7052 81.1353ZM22.7052 77.3708C23.2241 77.3708 23.6463 77.793 23.6463 78.3119C23.6463 78.8308 23.2241 79.253 22.7052 79.253C22.1863 79.253 21.7641 78.8308 21.7641 78.3119C21.7641 77.793 22.1863 77.3708 22.7052 77.3708Z" fill="white"/>
<path d="M12.353 83.0173H6.64355V96.3185H12.353V83.0173ZM10.4708 94.4363H8.5258V84.8996H10.4708V94.4363Z" fill="white"/>
<path d="M33.0547 83.0173V96.3185H38.7642V83.0173H33.0547ZM36.8819 94.4363H34.9369V84.8996H36.8819V94.4363Z" fill="white"/>
<path d="M6.64355 98.2012H10.4708V100.083H6.64355V98.2012Z" fill="white"/>
<path d="M12.3535 98.2012H16.118V100.083H12.3535V98.2012Z" fill="white"/>
<path d="M17.998 98.2012H21.7625V100.083H17.998V98.2012Z" fill="white"/>
<path d="M23.6455 98.2012H27.41V100.083H23.6455V98.2012Z" fill="white"/>
<path d="M29.292 98.2012H33.0565V100.083H29.292V98.2012Z" fill="white"/>
<path d="M34.9395 98.2012H38.7667V100.083H34.9395V98.2012Z" fill="white"/>
<path d="M6.64355 101.965H38.7672V103.848H6.64355V101.965Z" fill="white"/>
</g>
<g clip-path="url(#clip2_2144_1162)">
<path d="M47.6487 66.2881H45.0537V68.883H47.6487V66.2881Z" fill="white"/>
<path d="M47.6487 61.0981H45.0537V63.6927H47.6487V61.0981Z" fill="white"/>
<path d="M47.6487 55.907H45.0537V58.5019H47.6487V55.907Z" fill="white"/>
<path d="M59.3239 66.2881H55.4316V68.883H59.3239V66.2881Z" fill="white"/>
<path d="M65.8131 66.2881H61.9209V68.883H65.8131V66.2881Z" fill="white"/>
<path d="M59.3239 61.0981H55.4316V63.6927H59.3239V61.0981Z" fill="white"/>
<path d="M65.8131 61.0979H61.9209V63.6925H65.8131V61.0979Z" fill="white"/>
<path d="M59.3239 55.907H55.4316V58.5019H59.3239V55.907Z" fill="white"/>
<path d="M65.8131 55.9072H61.9209V58.5022H65.8131V55.9072Z" fill="white"/>
<path d="M65.8131 50.7185H61.9209V53.3135H65.8131V50.7185Z" fill="white"/>
<path d="M59.3239 50.7183H55.4316V53.3132H59.3239V50.7183Z" fill="white"/>
<path d="M50.2418 42.9346V49.9083L39.8623 51.8544V74.0725H71.0003V46.8268L50.2418 42.9346ZM50.2418 71.4776H42.4573V54.008L50.2418 52.5484V71.4776ZM68.4053 71.4776H52.8363V46.0616L68.4053 48.9808V71.4776Z" fill="white"/>
</g>
<defs>
<clipPath id="clip0_2144_1162">
<rect width="33.8314" height="33.8314" fill="white" transform="translate(31.6973 0.85791)"/>
</clipPath>
<clipPath id="clip1_2144_1162">
<rect width="32.1236" height="32.1236" fill="white" transform="translate(6.64355 71.7236)"/>
</clipPath>
<clipPath id="clip2_2144_1162">
<rect width="31.138" height="31.138" fill="white" transform="translate(39.8623 42.9346)"/>
</clipPath>
</defs>
</svg>
