<svg width="25" height="24" viewBox="0 0 25 24" fill="none" xmlns="http://www.w3.org/2000/svg">
<path d="M17.8018 10.2676H18.501V10.9431H17.8018V10.2676Z" fill="#FE5E6A"/>
<path d="M15.0059 17.908H15.7051V18.6068H15.0059V17.908Z" fill="#FE5E6A"/>
<path d="M20.9482 23.2157H21.6475V23.9145H20.9482V23.2157Z" fill="#FE5E6A"/>
<path d="M23.7464 15.8233H24.4923V15.2114L22.1597 13.0281H21.6487V8.1363H22.3946V7.52445L20.062 5.34108H13.633V3.9434H11.5095V5.34103H10.7675L8.01613 2.38184L0.716654 10.2327H3.11836V19.3244C1.85165 19.3244 0.666992 20.776 0.666992 21.7672V23.9148H20.2502V23.216H1.36625V22.466H23.7861V23.216H22.3479V23.9148H24.4854L24.4923 21.7672C24.4193 21.1704 24.1359 20.6314 23.7464 20.2119V15.8233ZM23.0472 19.6645C22.8324 19.5458 22.6003 19.4549 22.3559 19.3958V16.5221H13.6072V21.0718H19.1085C19.0203 21.2913 18.9594 21.5245 18.9297 21.7672H12.9139V15.8233H23.0472V19.6645ZM19.5157 20.373H18.3311V17.2209H21.6566V19.3185C20.7904 19.3319 20.0192 19.7411 19.5157 20.373ZM14.3065 20.373V17.2209H17.6319V20.373H14.3065ZM20.9494 11.6304H17.1035V9.53394H20.9494V11.6304ZM20.9494 8.8351H16.4042V12.3292H20.9494V13.028H19.5737V13.7268H21.8834L23.3765 15.1244H12.9139V13.7268H18.8774V13.028H12.9139V10.2327H15.3156L13.3664 8.13626H20.9494V8.8351ZM12.2087 4.64224H12.9337V5.34103H12.2087V4.64224ZM19.7856 6.03983L21.2787 7.43746H12.7166L11.4172 6.03983H19.7856ZM8.01613 3.40853L13.7113 9.53394H12.7166L10.7226 7.38924L10.2104 7.86496L12.2146 10.0206V21.7672H10.1109V15.8233H5.92132V21.7672H3.81758V10.0206L8.01608 5.50496L9.70917 7.32595L10.2214 6.85023L8.01613 4.47831L3.31557 9.53394H2.3209L8.01613 3.40853ZM9.41167 21.7672H6.62058V16.5221H9.41167V21.7672ZM3.11832 20.031V21.7672H1.39558C1.54284 20.8847 2.23777 20.1855 3.11832 20.031ZM19.6356 21.7672C19.7988 20.7753 20.6623 20.0162 21.7002 20.0162C22.7382 20.0162 23.6016 20.7754 23.7649 21.7672H19.6356Z" fill="#FE5E6A"/>
<path d="M8.01378 13.0046C8.97773 13.0046 9.76193 12.2209 9.76193 11.2575C9.76193 10.2942 8.97773 9.5105 8.01378 9.5105C7.04983 9.5105 6.26562 10.2942 6.26562 11.2575C6.26562 12.2209 7.04983 13.0046 8.01378 13.0046ZM8.01378 10.2093C8.59212 10.2093 9.06267 10.6795 9.06267 11.2575C9.06267 11.8355 8.59217 12.3058 8.01378 12.3058C7.43539 12.3058 6.96489 11.8355 6.96489 11.2575C6.96489 10.6795 7.43539 10.2093 8.01378 10.2093Z" fill="#FE5E6A"/>
<path d="M6.26855 14.076H6.96782V14.7748H6.26855V14.076Z" fill="#FE5E6A"/>
<path d="M7.66602 14.076H8.36528V14.7748H7.66602V14.076Z" fill="#FE5E6A"/>
<path d="M9.06445 14.076H9.76371V14.7748H9.06445V14.076Z" fill="#FE5E6A"/>
<path d="M8.01367 18.6183H8.71293V19.3171H8.01367V18.6183Z" fill="#FE5E6A"/>
<path d="M20.2252 2.88297H23.0718C23.8437 2.88297 24.4718 2.25529 24.4718 1.48384C24.4718 0.712394 23.8437 0.0847168 23.0718 0.0847168H20.2252C19.4532 0.0847168 18.8252 0.712394 18.8252 1.48384C18.8252 2.25529 19.4532 2.88297 20.2252 2.88297ZM20.2252 0.783511H23.0718C23.4582 0.783511 23.7725 1.09768 23.7725 1.48384C23.7725 1.87001 23.4582 2.18417 23.0718 2.18417H20.2252C19.8388 2.18417 19.5245 1.87001 19.5245 1.48384C19.5245 1.09768 19.8388 0.783511 20.2252 0.783511Z" fill="#FE5E6A"/>
<path d="M2.06212 2.88297H4.90869C5.68065 2.88297 6.3087 2.25529 6.3087 1.48384C6.3087 0.712394 5.68065 0.0847168 4.90869 0.0847168H2.06212C1.29016 0.0847168 0.662109 0.712394 0.662109 1.48384C0.662109 2.25529 1.29016 2.88297 2.06212 2.88297ZM2.06212 0.783511H4.90869C5.29509 0.783511 5.60944 1.09768 5.60944 1.48384C5.60944 1.87001 5.29509 2.18417 4.90869 2.18417H2.06212C1.67572 2.18417 1.36137 1.87001 1.36137 1.48384C1.36137 1.09768 1.67572 0.783511 2.06212 0.783511Z" fill="#FE5E6A"/>
</svg>
