<svg width="26" height="26" viewBox="0 0 26 26" fill="none" xmlns="http://www.w3.org/2000/svg">
<path d="M22.5167 8.40337L15.7047 2.95377C14.3735 1.89297 12.2935 1.88257 10.9727 2.94337L4.16072 8.40337C3.18312 9.18337 2.59032 10.7434 2.79832 11.9706L4.10872 19.8122C4.41032 21.5698 6.04312 22.953 7.82152 22.953H18.8455C20.6031 22.953 22.2671 21.5386 22.5687 19.8018L23.8791 11.9602C24.0663 10.7434 23.4735 9.18337 22.5167 8.40337ZM14.1135 18.793C14.1135 19.2194 13.7599 19.573 13.3335 19.573C12.9071 19.573 12.5535 19.2194 12.5535 18.793V15.673C12.5535 15.2466 12.9071 14.893 13.3335 14.893C13.7599 14.893 14.1135 15.2466 14.1135 15.673V18.793Z" fill="#278FD9"/>
</svg>
