<svg width="25" height="25" viewBox="0 0 25 25" fill="none" xmlns="http://www.w3.org/2000/svg">
<g clip-path="url(#clip0_666_20749)">
<path d="M0.425781 23.3475H24.2558V24.3404H0.425781V23.3475Z" fill="#FE5E6A"/>
<path d="M0.921875 19.8723H2.41127V20.8652H0.921875V19.8723Z" fill="#FE5E6A"/>
<path d="M3.90137 19.8723H5.39076V20.8652H3.90137V19.8723Z" fill="#FE5E6A"/>
<path d="M6.87988 19.8723H8.36928V20.8652H6.87988V19.8723Z" fill="#FE5E6A"/>
<path d="M9.8584 19.8723H11.3478V20.8652H9.8584V19.8723Z" fill="#FE5E6A"/>
<path d="M12.8369 19.8723H14.3263V20.8652H12.8369V19.8723Z" fill="#FE5E6A"/>
<path d="M15.8164 19.8723H17.3058V20.8652H15.8164V19.8723Z" fill="#FE5E6A"/>
<path d="M18.7949 19.8723H20.2843V20.8652H18.7949V19.8723Z" fill="#FE5E6A"/>
<path d="M21.7734 19.8723H23.2628V20.8652H21.7734V19.8723Z" fill="#FE5E6A"/>
<path d="M16.8086 6.96448H19.7873V7.95738H16.8086V6.96448Z" fill="#FE5E6A"/>
<path d="M4.89355 6.96448H7.8723V7.95738H4.89355V6.96448Z" fill="#FE5E6A"/>
<path d="M3.26056 17.3901H0.425781V16.3972H2.55559L4.68541 10.4397H3.90097V9.44678H6.09533L3.26056 17.3901Z" fill="#FE5E6A"/>
<path d="M18.9138 17.3901H5.76758L7.4704 9.44678H9.3619V10.4397H8.27466L6.99879 16.3972H17.6826L16.4066 10.4397H15.3194V9.44678H17.2109L18.9138 17.3901Z" fill="#FE5E6A"/>
<path d="M24.2555 17.3901H21.4207L18.5859 9.44678H20.7802V10.4397H19.9959L22.1257 16.3972H24.2555V17.3901Z" fill="#FE5E6A"/>
<path d="M12.3408 12.222L11.9535 11.7453C11.8096 11.5617 8.36914 7.26729 8.36914 4.40768C8.36914 2.25803 10.1514 0.510498 12.3408 0.510498C14.5301 0.510498 16.3124 2.25803 16.3124 4.40768C16.3124 7.27225 12.872 11.5666 12.728 11.7453L12.3408 12.222ZM12.3408 1.5034C10.6975 1.5034 9.36204 2.80411 9.36204 4.40768C9.36204 6.39848 11.4571 9.42685 12.3408 10.6183C13.2245 9.42685 15.3195 6.39843 15.3195 4.40768C15.3195 2.80416 13.9841 1.5034 12.3408 1.5034Z" fill="#FE5E6A"/>
<path d="M12.341 5.97147C11.5218 5.97147 10.8516 5.30126 10.8516 4.48207C10.8516 3.66289 11.5218 2.99268 12.341 2.99268C13.1601 2.99268 13.8304 3.66289 13.8304 4.48207C13.8304 5.30126 13.1601 5.97147 12.341 5.97147ZM12.341 3.98562C12.0679 3.98562 11.8445 4.20901 11.8445 4.48207C11.8445 4.75513 12.0679 4.97852 12.341 4.97852C12.614 4.97852 12.8374 4.75513 12.8374 4.48207C12.8375 4.20906 12.614 3.98562 12.341 3.98562Z" fill="#FE5E6A"/>
</g>
<defs>
<clipPath id="clip0_666_20749">
<rect width="23.83" height="23.83" fill="white" transform="translate(0.425781 0.510498)"/>
</clipPath>
</defs>
</svg>
