<svg width="20" height="20" viewBox="0 0 20 20" fill="none" xmlns="http://www.w3.org/2000/svg">
<path fill-rule="evenodd" clip-rule="evenodd" d="M10.3287 13.1282H11.3941C12.7023 13.1282 13.9569 12.6086 14.882 11.6835C15.807 10.7585 16.3267 9.50388 16.3267 8.19569C16.3267 6.8875 15.807 5.63289 14.882 4.70785C13.9569 3.78282 12.7023 3.26315 11.3941 3.26315H8.63191C7.32372 3.26315 6.0691 3.78282 5.14407 4.70785C4.21904 5.63289 3.69936 6.8875 3.69936 8.19569C3.69936 11.3762 5.51296 13.2782 7.42048 14.4249C8.3323 14.9651 9.3097 15.386 10.3287 15.6774V13.1282ZM11.1179 16.6797C11.1179 16.6797 10.8164 16.6292 10.3287 16.4966C8.27282 15.9402 2.91016 13.9372 2.91016 8.19569C2.91016 6.67819 3.51298 5.22284 4.58602 4.1498C5.65906 3.07676 7.11441 2.47394 8.63191 2.47394H11.3941C12.9116 2.47394 14.367 3.07676 15.44 4.1498C16.5131 5.22284 17.1159 6.67819 17.1159 8.19569C17.1159 9.71319 16.5131 11.1685 15.44 12.2416C14.367 13.3146 12.9116 13.9174 11.3941 13.9174H11.1179V16.6797Z" fill="black"/>
<path fill-rule="evenodd" clip-rule="evenodd" d="M11.4667 5.03264C11.8723 5.30333 12.1793 5.74134 12.1793 6.32694C12.1793 6.95041 11.9276 7.40815 11.5211 7.68832C11.3605 7.79705 11.1833 7.87889 10.9963 7.9306V8.53514C10.9963 8.69212 10.934 8.84267 10.823 8.95368C10.712 9.06468 10.5614 9.12704 10.4044 9.12704C10.2474 9.12704 10.0969 9.06468 9.98588 8.95368C9.87487 8.84267 9.81251 8.69212 9.81251 8.53514V7.43104C9.81258 7.28093 9.86967 7.13645 9.97224 7.02685C10.0748 6.91725 10.2152 6.85072 10.365 6.84071C10.5836 6.82571 10.7493 6.78231 10.8495 6.71365C10.89 6.68687 10.9227 6.64983 10.9442 6.60631C10.9826 6.51867 11.0002 6.42331 10.9955 6.32772C10.9955 6.20382 10.9466 6.10911 10.8109 6.01914C10.6562 5.91655 10.4076 5.83999 10.1085 5.83052C9.83621 5.81838 9.56488 5.86999 9.3161 5.98126C9.1038 6.08386 9.02646 6.19908 9.00515 6.28432C8.98582 6.35961 8.95185 6.43036 8.90518 6.49253C8.85851 6.5547 8.80005 6.60706 8.73314 6.64663C8.66623 6.68621 8.59219 6.71221 8.51523 6.72317C8.43827 6.73413 8.3599 6.72982 8.28461 6.71049C8.20931 6.69116 8.13856 6.65719 8.0764 6.61052C8.01423 6.56385 7.96186 6.50539 7.92229 6.43848C7.88272 6.37157 7.85671 6.29752 7.84575 6.22056C7.8348 6.1436 7.83911 6.06524 7.85843 5.98994C7.99418 5.46039 8.39036 5.11392 8.79996 4.91662C9.21035 4.71695 9.69176 4.63251 10.1463 4.6475C10.5978 4.66171 11.0784 4.77535 11.4667 5.03342V5.03264Z" fill="black"/>
<path d="M11.1956 10.7612C11.1956 10.9705 11.1125 11.1712 10.9644 11.3192C10.8164 11.4673 10.6157 11.5504 10.4064 11.5504C10.1971 11.5504 9.99635 11.4673 9.84834 11.3192C9.70034 11.1712 9.61719 10.9705 9.61719 10.7612C9.61719 10.5519 9.70034 10.3511 9.84834 10.2031C9.99635 10.0551 10.1971 9.97198 10.4064 9.97198C10.6157 9.97198 10.8164 10.0551 10.9644 10.2031C11.1125 10.3511 11.1956 10.5519 11.1956 10.7612Z" fill="black"/>
</svg>
