<svg width="20" height="19" viewBox="0 0 20 19" fill="none" xmlns="http://www.w3.org/2000/svg">
<path fill-rule="evenodd" clip-rule="evenodd" d="M10.4141 12.8813H11.4643C12.7537 12.8813 13.9904 12.369 14.9022 11.4572C15.814 10.5454 16.3263 9.30871 16.3263 8.01923C16.3263 6.72973 15.814 5.49306 14.9022 4.58125C13.9904 3.66944 12.7537 3.1572 11.4643 3.1572H8.74152C7.45202 3.1572 6.21535 3.66944 5.30354 4.58125C4.39173 5.49306 3.87949 6.72973 3.87949 8.01923C3.87949 11.1543 5.66716 13.0291 7.5474 14.1594C8.44619 14.6919 9.40961 15.1068 10.4141 15.3939V12.8813ZM11.192 16.3819C11.192 16.3819 10.8948 16.3321 10.4141 16.2014C8.38756 15.653 3.10156 13.6786 3.10156 8.01923C3.10156 6.52342 3.69577 5.08887 4.75347 4.03118C5.81116 2.97348 7.24571 2.37927 8.74152 2.37927H11.4643C12.9601 2.37927 14.3946 2.97348 15.4523 4.03118C16.51 5.08887 17.1042 6.52342 17.1042 8.01923C17.1042 9.51503 16.51 10.9496 15.4523 12.0073C14.3946 13.065 12.9601 13.6592 11.4643 13.6592H11.192V16.3819Z" fill="black"/>
<path fill-rule="evenodd" clip-rule="evenodd" d="M11.5379 4.89972C11.9377 5.16655 12.2404 5.5983 12.2404 6.17552C12.2404 6.79008 11.9922 7.24128 11.5916 7.51744C11.4332 7.62462 11.2585 7.70529 11.0742 7.75626V8.35215C11.0742 8.50689 11.0128 8.65529 10.9034 8.76471C10.7939 8.87413 10.6455 8.9356 10.4908 8.9356C10.3361 8.9356 10.1877 8.87413 10.0782 8.76471C9.96883 8.65529 9.90736 8.50689 9.90736 8.35215V7.26384C9.90742 7.11588 9.9637 6.97347 10.0648 6.86543C10.1659 6.7574 10.3043 6.69181 10.4519 6.68195C10.6674 6.66717 10.8308 6.62438 10.9295 6.5567C10.9695 6.53031 11.0017 6.4938 11.0229 6.45091C11.0608 6.36451 11.0781 6.27051 11.0735 6.1763C11.0735 6.05416 11.0252 5.96081 10.8914 5.87213C10.739 5.771 10.4939 5.69554 10.1991 5.68621C9.93071 5.67423 9.66326 5.72511 9.41804 5.83479C9.20878 5.93592 9.13254 6.0495 9.11154 6.13351C9.09249 6.20773 9.059 6.27747 9.013 6.33875C8.96699 6.40002 8.90937 6.45164 8.84342 6.49065C8.77747 6.52966 8.70448 6.55529 8.62862 6.56609C8.55276 6.57689 8.47551 6.57264 8.4013 6.55359C8.32708 6.53454 8.25734 6.50106 8.19606 6.45505C8.13478 6.40905 8.08317 6.35142 8.04416 6.28547C8.00515 6.21952 7.97951 6.14653 7.96872 6.07067C7.95792 5.99481 7.96216 5.91757 7.98122 5.84335C8.11502 5.32136 8.50554 4.97985 8.90928 4.78537C9.3138 4.58856 9.78833 4.50532 10.2364 4.5201C10.6814 4.5341 11.1551 4.64612 11.5379 4.9005V4.89972Z" fill="black"/>
<path d="M11.2707 10.5475C11.2707 10.7538 11.1887 10.9516 11.0428 11.0975C10.897 11.2434 10.6991 11.3254 10.4928 11.3254C10.2864 11.3254 10.0886 11.2434 9.94269 11.0975C9.7968 10.9516 9.71484 10.7538 9.71484 10.5475C9.71484 10.3411 9.7968 10.1433 9.94269 9.99738C10.0886 9.85149 10.2864 9.76953 10.4928 9.76953C10.6991 9.76953 10.897 9.85149 11.0428 9.99738C11.1887 10.1433 11.2707 10.3411 11.2707 10.5475Z" fill="black"/>
</svg>
