<svg width="18" height="19" viewBox="0 0 18 19" fill="none" xmlns="http://www.w3.org/2000/svg">
<path d="M13.4587 16.8041C12.6956 16.8041 11.9637 16.5009 11.4242 15.9614C10.8846 15.4218 10.5814 14.6899 10.5814 13.9268C10.5814 13.1637 10.8846 12.4319 11.4242 11.8923C11.9637 11.3527 12.6956 11.0496 13.4587 11.0496C14.2218 11.0496 14.9536 11.3527 15.4932 11.8923C16.0328 12.4319 16.3359 13.1637 16.3359 13.9268C16.3359 14.6899 16.0328 15.4218 15.4932 15.9614C14.9536 16.5009 14.2218 16.8041 13.4587 16.8041ZM13.4659 11.3473C13.1233 11.3411 12.7828 11.4031 12.4644 11.5299C12.146 11.6568 11.856 11.8457 11.6115 12.0859C11.367 12.326 11.1727 12.6124 11.0401 12.9284C10.9075 13.2445 10.8392 13.5838 10.8392 13.9265C10.8392 14.2692 10.9075 14.6085 11.0401 14.9245C11.1727 15.2405 11.367 15.527 11.6115 15.7671C11.856 16.0072 12.146 16.1962 12.4644 16.323C12.7828 16.4498 13.1233 16.5119 13.4659 16.5056C14.1418 16.4933 14.7858 16.2161 15.2594 15.7338C15.7331 15.2515 15.9984 14.6025 15.9984 13.9265C15.9984 13.2505 15.7331 12.6015 15.2594 12.1192C14.7858 11.6368 14.1418 11.3597 13.4659 11.3473Z" stroke="black" stroke-width="0.793721"/>
<path d="M5.13026 13.5299V13.2323H8.702V13.5299H5.13026Z" stroke="black" stroke-width="0.793721"/>
<path d="M5.13026 10.2558V9.95817H9.79337V10.2558H5.13026Z" stroke="black" stroke-width="0.793721"/>
<path d="M3.24333 16.1095V16.5064H3.64019H8.70017V16.8041L3.64125 16.8041C3.64114 16.8041 3.64103 16.8041 3.64092 16.8041C3.45671 16.8035 3.28021 16.73 3.14995 16.5998C3.01973 16.4696 2.9463 16.2931 2.94569 16.109V3.01374C2.9463 2.82958 3.01973 2.65314 3.14995 2.52291C3.28018 2.39268 3.45663 2.31926 3.64078 2.31864H8.70017V3.23142V6.28725V6.68411H9.09703H12.1529H13.0656V8.6188H12.768V7.37862V6.98175H12.3711H9.0976C8.91345 6.98114 8.73701 6.90771 8.60679 6.77749C8.47656 6.64727 8.40314 6.47082 8.40252 6.28667V3.01315V2.61629H8.00566H3.64019H3.24333V3.01315V16.1095ZM8.74549 2.31864H9.09703V2.31879L9.10781 2.3185C9.12217 2.31811 9.13644 2.32084 9.14965 2.32649C9.16285 2.33215 9.17467 2.34061 9.18429 2.35127L9.19114 2.35887L9.19838 2.36611L13.0182 6.18589L13.0256 6.19332L13.0334 6.20034C13.044 6.20984 13.0523 6.22152 13.0579 6.23457L13.4227 6.07824L13.0579 6.23457C13.0635 6.24762 13.0662 6.26173 13.0658 6.27593L13.0656 6.27592V6.28725V6.63878L12.4335 6.00663L9.37765 2.9508L8.74549 2.31864Z" stroke="black" stroke-width="0.793721"/>
</svg>
