<svg width="18" height="19" viewBox="0 0 18 19" fill="none" xmlns="http://www.w3.org/2000/svg">
<g clip-path="url(#clip0_151_1078)">
<path d="M6.37658 4.56677H3.30371" stroke="black" stroke-width="1.02976" stroke-miterlimit="10" stroke-linecap="round" stroke-linejoin="round"/>
<path d="M6.37658 6.62634H3.30371" stroke="black" stroke-width="1.02976" stroke-miterlimit="10" stroke-linecap="round" stroke-linejoin="round"/>
<path d="M6.37658 8.68604H3.30371" stroke="black" stroke-width="1.02976" stroke-miterlimit="10" stroke-linecap="round" stroke-linejoin="round"/>
<path d="M6.37658 10.7457H3.30371" stroke="black" stroke-width="1.02976" stroke-miterlimit="10" stroke-linecap="round" stroke-linejoin="round"/>
<path d="M6.37658 12.8398H3.30371" stroke="black" stroke-width="1.02976" stroke-miterlimit="10" stroke-linecap="round" stroke-linejoin="round"/>
<path d="M11.1862 4.56665H8.11328" stroke="black" stroke-width="1.02976" stroke-miterlimit="10" stroke-linecap="round" stroke-linejoin="round"/>
<path d="M11.1862 6.62646H8.11328" stroke="black" stroke-width="1.02976" stroke-miterlimit="10" stroke-linecap="round" stroke-linejoin="round"/>
<path d="M9.59325 8.68597H8.11328" stroke="black" stroke-width="1.02976" stroke-miterlimit="10" stroke-linecap="round" stroke-linejoin="round"/>
<path d="M14.6555 12.9438L13.0226 14.9794L11.8047 14.097" stroke="black" stroke-width="1.02976" stroke-miterlimit="10" stroke-linecap="round" stroke-linejoin="round"/>
<path d="M13.2988 10.1982C13.2762 10.1978 13.2536 10.1973 13.2309 10.1973C11.1537 10.1973 9.46973 11.8826 9.46973 13.9615C9.46973 14.8114 9.75126 15.5954 10.2259 16.2254C10.9124 17.1366 12.0029 17.7256 13.2309 17.7256C15.3082 17.7256 16.9921 16.0404 16.9921 13.9615C16.9921 11.9053 15.3447 10.2344 13.2988 10.1982Z" stroke="black" stroke-width="1.02976" stroke-miterlimit="10" stroke-linecap="round" stroke-linejoin="round"/>
<path d="M13.2895 10.1982V2.73962C13.2895 1.87874 12.5916 1.18088 11.7307 1.18088H2.73359C1.87271 1.18088 1.1748 1.87874 1.1748 2.73962V14.6667C1.1748 15.5276 1.87271 16.2255 2.73359 16.2255H10.2166" stroke="black" stroke-width="1.02976" stroke-miterlimit="10" stroke-linecap="round" stroke-linejoin="round"/>
</g>
<defs>
<clipPath id="clip0_151_1078">
<rect width="17.5746" height="17.5746" fill="white" transform="translate(0.307617 0.666016)"/>
</clipPath>
</defs>
</svg>
