<svg width="63" height="63" viewBox="0 0 63 63" fill="none" xmlns="http://www.w3.org/2000/svg">
<path d="M36.4854 52.6348H34.5479V43.141C34.5479 42.8841 34.4458 42.6377 34.2641 42.456C34.0824 42.2743 33.836 42.1723 33.5791 42.1723C33.3222 42.1723 33.0758 42.2743 32.8941 42.456C32.7124 42.6377 32.6104 42.8841 32.6104 43.141V52.6348H7.42285V33.2598H15.4829C15.7398 33.2598 15.9862 33.1577 16.1679 32.976C16.3495 32.7944 16.4516 32.5479 16.4516 32.291C16.4516 32.0341 16.3495 31.7877 16.1679 31.606C15.9862 31.4243 15.7398 31.3223 15.4829 31.3223H6.4541C6.19717 31.3223 5.95077 31.4243 5.76909 31.606C5.58742 31.7877 5.48535 32.0341 5.48535 32.291V52.6348H3.54785C3.29092 52.6348 3.04452 52.7368 2.86284 52.9185C2.68117 53.1002 2.5791 53.3466 2.5791 53.6035V55.541C2.5791 56.8257 3.08942 58.0577 3.9978 58.9661C4.90618 59.8744 6.13821 60.3848 7.42285 60.3848H32.6104C33.895 60.3848 35.127 59.8744 36.0354 58.9661C36.9438 58.0577 37.4541 56.8257 37.4541 55.541V53.6035C37.4541 53.3466 37.352 53.1002 37.1704 52.9185C36.9887 52.7368 36.7423 52.6348 36.4854 52.6348ZM35.5166 55.541C35.5166 56.3118 35.2104 57.051 34.6654 57.596C34.1204 58.1411 33.3811 58.4473 32.6104 58.4473H30.6729V57.4785C30.6729 57.2216 30.5708 56.9752 30.3891 56.7935C30.2074 56.6118 29.961 56.5098 29.7041 56.5098C29.4472 56.5098 29.2008 56.6118 29.0191 56.7935C28.8374 56.9752 28.7354 57.2216 28.7354 57.4785V58.4473H11.2979V57.4785C11.2979 57.2216 11.1958 56.9752 11.0141 56.7935C10.8324 56.6118 10.586 56.5098 10.3291 56.5098C10.0722 56.5098 9.82577 56.6118 9.64409 56.7935C9.46242 56.9752 9.36035 57.2216 9.36035 57.4785V58.4473H7.42285C6.65207 58.4473 5.91285 58.1411 5.36782 57.596C4.82279 57.051 4.5166 56.3118 4.5166 55.541V54.5723H35.5166V55.541Z" fill="#278FD9"/>
<path d="M52.9541 8.07227H54.8916C55.1485 8.07227 55.3949 7.9702 55.5766 7.78853C55.7583 7.60685 55.8604 7.36044 55.8604 7.10352C55.8604 6.84659 55.7583 6.60018 55.5766 6.41851C55.3949 6.23683 55.1485 6.13477 54.8916 6.13477H52.9541C52.1833 6.13477 51.4441 6.44096 50.8991 6.98599C50.354 7.53101 50.0479 8.27023 50.0479 9.04102V10.0098H49.0791C48.8222 10.0098 48.5758 10.1118 48.3941 10.2935C48.2124 10.4752 48.1104 10.7216 48.1104 10.9785C48.1104 11.2354 48.2124 11.4818 48.3941 11.6635C48.5758 11.8452 48.8222 11.9473 49.0791 11.9473H50.0479V14.8535C50.0479 15.1104 50.1499 15.3568 50.3316 15.5385C50.5133 15.7202 50.7597 15.8223 51.0166 15.8223C51.2735 15.8223 51.5199 15.7202 51.7016 15.5385C51.8833 15.3568 51.9854 15.1104 51.9854 14.8535V11.9473H52.9541C53.211 11.9473 53.4574 11.8452 53.6391 11.6635C53.8208 11.4818 53.9229 11.2354 53.9229 10.9785C53.9229 10.7216 53.8208 10.4752 53.6391 10.2935C53.4574 10.1118 53.211 10.0098 52.9541 10.0098H51.9854V9.04102C51.9854 8.78409 52.0874 8.53768 52.2691 8.35601C52.4508 8.17433 52.6972 8.07227 52.9541 8.07227Z" fill="#278FD9"/>
<path d="M57.7979 2.25977H46.1729C45.4021 2.25977 44.6629 2.56596 44.1178 3.11099C43.5728 3.65601 43.2666 4.39523 43.2666 5.16602V7.10352C43.2666 7.36044 43.3687 7.60685 43.5503 7.78853C43.732 7.9702 43.9784 8.07227 44.2354 8.07227C44.4923 8.07227 44.7387 7.9702 44.9204 7.78853C45.102 7.60685 45.2041 7.36044 45.2041 7.10352V5.16602C45.2041 4.90909 45.3062 4.66268 45.4878 4.48101C45.6695 4.29933 45.9159 4.19727 46.1729 4.19727H57.7979C58.0548 4.19727 58.3012 4.29933 58.4829 4.48101C58.6645 4.66268 58.7666 4.90909 58.7666 5.16602V16.791C58.7666 17.0479 58.6645 17.2944 58.4829 17.476C58.3012 17.6577 58.0548 17.7598 57.7979 17.7598H46.1729C45.9159 17.7598 45.6695 17.6577 45.4878 17.476C45.3062 17.2944 45.2041 17.0479 45.2041 16.791V10.9785C45.2041 10.7216 45.102 10.4752 44.9204 10.2935C44.7387 10.1118 44.4923 10.0098 44.2354 10.0098C43.9784 10.0098 43.732 10.1118 43.5503 10.2935C43.3687 10.4752 43.2666 10.7216 43.2666 10.9785V16.791C43.2666 17.5618 43.5728 18.301 44.1178 18.846C44.6629 19.3911 45.4021 19.6973 46.1729 19.6973H57.7979C58.5686 19.6973 59.3079 19.3911 59.8529 18.846C60.3979 18.301 60.7041 17.5618 60.7041 16.791V5.16602C60.7041 4.39523 60.3979 3.65601 59.8529 3.11099C59.3079 2.56596 58.5686 2.25977 57.7979 2.25977Z" fill="#278FD9"/>
<path d="M48.1104 41.0098C48.1104 41.7762 48.3376 42.5254 48.7634 43.1626C49.1892 43.7998 49.7944 44.2965 50.5025 44.5898C51.2105 44.8831 51.9897 44.9598 52.7413 44.8103C53.493 44.6608 54.1835 44.2917 54.7254 43.7498C55.2673 43.2079 55.6364 42.5174 55.7859 41.7657C55.9354 41.0141 55.8587 40.2349 55.5654 39.5269C55.2721 38.8188 54.7754 38.2136 54.1382 37.7878C53.5009 37.362 52.7518 37.1348 51.9854 37.1348C50.9576 37.1348 49.972 37.543 49.2453 38.2697C48.5186 38.9964 48.1104 39.9821 48.1104 41.0098ZM53.9229 41.0098C53.9229 41.393 53.8092 41.7676 53.5963 42.0862C53.3834 42.4048 53.0808 42.6531 52.7268 42.7998C52.3728 42.9464 51.9832 42.9848 51.6074 42.91C51.2315 42.8353 50.8863 42.6508 50.6153 42.3798C50.3444 42.1088 50.1598 41.7636 50.0851 41.3878C50.0103 41.0119 50.0487 40.6223 50.1953 40.2683C50.342 39.9143 50.5903 39.6117 50.9089 39.3988C51.2276 39.1859 51.6022 39.0723 51.9854 39.0723C52.4992 39.0723 52.992 39.2764 53.3554 39.6397C53.7187 40.0031 53.9229 40.4959 53.9229 41.0098Z" fill="#278FD9"/>
<path d="M57.7979 32.291H46.1729C45.4021 32.291 44.6629 32.5972 44.1178 33.1422C43.5728 33.6873 43.2666 34.4265 43.2666 35.1973V46.8223C43.2666 47.5931 43.5728 48.3323 44.1178 48.8773C44.6629 49.4223 45.4021 49.7285 46.1729 49.7285H57.7979C58.5686 49.7285 59.3079 49.4223 59.8529 48.8773C60.3979 48.3323 60.7041 47.5931 60.7041 46.8223V44.8848C60.7041 44.6278 60.602 44.3814 60.4204 44.1998C60.2387 44.0181 59.9923 43.916 59.7354 43.916C59.4784 43.916 59.232 44.0181 59.0503 44.1998C58.8687 44.3814 58.7666 44.6278 58.7666 44.8848V46.8223C58.7666 47.0792 58.6645 47.3256 58.4829 47.5073C58.3012 47.689 58.0548 47.791 57.7979 47.791H46.1729C45.9159 47.791 45.6695 47.689 45.4878 47.5073C45.3062 47.3256 45.2041 47.0792 45.2041 46.8223V35.1973C45.2041 34.9403 45.3062 34.6939 45.4878 34.5123C45.6695 34.3306 45.9159 34.2285 46.1729 34.2285H57.7979C58.0548 34.2285 58.3012 34.3306 58.4829 34.5123C58.6645 34.6939 58.7666 34.9403 58.7666 35.1973V41.0098C58.7666 41.2667 58.8687 41.5131 59.0503 41.6948C59.232 41.8765 59.4784 41.9785 59.7354 41.9785C59.9923 41.9785 60.2387 41.8765 60.4204 41.6948C60.602 41.5131 60.7041 41.2667 60.7041 41.0098V35.1973C60.7041 34.4265 60.3979 33.6873 59.8529 33.1422C59.3079 32.5972 58.5686 32.291 57.7979 32.291Z" fill="#278FD9"/>
<path d="M24.3469 13.7395C24.5011 13.835 24.679 13.8853 24.8604 13.8848C25.012 13.8839 25.1613 13.8474 25.2963 13.7782L31.1088 10.872C31.2675 10.7907 31.4006 10.6671 31.4936 10.515C31.5866 10.3629 31.6358 10.1881 31.6358 10.0098C31.6358 9.83147 31.5866 9.65663 31.4936 9.50451C31.4006 9.35238 31.2675 9.22887 31.1088 9.14758L25.2963 6.24133C25.1488 6.16701 24.9848 6.13163 24.8198 6.13854C24.6548 6.14546 24.4943 6.19443 24.3536 6.28082C24.2128 6.3672 24.0965 6.48813 24.0157 6.63212C23.9348 6.77611 23.8921 6.93838 23.8916 7.10351V12.916C23.8913 13.0806 23.9329 13.2426 24.0126 13.3867C24.0922 13.5308 24.2073 13.6522 24.3469 13.7395ZM25.8291 8.67289L28.5029 10.0098L25.8291 11.3466V8.67289Z" fill="#278FD9"/>
<path d="M26.7979 18.7285C28.5223 18.7285 30.2079 18.2172 31.6417 17.2591C33.0755 16.3011 34.193 14.9394 34.8529 13.3463C35.5128 11.7531 35.6855 10.0001 35.3491 8.30883C35.0127 6.61755 34.1823 5.06402 32.9629 3.84468C31.7436 2.62534 30.1901 1.79496 28.4988 1.45855C26.8075 1.12213 25.0545 1.29479 23.4613 1.95469C21.8682 2.6146 20.5065 3.7321 19.5485 5.16589C18.5904 6.59968 18.0791 8.28536 18.0791 10.0098C18.0791 12.3221 18.9977 14.5398 20.6328 16.1749C22.2678 17.8099 24.4855 18.7285 26.7979 18.7285ZM26.7979 3.22852C28.1391 3.22852 29.4501 3.62623 30.5653 4.37137C31.6805 5.1165 32.5497 6.17559 33.0629 7.4147C33.5762 8.65381 33.7105 10.0173 33.4488 11.3327C33.1871 12.6482 32.5413 13.8565 31.5929 14.8048C30.6445 15.7532 29.4362 16.3991 28.1208 16.6607C26.8054 16.9224 25.4419 16.7881 24.2028 16.2748C22.9637 15.7616 21.9046 14.8924 21.1594 13.7772C20.4143 12.6621 20.0166 11.351 20.0166 10.0098C20.0166 8.21127 20.7311 6.48643 22.0028 5.2147C23.2745 3.94297 24.9994 3.22852 26.7979 3.22852Z" fill="#278FD9"/>
<path d="M36.4854 22.6035C36.6357 22.6035 36.7841 22.5685 36.9186 22.5012C37.0531 22.434 37.1701 22.3363 37.2604 22.216L40.1666 18.341C40.3208 18.1355 40.387 17.8771 40.3506 17.6228C40.3143 17.3684 40.1784 17.1389 39.9729 16.9848C39.7673 16.8306 39.5089 16.7644 39.2546 16.8008C39.0003 16.8371 38.7708 16.973 38.6166 17.1785L35.7104 21.0535C35.5562 21.2591 35.49 21.5174 35.5263 21.7718C35.5627 22.0261 35.6986 22.2556 35.9041 22.4098C36.0718 22.5355 36.2757 22.6035 36.4854 22.6035Z" fill="#278FD9"/>
<path d="M38.6166 26.091C38.7068 26.2113 38.8239 26.309 38.9584 26.3762C39.0929 26.4435 39.2412 26.4785 39.3916 26.4785C39.6012 26.4785 39.8052 26.4105 39.9729 26.2848L43.8479 23.3785C44.0534 23.2244 44.1893 22.9949 44.2256 22.7405C44.262 22.4862 44.1958 22.2278 44.0416 22.0223C43.8874 21.8167 43.658 21.6808 43.4036 21.6445C43.1493 21.6082 42.8909 21.6744 42.6854 21.8285L38.8104 24.7348C38.6048 24.8889 38.4689 25.1184 38.4326 25.3728C38.3963 25.6271 38.4624 25.8855 38.6166 26.091Z" fill="#278FD9"/>
<path d="M48.1105 28.2222C48.0875 28.0938 48.0387 27.9714 47.9672 27.8622C47.8957 27.7531 47.8029 27.6595 47.6943 27.5871C47.5857 27.5148 47.4637 27.4651 47.3354 27.441C47.2072 27.417 47.0754 27.4191 46.948 27.4472L42.1042 28.416C41.977 28.4287 41.8536 28.4664 41.7409 28.5268C41.6282 28.5872 41.5286 28.6693 41.4476 28.7682C41.2841 28.9681 41.2067 29.2247 41.2324 29.4816C41.2581 29.7385 41.3848 29.9747 41.5846 30.1383C41.7845 30.3018 42.0411 30.3792 42.298 30.3535H42.4917L47.3355 29.3847C47.4639 29.3617 47.5864 29.313 47.6955 29.2415C47.8047 29.17 47.8982 29.0771 47.9706 28.9686C48.043 28.86 48.0927 28.7379 48.1167 28.6097C48.1408 28.4814 48.1386 28.3497 48.1105 28.2222Z" fill="#278FD9"/>
<path d="M3.54785 28.416H15.1729C15.4298 28.416 15.6762 28.314 15.8579 28.1323C16.0395 27.9506 16.1416 27.7042 16.1416 27.4473V11.9473C16.1416 11.6903 16.0395 11.4439 15.8579 11.2623C15.6762 11.0806 15.4298 10.9785 15.1729 10.9785H3.54785C3.29092 10.9785 3.04452 11.0806 2.86284 11.2623C2.68117 11.4439 2.5791 11.6903 2.5791 11.9473V27.4473C2.5791 27.7042 2.68117 27.9506 2.86284 28.1323C3.04452 28.314 3.29092 28.416 3.54785 28.416ZM4.5166 12.916H14.2041V26.4785H4.5166V12.916Z" fill="#278FD9"/>
<path d="M11.2979 14.8535H9.36035C9.10342 14.8535 8.85702 14.9556 8.67534 15.1373C8.49367 15.3189 8.3916 15.5653 8.3916 15.8223C8.3916 16.0792 8.49367 16.3256 8.67534 16.5073C8.85702 16.689 9.10342 16.791 9.36035 16.791H11.2979C11.5548 16.791 11.8012 16.689 11.9829 16.5073C12.1645 16.3256 12.2666 16.0792 12.2666 15.8223C12.2666 15.5653 12.1645 15.3189 11.9829 15.1373C11.8012 14.9556 11.5548 14.8535 11.2979 14.8535Z" fill="#278FD9"/>
<path d="M11.2979 18.7285H7.42285C7.16592 18.7285 6.91952 18.8306 6.73784 19.0123C6.55617 19.1939 6.4541 19.4403 6.4541 19.6973C6.4541 19.9542 6.55617 20.2006 6.73784 20.3823C6.91952 20.564 7.16592 20.666 7.42285 20.666H11.2979C11.5548 20.666 11.8012 20.564 11.9829 20.3823C12.1645 20.2006 12.2666 19.9542 12.2666 19.6973C12.2666 19.4403 12.1645 19.1939 11.9829 19.0123C11.8012 18.8306 11.5548 18.7285 11.2979 18.7285Z" fill="#278FD9"/>
<path d="M11.2979 22.6035H7.42285C7.16592 22.6035 6.91952 22.7056 6.73784 22.8873C6.55617 23.0689 6.4541 23.3153 6.4541 23.5723C6.4541 23.8292 6.55617 24.0756 6.73784 24.2573C6.91952 24.439 7.16592 24.541 7.42285 24.541H11.2979C11.5548 24.541 11.8012 24.439 11.9829 24.2573C12.1645 24.0756 12.2666 23.8292 12.2666 23.5723C12.2666 23.3153 12.1645 23.0689 11.9829 22.8873C11.8012 22.7056 11.5548 22.6035 11.2979 22.6035Z" fill="#278FD9"/>
<path d="M35.6332 28.1253C35.5695 28.0147 35.4848 27.9176 35.3836 27.8397C35.2825 27.7618 35.167 27.7045 35.0438 27.6713C34.9206 27.638 34.792 27.6293 34.6654 27.6457C34.5388 27.6621 34.4167 27.7033 34.306 27.7669C34.1953 27.8305 34.0982 27.9153 34.0203 28.0164C33.9424 28.1175 33.8852 28.233 33.8519 28.3563C33.8186 28.4795 33.8099 28.6081 33.8263 28.7347C33.8427 28.8613 33.8839 28.9834 33.9475 29.0941L38.2197 36.4857L22.7197 42.2982C22.7197 42.2982 22.7197 42.2982 22.6519 42.2982H22.5744L20.0557 43.7513L18.3797 44.72C18.1591 44.8476 17.9154 44.9303 17.6628 44.9636C17.4101 44.9968 17.1533 44.9799 16.9072 44.9138C16.4128 44.7802 15.9913 44.4563 15.735 44.0128L13.7975 40.661C13.5696 40.2224 13.5179 39.7134 13.6529 39.2379C13.788 38.7625 14.0996 38.3567 14.5241 38.1035L17.876 36.166L20.2978 40.3607C20.3832 40.5085 20.5061 40.6311 20.6541 40.7162C20.8021 40.8013 20.97 40.8457 21.1407 40.845C21.311 40.8457 21.4786 40.8014 21.6264 40.7167C21.7742 40.6319 21.897 40.5097 21.9825 40.3623C22.068 40.2149 22.1131 40.0476 22.1133 39.8772C22.1134 39.7069 22.0687 39.5395 21.9835 39.3919L19.4841 35.0713L31.6419 25.0447L32.0391 25.7325C32.1027 25.8432 32.1875 25.9403 32.2886 26.0182C32.3897 26.0961 32.5052 26.1533 32.6285 26.1866C32.7517 26.2199 32.8803 26.2286 33.0069 26.2122C33.1335 26.1958 33.2556 26.1546 33.3663 26.091C33.477 26.0274 33.574 25.9426 33.6519 25.8414C33.7299 25.7403 33.7871 25.6248 33.8204 25.5016C33.8537 25.3784 33.8623 25.2498 33.8459 25.1232C33.8295 24.9966 33.7883 24.8745 33.7247 24.7638L32.756 23.0878C32.685 22.9665 32.5884 22.862 32.473 22.7817C32.3575 22.7014 32.226 22.6472 32.0875 22.6228C31.9483 22.5966 31.805 22.6012 31.6678 22.6364C31.5305 22.6715 31.4026 22.7363 31.2932 22.8263L17.7307 34.0057L13.6038 36.3888C12.8632 36.8201 12.2865 37.4849 11.964 38.2789C11.6414 39.073 11.5913 39.9516 11.8213 40.7772L10.8525 41.3294C10.3534 41.616 9.9506 42.0444 9.69524 42.5603C9.43987 43.0761 9.34343 43.6562 9.41814 44.2269C9.49286 44.7976 9.73536 45.3333 10.1149 45.766C10.4944 46.1988 10.9939 46.509 11.55 46.6575C11.7966 46.7228 12.0506 46.7554 12.3057 46.7544C12.8153 46.7523 13.3158 46.6188 13.7588 46.3669L14.7275 45.8147C15.1929 46.2955 15.7781 46.6433 16.4228 46.8222C16.7539 46.9148 17.0963 46.9605 17.44 46.9578C18.121 46.9594 18.7899 46.7788 19.3775 46.4347L20.2203 45.9503L22.1578 49.3119C22.5429 49.9776 23.1761 50.4636 23.9188 50.6633C24.6614 50.8631 25.453 50.7603 26.12 50.3775C26.451 50.1869 26.7411 49.9328 26.9737 49.63C27.2064 49.3271 27.3771 48.9813 27.4761 48.6125C27.5751 48.2436 27.6004 47.8588 27.5505 47.4801C27.5007 47.1015 27.3767 46.7364 27.1857 46.4057L25.4225 43.3347L39.9538 37.8807C40.0856 37.8311 40.205 37.7535 40.3037 37.6531C40.4024 37.5527 40.478 37.432 40.5253 37.2994C40.5725 37.1684 40.5908 37.0287 40.5791 36.89C40.5674 36.7512 40.526 36.6166 40.4575 36.4953L35.6332 28.1253ZM12.7513 44.6813C12.641 44.7451 12.5191 44.7864 12.3928 44.8031C12.2665 44.8197 12.1381 44.8112 12.015 44.7782C11.7668 44.7137 11.5543 44.5534 11.4241 44.3325C11.3603 44.2222 11.3189 44.1004 11.3023 43.9741C11.2857 43.8477 11.2942 43.7193 11.3272 43.5963C11.3603 43.4726 11.4176 43.3567 11.4957 43.2552C11.5739 43.1538 11.6714 43.0689 11.7825 43.0053L12.6253 42.521L13.5941 44.1969L12.7513 44.6813ZM25.5 47.3938C25.5638 47.5041 25.6052 47.6259 25.6218 47.7523C25.6384 47.8786 25.63 48.007 25.5969 48.13C25.5278 48.3763 25.3641 48.5852 25.1416 48.7113C24.9203 48.8384 24.6578 48.8731 24.4111 48.8078C24.1645 48.7425 23.9535 48.5825 23.8241 48.3625L21.8866 45.001L23.4947 44.0807H23.5722L25.5 47.3938Z" fill="#278FD9"/>
</svg>
