<svg width="63" height="63" viewBox="0 0 63 63" fill="none" xmlns="http://www.w3.org/2000/svg">
<path d="M58.5803 18.4248L52.748 6.34379C52.6388 6.12003 52.4862 5.92017 52.2992 5.75579C52.1122 5.59142 51.8944 5.46579 51.6585 5.3862C51.4226 5.30661 51.1732 5.27463 50.9248 5.29213C50.6765 5.30962 50.434 5.37624 50.2116 5.48812L45.4946 7.88912C45.0595 8.11399 44.729 8.49946 44.5733 8.96383C44.4175 9.4282 44.4487 9.93498 44.6602 10.3767L44.8435 10.7535C44.0413 10.921 43.2076 10.8483 42.4465 10.5447L35.6539 7.78651C35.1479 7.61796 34.6107 7.56417 34.0814 7.62906C33.552 7.69394 33.0437 7.87586 32.5934 8.16162L18.2317 17.1741H11.3263C10.83 17.1748 10.3541 17.3722 10.0032 17.7232C9.65219 18.0742 9.45473 18.55 9.4541 19.0463V32.2716C9.45475 32.7679 9.65223 33.2437 10.0032 33.5946C10.3542 33.9455 10.83 34.1428 11.3263 34.1433H35.2291C35.7254 34.1428 36.2012 33.9455 36.5522 33.5946C36.9032 33.2437 37.1007 32.7679 37.1013 32.2716V26.8672L43.1399 26.039C43.684 25.9641 44.2072 25.7799 44.6782 25.4974L50.3708 22.1185C50.4506 22.3898 50.5887 22.6404 50.7753 22.8529C50.9619 23.0654 51.1927 23.2346 51.4514 23.3487C51.7102 23.4628 51.9907 23.5191 52.2735 23.5137C52.5562 23.5083 52.8344 23.4412 53.0885 23.3172L57.7553 20.9011C58.1898 20.6787 58.5197 20.2946 58.674 19.8316C58.8283 19.3685 58.7946 18.8633 58.5803 18.4248ZM11.3263 19.1116H13.1284C13.171 19.3433 13.1529 19.5821 13.0758 19.8048C12.9986 20.0274 12.8652 20.2262 12.6883 20.3819C12.5115 20.5376 12.2973 20.6448 12.0667 20.6931C11.8362 20.7414 11.597 20.7291 11.3725 20.6574L11.3263 19.1116ZM13.1297 32.2058C12.7042 32.1897 11.8192 32.2324 11.3916 32.2716V30.6624C11.6136 30.6083 11.8454 30.6088 12.0672 30.6639C12.289 30.719 12.4941 30.8271 12.6649 30.9788C12.8358 31.1305 12.9673 31.3214 13.0483 31.5351C13.1292 31.7488 13.1571 31.979 13.1297 32.2058ZM31.5753 32.2058H15.0663C15.0688 32.152 15.0859 32.1006 15.0859 32.0464C15.0856 31.577 14.9871 31.1129 14.7966 30.6838C14.6061 30.2548 14.328 29.8704 13.98 29.5553C13.632 29.2402 13.2219 29.0015 12.7762 28.8544C12.3304 28.7074 11.8587 28.6553 11.3916 28.7014V22.6212C11.8587 22.6674 12.3304 22.6153 12.7762 22.4683C13.222 22.3212 13.6321 22.0825 13.98 21.7674C14.328 21.4524 14.6062 21.0679 14.7966 20.6389C14.9871 20.2098 15.0856 19.7457 15.0859 19.2762C15.0859 19.2207 15.0684 19.167 15.0656 19.1116L35.1638 19.0463V19.9909L31.6417 21.3571C28.6504 22.3696 28.4886 27.4025 32.0325 27.5381C32.2057 27.5633 34.92 27.1568 35.1638 27.133V28.6938C34.6899 28.6576 34.2136 28.723 33.767 28.8856C33.3204 29.0482 32.9136 29.3044 32.5739 29.6368C32.2342 29.9693 31.9694 30.3704 31.7972 30.8135C31.6249 31.2565 31.5493 31.7312 31.5753 32.2058ZM35.2291 17.1741H30.8727C32.4256 16.5034 34.4858 15.4269 36.1799 16.4324L38.8316 17.9276C38.8919 17.9608 38.9416 18.0103 38.9748 18.0705C39.0081 18.1307 39.0236 18.1991 39.0195 18.2677C39.0155 18.3364 38.992 18.4025 38.9519 18.4583C38.9117 18.5142 38.8566 18.5575 38.7928 18.5833L37.1013 19.2394C37.1249 18.9785 37.0941 18.7156 37.011 18.4672C36.9278 18.2188 36.794 17.9903 36.6181 17.7962C36.4421 17.6021 36.2279 17.4467 35.9888 17.3396C35.7497 17.2325 35.491 17.1762 35.2291 17.1741ZM33.512 32.2058C33.4849 31.9846 33.5106 31.7602 33.5869 31.5509C33.6633 31.3415 33.7881 31.1532 33.9511 31.0013C34.1142 30.8494 34.3108 30.7383 34.5251 30.677C34.7393 30.6157 34.965 30.6059 35.1837 30.6486L35.2291 32.2058H33.512ZM43.6915 23.83C43.4438 23.9799 43.1683 24.0782 42.8817 24.119L32.1251 25.5939C30.7108 25.5982 31.3181 23.4139 32.3437 23.1631L39.4929 20.3897C39.8938 20.2275 40.2412 19.9563 40.4958 19.6067C40.7504 19.2572 40.9019 18.8433 40.9333 18.412C40.9648 17.9807 40.8747 17.5493 40.6735 17.1665C40.4722 16.7838 40.1677 16.4651 39.7946 16.2465L37.1316 14.7447C34.0131 12.746 28.9421 15.8905 27.0186 17.1741H21.8765L33.6246 9.80159C33.8232 9.67228 34.0476 9.58756 34.2821 9.55326C34.5166 9.51896 34.7558 9.5359 34.9831 9.60292L41.718 12.3398C42.9894 12.8499 44.3951 12.9188 45.7102 12.5357L49.5204 20.3699L43.6915 23.83ZM52.2863 21.6257C52.2863 21.6257 46.4375 9.60143 46.4303 9.58637L51.0025 7.18484L56.8642 19.1807L52.2863 21.6257Z" fill="#278FD9"/>
<path d="M27.4227 25.9624C27.3015 25.9235 27.1739 25.9089 27.047 25.9194C26.9202 25.93 26.7967 25.9654 26.6836 26.0238C26.5705 26.0821 26.47 26.1622 26.3879 26.2595C26.3058 26.3568 26.2437 26.4693 26.2052 26.5906C25.9984 27.238 25.5828 27.7986 25.0234 28.1846C24.4641 28.5706 23.7925 28.7602 23.1138 28.7237C22.4352 28.6872 21.7878 28.4267 21.273 27.983C20.7582 27.5393 20.4051 26.9374 20.2689 26.2715C20.1328 25.6056 20.2213 24.9134 20.5206 24.3033C20.8199 23.6931 21.3131 23.1994 21.9229 22.8994C22.5328 22.5995 23.2249 22.5102 23.8909 22.6457C24.5569 22.7811 25.1592 23.1336 25.6035 23.6479C25.7742 23.8356 26.0117 23.9488 26.2649 23.9633C26.5182 23.9778 26.7671 23.8924 26.9581 23.7254C27.1491 23.5585 27.267 23.3232 27.2865 23.0703C27.3059 22.8173 27.2254 22.5668 27.0622 22.3726C26.3358 21.5338 25.3517 20.9596 24.264 20.7398C23.1764 20.52 22.0465 20.667 21.0514 21.1578C20.0562 21.6487 19.2518 22.4556 18.7642 23.4524C18.2766 24.4492 18.1332 25.5795 18.3566 26.6664C18.5799 27.7533 19.1573 28.7355 19.9984 29.4593C20.8395 30.1831 21.8969 30.6075 23.0049 30.6662C24.113 30.7249 25.2093 30.4146 26.1222 29.7837C27.0351 29.1529 27.713 28.2372 28.0499 27.18C28.0887 27.0588 28.1033 26.9312 28.0928 26.8045C28.0823 26.6777 28.0469 26.5543 27.9886 26.4412C27.9304 26.3281 27.8504 26.2277 27.7533 26.1455C27.6562 26.0633 27.5439 26.0011 27.4227 25.9624Z" fill="#278FD9"/>
<path d="M15.3102 24.6909H13.6338C13.3769 24.6909 13.1305 24.793 12.9488 24.9747C12.7671 25.1563 12.665 25.4027 12.665 25.6597C12.665 25.9166 12.7671 26.163 12.9488 26.3447C13.1305 26.5264 13.3769 26.6284 13.6338 26.6284H15.3102C15.5647 26.6248 15.8076 26.5212 15.9864 26.3399C16.1651 26.1586 16.2653 25.9142 16.2653 25.6597C16.2653 25.4051 16.1651 25.1607 15.9864 24.9795C15.8076 24.7982 15.5647 24.6945 15.3102 24.6909Z" fill="#278FD9"/>
<path d="M40.5884 37.5467C40.0592 37.1799 39.4127 37.0222 38.7739 37.104C38.1352 37.1859 37.5494 37.5015 37.1297 37.99L32.5097 43.0101C32.1887 42.5239 31.7148 42.1585 31.163 41.9714L26.0297 40.2714C24.4172 39.7632 22.8914 39.0124 21.5048 38.0448C18.2893 35.7675 14.9674 36.1895 12.0616 39.1859C11.9046 38.8857 11.69 38.6193 11.43 38.4022C11.1699 38.185 10.8696 38.0212 10.5462 37.9202C10.2228 37.8193 9.8827 37.7831 9.5453 37.8137C9.20789 37.8443 8.87984 37.9412 8.57992 38.0988L6.22431 39.2714C5.55608 39.6108 5.03286 40.18 4.75092 40.8744C4.46898 41.5688 4.44728 42.3417 4.68981 43.0508L5.38705 44.9978C5.47648 45.2359 5.65593 45.4292 5.88667 45.5361C6.11741 45.643 6.38094 45.6549 6.62037 45.5692C6.85981 45.4835 7.05594 45.3071 7.16644 45.0781C7.27695 44.8491 7.29296 44.5857 7.21101 44.345L6.51285 42.3962C6.43167 42.1335 6.44482 41.8507 6.55002 41.5967C6.65522 41.3427 6.84586 41.1334 7.08898 41.0051L9.44463 39.8324C9.52917 39.7804 9.6245 39.7485 9.7233 39.7391C9.82211 39.7297 9.92175 39.7431 10.0146 39.7782C10.1074 39.8133 10.1909 39.8693 10.2588 39.9417C10.3266 40.0142 10.3769 40.1012 10.4058 40.1962L14.9298 52.7686C15.0107 53.0328 14.9962 53.317 14.8888 53.5715C14.7814 53.8261 14.588 54.0348 14.3423 54.1612L11.998 55.3334C11.9128 55.3846 11.8171 55.416 11.7181 55.4252C11.6191 55.4343 11.5193 55.4211 11.4261 55.3863C11.3329 55.3516 11.2488 55.2963 11.1799 55.2246C11.111 55.1529 11.0592 55.0666 11.0283 54.972L8.66416 48.3747C8.57463 48.1366 8.39507 47.9433 8.16422 47.8364C7.93338 47.7296 7.66978 47.7178 7.43032 47.8036C7.19087 47.8895 6.99477 48.066 6.88436 48.2952C6.77396 48.5243 6.7581 48.7877 6.84021 49.0285L9.20529 55.6295C9.33095 55.9799 9.53012 56.2995 9.78942 56.5667C10.0487 56.8339 10.3622 57.0425 10.7088 57.1786C11.0553 57.3147 11.427 57.3751 11.7988 57.3558C12.1707 57.3364 12.534 57.2378 12.8646 57.0665L15.2051 55.8958C15.7319 55.6286 16.172 55.2174 16.4743 54.71C16.7766 54.2026 16.9287 53.6198 16.9129 53.0293C17.7792 53.4804 23.4917 55.8032 24.5038 56.2345C25.0633 56.4645 25.6623 56.5834 26.2672 56.5845C28.0118 56.7417 30.028 54.9419 31.4232 54.0741C32.8718 53.0833 34.2271 51.9625 35.4722 50.7256C35.6489 50.5436 35.7472 50.2994 35.7457 50.0457C35.7443 49.792 35.6434 49.5489 35.4647 49.3689C35.2859 49.1888 35.0437 49.086 34.79 49.0827C34.5363 49.0794 34.2914 49.1757 34.108 49.3511C32.9476 50.5027 31.6852 51.5467 30.3362 52.4701L27.8528 54.1385C27.4793 54.4069 27.0435 54.5757 26.5867 54.629C26.1299 54.6823 25.667 54.6183 25.2417 54.4431C23.1859 53.5747 18.1049 51.5189 16.1943 50.5596L12.8341 41.2209C15.2373 38.3189 17.7781 37.7796 20.3819 39.6238C22.8186 41.527 27.5633 42.7859 30.568 43.8152C31.5112 44.1532 31.2691 46.1215 30.2793 46.0006L24.3638 44.9051C22.7868 44.6293 21.1634 44.9431 19.8029 45.7868C19.5876 45.9224 19.4344 46.1373 19.3762 46.385C19.3181 46.6327 19.3598 46.8934 19.4923 47.1106C19.6247 47.3278 19.8374 47.4842 20.0842 47.5459C20.3311 47.6077 20.5923 47.5698 20.8114 47.4405C21.7629 46.8383 22.9051 46.6138 24.0137 46.8109L29.9407 47.9083C30.3234 47.9534 30.7112 47.9193 31.0801 47.8082C31.4491 47.697 31.7912 47.5112 32.0853 47.2623C32.3794 47.0134 32.6192 46.7067 32.7898 46.3612C32.9604 46.0157 33.0581 45.6388 33.0769 45.254L38.5573 39.2993C38.6595 39.1568 38.8136 39.06 38.9863 39.0297C39.1591 38.9993 39.3369 39.0379 39.4816 39.137C39.7984 39.4476 40.0067 39.852 40.0757 40.2903C40.1447 40.7285 40.0707 41.1774 39.8647 41.5703C38.9374 43.3217 37.8512 44.9843 36.6198 46.5371C36.4651 46.7383 36.3956 46.9922 36.4261 47.2442C36.4567 47.4962 36.5848 47.7261 36.7831 47.8846C36.9814 48.0431 37.2339 48.1174 37.4864 48.0917C37.7389 48.066 37.9712 47.9422 38.1335 47.747C40.0183 45.0846 44.234 40.4837 40.5884 37.5467Z" fill="#278FD9"/>
</svg>
