<svg width="62" height="62" viewBox="0 0 62 62" fill="none" xmlns="http://www.w3.org/2000/svg">
<g clip-path="url(#clip0_1623_2462)">
<path d="M17.6007 38.5162C17.1223 38.047 16.3542 38.0543 15.8851 38.5328C15.4159 39.0111 15.4233 39.7793 15.9017 40.2484L19.1019 43.3873L12.9238 42.2566C12.4016 42.161 11.8778 42.4161 11.6312 42.8863C11.3844 43.3565 11.4722 43.9324 11.8476 44.308L17.704 50.1644C17.9409 50.4013 18.2515 50.5197 18.562 50.5197C18.8724 50.5197 19.1829 50.4013 19.4199 50.1644C19.8938 49.6906 19.8938 48.9224 19.4199 48.4486L16.3153 45.3442L22.1816 46.4178C22.7858 46.528 23.3513 46.2647 23.6221 45.7479C23.8978 45.2217 23.7846 44.5905 23.3253 44.1312L17.6007 38.5162Z" fill="#278FD9"/>
<path d="M34.9425 28.6642L36.2577 27.349C36.7315 26.8751 36.7315 26.107 36.2577 25.6332C35.7838 25.1595 35.0159 25.1594 34.5419 25.6332L33.2266 26.9484L32.0853 25.8072L33.588 24.3044C34.0619 23.8306 34.0619 23.0624 33.588 22.5887C33.1141 22.1148 32.3461 22.1148 31.8723 22.5887L29.5115 24.9494C29.284 25.1769 29.1562 25.4855 29.1562 25.8073C29.1562 26.1291 29.2841 26.4377 29.5117 26.6653L35.3362 32.4898C35.5731 32.7266 35.8835 32.8451 36.1941 32.8451C36.5046 32.8451 36.8151 32.7266 37.052 32.4896C37.5259 32.0158 37.5259 31.2477 37.052 30.7739L34.9425 28.6642Z" fill="#278FD9"/>
<path d="M43.1784 22.9207L41.5866 24.5126L40.3954 23.3214L41.8067 21.9101C42.2805 21.4363 42.2805 20.6682 41.8067 20.1944C41.3327 19.7205 40.5647 19.7207 40.0909 20.1944L38.6797 21.6056L37.4885 20.4144L39.0804 18.8226C39.5542 18.3488 39.5542 17.5807 39.0804 17.1068C38.6065 16.633 37.8385 16.633 37.3646 17.1068L34.9149 19.5566C34.6873 19.7841 34.5596 20.0927 34.5596 20.4145C34.5596 20.7364 34.6874 21.0449 34.9149 21.2725L40.7288 27.0863C40.9563 27.3138 41.2649 27.4416 41.5868 27.4416C41.9085 27.4416 42.2172 27.3137 42.4447 27.0862L44.8943 24.6365C45.3682 24.1626 45.3682 23.3945 44.8943 22.9207C44.4202 22.4467 43.6521 22.4468 43.1784 22.9207Z" fill="#278FD9"/>
<path d="M45.5781 14.707L44.167 16.1182L42.9758 14.927L44.5677 13.3353C45.0415 12.8614 45.0415 12.0933 44.5677 11.6195C44.0938 11.1458 43.3259 11.1457 42.8519 11.6195L40.4022 14.0692C40.1746 14.2968 40.0469 14.6053 40.0469 14.9272C40.0469 15.249 40.1747 15.5576 40.4022 15.7851L46.2161 21.5991C46.4531 21.8359 46.7635 21.9544 47.0741 21.9544C47.3844 21.9544 47.695 21.8359 47.932 21.5991L50.3817 19.1493C50.8556 18.6755 50.8556 17.9074 50.3817 17.4336C49.908 16.9597 49.14 16.9597 48.666 17.4336L47.0741 19.0255L45.8829 17.8343L47.2941 16.423C47.7679 15.9492 47.7679 15.1811 47.2941 14.7073C46.82 14.2332 46.052 14.2332 45.5781 14.707Z" fill="#278FD9"/>
<path d="M21.7477 32.6699C19.657 34.7606 19.657 38.1625 21.7477 40.2532C22.7931 41.2985 24.1662 41.8212 25.5393 41.8212C26.9125 41.8212 28.2856 41.2986 29.331 40.2532C31.4216 38.1625 31.4216 34.7606 29.331 32.6699C27.2401 30.5793 23.8384 30.5793 21.7477 32.6699ZM27.6151 38.5373C26.4705 39.682 24.6081 39.682 23.4634 38.5373C22.3187 37.3927 22.3187 35.5303 23.4634 34.3856C24.0356 33.8132 24.7874 33.5272 25.5391 33.5272C26.2909 33.5272 27.0426 33.8133 27.6151 34.3856C28.7598 35.5303 28.7598 37.3927 27.6151 38.5373Z" fill="#278FD9"/>
<path d="M61.2904 13.0665L48.9346 0.71082C48.4764 0.25248 47.867 0 47.2188 0C46.5706 0 45.9612 0.252359 45.503 0.710699L41.449 4.76468C37.8585 3.33855 33.9405 2.6545 30.0646 2.78237C29.395 2.80453 28.8701 3.36532 28.8922 4.03509C28.9143 4.70461 29.4704 5.22859 30.1449 5.20752C33.3353 5.10144 36.5564 5.60034 39.562 6.6518L35.5764 10.6374C32.3167 9.90959 28.9074 9.97013 25.6723 10.8185C22.1115 11.7525 18.8491 13.6264 16.2377 16.2377C13.6263 18.8491 11.7524 22.1116 10.8184 25.6724C9.96987 28.9073 9.90944 32.3167 10.6372 35.5763L6.64911 39.5645C5.16148 35.3349 4.80159 30.8012 5.61425 26.3456C6.55648 21.1801 9.02485 16.4798 12.7527 12.7524C14.8669 10.6371 17.2983 8.92267 19.9795 7.65688C20.5854 7.37073 20.8447 6.64768 20.5585 6.04173C20.2724 5.4359 19.5495 5.17676 18.9434 5.46266C16.0089 6.84822 13.3486 8.72371 11.0367 11.0368C6.95863 15.1143 4.25812 20.2574 3.22701 25.9103C2.26867 31.1643 2.80184 36.5185 4.76465 41.4487L0.710556 45.503C-0.23555 46.4491 -0.23555 47.9885 0.710556 48.9346L13.0665 61.2905C13.5396 61.7635 14.1609 62 14.7823 62C15.4036 62 16.0249 61.7635 16.498 61.2905L20.5533 57.2352C23.889 58.5635 27.4183 59.2377 30.9795 59.2377C32.6823 59.2377 34.3924 59.0838 36.0919 58.7738C41.7439 57.7431 46.8871 55.043 50.9653 50.9653C55.043 46.8871 57.743 41.744 58.7737 36.092C59.7318 30.8383 59.1981 25.4841 57.2348 20.5536L61.2902 16.4982C62.2364 15.5521 62.2364 14.0126 61.2904 13.0665ZM13.1654 26.2881C13.9903 23.143 15.6459 20.2609 17.9535 17.9536C20.2608 15.6462 23.1428 13.9906 26.288 13.1657C28.6361 12.5499 31.088 12.4053 33.4854 12.7284L12.7281 33.4856C12.4049 31.088 12.5495 28.6361 13.1654 26.2881ZM56.3867 35.6567C55.4449 40.8213 52.9769 45.5218 49.2497 49.2496C45.5218 52.9769 40.8214 55.445 35.6565 56.3868C31.2012 57.1991 26.6674 56.8389 22.4376 55.3509L26.4247 51.3637C27.9295 51.6998 29.4658 51.868 31.0026 51.8678C32.7946 51.8678 34.5873 51.6393 36.3285 51.1826C39.8893 50.2486 43.1519 48.3747 45.7632 45.7634C48.3746 43.152 50.2486 39.8895 51.1826 36.3287C52.0309 33.0938 52.0915 29.6843 51.3636 26.4247L55.3506 22.4377C56.8388 26.6676 57.1992 31.2014 56.3867 35.6567ZM49.2729 28.5156C49.596 30.9132 49.4515 33.3651 48.8356 35.7132C48.0106 38.8584 46.355 41.7404 44.0476 44.0477C41.7403 46.3552 38.8581 48.0108 35.7132 48.8358C33.3651 49.4517 30.913 49.5962 28.5156 49.2732L49.2729 28.5156ZM59.5746 14.7824L14.7823 59.5747L2.42633 47.2188L47.2187 2.42648L59.5756 14.7812C59.5756 14.7813 59.5752 14.7816 59.5746 14.7824Z" fill="#278FD9"/>
<path d="M24.8649 5.93113C25.5239 5.81815 25.9666 5.19222 25.8535 4.53311C25.7404 3.87399 25.1146 3.43139 24.4555 3.5445C23.7965 3.6576 23.3538 4.28341 23.4669 4.94252C23.58 5.60152 24.2059 6.04423 24.8649 5.93113Z" fill="#278FD9"/>
</g>
<defs>
<clipPath id="clip0_1623_2462">
<rect width="62" height="62" fill="white"/>
</clipPath>
</defs>
</svg>
