<svg width="62" height="62" viewBox="0 0 62 62" fill="none" xmlns="http://www.w3.org/2000/svg">
<g clip-path="url(#clip0_1623_2597)">
<path d="M35.2179 44.2738C37.3405 42.8904 38.75 40.4986 38.75 37.7812C38.75 33.5081 35.2732 30.0312 31 30.0312C26.7268 30.0312 23.25 33.5081 23.25 37.7812C23.25 40.4986 24.6595 42.8904 26.7821 44.2738C21.3638 46.0524 17.4375 51.151 17.4375 57.1562V61.0312H44.5625V57.1562C44.5625 51.151 40.6362 46.0524 35.2179 44.2738ZM36.4114 55.2188L32.5364 59.0938H32.3407L36.3814 46.8613C37.075 47.2256 37.7289 47.6538 38.3315 48.1449L37.8684 50.7683L34.3238 53.1311L36.4114 55.2188ZM24.1325 50.7673L23.6695 48.144C24.272 47.6528 24.9259 47.2246 25.6196 46.8604L29.6602 59.0938H29.4645L25.5895 55.2188L27.6782 53.1311L24.1325 50.7673ZM25.1875 37.7812C25.1875 34.5757 27.7944 31.9688 31 31.9688C34.2056 31.9688 36.8125 34.5757 36.8125 37.7812C36.8125 40.9868 34.2056 43.5938 31 43.5938C27.7944 43.5938 25.1875 40.9868 25.1875 37.7812ZM34.5902 46.1047L31 56.9732L27.4108 46.1047C28.5423 45.7366 29.7474 45.5312 31 45.5312C32.2536 45.5312 33.4577 45.7366 34.5902 46.1047ZM19.375 57.1562C19.375 54.374 20.3602 51.8184 21.9964 49.8151L22.3675 51.9202L24.6353 53.4324L22.8489 55.2188L26.7239 59.0938H19.375V57.1562ZM42.625 59.0938H35.2761L39.1511 55.2188L37.3647 53.4314L39.6325 51.9192L40.0036 49.8141C41.6398 51.8184 42.625 54.374 42.625 57.1562V59.0938Z" fill="#278FD9"/>
<path d="M26.1563 28.0937H35.8438V16.4687H40.5606L31 2.1283L21.4395 16.4687H26.1563V28.0937ZM25.0606 14.5312L31 5.62161L36.9395 14.5312H33.9063V26.1562H28.0938V14.5312H25.0606Z" fill="#278FD9"/>
<path d="M2.63965 14.2649L5.98087 30.9729L9.26396 27.6898L17.5041 36.2584L24.6322 29.1304L16.0636 20.8902L19.3467 17.6071L2.63965 14.2649ZM21.8664 29.1575L17.5322 33.4917L9.29205 24.9231L7.17146 27.0427L5.10996 16.7352L15.4184 18.7967L13.2988 20.9173L21.8664 29.1575Z" fill="#278FD9"/>
<path d="M37.3662 29.1304L44.4943 36.2584L52.7345 27.6898L56.0176 30.9729L59.3588 14.2649L42.6507 17.6061L45.9338 20.8892L37.3662 29.1304ZM56.8894 16.7352L54.8279 27.0437L52.7073 24.924L44.4671 33.4926L40.133 29.1585L48.7016 20.9183L46.5819 18.7977L56.8894 16.7352Z" fill="#278FD9"/>
<path d="M3.875 6.78125C5.47731 6.78125 6.78125 5.47731 6.78125 3.875C6.78125 2.27269 5.47731 0.96875 3.875 0.96875C2.27269 0.96875 0.96875 2.27269 0.96875 3.875C0.96875 5.47731 2.27269 6.78125 3.875 6.78125ZM3.875 2.90625C4.40878 2.90625 4.84375 3.34122 4.84375 3.875C4.84375 4.40878 4.40878 4.84375 3.875 4.84375C3.34122 4.84375 2.90625 4.40878 2.90625 3.875C2.90625 3.34122 3.34122 2.90625 3.875 2.90625Z" fill="#278FD9"/>
<path d="M11.5732 12.9464L12.9433 11.5764L14.2448 12.8779L12.8748 14.2479L11.5732 12.9464Z" fill="#278FD9"/>
<path d="M6.09473 7.46619L7.46475 6.09617L8.83477 7.46619L7.46475 8.83621L6.09473 7.46619Z" fill="#278FD9"/>
<path d="M8.83496 10.2068L10.205 8.83677L11.575 10.2068L10.205 11.5768L8.83496 10.2068Z" fill="#278FD9"/>
<path d="M3.875 55.2188C2.27269 55.2188 0.96875 56.5227 0.96875 58.125C0.96875 59.7273 2.27269 61.0312 3.875 61.0312C5.47731 61.0312 6.78125 59.7273 6.78125 58.125C6.78125 56.5227 5.47731 55.2188 3.875 55.2188ZM3.875 59.0938C3.34122 59.0938 2.90625 58.6588 2.90625 58.125C2.90625 57.5912 3.34122 57.1562 3.875 57.1562C4.40878 57.1562 4.84375 57.5912 4.84375 58.125C4.84375 58.6588 4.40878 59.0938 3.875 59.0938Z" fill="#278FD9"/>
<path d="M11.5703 49.0499L12.8718 47.7484L14.2419 49.1184L12.9403 50.4199L11.5703 49.0499Z" fill="#278FD9"/>
<path d="M6.08984 54.5293L7.45986 53.1593L8.82988 54.5293L7.45986 55.8993L6.08984 54.5293Z" fill="#278FD9"/>
<path d="M8.83008 51.7885L10.2001 50.4184L11.5701 51.7885L10.2001 53.1585L8.83008 51.7885Z" fill="#278FD9"/>
<path d="M58.125 55.2188C56.5227 55.2188 55.2188 56.5227 55.2188 58.125C55.2188 59.7273 56.5227 61.0312 58.125 61.0312C59.7273 61.0312 61.0312 59.7273 61.0312 58.125C61.0312 56.5227 59.7273 55.2188 58.125 55.2188ZM58.125 59.0938C57.5912 59.0938 57.1562 58.6588 57.1562 58.125C57.1562 57.5912 57.5912 57.1562 58.125 57.1562C58.6588 57.1562 59.0938 57.5912 59.0938 58.125C59.0938 58.6588 58.6588 59.0938 58.125 59.0938Z" fill="#278FD9"/>
<path d="M53.1523 54.5338L54.5224 53.1638L55.8924 54.5338L54.5224 55.9038L53.1523 54.5338Z" fill="#278FD9"/>
<path d="M47.7422 49.1228L49.1122 47.7528L50.4137 49.0543L49.0437 50.4243L47.7422 49.1228Z" fill="#278FD9"/>
<path d="M50.4121 51.7932L51.7821 50.4232L53.1521 51.7932L51.7821 53.1632L50.4121 51.7932Z" fill="#278FD9"/>
<path d="M58.125 6.78125C59.7273 6.78125 61.0312 5.47731 61.0312 3.875C61.0312 2.27269 59.7273 0.96875 58.125 0.96875C56.5227 0.96875 55.2188 2.27269 55.2188 3.875C55.2188 5.47731 56.5227 6.78125 58.125 6.78125ZM58.125 2.90625C58.6588 2.90625 59.0938 3.34122 59.0938 3.875C59.0938 4.40878 58.6588 4.84375 58.125 4.84375C57.5912 4.84375 57.1562 4.40878 57.1562 3.875C57.1562 3.34122 57.5912 2.90625 58.125 2.90625Z" fill="#278FD9"/>
<path d="M50.418 10.2115L51.788 8.84153L53.158 10.2115L51.788 11.5816L50.418 10.2115Z" fill="#278FD9"/>
<path d="M53.1572 7.47168L54.5272 6.10166L55.8973 7.47168L54.5272 8.8417L53.1572 7.47168Z" fill="#278FD9"/>
<path d="M47.7461 12.881L49.0476 11.5795L50.4176 12.9495L49.1161 14.251L47.7461 12.881Z" fill="#278FD9"/>
<path d="M58.125 36.8125C56.5227 36.8125 55.2188 38.1164 55.2188 39.7188C55.2188 41.3211 56.5227 42.625 58.125 42.625C59.7273 42.625 61.0312 41.3211 61.0312 39.7188C61.0312 38.1164 59.7273 36.8125 58.125 36.8125ZM58.125 40.6875C57.5912 40.6875 57.1562 40.2525 57.1562 39.7188C57.1562 39.185 57.5912 38.75 58.125 38.75C58.6588 38.75 59.0938 39.185 59.0938 39.7188C59.0938 40.2525 58.6588 40.6875 58.125 40.6875Z" fill="#278FD9"/>
<path d="M51.3438 38.75H53.2812V40.6875H51.3438V38.75Z" fill="#278FD9"/>
<path d="M43.5938 38.75H45.5312V40.6875H43.5938V38.75Z" fill="#278FD9"/>
<path d="M47.4688 38.75H49.4062V40.6875H47.4688V38.75Z" fill="#278FD9"/>
<path d="M3.875 42.625C5.47731 42.625 6.78125 41.3211 6.78125 39.7188C6.78125 38.1164 5.47731 36.8125 3.875 36.8125C2.27269 36.8125 0.96875 38.1164 0.96875 39.7188C0.96875 41.3211 2.27269 42.625 3.875 42.625ZM3.875 38.75C4.40878 38.75 4.84375 39.185 4.84375 39.7188C4.84375 40.2525 4.40878 40.6875 3.875 40.6875C3.34122 40.6875 2.90625 40.2525 2.90625 39.7188C2.90625 39.185 3.34122 38.75 3.875 38.75Z" fill="#278FD9"/>
<path d="M12.5938 38.75H14.5312V40.6875H12.5938V38.75Z" fill="#278FD9"/>
<path d="M8.71875 38.75H10.6562V40.6875H8.71875V38.75Z" fill="#278FD9"/>
<path d="M16.4688 38.75H18.4062V40.6875H16.4688V38.75Z" fill="#278FD9"/>
</g>
<defs>
<clipPath id="clip0_1623_2597">
<rect width="62" height="62" fill="white"/>
</clipPath>
</defs>
</svg>
