<svg width="62" height="62" viewBox="0 0 62 62" fill="none" xmlns="http://www.w3.org/2000/svg">
<path d="M27.0442 32.4965C27.0442 27.2681 24.0615 22.7237 19.7084 20.4746C22.0704 18.6299 23.5934 15.7583 23.5934 12.5358C23.5934 6.98249 19.0754 2.4646 13.5222 2.4646C7.96894 2.4646 3.45093 6.98261 3.45093 12.5358C3.45093 15.7583 4.97393 18.6299 7.33598 20.4746C2.98278 22.7237 0 27.2681 0 32.4965V34.3129H27.0442V32.4965ZM3.80004 30.68C4.65533 26.0917 8.68957 22.6072 13.5222 22.6072C18.3548 22.6072 22.3889 26.0918 23.2443 30.68H3.80004ZM7.08362 12.5358C7.08362 8.98562 9.97195 6.09741 13.5221 6.09741C17.0722 6.09741 19.9605 8.98574 19.9605 12.5358C19.9605 16.086 17.0722 18.9743 13.5221 18.9743C9.97195 18.9743 7.08362 16.0861 7.08362 12.5358Z" fill="#278FD9"/>
<path d="M51.322 41.3845C54.9047 39.0413 57.277 34.9942 57.277 30.4029C57.277 23.1723 51.3944 17.2897 44.1638 17.2897C36.9332 17.2897 31.0505 23.1723 31.0505 30.4029C31.0505 34.9942 33.4229 39.0413 37.0057 41.3845C30.725 44.1477 26.3281 50.4289 26.3281 57.719V59.5354H61.9996V57.719C61.9996 50.4289 57.6026 44.1475 51.322 41.3845ZM30.0765 55.9026C30.9709 48.9255 36.9474 43.5162 44.1638 43.5162C51.3801 43.5162 57.3567 48.9257 58.2511 55.9026H30.0765ZM53.6442 30.4029C53.6442 35.6304 49.3913 39.8833 44.1638 39.8833C38.9363 39.8833 34.6833 35.6304 34.6833 30.4029C34.6833 25.1754 38.9363 20.9225 44.1638 20.9225C49.3913 20.9225 53.6442 25.1754 53.6442 30.4029Z" fill="#278FD9"/>
<path d="M14.6877 46.1958L16.9993 48.5074H3.63281V38.058H0V52.1402H16.9993L14.6877 54.4519L17.2565 57.0207L23.9533 50.3238L17.2565 43.6271L14.6877 46.1958Z" fill="#278FD9"/>
</svg>
