<svg width="62" height="62" viewBox="0 0 62 62" fill="none" xmlns="http://www.w3.org/2000/svg">
<g clip-path="url(#clip0_1623_2772)">
<path d="M49.3665 33.9784C46.7398 32.0909 43.8802 30.6382 40.8679 29.6459C44.8731 26.6389 47.4687 21.8512 47.4687 16.4688C47.4687 7.38793 40.0809 0 31 0C21.919 0 14.5312 7.38793 14.5312 16.4688C14.5312 21.8579 17.1333 26.6508 21.1469 29.6572C17.4695 30.8679 14.019 32.7517 10.9989 35.2359C5.46104 39.791 1.61062 46.1447 0.157133 53.1266C-0.298422 55.3143 0.247348 57.5613 1.65422 59.2913C3.05418 61.0127 5.13009 62 7.3495 62H32.332C33.6696 62 34.7539 60.9157 34.7539 59.5781C34.7539 58.2405 33.6696 57.1562 32.332 57.1562H7.3495C6.3156 57.1562 5.69184 56.5791 5.41212 56.2352C4.92907 55.6412 4.74211 54.8681 4.89916 54.1138C7.41259 42.0413 18.061 33.2226 30.3579 32.9251C30.5709 32.9334 30.7849 32.9375 31 32.9375C31.2165 32.9375 31.4321 32.9333 31.6467 32.9249C37.0313 33.0523 42.1677 34.7699 46.5398 37.9118C47.6259 38.6924 49.1393 38.4445 49.9199 37.3585C50.7005 36.2723 50.4527 34.759 49.3665 33.9784ZM31.5896 28.079C31.3933 28.0753 31.1967 28.0735 31 28.0735C30.8045 28.0735 30.6091 28.0755 30.4139 28.0791C24.275 27.7729 19.375 22.6823 19.375 16.4688C19.375 10.0587 24.5899 4.84375 31 4.84375C37.4101 4.84375 42.625 10.0587 42.625 16.4688C42.625 22.6811 37.7267 27.7709 31.5896 28.079Z" fill="#278FD9"/>
<path d="M55.1322 51.7071L61.2907 45.5486C62.2365 44.6027 62.2365 43.0692 61.2907 42.1235C60.3448 41.1776 58.8114 41.1776 57.8656 42.1235L51.7071 48.2819L45.5485 42.1233C44.6026 41.1775 43.0692 41.1775 42.1235 42.1233C41.1777 43.0692 41.1776 44.6027 42.1235 45.5485L48.2819 51.7071L42.1235 57.8655C41.1776 58.8114 41.1776 60.3449 42.1235 61.2907C42.5963 61.7637 43.2161 62 43.836 62C44.4558 62 45.0756 61.7637 45.5485 61.2908L51.7071 55.1322L57.8656 61.2908C58.3385 61.7637 58.9583 62 59.5782 62C60.198 62 60.8178 61.7637 61.2907 61.2908C62.2365 60.3449 62.2365 58.8114 61.2907 57.8656L55.1322 51.7071Z" fill="#278FD9"/>
</g>
<defs>
<clipPath id="clip0_1623_2772">
<rect width="62" height="62" fill="white"/>
</clipPath>
</defs>
</svg>
