<svg width="62" height="62" viewBox="0 0 62 62" fill="none" xmlns="http://www.w3.org/2000/svg">
<g clip-path="url(#clip0_1623_2717)">
<path d="M13.2998 60.0877L11.4768 57.5198C11.0898 56.9744 10.3338 56.8461 9.78837 57.2333C9.24309 57.6204 9.11473 58.3763 9.50199 58.9217L11.325 61.4897C11.5612 61.8223 11.9344 61.9997 12.3135 61.9997C12.556 61.9997 12.8007 61.9271 13.0135 61.7761C13.5587 61.3889 13.6871 60.6331 13.2998 60.0877Z" fill="#278FD9"/>
<path d="M27.2708 60.5401L25.2868 51.0842C24.3221 46.486 21.6435 42.5101 17.7448 39.8885L13.5088 37.0402C11.8102 35.8982 9.52713 36.1438 8.10744 37.5915V23.0002C8.10744 21.085 6.80169 19.4578 4.93201 19.0428C3.72531 18.7747 2.48072 19.0651 1.51669 19.8385C0.552791 20.6119 0 21.7644 0 23.0002V41.776C0 44.2358 0.752716 46.5962 2.17665 48.6021L4.33611 51.6441C4.57224 51.9768 4.94545 52.1542 5.32459 52.1542C5.56702 52.1542 5.81175 52.0815 6.02451 51.9305C6.56979 51.5434 6.69815 50.7875 6.3109 50.2421L4.15144 47.2001C3.01995 45.6062 2.42187 43.7306 2.42187 41.7759V23.0002C2.42187 22.5028 2.64443 22.0389 3.03242 21.7274C3.42028 21.4161 3.92124 21.2992 4.40731 21.4071C5.15991 21.5741 5.68557 22.2292 5.68557 23.0002V37.8966C5.68557 40.0054 6.46033 42.0144 7.86779 43.5775C7.9281 43.6498 7.9901 43.7213 8.05561 43.7907C8.85979 44.6429 9.80529 45.647 10.6958 46.5934L11.9425 47.9203C11.9465 47.9245 11.9508 47.9281 11.9549 47.9322C13.0214 49.0665 13.8079 49.9041 13.8244 49.9216C14.282 50.409 15.0485 50.4332 15.536 49.9753C16.0235 49.5175 16.0476 48.7512 15.5897 48.2637C15.5676 48.2402 14.1501 46.7308 12.5313 45.0101L9.75479 42.0551C9.74777 42.0476 9.74135 42.0397 9.73433 42.0322C9.08333 41.2536 9.09144 40.1246 9.7738 39.3542C10.3775 38.673 11.4024 38.5422 12.1576 39.0499L16.3934 41.8983C19.7656 44.1658 22.0822 47.6046 22.9165 51.5815L24.9007 61.0376C25.0204 61.6083 25.5238 62 26.0846 62C26.1669 62 26.2506 61.9915 26.3344 61.974C26.9889 61.8367 27.4081 61.1946 27.2708 60.5401Z" fill="#278FD9"/>
<path d="M8.97207 53.9904L8.96432 53.9795C8.57562 53.4351 7.81951 53.3086 7.27519 53.6971C6.73088 54.0856 6.60446 54.8418 6.9928 55.3861L7.00055 55.397C7.23693 55.7282 7.60929 55.9048 7.98734 55.9048C8.23074 55.9048 8.47644 55.8316 8.68969 55.6794C9.23388 55.2909 9.36042 54.5347 8.97207 53.9904Z" fill="#278FD9"/>
<path d="M60.4833 19.8385C59.5194 19.0651 58.2742 18.7752 57.0681 19.0428C55.1984 19.4577 53.8925 21.0851 53.8925 23.0003V37.5915C52.473 36.1439 50.1896 35.8983 48.4912 37.0402L44.2552 39.8884C40.3564 42.5099 37.6779 46.486 36.7132 51.0841L34.7292 60.5402C34.5919 61.1947 35.0111 61.8366 35.6656 61.9739C35.7494 61.9915 35.8332 61.9999 35.9154 61.9999C36.4763 61.9999 36.9796 61.6081 37.0993 61.0374L39.0833 51.5813C39.9178 47.6045 42.2343 44.1656 45.6065 41.8982L49.8425 39.05C50.5975 38.5421 51.6224 38.6729 52.2263 39.3542C52.9078 40.1236 52.9169 41.2507 52.2683 42.0294C52.2606 42.0378 52.2532 42.0466 52.2454 42.055C52.2454 42.055 46.4324 48.2404 46.4104 48.2636C45.9526 48.7511 45.9767 49.5174 46.4641 49.9753C46.9516 50.4331 47.7179 50.409 48.1757 49.9215C48.1922 49.9041 53.1403 44.6429 53.9445 43.7908C54.01 43.7214 54.072 43.6498 54.1323 43.5775C55.5397 42.0145 56.3145 40.0054 56.3145 37.8967V23.0002C56.3145 22.2292 56.8402 21.574 57.5929 21.4071C58.0789 21.2993 58.5797 21.4161 58.9678 21.7273C59.3558 22.0387 59.5784 22.5026 59.5784 23.0002V41.7759C59.5784 43.7306 58.9803 45.6062 57.8488 47.2002L48.7001 60.0878C48.3129 60.633 48.4412 61.389 48.9865 61.7762C49.1993 61.9272 49.4439 61.9998 49.6864 61.9998C50.0654 61.9998 50.4387 61.8223 50.6749 61.4898L59.8236 48.6022C61.2475 46.5963 62.0002 44.2358 62.0002 41.776V23.0002C61.9999 21.7643 61.4472 20.612 60.4833 19.8385Z" fill="#278FD9"/>
<path d="M46.337 23.2088L44.1826 22.6941V22.3078C45.5828 21.327 46.501 19.7027 46.501 17.8672V15.0665C46.501 12.078 44.0698 9.6468 41.0813 9.6468C39.7402 9.6468 38.5123 10.1375 37.565 10.9473C36.5103 8.36442 33.9724 6.53906 31.0148 6.53906C28.0536 6.53906 25.5131 8.36915 24.4608 10.957C23.512 10.1413 22.2796 9.64656 20.9331 9.64656C17.9446 9.64656 15.5134 12.0777 15.5134 15.0662V15.2523V17.867C15.5134 19.7025 16.4316 21.3267 17.8318 22.3076V22.6939L15.6774 23.2085C13.1051 23.8231 11.3086 26.0993 11.3086 28.7439V31.0055C11.3086 31.6743 11.8508 32.2164 12.5195 32.2164H18.084C18.0754 32.3633 18.0695 32.5109 18.0695 32.6597V37.014C18.0695 37.6828 18.6117 38.2249 19.2804 38.2249H26.5593C27.228 38.2249 27.7703 37.6828 27.7703 37.014C27.7703 36.3452 27.228 35.8031 26.5593 35.8031H25.3082V33.3007C25.3082 32.6319 24.7659 32.0897 24.0973 32.0897C23.4286 32.0897 22.8863 32.6319 22.8863 33.3007V35.8033H20.4915V32.66C20.4915 30.3244 22.0778 28.3132 24.3488 27.769L27.6718 26.9727L29.8957 32.0322C30.0889 32.4719 30.5239 32.7559 31.004 32.7559H31.0042C31.4844 32.7559 31.9194 32.472 32.1127 32.0323L34.3342 26.9803L37.6467 27.7717C39.9199 28.3148 41.5076 30.3263 41.5076 32.6635V35.8033H39.1127V33.3007C39.1127 32.6319 38.5704 32.0897 37.9018 32.0897C37.2331 32.0897 36.6908 32.6319 36.6908 33.3007V35.8033H35.3185C34.6498 35.8033 34.1075 36.3454 34.1075 37.0142C34.1075 37.683 34.6498 38.2252 35.3185 38.2252H42.7186C43.3873 38.2252 43.9296 37.683 43.9296 37.0142V32.6635C43.9296 32.5134 43.9235 32.3647 43.9148 32.2167H49.495C50.1637 32.2167 50.7059 31.6745 50.7059 31.0057V28.7442C50.7059 26.0995 48.9094 23.8232 46.337 23.2088ZM41.0813 12.0684C42.6679 12.0684 43.9704 13.3073 44.0726 14.8685H42.389C40.9737 14.8685 39.5808 14.5277 38.3289 13.8789C38.7894 12.8147 39.8499 12.0684 41.0813 12.0684ZM38.0835 17.6902C38.085 17.6312 38.088 17.5725 38.088 17.5131V16.4347C39.4468 16.997 40.908 17.2903 42.389 17.2903H44.0791V17.8671C44.0791 19.52 42.7344 20.8649 41.0813 20.8649C39.4283 20.8649 38.0835 19.52 38.0835 17.867V17.6902ZM26.3636 13.6121C26.3636 11.0475 28.4501 8.96093 31.0148 8.96093C33.3281 8.96093 35.2521 10.6584 35.6074 12.873L33.5688 11.6752C33.0589 11.3756 32.4072 11.4881 32.0273 11.9416C31.0311 13.1305 29.5701 13.8124 28.0189 13.8124H26.3636V13.6121ZM20.9332 12.0684C22.1646 12.0684 23.225 12.8148 23.6857 13.8788C22.4336 14.5276 21.0409 14.8683 19.6255 14.8683H17.942C18.0442 13.3073 19.3468 12.0684 20.9332 12.0684ZM17.9354 17.2902H19.6255C21.1081 17.2902 22.5709 16.9963 23.931 16.4327V17.8669C23.931 19.5198 22.5863 20.8646 20.9332 20.8646C19.2802 20.8646 17.9354 19.52 17.9354 17.867V17.2902ZM23.7845 25.4137C21.4021 25.9846 19.5297 27.6456 18.6386 29.7947H13.7305V28.7441C13.7305 27.2248 14.7624 25.9171 16.2401 25.5641L19.3241 24.8274C19.8692 24.6972 20.2538 24.2101 20.2538 23.6497V23.2425C20.4766 23.2705 20.703 23.2866 20.9332 23.2866C21.1617 23.2866 21.3866 23.2708 21.6077 23.2432V23.5886C21.6068 23.6067 21.6065 23.6247 21.6064 23.6428C21.6061 24.0401 21.8014 24.4293 22.1601 24.6613C22.2953 24.7488 22.4413 24.8057 22.5904 24.8342L24.3967 25.267L23.7845 25.4137ZM27.1622 23.5339C26.8512 23.3967 26.5269 23.287 26.1927 23.2069L24.0294 22.6885V22.3112C24.4198 22.0384 24.7728 21.7159 25.079 21.3524C25.6198 22.1855 26.3303 22.8979 27.1622 23.4405V23.5339ZM32.4216 25.3131L31.0045 28.536L29.5842 25.3049V24.4408C30.0464 24.5361 30.5249 24.5863 31.0148 24.5863C31.4964 24.5863 31.9667 24.5375 32.4216 24.4454V25.3131ZM31.0148 22.1643C28.4501 22.1645 26.3636 20.0779 26.3636 17.5131V16.2342H28.0189C29.9392 16.2342 31.765 15.5201 33.1644 14.2464L35.6615 15.7136V17.6903C35.5681 20.1731 33.5203 22.1643 31.0148 22.1643ZM34.8434 23.5378V23.4558C35.6821 22.9135 36.399 22.1993 36.944 21.3626C37.2481 21.722 37.5981 22.0409 37.9847 22.3112V22.6885L35.8214 23.2069C35.4843 23.2878 35.1572 23.3989 34.8434 23.5378ZM48.2839 29.7947H43.3591C42.4671 27.6456 40.5934 25.9856 38.2096 25.416L37.6016 25.2709L39.4176 24.8357C39.5687 24.8076 39.7172 24.7499 39.8542 24.6613C40.2122 24.4296 40.4069 24.0404 40.4069 23.6431C40.4069 23.6337 40.4068 23.6241 40.4066 23.6147V23.2432C40.6278 23.2708 40.8526 23.2866 41.0811 23.2866C41.3113 23.2866 41.5377 23.2705 41.7605 23.2425V23.6497C41.7605 24.2101 42.1451 24.6972 42.6902 24.8274L45.7742 25.5641C47.2519 25.9173 48.2839 27.2248 48.2839 28.7441V29.7947Z" fill="#278FD9"/>
<path d="M31.856 36.1573C31.6297 35.9321 31.3185 35.8037 31 35.8037C30.6802 35.8037 30.3691 35.9321 30.1439 36.1573C29.9174 36.3837 29.7891 36.695 29.7891 37.0146C29.7891 37.3331 29.9174 37.6443 30.1439 37.8708C30.3691 38.096 30.6803 38.2256 31 38.2256C31.3185 38.2256 31.6297 38.096 31.856 37.8708C32.0812 37.6443 32.2109 37.3331 32.2109 37.0146C32.2109 36.695 32.0814 36.3837 31.856 36.1573Z" fill="#278FD9"/>
<path d="M30.999 0C30.3303 0 29.7881 0.542135 29.7881 1.21093V3.02285C29.7881 3.69165 30.3303 4.23378 30.999 4.23378C31.6677 4.23378 32.21 3.69165 32.21 3.02285V1.21093C32.21 0.542135 31.6678 0 30.999 0Z" fill="#278FD9"/>
<path d="M26.5382 3.94993L25.2679 2.68087C24.7948 2.20812 24.0282 2.20849 23.5554 2.6816C23.0827 3.15471 23.0832 3.92147 23.5563 4.3941L24.8267 5.66316C25.0631 5.89941 25.3728 6.01748 25.6824 6.01748C25.9926 6.01748 26.3026 5.89905 26.5391 5.66243C27.0116 5.18932 27.0113 4.42256 26.5382 3.94993Z" fill="#278FD9"/>
<path d="M38.4131 2.71194C37.94 2.23931 37.1731 2.23955 36.7006 2.71279L35.4402 3.97446C34.9675 4.44757 34.9679 5.21433 35.441 5.68696C35.6775 5.92321 35.9871 6.04128 36.2969 6.04128C36.607 6.04128 36.9171 5.92285 37.1535 5.68611L38.414 4.42444C38.8866 3.95133 38.8862 3.18457 38.4131 2.71194Z" fill="#278FD9"/>
</g>
<defs>
<clipPath id="clip0_1623_2717">
<rect width="62" height="62" fill="white"/>
</clipPath>
</defs>
</svg>
