<svg width="20" height="19" viewBox="0 0 20 19" fill="none" xmlns="http://www.w3.org/2000/svg">
<path d="M6.52296 5.57054C6.52296 3.76672 7.98996 2.29972 9.79377 2.29972C11.5973 2.29972 13.0642 3.76629 13.0646 5.56974C13.0573 7.33948 11.6771 8.76797 9.91835 8.83358H9.91833H9.91831H9.91829H9.91827H9.91824H9.91822H9.9182H9.91817H9.91815H9.91813H9.91811H9.91808H9.91806H9.91804H9.91801H9.91799H9.91797H9.91795H9.91792H9.9179H9.91788H9.91785H9.91783H9.91781H9.91779H9.91776H9.91774H9.91772H9.91769H9.91767H9.91765H9.91762H9.9176H9.91758H9.91756H9.91753H9.91751H9.91749H9.91746H9.91744H9.91742H9.91739H9.91737H9.91735H9.91732H9.9173H9.91728H9.91725H9.91723H9.91721H9.91718H9.91716H9.91714H9.91711H9.91709H9.91706H9.91704H9.91702H9.91699H9.91697H9.91695H9.91692H9.9169H9.91687H9.91685H9.91683H9.9168H9.91678H9.91675H9.91673H9.9167H9.91668H9.91666H9.91663H9.91661H9.91658H9.91656H9.91653H9.91651H9.91648H9.91646H9.91643H9.91641H9.91638H9.91636H9.91633H9.91631H9.91628H9.91626H9.91623H9.91621H9.91618H9.91616H9.91613H9.91611H9.91608H9.91606H9.91603H9.916H9.91598H9.91595H9.91593H9.9159H9.91587H9.91585H9.91582H9.91579H9.91577H9.91574H9.91571H9.91569H9.91566H9.91563H9.91561H9.91558H9.91555H9.91553H9.9155H9.91547H9.91544H9.91542H9.91539H9.91536H9.91533H9.91531H9.91528H9.91525H9.91522H9.91519H9.91517H9.91514H9.91511H9.91508H9.91505H9.91502H9.915H9.91497H9.91494H9.91491H9.91488H9.91485H9.91482H9.91479H9.91476H9.91473H9.9147H9.91467H9.91464H9.91461H9.91458H9.91455H9.91452H9.91449H9.91446H9.91443H9.9144H9.91437H9.91434H9.91431H9.91428H9.91425H9.91422H9.91418H9.91415H9.91412H9.91409H9.91406H9.91403H9.91399H9.91396H9.91393H9.9139H9.91386H9.91383H9.9138H9.91377H9.91373H9.9137H9.91367H9.91363H9.9136H9.91357H9.91353H9.9135H9.91346H9.91343H9.9134H9.91336H9.91333H9.91329H9.91326H9.91322H9.91319H9.91315H9.91312H9.91308H9.91305H9.91301H9.91297H9.91294H9.9129H9.91287H9.91283H9.91279H9.91276H9.91272H9.91268H9.91265H9.91261H9.91257H9.91253H9.9125H9.91246H9.91242H9.91238H9.91234H9.91231H9.91227H9.91223H9.91219H9.91215H9.91211H9.91207H9.91203H9.91199H9.91195H9.91191H9.91187H9.91183H9.91179H9.91175H9.91171H9.91167H9.91163H9.91159H9.91155H9.91151H9.91147H9.91142H9.91138H9.91134H9.9113H9.91126H9.91121H9.91117H9.91113H9.91108H9.91104H9.911H9.91095H9.91091H9.91087H9.91082H9.91078H9.91073H9.91069H9.91064H9.9106H9.91055H9.91051H9.91046H9.91037H9.91028H9.91019H9.9101H9.91001H9.90992H9.90983H9.90974H9.90965H9.90956H9.90947H9.90938H9.90929H9.9092H9.90912H9.90903H9.90894H9.90885H9.90876H9.90867H9.90859H9.9085H9.90841H9.90832H9.90824H9.90815H9.90806H9.90798H9.90789H9.9078H9.90772H9.90763H9.90755H9.90746H9.90738H9.90729H9.90721H9.90712H9.90704H9.90695H9.90687H9.90678H9.9067H9.90661H9.90653H9.90645H9.90636H9.90628H9.9062H9.90611H9.90603H9.90595H9.90586H9.90578H9.9057H9.90562H9.90553H9.90545H9.90537H9.90529H9.90521H9.90513H9.90504H9.90496H9.90488H9.9048H9.90472H9.90464H9.90456H9.90448H9.9044H9.90432H9.90424H9.90416H9.90408H9.904H9.90392H9.90384H9.90376H9.90368H9.9036H9.90352H9.90344H9.90336H9.90329H9.90321H9.90313H9.90305H9.90297H9.90289H9.90282H9.90274H9.90266H9.90258H9.90251H9.90243H9.90235H9.90227H9.9022H9.90212H9.90204H9.90197H9.90189H9.90181H9.90174H9.90166H9.90159H9.90151H9.90143H9.90136H9.90128H9.90121H9.90113H9.90106H9.90098H9.9009H9.90083H9.90075H9.90068H9.9006H9.90053H9.90046H9.90038H9.90031H9.90023H9.90016H9.90008H9.90001H9.89994H9.89986H9.89984C9.828 8.82546 9.75394 8.82642 9.68593 8.83271C7.88766 8.75621 6.52296 7.32869 6.52296 5.57054Z" stroke="black" stroke-width="0.848645"/>
<path d="M6.08158 15.9848L6.08042 15.984C5.18599 15.3877 4.74463 14.6201 4.74463 13.8399C4.74463 13.0595 5.1863 12.2842 6.08794 11.6805C7.09739 11.0126 8.44238 10.6664 9.80662 10.6664C11.1714 10.6664 12.5123 11.0129 13.5134 11.6803C14.4048 12.2746 14.8422 13.042 14.8492 13.8262C14.8485 14.6138 14.4068 15.3812 13.512 15.9849C12.507 16.6596 11.1628 17.0096 9.7969 17.0096C8.43091 17.0096 7.08656 16.6596 6.08158 15.9848Z" stroke="black" stroke-width="0.848645"/>
</svg>
