<svg width="48" height="49" viewBox="0 0 48 49" fill="none" xmlns="http://www.w3.org/2000/svg">
<g opacity="0.5">
<path d="M36.6131 46.493H11.4013C5.61037 46.493 0.89624 41.7124 0.89624 35.8399V26.2522H47.1177V35.8399C47.1177 41.7124 42.4036 46.493 36.6131 46.493ZM2.99709 28.3827V35.8399C2.99709 40.5405 6.76601 44.3622 11.4013 44.3622H36.6131C41.2483 44.3622 45.0169 40.5405 45.0169 35.8399V28.3827H2.99709Z" fill="black"/>
<path d="M13.5044 45.4268H15.6052V48.6227H13.5044V45.4268Z" fill="black"/>
<path d="M32.4116 45.4268H34.5125V48.6227H32.4116V45.4268Z" fill="black"/>
<path d="M9.29983 27.3172H7.19897V8.1418C7.19897 4.02677 10.4947 0.68457 14.5525 0.68457C18.61 0.68457 21.9057 4.02677 21.9057 8.1418V9.20684H19.8049V8.1418C19.8049 5.1987 17.4543 2.81504 14.5525 2.81504C11.6504 2.81504 9.29983 5.1987 9.29983 8.1418V27.3172Z" fill="black"/>
<path d="M28.2111 17.7303H13.5044V15.5994C13.5044 11.4848 16.8001 8.14258 20.858 8.14258C24.9154 8.14258 28.2111 11.4848 28.2111 15.5994V17.7303ZM15.6052 15.5994H26.1103C26.1103 12.6567 23.7598 10.273 20.858 10.273C17.9558 10.273 15.6052 12.6567 15.6052 15.5994Z" fill="black"/>
</g>
</svg>
