<svg width="47" height="47" viewBox="0 0 47 47" fill="none" xmlns="http://www.w3.org/2000/svg">
<g opacity="0.5" clip-path="url(#clip0_88_1498)">
<path d="M0.333248 9.71069L9.57796 0.335568C9.87921 0.0300709 10.3661 0.0300709 10.6673 0.335568L46.1032 36.2709C46.4044 36.5764 46.4044 37.0702 46.1032 37.3757L36.8585 46.7507C36.7144 46.8975 36.5179 46.9796 36.3138 46.9796C36.1097 46.9796 35.914 46.8975 35.7692 46.7507L0.333427 10.8154C0.188625 10.6693 0.107742 10.4701 0.107742 10.2631C0.107559 10.056 0.188442 9.85753 0.333248 9.71069ZM36.3137 45.0937L44.4691 36.8233L10.1227 1.99269L1.96733 10.263L36.3137 45.0937Z" fill="black"/>
<path d="M9.349 7.13855C10.6232 7.13855 11.6602 8.19008 11.6602 9.48229C11.6602 10.7745 10.6232 11.826 9.349 11.826C8.07475 11.826 7.03785 10.7745 7.03785 9.48229C7.03785 8.19017 8.07475 7.13855 9.349 7.13855ZM9.349 10.2636C9.77429 10.2636 10.1194 9.91275 10.1194 9.48229C10.1194 9.05182 9.77429 8.70101 9.349 8.70101C8.92371 8.70101 8.57858 9.05182 8.57858 9.48229C8.57858 9.91284 8.92371 10.2636 9.349 10.2636Z" fill="black"/>
<path d="M16.5084 7.36784L17.5979 8.47266L15.2866 10.8165L14.1971 9.71173L16.5084 7.36784Z" fill="black"/>
<path d="M18.8214 9.71159L19.9109 10.8164L16.8293 13.9414L15.7398 12.8366L18.8214 9.71159Z" fill="black"/>
<path d="M21.1308 12.0553L22.2202 13.1602L19.9089 15.504L18.8195 14.3992L21.1308 12.0553Z" fill="black"/>
<path d="M23.4423 14.3981L24.5317 15.5029L21.4501 18.628L20.3607 17.5231L23.4423 14.3981Z" fill="black"/>
<path d="M25.7548 16.7419L26.8442 17.8467L24.5329 20.1906L23.4435 19.0858L25.7548 16.7419Z" fill="black"/>
<path d="M28.0624 19.0849L29.1519 20.1897L26.0703 23.3147L24.9808 22.2099L28.0624 19.0849Z" fill="black"/>
<path d="M30.3772 21.4263L31.4666 22.5312L29.1554 24.8743L28.0661 23.7693L30.3772 21.4263Z" fill="black"/>
<path d="M32.6864 23.7732L33.7759 24.8781L30.6943 28.0031L29.6048 26.8983L32.6864 23.7732Z" fill="black"/>
<path d="M34.9984 26.1169L36.0879 27.2217L33.7766 29.5656L32.6871 28.4608L34.9984 26.1169Z" fill="black"/>
<path d="M37.3102 28.4616L38.3997 29.5664L35.3181 32.6914L34.2286 31.5866L37.3102 28.4616Z" fill="black"/>
<path d="M39.6207 30.8036L40.7102 31.9084L38.3989 34.2523L37.3094 33.1475L39.6207 30.8036Z" fill="black"/>
<path d="M41.9313 33.1471L43.0208 34.252L39.9392 37.377L38.8497 36.2722L41.9313 33.1471Z" fill="black"/>
</g>
<defs>
<clipPath id="clip0_88_1498">
<rect width="46.2215" height="46.8731" fill="white" transform="matrix(-1 0 0 1 46.3289 0.108398)"/>
</clipPath>
</defs>
</svg>
