<svg width="62" height="42" viewBox="0 0 62 42" fill="none" xmlns="http://www.w3.org/2000/svg">
<g opacity="0.5">
<path d="M58.9347 18.2789C57.9804 16.9942 54.4351 16.1096 52.9353 13.7977C51.4354 11.4859 50.2076 6.47921 46.3903 4.55551C42.5729 2.63181 35.2767 2.0918 31.1104 2.0918C26.9442 2.0918 19.6532 2.61992 15.8306 4.55155C12.008 6.48317 10.7855 11.4859 9.28562 13.7938C7.78576 16.1017 4.24051 16.9942 3.28617 18.2789C2.33183 19.5636 1.66002 27.6848 2.06884 31.6669C2.47765 35.649 3.2406 38.0044 3.2406 38.0044H14.4375C16.2707 38.0044 16.867 37.306 20.6166 36.9482C24.7308 36.5521 28.7669 36.42 31.1104 36.42C33.454 36.42 37.6203 36.5521 41.7319 36.9482C45.4815 37.3086 46.0973 38.0044 47.911 38.0044H58.9777C58.9777 38.0044 59.7406 35.649 60.1494 31.6669C60.5583 27.6848 59.8838 19.5636 58.9347 18.2789ZM49.8587 38.0044H57.1497V40.1169H49.8587V38.0044ZM5.07116 38.0044H12.3622V40.1169H5.07116V38.0044Z" stroke="black" stroke-width="2.27029" stroke-linecap="round" stroke-linejoin="round"/>
<path d="M45.2328 28.124C44.4634 27.2223 41.9558 26.4697 38.6358 25.9653C35.3158 25.4609 34.105 25.3302 31.1365 25.3302C28.168 25.3302 26.8179 25.5468 23.6359 25.9653C20.4539 26.3838 18.0648 27.1285 17.0401 28.124C15.5025 29.6345 17.7549 31.3298 19.523 31.5357C21.2364 31.7338 24.6618 31.6612 31.1508 31.6612C37.6398 31.6612 41.0653 31.7338 42.7786 31.5357C44.5441 31.3179 46.6351 29.7401 45.2328 28.124ZM53.969 19.3954C53.9617 19.2905 53.9165 19.1921 53.842 19.119C53.7675 19.0459 53.669 19.0033 53.5654 18.9993C52.0278 18.9439 50.4667 19.0548 47.6975 19.8826C46.2846 20.3009 44.9579 20.9745 43.7812 21.871C43.4843 22.106 43.5898 22.7411 43.9621 22.8084C46.2447 23.0799 48.5409 23.2166 50.8391 23.2177C52.2179 23.2177 53.6409 22.8216 53.9052 21.5753C54.04 20.8566 54.0615 20.1209 53.969 19.3954ZM8.25187 19.3954C8.25918 19.2905 8.30442 19.1921 8.37891 19.119C8.4534 19.0459 8.5519 19.0033 8.65548 18.9993C10.1931 18.9439 11.7542 19.0548 14.5234 19.8826C15.9363 20.3009 17.263 20.9745 18.4397 21.871C18.7366 22.106 18.6311 22.7411 18.2588 22.8084C15.9762 23.0799 13.68 23.2166 11.3818 23.2177C10.003 23.2177 8.57997 22.8216 8.31567 21.5753C8.18092 20.8566 8.15939 20.1209 8.25187 19.3954Z" fill="black"/>
<path d="M54.026 12.6553H56.1092M6.11377 12.6553H8.19691M7.93652 15.1639C7.93652 15.1639 13.9711 13.5795 31.1115 13.5795C48.2518 13.5795 54.2864 15.1639 54.2864 15.1639" stroke="black" stroke-width="2.27029" stroke-linecap="round" stroke-linejoin="round"/>
</g>
</svg>
