<svg width="59" height="59" viewBox="0 0 59 59" fill="none" xmlns="http://www.w3.org/2000/svg">
<g opacity="0.5" clip-path="url(#clip0_88_1643)">
<path d="M57.4226 53.0472H1.0834C0.668075 53.0472 0.331543 52.7107 0.331543 52.2953V49.0873C0.331543 48.672 0.668075 48.3355 1.0834 48.3355H1.99826V27.6846H1.0834C0.668075 27.6846 0.331543 27.3481 0.331543 26.9328C0.331543 26.5174 0.668075 26.1809 1.0834 26.1809H16.0385V6.53213C16.0385 6.11681 16.375 5.78027 16.7903 5.78027H41.5208C41.9361 5.78027 42.2726 6.11681 42.2726 6.53213V26.1806H57.4226C57.8379 26.1806 58.1744 26.5171 58.1744 26.9325C58.1744 27.3478 57.8379 27.6843 57.4226 27.6843H56.533V48.3355H57.4226C57.8379 48.3355 58.1744 48.672 58.1744 49.0873V52.2953C58.1744 52.7107 57.8379 53.0472 57.4226 53.0472ZM1.83526 51.5435H56.6707V49.8392H1.83526V51.5435ZM52.4729 48.3355H55.0293V27.6846H52.4729V48.3355ZM47.4827 48.3355H50.9692V27.6846H47.4827V48.3355ZM42.4925 48.3355H45.979V27.6846H42.4925V48.3355ZM37.5025 48.3355H40.7689V27.6846H37.5025V48.3355ZM32.5123 48.3355H35.9988V27.6846H32.5123V48.3355ZM27.5224 48.3355H31.0086V27.6846H27.5224V48.3355ZM22.5321 48.3355H26.0186V27.6846H22.5321V48.3355ZM17.5422 48.3355H21.0287V27.6846H17.5422V48.3355ZM12.552 48.3355H16.0382V27.6846H12.552V48.3355ZM7.56202 48.3355H11.0485V27.6846H7.56202V48.3355ZM3.50198 48.3355H6.0583V27.6846H3.50198V48.3355ZM39.03 26.1809H40.7689V7.28399H17.5422V26.1806H19.2814V9.79009C19.2814 9.37476 19.6179 9.03823 20.0332 9.03823H27.7524C28.1678 9.03823 28.5043 9.37476 28.5043 9.79009V26.1806H29.8074V9.79009C29.8074 9.37476 30.1439 9.03823 30.5593 9.03823H38.2784C38.6938 9.03823 39.0303 9.37476 39.0303 9.79009V26.1809H39.03ZM31.3108 26.1722H37.5263V10.5422H31.3108V26.1722ZM20.7848 26.1722H27.0003V10.5422H20.7848V26.1722Z" fill="black"/>
</g>
<defs>
<clipPath id="clip0_88_1643">
<rect width="57.8429" height="57.8429" fill="white" transform="translate(0.331543 0.493164)"/>
</clipPath>
</defs>
</svg>
