<svg width="60" height="60" viewBox="0 0 60 60" fill="none" xmlns="http://www.w3.org/2000/svg">
<g clip-path="url(#clip0_244_2251)">
<path d="M25.9096 8.79619L25.9106 8.79538C28.8716 6.41729 33.6199 6.4316 36.6242 8.82476C36.6246 8.82505 36.625 8.82534 36.6253 8.82563L54.3845 23.0329C54.386 23.0341 54.3874 23.0353 54.3889 23.0365C55.4209 23.8795 56.312 25.1964 56.8864 26.6995C57.4604 28.2016 57.6754 29.7783 57.4747 31.0944L54.0592 51.5337C54.059 51.535 54.0587 51.5362 54.0585 51.5375C53.3771 55.4497 49.5729 58.673 45.6316 58.673H16.8733C12.8746 58.673 9.15511 55.5281 8.4738 51.5661C8.47364 51.5652 8.47349 51.5643 8.47334 51.5634L5.05585 31.1127L5.05535 31.1097C4.83062 29.7838 5.03261 28.2038 5.6053 26.702C6.17794 25.2004 7.08009 23.8847 8.13693 23.0415L8.1392 23.0397L25.9096 8.79619ZM31.2525 52.4643C33.0852 52.4643 34.5916 50.9579 34.5916 49.1252V40.9861C34.5916 39.1534 33.0852 37.6469 31.2525 37.6469C29.4198 37.6469 27.9133 39.1534 27.9133 40.9861V49.1252C27.9133 50.9579 29.4198 52.4643 31.2525 52.4643Z" stroke="white" stroke-width="2.6087"/>
</g>
<defs>
<clipPath id="clip0_244_2251">
<rect width="60" height="60" fill="white"/>
</clipPath>
</defs>
</svg>
