<svg width="30" height="30" viewBox="0 0 30 30" fill="none" xmlns="http://www.w3.org/2000/svg">
<g clip-path="url(#clip0_244_2430)">
<path d="M12.9546 4.39808L12.9551 4.39768C14.4356 3.20863 16.8097 3.21578 18.3119 4.41237C18.3121 4.41251 18.3122 4.41266 18.3124 4.4128L27.192 11.5164C27.1927 11.517 27.1935 11.5176 27.1942 11.5182C27.7102 11.9397 28.1558 12.5982 28.443 13.3497C28.7299 14.1008 28.8375 14.8891 28.7371 15.5472L27.0293 25.7668C27.0292 25.7675 27.0291 25.7681 27.029 25.7687C26.6883 27.7248 24.7862 29.3365 22.8156 29.3365H8.43643C6.43703 29.3365 4.57731 27.764 4.23666 25.783C4.23658 25.7826 4.2365 25.7821 4.23642 25.7817L2.52768 15.5563L2.52743 15.5548C2.41507 14.8919 2.51606 14.1019 2.80241 13.351C3.08872 12.6002 3.5398 11.9423 4.06822 11.5207L4.06935 11.5198L12.9546 4.39808ZM15.626 26.2322C16.5424 26.2322 17.2956 25.4789 17.2956 24.5626V20.493C17.2956 19.5767 16.5424 18.8235 15.626 18.8235C14.7096 18.8235 13.9564 19.5767 13.9564 20.493V24.5626C13.9564 25.4789 14.7096 26.2322 15.626 26.2322Z" stroke="black" stroke-width="1.30435"/>
</g>
<defs>
<clipPath id="clip0_244_2430">
<rect width="30" height="30" fill="white"/>
</clipPath>
</defs>
</svg>
