<svg width="46" height="46" viewBox="0 0 46 46" fill="none" xmlns="http://www.w3.org/2000/svg">
<g clip-path="url(#clip0_156_1343)">
<path d="M23 45.3262C35.3304 45.3262 45.3262 35.3304 45.3262 23C45.3262 10.6696 35.3304 0.673828 23 0.673828C10.6696 0.673828 0.673828 10.6696 0.673828 23C0.673828 35.3304 10.6696 45.3262 23 45.3262Z" fill="#CBE2FF"/>
<path d="M23.0003 0.673828C22.0389 0.673828 21.0915 0.734652 20.1621 0.852617C31.1524 2.2469 39.6502 11.6311 39.6502 23C39.6502 34.3689 31.1525 43.7531 20.1622 45.1474C21.0916 45.2653 22.0389 45.3262 23.0004 45.3262C35.3308 45.3262 45.3265 35.3304 45.3265 23C45.3265 10.6696 35.3307 0.673828 23.0003 0.673828Z" fill="#BED8FB"/>
<path d="M28.5485 9.12912C28.5485 7.98883 27.6241 7.06451 26.4838 7.06451H19.3689C16.7446 7.06451 14.6172 9.19192 14.6172 11.8163V17.092H31.3801V11.8912C31.3801 10.7509 30.4557 9.82658 29.3154 9.82658H29.2459C28.8607 9.82649 28.5485 9.51428 28.5485 9.12912Z" fill="#365E7D"/>
<path d="M29.3147 9.82649H29.2451C28.8601 9.82649 28.5478 9.51428 28.5478 9.12921C28.5478 7.98892 27.6234 7.06461 26.4832 7.06461H25.7031V17.0921H31.3794V11.8913C31.3793 10.7508 30.455 9.82649 29.3147 9.82649Z" fill="#2B4D66"/>
<path d="M39.2183 36.6781C39.2183 34.5152 37.817 32.6015 35.755 31.9487L29.6596 30.0189L23.0012 29.7848L16.34 30.0189L10.2446 31.9487C8.18263 32.6016 6.78125 34.5152 6.78125 36.6781V38.3432C10.8423 42.6345 16.5881 45.3149 22.96 45.3261C23.8691 45.3246 24.766 45.272 25.6483 45.1707C30.9709 44.5416 35.7198 42.0401 39.2184 38.3432V36.6781H39.2183Z" fill="#4A80AA"/>
<path d="M39.2175 38.3433V36.6782C39.2175 35.1489 38.5162 33.7448 37.3768 32.8223C34.1404 39.4177 27.7468 44.1831 20.166 45.1468C21.0811 45.2627 22.0129 45.3246 22.9591 45.3262C23.8681 45.3247 24.765 45.2721 25.6473 45.1707C30.9698 44.5417 35.7189 42.0402 39.2175 38.3433Z" fill="#407093"/>
<path d="M27.3695 29.9385L23.0001 28.2379L18.6266 29.9386C17.5787 34.9081 21.465 42.9974 22.6596 45.3217C22.7593 45.3232 22.8588 45.3259 22.9589 45.3261C23.0854 45.3259 23.2112 45.3223 23.3372 45.3202C24.5329 42.9939 28.4173 34.9069 27.3695 29.9385Z" fill="#E4F6FF"/>
<path d="M21.9625 35.8962L20.1953 42.8469L22.4176 45.321C22.8087 45.3291 23.1968 45.3279 23.5884 45.317L25.807 42.8659L24.0354 35.8963H21.9625V35.8962Z" fill="#E28086"/>
<path d="M22.4152 45.3178C22.5961 45.3226 22.7774 45.3258 22.9594 45.3261C23.1701 45.3257 23.3799 45.3221 23.5893 45.3162L24.7148 44.0726C23.8289 44.3834 22.9174 44.64 21.9844 44.8382L22.4152 45.3178Z" fill="#DD636E"/>
<path d="M26.7312 29.2952V25.3649H19.2676V29.2952C19.2676 31.3562 22.9994 33.6075 22.9994 33.6075C22.9994 33.6075 26.7312 31.3562 26.7312 29.2952Z" fill="#FFDDCE"/>
<path d="M31.3801 16.3996H29.9534C29.16 16.3996 28.5167 15.7564 28.5167 14.9629V14.1767C28.5167 13.1432 27.5055 12.4124 26.5242 12.7367C24.2355 13.4931 21.7643 13.4933 19.4755 12.7372L19.4728 12.7363C18.4915 12.4122 17.4805 13.143 17.4805 14.1764V14.9629C17.4805 15.7564 16.8373 16.3996 16.0438 16.3996H14.6172V18.749C14.6172 19.3493 15.1039 19.8359 15.7041 19.8359C15.8935 19.8359 16.0477 19.9843 16.0595 20.1732C16.2887 23.8072 19.3069 26.684 22.9985 26.684C26.6902 26.684 29.7083 23.8072 29.9375 20.1732C29.9495 19.9842 30.1036 19.8359 30.2929 19.8359C30.8933 19.8359 31.3799 19.3492 31.3799 18.749V16.3996H31.3801Z" fill="#FFDDCE"/>
<path d="M29.9544 16.3996C29.161 16.3996 28.5177 15.7564 28.5177 14.9629V14.1767C28.5177 13.1431 27.5065 12.4124 26.5252 12.7367C26.2541 12.8263 25.9803 12.9044 25.7047 12.9728V20.7322C25.6665 23.2567 24.2832 25.454 22.2402 26.6415C22.4897 26.6686 22.7428 26.6839 22.9995 26.6839C26.6912 26.6839 29.7093 23.8071 29.9385 20.1732C29.9504 19.9841 30.1045 19.8358 30.2939 19.8358C30.8943 19.8358 31.3808 19.3491 31.3808 18.7489V16.3995H29.9544V16.3996Z" fill="#FFCBBE"/>
<path d="M19.2665 28.2379L16.3398 30.616L19.409 34.4108C19.7823 34.7743 20.3701 34.7967 20.7699 34.4627L23.078 32.5347L19.2665 28.2379Z" fill="#F4FBFF"/>
<path d="M26.7316 28.2379L23.0781 32.5346L25.2475 34.3894C25.645 34.7292 26.2353 34.7121 26.6124 34.3499L29.6596 30.616L26.7316 28.2379Z" fill="#F4FBFF"/>
<path d="M19.2662 28.2379L14.9705 30.3483C14.6435 30.509 14.5122 30.9068 14.6792 31.2306L15.5208 32.8624C15.7388 33.2852 15.6584 33.8004 15.3217 34.1365C15.1484 34.3095 14.9607 34.4968 14.798 34.6592C14.5069 34.9499 14.4023 35.3792 14.5306 35.7701C15.5466 38.8675 20.437 43.6042 22.2877 45.3178C22.4121 45.3211 22.5368 45.3234 22.6618 45.3248C21.3198 42.7144 16.5638 32.7964 19.2662 28.2379Z" fill="#365E7D"/>
<path d="M30.677 34.1365C30.3402 33.8004 30.2598 33.2852 30.4779 32.8624L31.3194 31.2306C31.4865 30.9068 31.3551 30.509 31.0281 30.3483L26.7324 28.2379C29.434 32.7952 24.6814 42.7089 23.3379 45.3226C23.4641 45.3204 23.5902 45.3173 23.716 45.3131C25.5705 43.5955 30.4529 38.8646 31.468 35.77C31.5962 35.3791 31.4917 34.9497 31.2006 34.6591C31.0379 34.4968 30.8502 34.3095 30.677 34.1365Z" fill="#365E7D"/>
<path d="M23.0775 32.5346L20.8047 34.4327L21.9627 35.8962H24.0355L25.1936 34.3463L23.0775 32.5346Z" fill="#DD636E"/>
<path d="M46 23C46 10.2885 35.7132 0 23 0C10.2886 0 0 10.2868 0 23C0 35.3855 9.90411 45.7965 22.6308 45.9955C22.847 46.0052 23.3165 45.9961 23.3256 45.9961C23.3294 45.9961 23.3454 45.9959 23.3496 45.9958C35.9049 45.8098 46 35.5785 46 23ZM23 1.34766C34.9666 1.34766 44.6523 11.0317 44.6523 23C44.6523 27.9888 42.9752 32.7193 39.8898 36.5502C39.8362 34.1358 38.2707 32.0384 35.9585 31.3062L31.5992 29.9261C31.3525 29.7149 31.4175 29.8058 27.4042 27.8174V25.9498C29.1539 24.7075 30.3656 22.7463 30.5884 20.4849C31.4192 20.344 32.0539 19.6192 32.0539 18.749C32.0539 17.4583 32.0539 13.215 32.0539 11.8911C32.0539 10.3811 30.8255 9.15265 29.3155 9.15265H29.2459C29.233 9.15265 29.2225 9.14214 29.2225 9.1292C29.2225 7.6192 27.9941 6.39077 26.4841 6.39077H19.3691C16.3774 6.39077 13.9436 8.82463 13.9436 11.8163C13.9436 12.1885 14.2453 12.4902 14.6174 12.4902C14.9895 12.4902 15.2912 12.1885 15.2912 11.8163C15.2912 9.56773 17.1205 7.73842 19.3691 7.73842H26.4841C27.251 7.73842 27.8748 8.3623 27.8748 9.1292C27.8748 9.88524 28.4899 10.5003 29.2459 10.5003H29.3155C30.0824 10.5003 30.7063 11.1242 30.7063 11.8911V15.7258H29.9535C29.5328 15.7258 29.1906 15.3836 29.1906 14.963V14.1768C29.1906 12.6823 27.7316 11.628 26.3128 12.097C24.1765 12.8031 21.8233 12.8033 19.6842 12.0967C18.2651 11.628 16.8067 12.6823 16.8067 14.1765V14.963C16.8067 15.3837 16.4645 15.7259 16.0439 15.7259H15.2911V14.9305C15.2911 14.5584 14.9894 14.2567 14.6173 14.2567C14.2452 14.2567 13.9435 14.5584 13.9435 14.9305V18.749C13.9435 19.6194 14.5781 20.3441 15.409 20.4851C15.6317 22.7466 16.8435 24.7077 18.5931 25.95V27.8183C14.5881 29.8028 14.641 29.7192 14.3987 29.927L10.0416 31.3064C7.72944 32.0386 6.16391 34.136 6.11027 36.5503C3.02477 32.7193 1.34766 27.9888 1.34766 23C1.34766 11.0334 11.0317 1.34766 23 1.34766ZM15.2747 35.1361L15.7984 34.6134C16.345 34.0678 16.4743 33.2399 16.1202 32.5535L15.2894 30.9427L18.0122 29.605C17.7225 30.8169 17.7319 32.1488 17.8715 33.3971C17.8715 33.3981 17.8717 33.3991 17.8718 33.4C18.2203 36.5123 19.4908 40.0426 20.7605 42.9049C18.6695 40.8007 15.8752 37.7056 15.1715 35.5601C15.1225 35.4109 15.1621 35.2485 15.2747 35.1361ZM15.291 17.0735H16.0438C17.2076 17.0735 18.1543 16.1267 18.1543 14.9629V14.1764C18.1543 13.6041 18.7118 13.1949 19.2641 13.3771C21.6732 14.1729 24.3266 14.1728 26.7357 13.3766C27.2815 13.1963 27.8429 13.6016 27.8429 14.1768V14.963C27.8429 16.1268 28.7897 17.0735 29.9535 17.0735H30.7063V18.749C30.7063 18.9768 30.5209 19.1621 30.2931 19.1621C29.7509 19.1621 29.2994 19.5876 29.2652 20.1308C29.0573 23.4277 26.3047 26.0101 22.9987 26.0101C19.6927 26.0101 16.94 23.4277 16.7321 20.1308C16.6979 19.5876 16.2464 19.1621 15.7042 19.1621C15.4764 19.1621 15.2911 18.9768 15.2911 18.749V17.0735H15.291ZM22.9994 44.4983C22.5621 43.6212 21.9716 42.3718 21.381 40.9219L22.4875 36.5699H23.5124L24.6182 40.9205C24.0265 42.3734 23.4353 43.6241 22.9994 44.4983ZM22.1136 32.4624C21.7322 32.781 20.9499 33.4345 20.3382 33.9454C20.2105 34.052 20.0277 34.0514 19.9014 33.9476L19.1892 33.0671C19.0714 31.8859 19.0831 30.5801 19.452 29.462L22.1136 32.4624ZM20.1184 35.3742C20.2901 35.3742 20.4618 35.3464 20.6278 35.2938L21.2285 36.053L20.5499 38.7219C20.1612 37.6013 19.8108 36.4329 19.5532 35.2748C19.7357 35.3398 19.9266 35.3742 20.1184 35.3742ZM23.6987 35.2224H22.2897L21.7414 34.5294L23.0733 33.4168L24.2781 34.4469L23.6987 35.2224ZM25.6856 33.8773L24.027 32.4591L26.5544 29.4868C26.9146 30.5971 26.925 31.8833 26.8118 33.0401L26.1232 33.8839C25.9955 33.9869 25.8125 33.9857 25.6856 33.8773ZM22.9987 27.3578C24.083 27.3578 25.1179 27.1281 26.0566 26.7152V27.9917L23.0676 31.507L19.9406 27.982V26.7151C20.8793 27.1281 21.9142 27.3578 22.9987 27.3578ZM25.4494 38.72L24.7687 36.0418L25.3807 35.2227C25.5523 35.2795 25.7303 35.3091 25.9085 35.3091C26.0947 35.3091 26.2801 35.2764 26.458 35.215C26.2009 36.3858 25.8484 37.5692 25.4494 38.72ZM7.45523 38.0706V36.6782C7.45523 34.8004 8.65806 33.1579 10.4482 32.5912L14.0406 31.4539C14.0765 31.5378 14.0396 31.4568 14.9225 33.1714C15.0065 33.3342 14.9759 33.5304 14.8463 33.6597L14.3226 34.1824C13.848 34.6562 13.6825 35.3451 13.8909 35.9802C14.751 38.6019 18.1345 42.2325 20.4567 44.5044C15.5263 43.931 10.9755 41.6987 7.45523 38.0706ZM25.5418 44.5045C26.7941 43.2794 28.3638 41.6518 29.675 40.0034C29.9067 39.7121 29.8584 39.2882 29.5671 39.0565C29.2759 38.8249 28.8521 38.8731 28.6203 39.1644C27.5622 40.4947 26.3252 41.8159 25.2352 42.911C26.5088 40.0414 27.784 36.4991 28.1293 33.3771C28.1294 33.376 28.1295 33.3748 28.1296 33.3737C28.2665 32.1338 28.2745 30.8133 27.9863 29.6051L30.7091 30.9428L29.8783 32.5536C29.5243 33.2401 29.6536 34.0679 30.2003 34.6136L30.7239 35.1362C30.8364 35.2486 30.876 35.411 30.8271 35.5602C30.7215 35.882 30.5609 36.2434 30.3497 36.6345C30.1728 36.962 30.2949 37.3708 30.6223 37.5476C30.9497 37.7245 31.3585 37.6024 31.5353 37.275C31.7847 36.8136 31.9772 36.3778 32.1076 35.9801C32.316 35.345 32.1506 34.6562 31.6759 34.1823L31.1523 33.6597C31.0228 33.5303 30.9921 33.334 31.0761 33.1713C31.9525 31.4692 31.9226 31.5364 31.9581 31.4534L35.5517 32.5911C37.3419 33.1579 38.5447 34.8004 38.5447 36.6782V38.0706C35.0323 41.6907 30.4845 43.9301 25.5418 44.5045Z" fill="black"/>
</g>
<defs>
<clipPath id="clip0_156_1343">
<rect width="46" height="46" fill="white"/>
</clipPath>
</defs>
</svg>
