<svg width="26" height="23" viewBox="0 0 26 23" fill="none" xmlns="http://www.w3.org/2000/svg">
<path d="M13.9374 5.62475L13.971 5.63477L13.9724 5.6331C14.1316 5.66193 14.2896 5.56661 14.3363 5.40869C14.7626 3.97652 16.1054 2.97602 17.6015 2.97602C17.7786 2.97602 17.9223 2.83236 17.9223 2.65524C17.9223 2.47812 17.7786 2.33447 17.6015 2.33447C15.7628 2.33447 14.2177 3.55868 13.7216 5.22585C13.6709 5.39568 13.7677 5.57414 13.9374 5.62475Z" fill="#278FD9" stroke="#F9FFF9" stroke-width="0.109139"/>
<path d="M21.3288 15.6993H19.7316C19.5846 15.6993 19.4654 15.58 19.4654 15.4331C19.4654 15.2861 19.5846 15.1669 19.7316 15.1669H21.3288C23.5304 15.1669 25.3218 13.3755 25.3218 11.1738C25.3218 8.97216 23.5304 7.1808 21.3288 7.1808H21.2904C21.2132 7.1808 21.1398 7.14733 21.0892 7.08896C21.0386 7.03058 21.0158 6.95319 21.0268 6.87676C21.0506 6.71095 21.0626 6.54438 21.0626 6.3822C21.0626 4.4741 19.51 2.92155 17.6019 2.92155C16.8596 2.92155 16.1517 3.15352 15.5546 3.59256C15.4234 3.68897 15.2371 3.64619 15.1612 3.50186C13.4703 0.281972 9.05371 -0.150426 6.76394 2.6506C5.79936 3.83063 5.42036 5.36566 5.72406 6.86175C5.75752 7.02698 5.63107 7.181 5.46318 7.181H5.35651C3.15485 7.181 1.36348 8.97237 1.36348 11.174C1.36348 13.3757 3.15485 15.1671 5.35651 15.1671H6.95369C7.10068 15.1671 7.2199 15.2863 7.2199 15.4333C7.2199 15.5802 7.10068 15.6995 6.95369 15.6995H5.35651C2.86123 15.6995 0.831055 13.6693 0.831055 11.174C0.831055 8.74872 2.74883 6.76285 5.14754 6.65332C4.92221 5.10116 5.35308 3.53551 6.35171 2.31367C8.80323 -0.685475 13.5014 -0.349311 15.4874 2.99495C16.121 2.59773 16.846 2.38936 17.6018 2.38936C19.9136 2.38936 21.7455 4.35698 21.5852 6.65581C23.9618 6.7891 25.8541 8.7645 25.8541 11.1738C25.8541 13.6693 23.8239 15.6993 21.3286 15.6993L21.3288 15.6993Z" fill="#278FD9"/>
<path d="M6.5968 15.2829C6.5968 18.9827 9.60674 21.9926 13.3065 21.9926C17.0063 21.9926 20.0162 18.9826 20.0162 15.2829C20.0162 11.5831 17.0063 8.57318 13.3065 8.57318C9.60669 8.57318 6.5968 11.5831 6.5968 15.2829ZM7.23846 15.2829C7.23846 11.9371 9.96063 9.21484 13.3065 9.21484C16.6523 9.21484 19.3745 11.937 19.3745 15.2829C19.3745 18.6287 16.6523 21.3509 13.3065 21.3509C9.96068 21.3509 7.23846 18.6287 7.23846 15.2829Z" fill="#278FD9" stroke="#F9FFF9" stroke-width="0.109139"/>
<path d="M13.1798 17.9618C13.1798 18.0996 13.2915 18.2113 13.4293 18.2113C13.567 18.2113 13.6787 18.0998 13.6787 17.9618V12.8947C13.6787 12.7569 13.567 12.6452 13.4293 12.6452C13.2915 12.6452 13.1798 12.7569 13.1798 12.8947V17.9618Z" fill="#278FD9" stroke="#278FD9" stroke-width="0.109139"/>
<path d="M13.4288 13.2484L12.0462 14.6311L12.0461 14.6311L13.4288 13.2484ZM13.4288 13.2484L14.8116 14.6311C14.8602 14.6798 14.9242 14.7042 14.9879 14.7042L13.4288 13.2484ZM13.6052 12.7192C13.5078 12.6218 13.3498 12.6217 13.2524 12.7192L14.988 14.7042C15.0516 14.7042 15.1156 14.68 15.1644 14.6311C15.2618 14.5336 15.2618 14.3758 15.1643 14.2783L13.6052 12.7192Z" fill="#278FD9" stroke="#278FD9" stroke-width="0.109139"/>
</svg>
