<svg width="21" height="24" viewBox="0 0 21 24" fill="none" xmlns="http://www.w3.org/2000/svg">
<path d="M13.7061 11.0753C15.2344 9.96064 16.2296 8.15672 16.2296 6.12449C16.2296 2.74744 13.4822 0 10.1052 0C6.72825 0 3.98085 2.74744 3.98085 6.12449C3.98085 8.15672 4.97604 9.96064 6.50442 11.0753C2.70518 12.5292 0 16.2128 0 20.5171C0 22.3744 1.51106 23.8855 3.36841 23.8855H16.8421C18.6994 23.8855 20.2105 22.3744 20.2105 20.5171C20.2105 16.2128 17.5053 12.5292 13.7061 11.0753ZM5.81818 6.12449C5.81818 3.76057 7.74136 1.83737 10.1052 1.83737C12.4691 1.83737 14.3923 3.76057 14.3923 6.12449C14.3923 8.48841 12.4691 10.4117 10.1052 10.4117C7.74136 10.4117 5.81818 8.48841 5.81818 6.12449ZM16.8421 22.0482H3.36841C2.52418 22.0482 1.83734 21.3613 1.83734 20.517C1.83734 15.958 5.54626 12.2489 10.1053 12.2489C14.6643 12.2489 18.3732 15.9579 18.3732 20.517C18.3732 21.3613 17.6864 22.0482 16.8421 22.0482Z" fill="black"/>
</svg>
